<?xml version="1.0" standalone="no"?>
<!DOCTYPE svg PUBLIC "-//W3C//DTD SVG 1.1//EN" "http://www.w3.org/Graphics/SVG/1.1/DTD/svg11.dtd" >
<svg xmlns="http://www.w3.org/2000/svg" xmlns:xlink="http://www.w3.org/1999/xlink" version="1.1">
<metadata>
Created by FontForge 20170731 at Tue Jun 21 10:31:33 2022
 By Aleksey,,,
</metadata>
<defs>
<font id="Figtree-Bold" horiz-adv-x="568" >
  <font-face 
    font-family="Figtree"
    font-weight="700"
    font-stretch="normal"
    units-per-em="1000"
    panose-1="0 0 0 0 0 0 0 0 0 0"
    ascent="800"
    descent="-200"
    x-height="500"
    cap-height="700"
    bbox="-179 -220 1100 949"
    underline-thickness="50"
    underline-position="-175"
    unicode-range="U+000D-2265"
  />
<missing-glyph horiz-adv-x="600" 
 />
    <glyph glyph-name=".notdef" horiz-adv-x="600" 
 />
    <glyph glyph-name=".null" horiz-adv-x="600" 
 />
    <glyph glyph-name="nonmarkingreturn" horiz-adv-x="333" 
 />
    <glyph glyph-name="CR" unicode="&#xd;" horiz-adv-x="600" 
 />
    <glyph glyph-name="space" unicode=" " horiz-adv-x="238" 
 />
    <glyph glyph-name="exclam" unicode="!" horiz-adv-x="312" 
d="M92 228l-9 472h146l-9 -472h-128zM156 -15q-33 0 -56.5 23.5t-23.5 56.5t23.5 56.5t56.5 23.5t56.5 -23.5t23.5 -56.5t-23.5 -56.5t-56.5 -23.5z" />
    <glyph glyph-name="quotedbl" unicode="&#x22;" horiz-adv-x="412" 
d="M74 460l-14 256h125l-14 -256h-97zM241 460l-14 256h125l-14 -256h-97z" />
    <glyph glyph-name="numbersign" unicode="#" horiz-adv-x="631" 
d="M106 0l29 181h-125l13 93h126l21 133h-127l16 93h126l31 200h97l-31 -200h118l31 200h97l-31 -200h124l-16 -93h-123l-21 -133h124l-13 -93h-125l-29 -181h-97l29 181h-118l-29 -181h-97zM246 274h118l21 133h-118z" />
    <glyph glyph-name="dollar" unicode="$" horiz-adv-x="554" 
d="M231 -103v131q-76 12 -128 52.5t-63 90.5l122 36q11 -30 40.5 -51.5t74.5 -22.5q47 -1 76.5 20t29.5 56q0 28 -23.5 48t-64.5 31l-82 20q-70 18 -112 63t-42 116q0 78 44.5 126t127.5 60v107h110v-108q65 -11 108 -47.5t64 -92.5l-122 -37q-10 29 -38.5 50.5t-72.5 21.5
q-43 0 -68 -20.5t-25 -56.5q0 -29 19.5 -46.5t53.5 -25.5l83 -21q81 -20 125.5 -71.5t44.5 -114.5q0 -73 -44.5 -121.5t-127.5 -61.5v-131h-110z" />
    <glyph glyph-name="percent" unicode="%" horiz-adv-x="813" 
d="M204 370q-48 0 -84.5 22t-57.5 61t-21 90q0 50 21 89t57.5 61.5t84.5 22.5q47 0 84 -22.5t57.5 -61.5t20.5 -89q0 -51 -20.5 -90t-57.5 -61t-84 -22zM90 0l497 700h132l-500 -700h-129zM204 464q33 0 53.5 22.5t20.5 56.5t-20.5 56t-53.5 22q-34 0 -54.5 -22t-20.5 -56
t20.5 -56.5t54.5 -22.5zM609 -15q-47 0 -84 22t-57.5 61t-20.5 90q0 50 20.5 89t57.5 61.5t84 22.5q48 0 84.5 -22.5t57.5 -61.5t21 -89q0 -51 -21 -90t-57.5 -61t-84.5 -22zM609 79q33 0 54 22.5t21 56.5t-21 56t-54 22t-53.5 -22t-20.5 -56t20.5 -56.5t53.5 -22.5z" />
    <glyph glyph-name="ampersand" unicode="&#x26;" horiz-adv-x="647" 
d="M254 -13q-62 0 -110 24t-75 66t-27 97q0 56 31 101t78 77l34 24l-14 16q-42 52 -60 86.5t-18 69.5q0 48 25.5 85t69 58.5t97.5 21.5q59 0 105 -21.5t72.5 -59.5t26.5 -89q0 -52 -34.5 -95t-99.5 -91l51 -61l66 -80q19 39 19 86l123 -1q0 -53 -15.5 -99t-44.5 -84l97 -118
h-154l-33 40q-43 -26 -96.5 -39.5t-113.5 -13.5zM273 456l11 -13q15 11 34 25.5t33 33.5t14 44q0 29 -21 45.5t-53 16.5q-30 0 -50.5 -17t-20.5 -44q0 -26 16 -45.5t37 -45.5zM178 177q0 -34 23.5 -56t60.5 -22q69 0 126 32l-77 91l-54 66l-20 -14q-24 -17 -41.5 -40.5
t-17.5 -56.5z" />
    <glyph glyph-name="quotesingle" unicode="'" horiz-adv-x="245" 
d="M74 460l-14 256h125l-14 -256h-97z" />
    <glyph glyph-name="parenleft" unicode="(" horiz-adv-x="382" 
d="M214 -100q-46 61 -84 132.5t-60 151.5t-22 166q0 87 22 166.5t60 151t84 132.5h130q-46 -64 -84 -137t-60 -151.5t-22 -161.5q0 -82 22 -161t60 -151.5t84 -137.5h-130z" />
    <glyph glyph-name="parenright" unicode=")" horiz-adv-x="382" 
d="M168 -100h-130q47 65 84.5 137.5t59.5 151.5t22 161q0 83 -22 161.5t-59.5 151.5t-84.5 137h130q47 -61 84.5 -132.5t59.5 -151t22 -166.5q0 -86 -22 -166t-59.5 -151.5t-84.5 -132.5z" />
    <glyph glyph-name="asterisk" unicode="*" horiz-adv-x="488" 
d="M174 351l-78 57l87 102l-131 32l30 92l124 -52l-10 134h96l-11 -134l125 51l30 -91l-129 -31l87 -101l-78 -57l-70 115z" />
    <glyph glyph-name="plus" unicode="+" horiz-adv-x="574" 
d="M234 67v177h-178v107h178v178h107v-178h177v-107h-177v-177h-107z" />
    <glyph glyph-name="comma" unicode="," horiz-adv-x="257" 
d="M29 -114l61 236h137l-98 -236h-100z" />
    <glyph glyph-name="hyphen" unicode="-" horiz-adv-x="408" 
d="M54 241v113h300v-113h-300z" />
    <glyph glyph-name="period" unicode="." horiz-adv-x="248" 
d="M124 -15q-32 0 -56 24t-24 57q0 32 24 56t56 24q33 0 56.5 -24t23.5 -56q0 -33 -23.5 -57t-56.5 -24z" />
    <glyph glyph-name="slash" unicode="/" horiz-adv-x="432" 
d="M15 -84l276 831h126l-274 -831h-128z" />
    <glyph glyph-name="zero" unicode="0" horiz-adv-x="648" 
d="M324 -12q-85 0 -150 46.5t-102 128t-37 187.5t36.5 187.5t101.5 128t150 46.5t150.5 -46.5t102.5 -128t37 -187.5t-37 -187.5t-102 -128t-150 -46.5zM324 112q45 0 80.5 30.5t55.5 84t20 123.5t-20.5 124t-55.5 84.5t-81 30.5q-45 0 -80 -30.5t-54.5 -84.5t-19.5 -124
t19.5 -123.5t54.5 -84t81 -30.5z" />
    <glyph glyph-name="one" unicode="1" horiz-adv-x="422" 
d="M195 0v526q-34 -24 -71 -37t-77 -10v124q25 -2 54 12.5t57.5 38t49.5 47.5l2 -1h116l-1 -700h-130z" />
    <glyph glyph-name="two" unicode="2" horiz-adv-x="579" 
d="M51 0v101q0 44 39 99t104 100l106 76q32 22 59 54.5t27 64.5q0 39 -28 65.5t-80 26.5q-46 0 -75 -26t-38 -61l-141 24q10 50 43.5 93t86.5 69.5t121 26.5q78 0 134 -28t86.5 -76.5t30.5 -112.5q0 -65 -36 -115t-97 -95l-95 -69q-27 -18 -51.5 -41.5t-40.5 -55.5h329v-120
h-484z" />
    <glyph glyph-name="three" unicode="3" horiz-adv-x="556" 
d="M281 -12q-93 0 -158 41t-84 112l126 37q7 -13 19 -30t33 -29t55 -12q50 0 79.5 27.5t29.5 71.5t-34.5 72.5t-116.5 28.5h-42v112h42q70 0 104 24t34 66q0 35 -27 59.5t-70 24.5q-29 0 -58 -14.5t-44 -54.5l-124 37q14 49 48.5 82.5t82 51t99.5 17.5q65 0 116.5 -24.5
t82 -67.5t30.5 -99q0 -55 -31 -94t-81 -62q57 -26 91.5 -71t34.5 -104q0 -64 -33 -109t-87 -69t-117 -24z" />
    <glyph glyph-name="four" unicode="4" horiz-adv-x="633" 
d="M26 138v109l310 453l1 -1v1h144v-445h122v-117h-122v-138h-129v138h-326zM167 255h185v271z" />
    <glyph glyph-name="five" unicode="5" horiz-adv-x="581" 
d="M293 -12q-48 0 -98.5 16t-91 48t-59.5 79l125 37q22 -32 52.5 -47t63.5 -15q52 0 84.5 32t32.5 84q0 49 -31.5 82t-83.5 33q-32 0 -57.5 -14t-39.5 -33l-123 27l42 383h396v-124h-277l-24 -170q27 16 60 26t73 9q57 -1 103.5 -28t74.5 -74.5t28 -110.5q0 -71 -32 -125
t-88.5 -84.5t-129.5 -30.5z" />
    <glyph glyph-name="six" unicode="6" horiz-adv-x="580" 
d="M299 -12q-94 0 -152 44t-84 119t-26 166q0 80 16.5 151.5t51.5 126.5t89 86t130 31q115 0 202 -62l-68 -100q-31 22 -66.5 32t-65.5 10q-67 0 -110 -52t-51 -163q27 33 67 52.5t89 19.5q67 0 118.5 -31t81 -84.5t29.5 -119.5t-31 -117t-87.5 -80t-132.5 -29zM299 104
q49 0 82 32.5t33 83.5q0 50 -33 84t-82 34q-50 0 -83 -34t-33 -84q0 -51 33 -83.5t83 -32.5z" />
    <glyph glyph-name="seven" unicode="7" horiz-adv-x="556" 
d="M93 0l282 575h-342v125h493v-101l-281 -599h-152z" />
    <glyph glyph-name="eight" unicode="8" horiz-adv-x="612" 
d="M305 -12q-127 0 -195 54t-68 140q0 63 31.5 110.5t90.5 73.5q-48 23 -73.5 63.5t-25.5 92.5q0 84 63.5 137t176.5 53q114 0 178 -53t64 -137q0 -52 -26 -92.5t-74 -63.5q60 -26 91.5 -73.5t31.5 -110.5q0 -86 -69 -140t-196 -54zM305 414q48 0 78.5 25.5t30.5 66.5
q0 43 -30.5 69.5t-78.5 26.5q-47 0 -77 -26.5t-30 -69.5q0 -41 30 -66.5t77 -25.5zM305 102q55 0 90 27.5t35 70.5q0 47 -35 76t-90 29q-54 0 -88.5 -29t-34.5 -76q0 -43 34.5 -70.5t88.5 -27.5z" />
    <glyph glyph-name="nine" unicode="9" horiz-adv-x="580" 
d="M281 711q94 0 151.5 -44t84 -118.5t26.5 -165.5q0 -81 -17 -152.5t-51.5 -126t-89 -86t-129.5 -31.5q-115 0 -202 62l67 100q32 -21 67.5 -31.5t64.5 -10.5q68 0 111 52t51 164q-27 -34 -67 -53.5t-90 -19.5q-66 0 -117.5 31.5t-81 84.5t-29.5 120q0 65 31 116t87.5 80
t132.5 29zM281 596q-50 0 -82.5 -33t-32.5 -83q0 -51 32.5 -84.5t82.5 -33.5t83 33.5t33 84.5q0 50 -33 83t-83 33z" />
    <glyph glyph-name="colon" unicode=":" horiz-adv-x="301" 
d="M150 340q-33 0 -56.5 24t-23.5 57q0 32 23.5 56t56.5 24t56.5 -24t23.5 -56q0 -33 -23.5 -57t-56.5 -24zM151 -1q-33 0 -56.5 23.5t-23.5 56.5t23.5 56.5t56.5 23.5t56.5 -23.5t23.5 -56.5t-23.5 -56.5t-56.5 -23.5z" />
    <glyph glyph-name="semicolon" unicode=";" horiz-adv-x="305" 
d="M149 338q-32 0 -56 24t-24 56q0 33 24 56.5t56 23.5q33 0 56.5 -23.5t23.5 -56.5q0 -32 -23.5 -56t-56.5 -24zM35 -114l61 236h137l-98 -236h-100z" />
    <glyph glyph-name="less" unicode="&#x3c;" horiz-adv-x="529" 
d="M443 518v-119l-245 -101l245 -99v-120l-373 163v111z" />
    <glyph glyph-name="equal" unicode="=" horiz-adv-x="592" 
d="M96 344v107h400v-107h-400zM96 144v107h400v-107h-400z" />
    <glyph glyph-name="greater" unicode="&#x3e;" horiz-adv-x="529" 
d="M86 79v119l245 101l-245 99v119l373 -163v-110z" />
    <glyph glyph-name="question" unicode="?" horiz-adv-x="513" 
d="M163 201l-3 133l-2 43l74 5q52 3 85.5 30t33.5 79q0 44 -31.5 73t-80.5 29q-35 0 -61 -17.5t-35 -43.5l-120 34q20 66 76.5 106t139.5 40q70 0 124 -28.5t84.5 -78t30.5 -114.5q0 -81 -51.5 -133t-135.5 -63l-2 -94h-126zM226 -15q-33 0 -56.5 23.5t-23.5 57.5
q0 33 23.5 56.5t56.5 23.5t56.5 -23.5t23.5 -56.5q0 -34 -23.5 -57.5t-56.5 -23.5z" />
    <glyph glyph-name="at" unicode="@" horiz-adv-x="992" 
d="M456 14q-61 0 -108 30.5t-73.5 84.5t-26.5 123q0 70 26.5 123.5t73.5 83.5t108 30q46 0 85 -16.5t67 -47.5v54h110v-361q0 -25 12 -35.5t31 -10.5q43 0 70.5 50.5t27.5 129.5q0 108 -44 191t-121.5 130t-177.5 47q-84 0 -154.5 -27t-121.5 -76.5t-79 -116.5t-28 -148
q0 -80 28 -147.5t79 -116.5t121.5 -76t154.5 -27q35 0 75 10.5t67 27.5l54 -77q-42 -25 -97 -40.5t-99 -15.5q-106 0 -194 34t-152.5 96t-99.5 146.5t-35 185.5q0 102 35 186.5t99.5 146.5t152.5 96t194 34q97 0 177.5 -34t139.5 -96t91.5 -146.5t32.5 -186.5
q0 -78 -26.5 -138t-72.5 -94.5t-106 -34.5q-54 0 -91 27.5t-45 74.5q-29 -34 -70 -53.5t-90 -19.5zM497 124q46 0 77.5 30.5t37.5 79.5l-1 41q-7 47 -40 76t-80 29q-52 0 -85.5 -35.5t-33.5 -91.5q0 -57 35.5 -93t89.5 -36z" />
    <glyph glyph-name="A" unicode="A" horiz-adv-x="714" 
d="M8 0l276 700h146l276 -700h-145l-59 154h-290l-59 -154h-145zM258 275h198l-99 258z" />
    <glyph glyph-name="B" unicode="B" horiz-adv-x="612" 
d="M76 0v700h134v0l103 1q108 0 174 -50.5t66 -149.5q0 -40 -20.5 -75t-57.5 -61q49 -24 75.5 -65t26.5 -100q0 -96 -63.5 -148t-168.5 -52h-269zM305 591h-95v-176h106q45 0 71 23t26 65t-29 65.5t-79 22.5zM321 303h-104h-7v-182h122q49 0 77 24.5t28 65.5q0 43 -31 68
t-85 24z" />
    <glyph glyph-name="C" unicode="C" horiz-adv-x="725" 
d="M385 -12q-102 0 -181 46.5t-124 128t-45 187.5t44.5 187.5t123.5 128t181 46.5q72 0 134 -25.5t108.5 -71t71.5 -104.5l-127 -47q-26 55 -75.5 89t-111.5 34q-61 0 -108.5 -30.5t-74 -83.5t-26.5 -123t27 -123.5t75 -84t110 -30.5q64 0 112 36t74 93l127 -46
q-25 -62 -71.5 -108.5t-108.5 -72.5t-135 -26z" />
    <glyph glyph-name="D" unicode="D" horiz-adv-x="700" 
d="M76 0v700h224q107 0 189 -44.5t129 -123.5t47 -182q0 -102 -47 -181t-129 -124t-189 -45h-224zM300 572h-87v-444h87q64 0 115 29.5t80.5 79.5t29.5 113t-29.5 113t-80.5 79.5t-115 29.5z" />
    <glyph glyph-name="E" unicode="E" horiz-adv-x="589" 
d="M76 0v700h443v-125h-306v-159h264v-122h-264v-169h310v-125h-447z" />
    <glyph glyph-name="F" unicode="F" horiz-adv-x="554" 
d="M76 0v700h449v-125h-312v-168h260v-125h-260v-282h-137z" />
    <glyph glyph-name="G" unicode="G" horiz-adv-x="743" 
d="M401 -12q-107 0 -190 46.5t-129.5 128t-46.5 187.5t46.5 187.5t129.5 128t190 46.5q96 0 168.5 -42t114.5 -106l-112 -70q-26 41 -74 67t-97 26q-66 0 -117 -30.5t-80 -84t-29 -122.5q0 -70 28.5 -123.5t80 -84t120.5 -30.5q76 0 127 43t56 113h-163v107h294v-85v0
q-2 -96 -43 -163.5t-112 -103t-162 -35.5z" />
    <glyph glyph-name="H" unicode="H" horiz-adv-x="750" 
d="M76 0v701l137 -1v-279h324v279h137v-700h-137v295h-324v-296z" />
    <glyph glyph-name="I" unicode="I" horiz-adv-x="289" 
d="M76 0v700h137v-700h-137z" />
    <glyph glyph-name="J" unicode="J" horiz-adv-x="552" 
d="M231 -14q-68 0 -115 28t-73.5 68t-34.5 77l120 45q11 -44 37.5 -68.5t67.5 -24.5q30 0 57 14t43.5 44.5t16.5 80.5v450h136v-490q0 -70 -33.5 -120t-91 -77t-130.5 -27z" />
    <glyph glyph-name="K" unicode="K" horiz-adv-x="666" 
d="M76 0v700h135v-277l259 277h177l-295 -316l306 -384h-169l-226 289l-52 -55v-234h-135z" />
    <glyph glyph-name="L" unicode="L" horiz-adv-x="537" 
d="M76 0v700h137v-575h308v-125h-445z" />
    <glyph glyph-name="M" unicode="M" horiz-adv-x="857" 
d="M76 0v700h137v-1l12 1l204 -302l204 302l12 -1v1h136v-700h-136v485l-216 -317l-216 316v-484h-137z" />
    <glyph glyph-name="N" unicode="N" horiz-adv-x="773" 
d="M76 0v700h143l342 -472v472h136v-700h-136l-348 480v-481z" />
    <glyph glyph-name="O" unicode="O" horiz-adv-x="787" 
d="M396 -12q-106 0 -187.5 46t-127.5 128t-46 187q0 107 46 188.5t126.5 127.5t185.5 46t186 -46t127 -128t46 -188q0 -105 -45.5 -187t-126 -128t-184.5 -46zM396 113q63 0 112 30.5t76.5 83.5t27.5 122q0 70 -28 123t-77.5 83.5t-113.5 30.5t-113 -30.5t-77 -83.5
t-28 -123q0 -69 28 -122t78 -83.5t115 -30.5z" />
    <glyph glyph-name="P" unicode="P" horiz-adv-x="603" 
d="M76 0v700h121l139 1q74 0 131 -30t89 -82.5t32 -121.5t-31 -122t-85.5 -83t-124.5 -30h-134v-232h-137zM333 575h-120v-217h131q46 0 75.5 30.5t29.5 78.5t-32.5 78.5t-83.5 29.5z" />
    <glyph glyph-name="Q" unicode="Q" horiz-adv-x="789" 
d="M396 -12q-106 0 -187.5 46t-127.5 128t-46 187q0 107 46 188.5t126.5 128t185.5 46.5t186 -46.5t127 -128.5t46 -188q0 -69 -20.5 -129t-57.5 -106l70 -71l-86 -85l-76 77q-40 -22 -87 -34.5t-99 -12.5zM396 113q49 0 91 19l-87 88l88 83l89 -90q35 59 35 136
q0 70 -28 123.5t-77.5 84t-113.5 30.5t-113 -30.5t-77 -84t-28 -123.5q0 -69 28 -122t78 -83.5t115 -30.5z" />
    <glyph glyph-name="R" unicode="R" horiz-adv-x="645" 
d="M76 0v700h121l139 1q74 1 131 -28.5t89 -80.5t32 -118q0 -69 -36.5 -122t-97.5 -80l162 -272h-155l-143 248h-105v-248h-137zM330 575h-117v-202h124q46 0 77.5 28.5t31.5 72.5q0 45 -32.5 73t-83.5 28z" />
    <glyph glyph-name="S" unicode="S" horiz-adv-x="607" 
d="M311 -12q-71 0 -129 23t-95 60t-47 80l134 40q13 -34 46 -59t83 -25q53 -1 86.5 23t33.5 62q0 33 -26.5 56t-72.5 34l-91 24q-77 19 -125 68.5t-48 127.5q0 99 65.5 154.5t185.5 55.5q100 0 163.5 -43t90.5 -117l-133 -41q-12 34 -44 58t-81 24q-50 0 -78.5 -23.5
t-28.5 -64.5q0 -33 22.5 -52.5t61.5 -28.5l92 -23q90 -22 140 -79t50 -127q0 -93 -66.5 -150t-188.5 -57z" />
    <glyph glyph-name="T" unicode="T" horiz-adv-x="584" 
d="M224 0v575h-210v125h556v-125h-209v-575h-137z" />
    <glyph glyph-name="U" unicode="U" horiz-adv-x="704" 
d="M66 261v439h137v-439q0 -68 40.5 -108t108.5 -40q67 0 108 40t41 108v439h137v-439q0 -84 -35.5 -145.5t-100 -95.5t-152.5 -34q-87 0 -150.5 34t-98.5 95.5t-35 145.5z" />
    <glyph glyph-name="V" unicode="V" horiz-adv-x="722" 
d="M287 0l-279 700h147l206 -544l206 544h147l-278 -700h-149z" />
    <glyph glyph-name="W" unicode="W" horiz-adv-x="985" 
d="M215 0l-207 700h139l142 -498l135 498h136l137 -490l141 490h139l-209 -700h-144l-132 493l-134 -493h-143z" />
    <glyph glyph-name="X" unicode="X" horiz-adv-x="679" 
d="M10 0l254 359l-249 341h163l162 -232l161 232h163l-248 -341l253 -359h-165l-164 247l-165 -247h-165z" />
    <glyph glyph-name="Y" unicode="Y" horiz-adv-x="647" 
d="M255 0v295l-248 405h156l160 -269l161 269h156l-248 -404v-296h-137z" />
    <glyph glyph-name="Z" unicode="Z" horiz-adv-x="632" 
d="M38 0v128l379 444h-376v128h553v-128l-378 -444h375v-128h-553z" />
    <glyph glyph-name="bracketleft" unicode="[" horiz-adv-x="344" 
d="M76 -100v900h212v-119h-96v-662h96v-119h-212z" />
    <glyph glyph-name="backslash" unicode="\" horiz-adv-x="432" 
d="M417 -84h-128l-274 831h126z" />
    <glyph glyph-name="bracketright" unicode="]" horiz-adv-x="344" 
d="M268 -100h-212v119h96v662h-96v119h212v-900z" />
    <glyph glyph-name="asciicircum" unicode="^" horiz-adv-x="581" 
d="M74 373l155 327h121l157 -327h-116l-101 204l-99 -204h-117z" />
    <glyph glyph-name="underscore" unicode="_" horiz-adv-x="434" 
d="M17 -113v113h400v-113h-400z" />
    <glyph glyph-name="grave" unicode="`" horiz-adv-x="263" 
d="M264 562h-133l-131 139h148z" />
    <glyph glyph-name="a" unicode="a" horiz-adv-x="535" 
d="M228 -12q-90 0 -139.5 40t-49.5 113q0 80 53 120.5t149 40.5h117q-7 47 -29.5 72.5t-65.5 25.5q-32 0 -57.5 -13.5t-42.5 -43.5l-111 39q14 32 41 62t69.5 49t102.5 19q112 0 167.5 -60.5t55.5 -175.5v-276h-123l-1 54q-21 -32 -54.5 -49t-81.5 -17zM247 93q33 0 58.5 16
t40.5 42t15 54h1v3h-79q-66 0 -91.5 -17t-25.5 -46q0 -25 21.5 -38.5t59.5 -13.5z" />
    <glyph glyph-name="b" unicode="b" horiz-adv-x="596" 
d="M57 0v700h132v-268q25 39 63 59.5t88 20.5q69 0 119.5 -32t78.5 -91t28 -139t-28 -139t-78.5 -91t-119.5 -32q-51 0 -89.5 21.5t-63.5 60.5l-5 -70h-125zM306 109q53 0 88 39.5t35 101.5t-34.5 101t-87.5 39q-52 0 -85 -39t-33 -101t33 -101.5t84 -39.5z" />
    <glyph glyph-name="c" unicode="c" horiz-adv-x="546" 
d="M298 -12q-79 0 -139 33.5t-94.5 92.5t-34.5 136t34 136t94 92.5t138 33.5q75 0 136.5 -37.5t90.5 -106.5l-124 -44q-14 29 -43.5 46.5t-65.5 17.5q-55 0 -90 -38.5t-35 -99.5t35.5 -99.5t91.5 -38.5q36 0 65.5 19t43.5 50l125 -44q-29 -71 -90.5 -110t-137.5 -39z" />
    <glyph glyph-name="d" unicode="d" horiz-adv-x="595" 
d="M256 -12q-69 0 -119.5 32t-78.5 91t-28 139t28 139t78.5 91t119.5 32q50 0 87.5 -20.5t62.5 -58.5v267h132v-700h-125l-5 69q-25 -39 -63.5 -60t-88.5 -21zM290 109q48 0 80 35t36 91v30q-4 56 -36.5 90.5t-80.5 34.5q-54 0 -88 -39t-34 -101t34.5 -101.5t88.5 -39.5z
" />
    <glyph glyph-name="e" unicode="e" horiz-adv-x="567" 
d="M291 -12q-74 0 -131 33.5t-89 92.5t-32 136t33 136t91 92.5t134 33.5q65 0 120 -34.5t88.5 -100.5t33.5 -159h-365q8 -56 44.5 -85.5t85.5 -29.5q40 0 66 18.5t41 46.5l116 -46q-32 -63 -90.5 -98.5t-145.5 -35.5zM292 401q-89 0 -112 -85h220q-14 45 -42 65t-66 20z" />
    <glyph glyph-name="f" unicode="f" horiz-adv-x="393" 
d="M107 0v394h-83v106h83v50q0 80 41 124.5t125 44.5q29 0 61.5 -10t59.5 -24l-49 -95q-31 16 -53 16q-27 0 -40 -18.5t-13 -59.5v-28h123v-106h-123v-394h-132z" />
    <glyph glyph-name="g" unicode="g" horiz-adv-x="592" 
d="M256 14q-69 0 -119.5 30t-78.5 84t-28 128q0 78 28 135.5t78.5 89t119.5 31.5q51 0 91 -23.5t65 -66.5v78h132v-446q0 -127 -70.5 -197t-191.5 -70q-87 0 -141.5 17.5t-82.5 37.5l52 106q21 -12 62 -28t104 -16q59 0 97.5 35t38.5 111v48q-25 -40 -65 -62t-91 -22z
M294 125q51 0 82 38t31 97t-31.5 96.5t-82.5 37.5q-53 0 -86 -37.5t-34 -96.5q1 -59 34.5 -97t86.5 -38z" />
    <glyph glyph-name="h" unicode="h" horiz-adv-x="570" 
d="M58 0l-1 706h132v-270q51 76 145 76q91 0 139.5 -55.5t48.5 -170.5v-286h-132v256q0 75 -26 103t-68 29q-51 1 -78.5 -31.5t-27.5 -94.5v0v-262h-132z" />
    <glyph glyph-name="i" unicode="i" horiz-adv-x="262" 
d="M65 0v500h132v-500h-132zM131 581q-31 0 -53.5 22.5t-22.5 53.5t22.5 53.5t53.5 22.5t53.5 -22.5t22.5 -53.5t-22.5 -53.5t-53.5 -22.5z" />
    <glyph glyph-name="j" unicode="j" horiz-adv-x="291" 
d="M158 578q-32 0 -55 23t-23 55t23 55t55 23t55 -23t23 -55t-23 -55t-55 -23zM47 -215q-57 0 -109 31l53 109q34 -17 53 -17q48 0 48 63v529h132v-538q0 -85 -46 -131t-131 -46z" />
    <glyph glyph-name="k" unicode="k" horiz-adv-x="538" 
d="M57 0v700h132v-388l171 188h157l-189 -211l204 -289h-155l-134 194l-54 -61v-133h-132z" />
    <glyph glyph-name="l" unicode="l" horiz-adv-x="247" 
d="M57 0l1 700h132l-1 -700h-132z" />
    <glyph glyph-name="m" unicode="m" horiz-adv-x="900" 
d="M57 0v500h124l6 -67q51 79 146 79q129 0 170 -108q48 108 162 108q91 0 139.5 -55.5t47.5 -170.5v-286h-132v256q0 75 -26 103t-68 29q-51 1 -78.5 -31.5t-27.5 -94.5v-262h-132v256q0 75 -25.5 103t-67.5 29q-51 1 -78.5 -31.5t-27.5 -94.5v-262h-132z" />
    <glyph glyph-name="n" unicode="n" 
d="M57 0v500h124l6 -67q51 79 146 79q91 0 139.5 -55.5t47.5 -170.5v-286h-132v256q0 75 -25.5 103t-67.5 29q-51 1 -78.5 -31.5t-27.5 -94.5v-262h-132z" />
    <glyph glyph-name="o" unicode="o" horiz-adv-x="599" 
d="M301 -12q-77 0 -136 33.5t-92.5 92.5t-33.5 136t33 136t92 92.5t135 33.5q77 0 136 -33.5t92 -92.5t33 -136t-33 -136t-91.5 -92.5t-134.5 -33.5zM301 110q54 0 89 39t35 101t-35.5 101t-90.5 39t-90 -39t-35 -101t35.5 -101t91.5 -39z" />
    <glyph glyph-name="p" unicode="p" horiz-adv-x="601" 
d="M62 -200v700h124l6 -70q25 39 63.5 60.5t89.5 21.5q69 0 119.5 -32t78.5 -91t28 -139t-28 -139t-78.5 -91t-119.5 -32q-50 0 -88 20.5t-63 59.5v-268h-132zM311 109q53 0 88 39.5t35 101.5t-34.5 101t-87.5 39q-52 0 -85 -39t-33 -101t33 -101.5t84 -39.5z" />
    <glyph glyph-name="q" unicode="q" horiz-adv-x="592" 
d="M256 -12q-69 0 -119.5 32t-78.5 91t-28 139t28 139t78.5 91t119.5 32q51 0 89.5 -21.5t63.5 -60.5l5 70h125v-700h-132v268q-25 -39 -63 -59.5t-88 -20.5zM290 109q51 0 84 39.5t33 101.5t-33 101t-85 39q-54 0 -88 -39t-34 -101t34.5 -101.5t88.5 -39.5z" />
    <glyph glyph-name="r" unicode="r" horiz-adv-x="379" 
d="M57 0v500h132v-92q31 48 78.5 71t98.5 23v-128q-46 0 -86.5 -11.5t-65.5 -36t-25 -63.5v-263h-132z" />
    <glyph glyph-name="s" unicode="s" horiz-adv-x="474" 
d="M244 -12q-74 0 -130.5 32.5t-81.5 90.5l107 49q15 -25 42 -42t62 -17q34 0 54 10t20 30q0 19 -16 29t-42 17l-47 12q-72 19 -113 60t-41 94q0 75 49 117t141 42q69 0 123.5 -31t71.5 -79l-104 -47q-8 21 -35.5 33t-56.5 12t-45 -12t-16 -33q0 -27 58 -40l63 -16
q49 -12 79 -38t44 -58t14 -64q0 -45 -26 -79t-71 -53t-103 -19z" />
    <glyph glyph-name="t" unicode="t" horiz-adv-x="406" 
d="M273 -12q-83 0 -125.5 41t-42.5 117v242h-81v112h81v156h132v-156h125v-112h-125v-213q0 -65 55 -65q21 0 47 18l46 -99q-25 -18 -54 -29.5t-58 -11.5z" />
    <glyph glyph-name="u" unicode="u" 
d="M180 244q0 -75 25.5 -103t67.5 -29q52 -1 79 31.5t27 94.5v262h132v-500h-124l-5 67q-51 -79 -147 -79q-91 0 -139.5 55.5t-47.5 170.5v286h132v-256z" />
    <glyph glyph-name="v" unicode="v" horiz-adv-x="556" 
d="M212 0l-205 500h136l135 -355l135 355h136l-205 -500h-132z" />
    <glyph glyph-name="w" unicode="w" horiz-adv-x="835" 
d="M180 0l-170 500h134l104 -327l105 327h130l102 -320l106 320h134l-170 -500h-130l-107 342l-108 -342h-130z" />
    <glyph glyph-name="x" unicode="x" horiz-adv-x="532" 
d="M8 0l186 259l-173 241h156l90 -134l89 134h156l-172 -242l184 -258h-157l-100 152l-101 -152h-158z" />
    <glyph glyph-name="y" unicode="y" horiz-adv-x="576" 
d="M157 -212q-27 0 -59.5 10.5t-57.5 24.5l49 107q17 -9 31.5 -14.5t25.5 -5.5q44 0 63 45l21 50l-226 495h145l142 -346l136 346h145l-227 -543q-21 -50 -43.5 -88.5t-56.5 -59.5t-88 -21z" />
    <glyph glyph-name="z" unicode="z" horiz-adv-x="477" 
d="M32 0v96l249 295h-249v109h412v-95l-250 -297h251v-108h-413z" />
    <glyph glyph-name="braceleft" unicode="{" horiz-adv-x="394" 
d="M340 -100q-58 0 -95.5 13t-58.5 45t-29.5 88t-8.5 142q0 45 -8 69.5t-28 34t-58 9.5v98q38 0 58 9.5t28 34t8 69.5q0 86 8.5 142t29.5 88t58.5 45t95.5 13v-106q-31 -1 -47.5 -16t-22.5 -54t-6 -111q0 -73 -19.5 -111t-72.5 -52q54 -14 73 -52t19 -111q0 -72 6.5 -111
t23 -54t46.5 -16v-106z" />
    <glyph glyph-name="bar" unicode="|" horiz-adv-x="256" 
d="M76 -220v1010h104v-1010h-104z" />
    <glyph glyph-name="braceright" unicode="}" horiz-adv-x="394" 
d="M54 -100v106q30 1 46.5 16t23 54t6.5 111q0 73 19 111t73 52q-53 14 -72.5 52t-19.5 111q0 72 -6 111t-22.5 54t-47.5 16v106q58 0 95.5 -13t58.5 -45t29.5 -88t8.5 -142q0 -45 8 -69.5t28 -34t58 -9.5v-98q-38 0 -58 -9.5t-28 -34t-8 -69.5q0 -86 -8.5 -142t-29.5 -88
t-58.5 -45t-95.5 -13z" />
    <glyph glyph-name="asciitilde" unicode="~" horiz-adv-x="667" 
d="M379 366q11 -19 28.5 -37.5t38.5 -18.5q52 0 61 70h106q-2 -57 -23.5 -102t-58.5 -70.5t-85 -25.5q-56 0 -93 25.5t-59 58.5q-17 23 -32.5 40t-38.5 17q-29 0 -43.5 -19t-19.5 -51h-106q1 57 23 102t59 70.5t84 25.5q54 0 94 -19t65 -66z" />
    <glyph glyph-name="uni00A0" unicode="&#xa0;" horiz-adv-x="238" 
 />
    <glyph glyph-name="exclamdown" unicode="&#xa1;" horiz-adv-x="300" 
d="M220 269l9 -472h-146l9 472h128zM156 512q33 0 56.5 -23.5t23.5 -56.5t-23.5 -56.5t-56.5 -23.5t-56.5 23.5t-23.5 56.5t23.5 56.5t56.5 23.5z" />
    <glyph glyph-name="cent" unicode="&#xa2;" horiz-adv-x="541" 
d="M253 0v101q-66 9 -116.5 44.5t-78.5 90.5t-28 124q0 70 28 125t78.5 90t117.5 44v81h72v-80q66 -7 118.5 -43.5t78.5 -98.5l-124 -44q-22 45 -74 59v-267q53 15 76 65l125 -44q-27 -65 -80.5 -103t-120.5 -45v-99h-72zM165 360q0 -50 24 -85t64 -47v265
q-40 -12 -64 -47.5t-24 -85.5z" />
    <glyph glyph-name="sterling" unicode="&#xa3;" horiz-adv-x="595" 
d="M44 0v128h20q21 0 36 18t15 43v91h-71v107h71v106q0 107 62 163t162 56q96 0 157 -53t61 -159l-133 11q0 40 -24.5 63.5t-61.5 23.5q-41 0 -65.5 -28t-24.5 -77v-106h205v-107h-205v-79q0 -40 -24 -73h333v-128h-513z" />
    <glyph glyph-name="currency" unicode="&#xa4;" horiz-adv-x="598" 
d="M301 154q-54 0 -100 24l-59 -59l-73 74l57 58q-26 45 -26 99q0 55 27 100l-59 57l74 74l61 -60q44 23 97 23q51 0 94 -21l62 58l74 -74l-57 -54q28 -46 28 -103q0 -56 -27 -101l56 -56l-74 -74l-58 58q-44 -23 -97 -23zM301 266q36 0 58 23t22 61q0 37 -22 59.5t-59 22.5
q-35 0 -57.5 -22.5t-22.5 -59.5q0 -38 22.5 -61t58.5 -23z" />
    <glyph glyph-name="yen" unicode="&#xa5;" horiz-adv-x="596" 
d="M87 176v76h143v37h-143v76h106l-186 340h154l137 -268l137 268h154l-186 -340h105v-76h-141v-37h141v-76h-141v-176h-137v176h-143z" />
    <glyph glyph-name="brokenbar" unicode="&#xa6;" horiz-adv-x="304" 
d="M100 350v440h104v-440h-104zM100 -220v440h104v-440h-104z" />
    <glyph glyph-name="section" unicode="&#xa7;" horiz-adv-x="524" 
d="M267 -91q-55 0 -99.5 18t-73 46.5t-36.5 61.5l101 32q9 -28 36 -47.5t66 -20.5q42 0 68.5 18.5t26.5 49.5q0 26 -21 43.5t-57 27.5l-71 18q-59 15 -96.5 53t-37.5 98q0 83 60 126q-28 20 -44 49.5t-16 67.5q0 76 51 119t144 43q78 0 126 -33.5t69 -88.5l-100 -32
q-9 27 -34.5 45.5t-63.5 18.5q-41 0 -63.5 -18.5t-22.5 -51.5q0 -25 18.5 -40.5t48.5 -22.5l71 -18q69 -17 107.5 -61.5t38.5 -97.5q0 -81 -61 -124q61 -48 61 -119q0 -72 -50.5 -116t-145.5 -44zM245 247l10 -3q6 -1 11 -1q40 0 65 18t25 49q0 21 -14 36.5t-39 25.5
q-20 7 -42 7q-39 0 -60.5 -18.5t-21.5 -51.5q0 -25 18 -40t48 -22z" />
    <glyph glyph-name="dieresis" unicode="&#xa8;" horiz-adv-x="484" 
d="M113 593q-29 0 -49 20.5t-20 48.5t20 48.5t49 20.5q28 0 48 -20.5t20 -48.5t-20 -48.5t-48 -20.5zM371 593q-27 0 -47.5 20.5t-20.5 48.5t20.5 48.5t47.5 20.5q28 0 48.5 -20.5t20.5 -48.5t-20.5 -48.5t-48.5 -20.5z" />
    <glyph glyph-name="copyright" unicode="&#xa9;" horiz-adv-x="793" 
d="M397 -11q-78 0 -144 27t-115 76t-76 115t-27 143q0 78 27 144t76 115t115 76t144 27q77 0 143 -27t115 -76t76 -115t27 -144q0 -77 -27 -143t-76 -115t-115 -76t-143 -27zM397 77q78 0 138.5 35t95 96.5t34.5 141.5t-34.5 142t-95 97t-138.5 35t-138.5 -35t-95.5 -97
t-35 -142t35 -141.5t95.5 -96.5t138.5 -35zM397 152q-86 0 -136 53.5t-50 144.5t50 144.5t135 53.5q48 0 91 -25.5t66 -68.5l13 -26l-81 -31l-13 19q-13 20 -34 31.5t-42 11.5q-42 0 -67.5 -30t-25.5 -79t25.5 -79t68.5 -30q22 0 43.5 14.5t36.5 37.5l8 15l84 -30l-11 -21
q-23 -48 -67 -76.5t-94 -28.5z" />
    <glyph glyph-name="ordfeminine" unicode="&#xaa;" horiz-adv-x="337" 
d="M132 393q-53 0 -82 24t-29 68q0 46 29.5 69t81.5 23h77q-3 24 -14 38.5t-41 14.5q-16 0 -26.5 -7t-20.5 -21l-85 28q21 36 54 56.5t81 20.5q70 0 108.5 -38t38.5 -102v-167h-90l-1 31q-28 -38 -81 -38zM153 462q25 0 40 15.5t15 41.5l3 1v0h-44q-50 0 -50 -34
q0 -24 36 -24z" />
    <glyph glyph-name="guillemotleft" unicode="&#xab;" horiz-adv-x="632" 
d="M282 298l148 202h151l-143 -202l143 -202h-151zM47 298l148 202h151l-143 -202l143 -202h-151z" />
    <glyph glyph-name="logicalnot" unicode="&#xac;" horiz-adv-x="484" 
d="M52 279v109h366v-227h-109v118h-257z" />
    <glyph glyph-name="uni00AD" unicode="&#xad;" horiz-adv-x="408" 
d="M54 241v113h300v-113h-300z" />
    <glyph glyph-name="registered" unicode="&#xae;" horiz-adv-x="615" 
d="M308 157q-58 0 -108.5 21.5t-88.5 59.5t-59.5 88.5t-21.5 107.5q0 58 21.5 108.5t59.5 88.5t88.5 59.5t108.5 21.5q57 0 107.5 -21.5t88.5 -59.5t59.5 -88.5t21.5 -108.5q0 -57 -21.5 -107.5t-59.5 -88.5t-88.5 -59.5t-107.5 -21.5zM308 223q62 0 109 26.5t73.5 74.5
t26.5 110q0 63 -26.5 110.5t-73.5 74.5t-109 27q-63 0 -110 -27t-73.5 -74.5t-26.5 -110.5q0 -62 26.5 -110t73.5 -74.5t110 -26.5zM202 296v291l114 1q47 0 77 -27.5t30 -69.5q0 -29 -14.5 -51.5t-39.5 -33.5l66 -110h-74l-56 98h-38v-98h-65zM267 454h47q18 0 29.5 10.5
t11.5 26.5t-12 26.5t-31 10.5h-45v-74z" />
    <glyph glyph-name="macron" unicode="&#xaf;" horiz-adv-x="300" 
d="M-12 561v114h324v-114h-324z" />
    <glyph glyph-name="degree" unicode="&#xb0;" horiz-adv-x="378" 
d="M189 422q-41 0 -75.5 20t-55 54t-20.5 75q0 40 21 73t55 52.5t75 19.5q40 0 74.5 -19.5t55.5 -52.5t21 -73q0 -42 -21 -75.5t-55.5 -53.5t-74.5 -20zM189 510q22 0 38.5 18t16.5 43q0 23 -16.5 40t-38.5 17t-38.5 -17t-16.5 -40q0 -25 16.5 -43t38.5 -18z" />
    <glyph glyph-name="plusminus" unicode="&#xb1;" horiz-adv-x="574" 
d="M234 162v160h-178v101h178v161h107v-161h177v-101h-177v-160h-107zM56 18v92h462v-92h-462z" />
    <glyph glyph-name="uni00B2" unicode="&#xb2;" horiz-adv-x="367" 
d="M33 380v71q0 24 26.5 59t67.5 63l51 35q18 12 35 29t17 35q0 19 -14 32t-42 13q-21 0 -35.5 -13.5t-19.5 -31.5l-102 17q8 47 49.5 83t107.5 36q73 0 115 -37.5t42 -97.5q0 -43 -23.5 -73t-61.5 -56l-51 -35q-24 -17 -46 -42h187v-87h-303z" />
    <glyph glyph-name="uni00B3" unicode="&#xb3;" horiz-adv-x="355" 
d="M183 373q-61 0 -104 27.5t-52 78.5l94 21q6 -13 17.5 -27.5t38.5 -14.5q23 0 37 13t14 35q0 19 -14 33.5t-58 14.5h-33v80h33q36 0 51 12.5t15 33.5q0 18 -12.5 30t-33.5 12q-16 0 -31 -9.5t-22 -32.5l-92 21q6 35 28.5 58.5t54 35.5t65.5 12q39 0 71.5 -14.5t51.5 -41
t19 -60.5t-19 -57.5t-48 -37.5q33 -16 53.5 -42.5t20.5 -60.5q0 -39 -20.5 -65.5t-54 -40.5t-70.5 -14z" />
    <glyph glyph-name="acute" unicode="&#xb4;" horiz-adv-x="263" 
d="M1 562l114 138h148l-129 -138h-133z" />
    <glyph glyph-name="uni00B5" unicode="&#xb5;" 
d="M48 -200v700h132v-256q0 -75 25.5 -103t67.5 -29q52 -1 79 31.5t27 94.5v262h132v-500h-124l-4 50q-39 -62 -111 -62q-66 0 -104 49v-237h-120z" />
    <glyph glyph-name="paragraph" unicode="&#xb6;" horiz-adv-x="585" 
d="M366 -84h-96v316h-14q-70 0 -124.5 30t-85.5 83t-31 122t31 121.5t85.5 82t124.5 29.5h253v-784h-96v659h-47v-659z" />
    <glyph glyph-name="periodcentered" unicode="&#xb7;" horiz-adv-x="260" 
d="M129 257q-32 0 -56 24t-24 57q0 32 24 56t56 24q33 0 56.5 -24t23.5 -56q0 -33 -23.5 -57t-56.5 -24z" />
    <glyph glyph-name="cedilla" unicode="&#xb8;" horiz-adv-x="235" 
d="M106 -210q-48 0 -96 29l20 63q15 -8 29 -13t27 -5q17 0 29 6t12 21q0 36 -65 42l30 73l76 -6l-13 -29q70 -25 70 -84q0 -97 -119 -97z" />
    <glyph glyph-name="uni00B9" unicode="&#xb9;" horiz-adv-x="280" 
d="M119 380v296q-43 -26 -86 -22v90q22 -2 48 15t48 42l1 -1h83v-420h-94z" />
    <glyph glyph-name="ordmasculine" unicode="&#xba;" horiz-adv-x="362" 
d="M182 393q-47 0 -83.5 20t-57 55.5t-20.5 81.5q0 69 44.5 113t115.5 44q70 0 115 -44t45 -113q0 -46 -20.5 -81.5t-56 -55.5t-82.5 -20zM182 482q26 0 43.5 19t17.5 49t-17.5 49.5t-44.5 19.5t-44 -19.5t-17 -49.5t17 -49t45 -19z" />
    <glyph glyph-name="guillemotright" unicode="&#xbb;" horiz-adv-x="632" 
d="M350 298l-148 -202h-151l143 202l-143 202h151zM585 298l-148 -202h-151l142 202l-142 202h151z" />
    <glyph glyph-name="onequarter" unicode="&#xbc;" horiz-adv-x="838" 
d="M119 280v296q-43 -26 -86 -22v90q22 -2 48 15t48 42l1 -1h83v-420h-94zM582 700h99l-481 -700h-99zM461 72v80l183 268l1 -1v1h106v-264h66v-84h-66v-72h-94v72h-196zM560 156h97v143z" />
    <glyph glyph-name="onehalf" unicode="&#xbd;" horiz-adv-x="869" 
d="M119 280v296q-43 -26 -86 -22v90q22 -2 48 15t48 42l1 -1h83v-420h-94zM582 700h99l-481 -700h-99zM535 0v71q0 24 26.5 59t67.5 63l51 35q18 12 35 29t17 35q0 19 -14 32t-42 13q-21 0 -35.5 -13.5t-19.5 -31.5l-102 17q8 47 49.5 83t107.5 36q73 0 115 -37.5t42 -97.5
q0 -43 -23.5 -73t-61.5 -56l-51 -35q-24 -17 -46 -42h187v-87h-303z" />
    <glyph glyph-name="threequarters" unicode="&#xbe;" horiz-adv-x="913" 
d="M183 273q-61 0 -104 27.5t-52 78.5l94 21q6 -13 17.5 -27.5t38.5 -14.5q23 0 37 13t14 35q0 19 -14 33.5t-58 14.5h-33v80h33q36 0 51 12.5t15 33.5q0 18 -12.5 30t-33.5 12q-16 0 -31 -9.5t-22 -32.5l-92 21q6 35 28.5 58.5t54 35.5t65.5 12q39 0 71.5 -14.5t51.5 -41
t19 -60.5t-19 -57.5t-48 -37.5q33 -16 53.5 -42.5t20.5 -60.5q0 -39 -20.5 -65.5t-54 -40.5t-70.5 -14zM657 700h99l-481 -700h-99zM536 72v80l183 268l1 -1v1h106v-264h66v-84h-66v-72h-94v72h-196zM635 156h97v143z" />
    <glyph glyph-name="questiondown" unicode="&#xbf;" horiz-adv-x="470" 
d="M323 297l3 -133l1 -43l-73 -6q-53 -2 -86 -29.5t-33 -78.5q0 -45 31 -73.5t80 -28.5q36 0 61.5 17t35.5 44l120 -34q-20 -66 -76.5 -106t-140.5 -40q-70 0 -123.5 28t-84.5 78t-31 115q0 80 51.5 132.5t136.5 63.5l2 94h126zM260 512q33 0 56.5 -23t23.5 -57
q0 -33 -23.5 -56.5t-56.5 -23.5t-56.5 23.5t-23.5 56.5q0 34 23.5 57t56.5 23z" />
    <glyph glyph-name="Agrave" unicode="&#xc0;" horiz-adv-x="714" 
d="M8 0l276 700h146l276 -700h-145l-59 154h-290l-59 -154h-145zM258 275h198l-99 258zM466 750h-133l-131 139h148z" />
    <glyph glyph-name="Aacute" unicode="&#xc1;" horiz-adv-x="714" 
d="M273 747l114 131h148l-129 -131h-133zM8 0l276 700h146l276 -700h-145l-59 154h-290l-59 -154h-145zM258 275h198l-99 258z" />
    <glyph glyph-name="Acircumflex" unicode="&#xc2;" horiz-adv-x="714" 
d="M8 0l276 700h146l276 -700h-145l-59 154h-290l-59 -154h-145zM258 275h198l-99 258zM161 761l124 139h137l124 -139h-120l-72 68l-73 -68h-120z" />
    <glyph glyph-name="Atilde" unicode="&#xc3;" horiz-adv-x="714" 
d="M8 0l276 700h146l276 -700h-145l-59 154h-290l-59 -154h-145zM258 275h198l-99 258zM439 737q-33 0 -52.5 11t-31 25t-21 25t-24.5 11q-12 0 -21 -7t-14 -31h-89q14 124 120 124q34 0 54 -11t32 -25t22 -25t25 -11t21.5 11t8.5 28h89q-7 -56 -35.5 -90.5t-83.5 -34.5z
" />
    <glyph glyph-name="Adieresis" unicode="&#xc4;" horiz-adv-x="714" 
d="M8 0l276 700h146l276 -700h-145l-59 154h-290l-59 -154h-145zM258 275h198l-99 258zM228 781q-29 0 -49 20.5t-20 48.5t20 48.5t49 20.5q28 0 48 -20.5t20 -48.5t-20 -48.5t-48 -20.5zM486 781q-27 0 -47.5 20.5t-20.5 48.5t20.5 48.5t47.5 20.5q28 0 48.5 -20.5
t20.5 -48.5t-20.5 -48.5t-48.5 -20.5z" />
    <glyph glyph-name="Aring" unicode="&#xc5;" horiz-adv-x="714" 
d="M8 0l276 700h146l276 -700h-145l-59 154h-290l-59 -154h-145zM258 275h198l-99 258zM357 726q-32 0 -59 15t-43 40t-16 56t16 56.5t43 40.5t59 15t58.5 -15t42.5 -40.5t16 -56.5t-16 -56t-42.5 -40t-58.5 -15zM357 802q34 0 34 35q0 36 -34 36q-35 0 -35 -36
q0 -35 35 -35z" />
    <glyph glyph-name="AE" unicode="&#xc6;" horiz-adv-x="1018" 
d="M8 0l396 700h544v-125h-303v-159h261v-122h-261v-169h307v-125h-447v154h-257l-85 -154h-155zM314 275h191v300h-26z" />
    <glyph glyph-name="Ccedilla" unicode="&#xc7;" horiz-adv-x="725" 
d="M385 -12q-102 0 -181 46.5t-124 128t-45 187.5t44.5 187.5t123.5 128t181 46.5q72 0 134 -25.5t108.5 -71t71.5 -104.5l-127 -47q-26 55 -75.5 89t-111.5 34q-61 0 -108.5 -30.5t-74 -83.5t-26.5 -123t27 -123.5t75 -84t110 -30.5q64 0 112 36t74 93l127 -46
q-25 -62 -71.5 -108.5t-108.5 -72.5t-135 -26zM343 -210q-48 0 -96 29l20 63q15 -8 29 -13t27 -5q17 0 29 6t12 21q0 36 -65 42l30 73l76 -6l-13 -29q70 -25 70 -84q0 -97 -119 -97z" />
    <glyph glyph-name="Egrave" unicode="&#xc8;" horiz-adv-x="589" 
d="M76 0v700h443v-125h-306v-159h264v-122h-264v-169h310v-125h-447zM405 750h-133l-131 139h148z" />
    <glyph glyph-name="Eacute" unicode="&#xc9;" horiz-adv-x="589" 
d="M212 747l113 131h148l-129 -131h-132zM76 0v700h443v-125h-306v-159h264v-122h-264v-169h310v-125h-447z" />
    <glyph glyph-name="Ecircumflex" unicode="&#xca;" horiz-adv-x="589" 
d="M76 0v700h443v-125h-306v-159h264v-122h-264v-169h310v-125h-447zM100 761l124 139h137l124 -139h-120l-72 68l-73 -68h-120z" />
    <glyph glyph-name="Edieresis" unicode="&#xcb;" horiz-adv-x="589" 
d="M76 0v700h443v-125h-306v-159h264v-122h-264v-169h310v-125h-447zM167 781q-29 0 -49 20.5t-20 48.5t20 48.5t49 20.5q28 0 48 -20.5t20 -48.5t-20 -48.5t-48 -20.5zM425 781q-27 0 -47.5 20.5t-20.5 48.5t20.5 48.5t47.5 20.5q28 0 48.5 -20.5t20.5 -48.5t-20.5 -48.5
t-48.5 -20.5z" />
    <glyph glyph-name="Igrave" unicode="&#xcc;" horiz-adv-x="289" 
d="M76 0v700h137v-700h-137zM254 750h-133l-131 139h148z" />
    <glyph glyph-name="Iacute" unicode="&#xcd;" horiz-adv-x="289" 
d="M62 747l113 131h148l-129 -131h-132zM76 0v700h137v-700h-137z" />
    <glyph glyph-name="Icircumflex" unicode="&#xce;" horiz-adv-x="289" 
d="M76 0v700h137v-700h-137zM-50 761l124 139h137l124 -139h-120l-72 68l-73 -68h-120z" />
    <glyph glyph-name="Idieresis" unicode="&#xcf;" horiz-adv-x="304" 
d="M68 781q-28 0 -48.5 20.5t-20.5 48.5t20.5 48.5t48.5 20.5t48.5 -20.5t20.5 -48.5t-20.5 -48.5t-48.5 -20.5zM236 781q-28 0 -48.5 20.5t-20.5 48.5t20.5 48.5t48.5 20.5t48.5 -20.5t20.5 -48.5t-20.5 -48.5t-48.5 -20.5zM76 0v700h137v-700h-137z" />
    <glyph glyph-name="Eth" unicode="&#xd0;" horiz-adv-x="746" 
d="M122 0v300h-66v100h66v300h224q107 0 189 -44.5t129 -123.5t47 -182q0 -102 -47 -181t-129 -124t-189 -45h-224zM385 300h-126v-172h87q64 0 115 29.5t80.5 79.5t29.5 113t-29.5 113t-80.5 79.5t-115 29.5h-87v-172h126v-100z" />
    <glyph glyph-name="Ntilde" unicode="&#xd1;" horiz-adv-x="773" 
d="M76 0v700h143l342 -472v472h136v-700h-136l-348 480v-481zM466 725q-33 0 -52.5 11t-31 25t-21 25t-24.5 11q-12 0 -21 -7t-14 -31h-89q14 124 120 124q34 0 54 -11t32 -25t22 -25t25 -11t21.5 11t8.5 28h89q-7 -56 -35.5 -90.5t-83.5 -34.5z" />
    <glyph glyph-name="Ograve" unicode="&#xd2;" horiz-adv-x="787" 
d="M396 -12q-106 0 -187.5 46t-127.5 128t-46 187q0 107 46 188.5t126.5 127.5t185.5 46t186 -46t127 -128t46 -188q0 -105 -45.5 -187t-126 -128t-184.5 -46zM396 113q63 0 112 30.5t76.5 83.5t27.5 122q0 70 -28 123t-77.5 83.5t-113.5 30.5t-113 -30.5t-77 -83.5
t-28 -123q0 -69 28 -122t78 -83.5t115 -30.5zM502 750h-133l-131 139h148z" />
    <glyph glyph-name="Oacute" unicode="&#xd3;" horiz-adv-x="787" 
d="M309 747l116 131h151l-132 -131h-135zM396 -12q-106 0 -187.5 46t-127.5 128t-46 187q0 107 46 188.5t126.5 127.5t185.5 46t186 -46t127 -128t46 -188q0 -105 -45.5 -187t-126 -128t-184.5 -46zM396 113q63 0 112 30.5t76.5 83.5t27.5 122q0 70 -28 123t-77.5 83.5
t-113.5 30.5t-113 -30.5t-77 -83.5t-28 -123q0 -69 28 -122t78 -83.5t115 -30.5z" />
    <glyph glyph-name="Ocircumflex" unicode="&#xd4;" horiz-adv-x="787" 
d="M396 -12q-106 0 -187.5 46t-127.5 128t-46 187q0 107 46 188.5t126.5 127.5t185.5 46t186 -46t127 -128t46 -188q0 -105 -45.5 -187t-126 -128t-184.5 -46zM396 113q63 0 112 30.5t76.5 83.5t27.5 122q0 70 -28 123t-77.5 83.5t-113.5 30.5t-113 -30.5t-77 -83.5
t-28 -123q0 -69 28 -122t78 -83.5t115 -30.5zM198 761l124 139h137l124 -139h-120l-72 68l-73 -68h-120z" />
    <glyph glyph-name="Otilde" unicode="&#xd5;" horiz-adv-x="787" 
d="M396 -12q-106 0 -187.5 46t-127.5 128t-46 187q0 107 46 188.5t126.5 127.5t185.5 46t186 -46t127 -128t46 -188q0 -105 -45.5 -187t-126 -128t-184.5 -46zM396 113q63 0 112 30.5t76.5 83.5t27.5 122q0 70 -28 123t-77.5 83.5t-113.5 30.5t-113 -30.5t-77 -83.5
t-28 -123q0 -69 28 -122t78 -83.5t115 -30.5zM475 737q-33 0 -52.5 11t-31 25t-21 25t-24.5 11q-12 0 -21 -7t-14 -31h-89q14 124 120 124q34 0 54 -11t32 -25t22 -25t25 -11t21.5 11t8.5 28h89q-7 -56 -35.5 -90.5t-83.5 -34.5z" />
    <glyph glyph-name="Odieresis" unicode="&#xd6;" horiz-adv-x="787" 
d="M396 -12q-106 0 -187.5 46t-127.5 128t-46 187q0 107 46 188.5t126.5 127.5t185.5 46t186 -46t127 -128t46 -188q0 -105 -45.5 -187t-126 -128t-184.5 -46zM396 113q63 0 112 30.5t76.5 83.5t27.5 122q0 70 -28 123t-77.5 83.5t-113.5 30.5t-113 -30.5t-77 -83.5
t-28 -123q0 -69 28 -122t78 -83.5t115 -30.5zM265 781q-29 0 -49 20.5t-20 48.5t20 48.5t49 20.5q28 0 48 -20.5t20 -48.5t-20 -48.5t-48 -20.5zM523 781q-27 0 -47.5 20.5t-20.5 48.5t20.5 48.5t47.5 20.5q28 0 48.5 -20.5t20.5 -48.5t-20.5 -48.5t-48.5 -20.5z" />
    <glyph glyph-name="multiply" unicode="&#xd7;" horiz-adv-x="553" 
d="M143 91l-74 74l133 133l-133 133l74 74l133 -133l133 133l74 -74l-133 -133l133 -133l-74 -74l-133 133z" />
    <glyph glyph-name="Oslash" unicode="&#xd8;" horiz-adv-x="805" 
d="M38 0l90 104q-41 47 -64 109.5t-23 135.5q0 107 45.5 188.5t126.5 127.5t186 46q59 0 110.5 -15t94.5 -42l40 46h123l-94 -108q41 -47 63 -108.5t22 -134.5q0 -105 -45.5 -187t-126 -128t-185.5 -46q-58 0 -109 14.5t-94 41.5l-38 -44h-122zM180 349q0 -80 39 -140
l298 344q-52 33 -118 33q-64 0 -113.5 -30.5t-77.5 -83.5t-28 -123zM401 113q64 0 113 30.5t76.5 83.5t27.5 122q0 79 -36 138l-297 -342q52 -32 116 -32z" />
    <glyph glyph-name="Ugrave" unicode="&#xd9;" horiz-adv-x="704" 
d="M66 261v439h137v-439q0 -68 40.5 -108t108.5 -40q67 0 108 40t41 108v439h137v-439q0 -84 -35.5 -145.5t-100 -95.5t-152.5 -34q-87 0 -150.5 34t-98.5 95.5t-35 145.5zM461 750h-133l-131 139h148z" />
    <glyph glyph-name="Uacute" unicode="&#xda;" horiz-adv-x="704" 
d="M268 748l113 134h148l-129 -134h-132zM66 261v439h137v-439q0 -68 40.5 -108t108.5 -40q67 0 108 40t41 108v439h137v-439q0 -84 -35.5 -145.5t-100 -95.5t-152.5 -34q-87 0 -150.5 34t-98.5 95.5t-35 145.5z" />
    <glyph glyph-name="Ucircumflex" unicode="&#xdb;" horiz-adv-x="704" 
d="M66 261v439h137v-439q0 -68 40.5 -108t108.5 -40q67 0 108 40t41 108v439h137v-439q0 -84 -35.5 -145.5t-100 -95.5t-152.5 -34q-87 0 -150.5 34t-98.5 95.5t-35 145.5zM156 761l124 139h137l124 -139h-120l-72 68l-73 -68h-120z" />
    <glyph glyph-name="Udieresis" unicode="&#xdc;" horiz-adv-x="704" 
d="M66 261v439h137v-439q0 -68 40.5 -108t108.5 -40q67 0 108 40t41 108v439h137v-439q0 -84 -35.5 -145.5t-100 -95.5t-152.5 -34q-87 0 -150.5 34t-98.5 95.5t-35 145.5zM223 781q-29 0 -49 20.5t-20 48.5t20 48.5t49 20.5q28 0 48 -20.5t20 -48.5t-20 -48.5t-48 -20.5z
M481 781q-27 0 -47.5 20.5t-20.5 48.5t20.5 48.5t47.5 20.5q28 0 48.5 -20.5t20.5 -48.5t-20.5 -48.5t-48.5 -20.5z" />
    <glyph glyph-name="Yacute" unicode="&#xdd;" horiz-adv-x="647" 
d="M255 0v295l-248 405h156l160 -269l161 269h156l-248 -404v-296h-137zM239 732l114 138h148l-129 -138h-133z" />
    <glyph glyph-name="Thorn" unicode="&#xde;" horiz-adv-x="615" 
d="M82 1v700h140v-109l123 1q74 0 131 -30t89 -82.5t32 -121.5t-31 -121.5t-85.5 -82.5t-124.5 -30h-134v-124h-140zM339 468h-117v-218h128q46 0 75.5 30.5t29.5 78.5t-32.5 78.5t-83.5 30.5z" />
    <glyph glyph-name="germandbls" unicode="&#xdf;" horiz-adv-x="582" 
d="M57 0v493q0 107 66 163t173 56q69 0 121.5 -23.5t82 -69t29.5 -111.5q0 -88 -65 -145q88 -47 88 -169q0 -93 -62 -143.5t-164 -50.5h-54v121h41q49 0 77 24t28 61q0 40 -28.5 63.5t-75.5 23.5h-40v124h9q60 0 86.5 24.5t26.5 68.5q0 41 -29 64.5t-72 23.5
q-47 0 -75.5 -28t-28.5 -77v-493h-134z" />
    <glyph glyph-name="agrave" unicode="&#xe0;" horiz-adv-x="528" 
d="M228 -12q-90 0 -139.5 40t-49.5 113q0 80 53 120.5t149 40.5h117q-7 47 -29.5 72.5t-65.5 25.5q-32 0 -57.5 -13.5t-42.5 -43.5l-111 39q14 32 41 62t69.5 49t102.5 19q112 0 167.5 -60.5t55.5 -175.5v-276h-123l-1 54q-21 -32 -54.5 -49t-81.5 -17zM247 93q33 0 58.5 16
t40.5 42t15 54h1v3h-79q-66 0 -91.5 -17t-25.5 -46q0 -25 21.5 -38.5t59.5 -13.5zM361 562h-133l-131 139h148z" />
    <glyph glyph-name="aacute" unicode="&#xe1;" horiz-adv-x="528" 
d="M228 -12q-90 0 -139.5 40t-49.5 113q0 80 53 120.5t149 40.5h117q-7 47 -29.5 72.5t-65.5 25.5q-32 0 -57.5 -13.5t-42.5 -43.5l-111 39q14 32 41 62t69.5 49t102.5 19q112 0 167.5 -60.5t55.5 -175.5v-276h-123l-1 54q-21 -32 -54.5 -49t-81.5 -17zM247 93q33 0 58.5 16
t40.5 42t15 54h1v3h-79q-66 0 -91.5 -17t-25.5 -46q0 -25 21.5 -38.5t59.5 -13.5zM168 562l114 138h148l-129 -138h-133z" />
    <glyph glyph-name="acircumflex" unicode="&#xe2;" horiz-adv-x="528" 
d="M228 -12q-90 0 -139.5 40t-49.5 113q0 80 53 120.5t149 40.5h117q-7 47 -29.5 72.5t-65.5 25.5q-32 0 -57.5 -13.5t-42.5 -43.5l-111 39q14 32 41 62t69.5 49t102.5 19q112 0 167.5 -60.5t55.5 -175.5v-276h-123l-1 54q-21 -32 -54.5 -49t-81.5 -17zM247 93q33 0 58.5 16
t40.5 42t15 54h1v3h-79q-66 0 -91.5 -17t-25.5 -46q0 -25 21.5 -38.5t59.5 -13.5zM56 573l124 139h137l124 -139h-120l-72 68l-73 -68h-120z" />
    <glyph glyph-name="atilde" unicode="&#xe3;" horiz-adv-x="528" 
d="M228 -12q-90 0 -139.5 40t-49.5 113q0 80 53 120.5t149 40.5h117q-7 47 -29.5 72.5t-65.5 25.5q-32 0 -57.5 -13.5t-42.5 -43.5l-111 39q14 32 41 62t69.5 49t102.5 19q112 0 167.5 -60.5t55.5 -175.5v-276h-123l-1 54q-21 -32 -54.5 -49t-81.5 -17zM247 93q33 0 58.5 16
t40.5 42t15 54h1v3h-79q-66 0 -91.5 -17t-25.5 -46q0 -25 21.5 -38.5t59.5 -13.5zM333 549q-33 0 -52.5 11t-31 25t-21 25t-24.5 11q-12 0 -21 -7t-14 -31h-89q14 124 120 124q34 0 54 -11t32 -25t22 -25t25 -11t21.5 11t8.5 28h89q-7 -56 -35.5 -90.5t-83.5 -34.5z" />
    <glyph glyph-name="adieresis" unicode="&#xe4;" horiz-adv-x="528" 
d="M228 -12q-90 0 -139.5 40t-49.5 113q0 80 53 120.5t149 40.5h117q-7 47 -29.5 72.5t-65.5 25.5q-32 0 -57.5 -13.5t-42.5 -43.5l-111 39q14 32 41 62t69.5 49t102.5 19q112 0 167.5 -60.5t55.5 -175.5v-276h-123l-1 54q-21 -32 -54.5 -49t-81.5 -17zM247 93q33 0 58.5 16
t40.5 42t15 54h1v3h-79q-66 0 -91.5 -17t-25.5 -46q0 -25 21.5 -38.5t59.5 -13.5zM123 593q-29 0 -49 20.5t-20 48.5t20 48.5t49 20.5q28 0 48 -20.5t20 -48.5t-20 -48.5t-48 -20.5zM381 593q-27 0 -47.5 20.5t-20.5 48.5t20.5 48.5t47.5 20.5q28 0 48.5 -20.5t20.5 -48.5
t-20.5 -48.5t-48.5 -20.5z" />
    <glyph glyph-name="aring" unicode="&#xe5;" horiz-adv-x="528" 
d="M228 -12q-90 0 -139.5 40t-49.5 113q0 80 53 120.5t149 40.5h117q-7 47 -29.5 72.5t-65.5 25.5q-32 0 -57.5 -13.5t-42.5 -43.5l-111 39q14 32 41 62t69.5 49t102.5 19q112 0 167.5 -60.5t55.5 -175.5v-276h-123l-1 54q-21 -32 -54.5 -49t-81.5 -17zM247 93q33 0 58.5 16
t40.5 42t15 54h1v3h-79q-66 0 -91.5 -17t-25.5 -46q0 -25 21.5 -38.5t59.5 -13.5zM252 538q-32 0 -59 15t-43 40t-16 56t16 56.5t43 40.5t59 15t58.5 -15t42.5 -40.5t16 -56.5t-16 -56t-42.5 -40t-58.5 -15zM252 614q34 0 34 35q0 36 -34 36q-35 0 -35 -36q0 -35 35 -35z
" />
    <glyph glyph-name="ae" unicode="&#xe6;" horiz-adv-x="889" 
d="M227 -12q-93 0 -145 40t-52 113q0 76 52 115.5t145 39.5h133q-7 48 -30 75t-79 27q-35 0 -69 -12.5t-62 -40.5l-76 80q36 41 93 64t118 23q125 0 187 -75q34 35 82 55t105 20q66 0 121 -34.5t88 -100.5t33 -159h-365q8 -56 44.5 -85.5t85.5 -29.5q41 0 67 18.5t40 46.5
l117 -46q-32 -63 -90.5 -98.5t-145.5 -35.5q-68 0 -122.5 29t-87.5 79q-24 -52 -72 -80t-115 -28zM625 401q-89 0 -113 -85h221q-14 45 -42 65t-66 20zM249 81q52 0 82 33.5t30 88.5h3v11h-92q-55 0 -81.5 -18.5t-26.5 -52.5q0 -29 22.5 -45.5t62.5 -16.5z" />
    <glyph glyph-name="ccedilla" unicode="&#xe7;" horiz-adv-x="546" 
d="M298 -12q-79 0 -139 33.5t-94.5 92.5t-34.5 136t34 136t94 92.5t138 33.5q75 0 136.5 -37.5t90.5 -106.5l-124 -44q-14 29 -43.5 46.5t-65.5 17.5q-55 0 -90 -38.5t-35 -99.5t35.5 -99.5t91.5 -38.5q36 0 65.5 19t43.5 50l125 -44q-29 -71 -90.5 -110t-137.5 -39z
M255 -210q-48 0 -96 29l20 63q15 -8 29 -13t27 -5q17 0 29 6t12 21q0 36 -65 42l30 73l76 -6l-13 -29q70 -25 70 -84q0 -97 -119 -97z" />
    <glyph glyph-name="egrave" unicode="&#xe8;" horiz-adv-x="557" 
d="M291 -12q-74 0 -131 33.5t-89 92.5t-32 136t33 136t91 92.5t134 33.5q65 0 120 -34.5t88.5 -100.5t33.5 -159h-365q8 -56 44.5 -85.5t85.5 -29.5q40 0 66 18.5t41 46.5l116 -46q-32 -63 -90.5 -98.5t-145.5 -35.5zM292 401q-89 0 -112 -85h220q-14 45 -42 65t-66 20z
M400 562h-133l-131 139h148z" />
    <glyph glyph-name="eacute" unicode="&#xe9;" horiz-adv-x="557" 
d="M291 -12q-74 0 -131 33.5t-89 92.5t-32 136t33 136t91 92.5t134 33.5q65 0 120 -34.5t88.5 -100.5t33.5 -159h-365q8 -56 44.5 -85.5t85.5 -29.5q40 0 66 18.5t41 46.5l116 -46q-32 -63 -90.5 -98.5t-145.5 -35.5zM292 401q-89 0 -112 -85h220q-14 45 -42 65t-66 20z
M207 562l114 138h148l-129 -138h-133z" />
    <glyph glyph-name="ecircumflex" unicode="&#xea;" horiz-adv-x="557" 
d="M291 -12q-74 0 -131 33.5t-89 92.5t-32 136t33 136t91 92.5t134 33.5q65 0 120 -34.5t88.5 -100.5t33.5 -159h-365q8 -56 44.5 -85.5t85.5 -29.5q40 0 66 18.5t41 46.5l116 -46q-32 -63 -90.5 -98.5t-145.5 -35.5zM292 401q-89 0 -112 -85h220q-14 45 -42 65t-66 20z
M95 573l124 139h137l124 -139h-120l-72 68l-73 -68h-120z" />
    <glyph glyph-name="edieresis" unicode="&#xeb;" horiz-adv-x="557" 
d="M291 -12q-74 0 -131 33.5t-89 92.5t-32 136t33 136t91 92.5t134 33.5q65 0 120 -34.5t88.5 -100.5t33.5 -159h-365q8 -56 44.5 -85.5t85.5 -29.5q40 0 66 18.5t41 46.5l116 -46q-32 -63 -90.5 -98.5t-145.5 -35.5zM292 401q-89 0 -112 -85h220q-14 45 -42 65t-66 20z
M162 593q-29 0 -49 20.5t-20 48.5t20 48.5t49 20.5q28 0 48 -20.5t20 -48.5t-20 -48.5t-48 -20.5zM420 593q-27 0 -47.5 20.5t-20.5 48.5t20.5 48.5t47.5 20.5q28 0 48.5 -20.5t20.5 -48.5t-20.5 -48.5t-48.5 -20.5z" />
    <glyph glyph-name="igrave" unicode="&#xec;" horiz-adv-x="262" 
d="M65 0v500h132v-500h-132zM240 562h-133l-131 139h148z" />
    <glyph glyph-name="iacute" unicode="&#xed;" horiz-adv-x="262" 
d="M65 0v500h132v-500h-132zM47 562l114 138h148l-129 -138h-133z" />
    <glyph glyph-name="icircumflex" unicode="&#xee;" horiz-adv-x="262" 
d="M65 0v500h132v-500h-132zM-65 573l124 139h137l124 -139h-120l-72 68l-73 -68h-120z" />
    <glyph glyph-name="idieresis" unicode="&#xef;" horiz-adv-x="262" 
d="M47 593q-28 0 -48.5 20.5t-20.5 48.5t20.5 48.5t48.5 20.5t48.5 -20.5t20.5 -48.5t-20.5 -48.5t-48.5 -20.5zM215 593q-27 0 -47.5 20.5t-20.5 48.5t20.5 48.5t47.5 20.5q28 0 48.5 -20.5t20.5 -48.5t-20.5 -48.5t-48.5 -20.5zM65 0v500h132v-500h-132z" />
    <glyph glyph-name="eth" unicode="&#xf0;" horiz-adv-x="600" 
d="M30 250q0 77 30.5 136t85.5 92.5t129 33.5q37 0 74 -13.5t66 -34.5q-11 52 -31 91l-34 -29l-54 58l40 35q-20 19 -47 34l58 101q42 -26 76 -60l45 40l54 -59l-50 -43q49 -75 67.5 -173t11.5 -212q-1 -77 -34 -135t-91.5 -91t-133.5 -33q-77 0 -136 33.5t-92.5 92.5
t-33.5 136zM165 250q0 -62 35.5 -101t91.5 -39q55 0 89.5 39t34.5 101t-35 101t-91 39q-55 0 -90 -39t-35 -101z" />
    <glyph glyph-name="ntilde" unicode="&#xf1;" 
d="M57 0v500h124l6 -67q51 79 146 79q91 0 139.5 -55.5t47.5 -170.5v-286h-132v256q0 75 -25.5 103t-67.5 29q-51 1 -78.5 -31.5t-27.5 -94.5v-262h-132zM362 549q-33 0 -52.5 11t-31 25t-21 25t-24.5 11q-12 0 -21 -7t-14 -31h-89q14 124 120 124q34 0 54 -11t32 -25
t22 -25t25 -11t21.5 11t8.5 28h89q-7 -56 -35.5 -90.5t-83.5 -34.5z" />
    <glyph glyph-name="ograve" unicode="&#xf2;" horiz-adv-x="581" 
d="M301 -12q-77 0 -136 33.5t-92.5 92.5t-33.5 136t33 136t92 92.5t135 33.5q77 0 136 -33.5t92 -92.5t33 -136t-33 -136t-91.5 -92.5t-134.5 -33.5zM301 110q54 0 89 39t35 101t-35.5 101t-90.5 39t-90 -39t-35 -101t35.5 -101t91.5 -39zM396 562h-133l-131 139h148z" />
    <glyph glyph-name="oacute" unicode="&#xf3;" horiz-adv-x="581" 
d="M301 -12q-77 0 -136 33.5t-92.5 92.5t-33.5 136t33 136t92 92.5t135 33.5q77 0 136 -33.5t92 -92.5t33 -136t-33 -136t-91.5 -92.5t-134.5 -33.5zM301 110q54 0 89 39t35 101t-35.5 101t-90.5 39t-90 -39t-35 -101t35.5 -101t91.5 -39zM203 562l114 138h148l-129 -138
h-133z" />
    <glyph glyph-name="ocircumflex" unicode="&#xf4;" horiz-adv-x="581" 
d="M301 -12q-77 0 -136 33.5t-92.5 92.5t-33.5 136t33 136t92 92.5t135 33.5q77 0 136 -33.5t92 -92.5t33 -136t-33 -136t-91.5 -92.5t-134.5 -33.5zM301 110q54 0 89 39t35 101t-35.5 101t-90.5 39t-90 -39t-35 -101t35.5 -101t91.5 -39zM92 573l124 139h137l124 -139h-120
l-72 68l-73 -68h-120z" />
    <glyph glyph-name="otilde" unicode="&#xf5;" horiz-adv-x="581" 
d="M301 -12q-77 0 -136 33.5t-92.5 92.5t-33.5 136t33 136t92 92.5t135 33.5q77 0 136 -33.5t92 -92.5t33 -136t-33 -136t-91.5 -92.5t-134.5 -33.5zM301 110q54 0 89 39t35 101t-35.5 101t-90.5 39t-90 -39t-35 -101t35.5 -101t91.5 -39zM369 549q-33 0 -52.5 11t-31 25
t-21 25t-24.5 11q-12 0 -21 -7t-14 -31h-89q14 124 120 124q34 0 54 -11t32 -25t22 -25t25 -11t21.5 11t8.5 28h89q-7 -56 -35.5 -90.5t-83.5 -34.5z" />
    <glyph glyph-name="odieresis" unicode="&#xf6;" horiz-adv-x="581" 
d="M301 -12q-77 0 -136 33.5t-92.5 92.5t-33.5 136t33 136t92 92.5t135 33.5q77 0 136 -33.5t92 -92.5t33 -136t-33 -136t-91.5 -92.5t-134.5 -33.5zM301 110q54 0 89 39t35 101t-35.5 101t-90.5 39t-90 -39t-35 -101t35.5 -101t91.5 -39zM159 593q-29 0 -49 20.5t-20 48.5
t20 48.5t49 20.5q28 0 48 -20.5t20 -48.5t-20 -48.5t-48 -20.5zM417 593q-27 0 -47.5 20.5t-20.5 48.5t20.5 48.5t47.5 20.5q28 0 48.5 -20.5t20.5 -48.5t-20.5 -48.5t-48.5 -20.5z" />
    <glyph glyph-name="divide" unicode="&#xf7;" horiz-adv-x="502" 
d="M251 402q-24 0 -42 17.5t-18 42.5q0 24 18 41.5t42 17.5t41.5 -17.5t17.5 -41.5q0 -25 -17.5 -42.5t-41.5 -17.5zM56 243v109h390v-109h-390zM251 74q-24 0 -41.5 17.5t-17.5 41.5q0 25 17.5 42.5t41.5 17.5t42 -17.5t18 -42.5q0 -24 -18 -41.5t-42 -17.5z" />
    <glyph glyph-name="oslash" unicode="&#xf8;" horiz-adv-x="578" 
d="M17 0l72 83q-25 33 -39.5 75.5t-14.5 91.5q0 77 33.5 136t92.5 92.5t135 33.5t136 -34l20 22h109l-65 -75q29 -34 45 -78.5t16 -96.5q0 -77 -33.5 -136t-92 -92.5t-134.5 -33.5q-83 0 -147 40l-24 -28h-109zM171 250q0 -33 11 -61l165 191q-24 10 -51 10q-55 0 -90 -39
t-35 -101zM298 110q54 0 89 39t35 101q0 40 -16 72l-171 -196q28 -16 63 -16z" />
    <glyph glyph-name="ugrave" unicode="&#xf9;" 
d="M180 244q0 -75 25.5 -103t67.5 -29q52 -1 79 31.5t27 94.5v262h132v-500h-124l-5 67q-51 -79 -147 -79q-91 0 -139.5 55.5t-47.5 170.5v286h132v-256zM391 562h-133l-131 139h148z" />
    <glyph glyph-name="uacute" unicode="&#xfa;" 
d="M180 244q0 -75 25.5 -103t67.5 -29q52 -1 79 31.5t27 94.5v262h132v-500h-124l-5 67q-51 -79 -147 -79q-91 0 -139.5 55.5t-47.5 170.5v286h132v-256zM198 562l114 138h148l-129 -138h-133z" />
    <glyph glyph-name="ucircumflex" unicode="&#xfb;" 
d="M180 244q0 -75 25.5 -103t67.5 -29q52 -1 79 31.5t27 94.5v262h132v-500h-124l-5 67q-51 -79 -147 -79q-91 0 -139.5 55.5t-47.5 170.5v286h132v-256zM86 573l124 139h137l124 -139h-120l-72 68l-73 -68h-120z" />
    <glyph glyph-name="udieresis" unicode="&#xfc;" 
d="M180 244q0 -75 25.5 -103t67.5 -29q52 -1 79 31.5t27 94.5v262h132v-500h-124l-5 67q-51 -79 -147 -79q-91 0 -139.5 55.5t-47.5 170.5v286h132v-256zM153 593q-29 0 -49 20.5t-20 48.5t20 48.5t49 20.5q28 0 48 -20.5t20 -48.5t-20 -48.5t-48 -20.5zM411 593
q-27 0 -47.5 20.5t-20.5 48.5t20.5 48.5t47.5 20.5q28 0 48.5 -20.5t20.5 -48.5t-20.5 -48.5t-48.5 -20.5z" />
    <glyph glyph-name="yacute" unicode="&#xfd;" horiz-adv-x="576" 
d="M157 -212q-27 0 -59.5 10.5t-57.5 24.5l49 107q17 -9 31.5 -14.5t25.5 -5.5q44 0 63 45l21 50l-226 495h145l142 -346l136 346h145l-227 -543q-21 -50 -43.5 -88.5t-56.5 -59.5t-88 -21zM203 562l114 138h148l-129 -138h-133z" />
    <glyph glyph-name="thorn" unicode="&#xfe;" horiz-adv-x="593" 
d="M63 -200v900h132v-268q25 39 63 59.5t88 20.5q69 0 119.5 -32t78.5 -91t28 -139t-28 -139t-78.5 -91t-119.5 -32q-50 0 -88 20.5t-63 59.5v-268h-132zM312 109q53 0 88 39.5t35 101.5t-34.5 101t-87.5 39q-52 0 -85 -39t-33 -101t33 -101.5t84 -39.5z" />
    <glyph glyph-name="ydieresis" unicode="&#xff;" horiz-adv-x="576" 
d="M157 -212q-27 0 -59.5 10.5t-57.5 24.5l49 107q17 -9 31.5 -14.5t25.5 -5.5q44 0 63 45l21 50l-226 495h145l142 -346l136 346h145l-227 -543q-21 -50 -43.5 -88.5t-56.5 -59.5t-88 -21zM159 593q-29 0 -49 20.5t-20 48.5t20 48.5t49 20.5q28 0 48 -20.5t20 -48.5
t-20 -48.5t-48 -20.5zM417 593q-27 0 -47.5 20.5t-20.5 48.5t20.5 48.5t47.5 20.5q28 0 48.5 -20.5t20.5 -48.5t-20.5 -48.5t-48.5 -20.5z" />
    <glyph glyph-name="Amacron" unicode="&#x100;" horiz-adv-x="714" 
d="M8 0l276 700h146l276 -700h-145l-59 154h-290l-59 -154h-145zM258 275h198l-99 258zM195 749v114h324v-114h-324z" />
    <glyph glyph-name="amacron" unicode="&#x101;" horiz-adv-x="528" 
d="M228 -12q-90 0 -139.5 40t-49.5 113q0 80 53 120.5t149 40.5h117q-7 47 -29.5 72.5t-65.5 25.5q-32 0 -57.5 -13.5t-42.5 -43.5l-111 39q14 32 41 62t69.5 49t102.5 19q112 0 167.5 -60.5t55.5 -175.5v-276h-123l-1 54q-21 -32 -54.5 -49t-81.5 -17zM247 93q33 0 58.5 16
t40.5 42t15 54h1v3h-79q-66 0 -91.5 -17t-25.5 -46q0 -25 21.5 -38.5t59.5 -13.5zM90 561v114h324v-114h-324z" />
    <glyph glyph-name="Abreve" unicode="&#x102;" horiz-adv-x="714" 
d="M8 0l276 700h146l276 -700h-145l-59 154h-290l-59 -154h-145zM258 275h198l-99 258zM422 888h122q0 -43 -24 -76.5t-66 -52t-96 -18.5q-55 0 -97 18.5t-66 52t-24 76.5h122q0 -24 18.5 -39t46.5 -15t46 15t18 39z" />
    <glyph glyph-name="abreve" unicode="&#x103;" horiz-adv-x="528" 
d="M228 -12q-90 0 -139.5 40t-49.5 113q0 80 53 120.5t149 40.5h117q-7 47 -29.5 72.5t-65.5 25.5q-32 0 -57.5 -13.5t-42.5 -43.5l-111 39q14 32 41 62t69.5 49t102.5 19q112 0 167.5 -60.5t55.5 -175.5v-276h-123l-1 54q-21 -32 -54.5 -49t-81.5 -17zM247 93q33 0 58.5 16
t40.5 42t15 54h1v3h-79q-66 0 -91.5 -17t-25.5 -46q0 -25 21.5 -38.5t59.5 -13.5zM317 700h122q0 -43 -24 -76.5t-66 -52t-96 -18.5q-55 0 -97 18.5t-66 52t-24 76.5h122q0 -24 18.5 -39t46.5 -15t46 15t18 39z" />
    <glyph glyph-name="Aogonek" unicode="&#x104;" horiz-adv-x="714" 
d="M8 0l276 700h146l276 -700h-145l-59 154h-290l-59 -154h-145zM258 275h198l-99 258zM663 -212q-58 0 -97 27.5t-39 82.5q0 32 23 60t54 47l102 -5q-30 -21 -51 -45.5t-21 -49.5t27 -25q13 0 22.5 3t14.5 6l39 -83q-28 -18 -74 -18z" />
    <glyph glyph-name="aogonek" unicode="&#x105;" horiz-adv-x="528" 
d="M228 -12q-90 0 -139.5 40t-49.5 113q0 80 53 120.5t149 40.5h117q-7 47 -29.5 72.5t-65.5 25.5q-32 0 -57.5 -13.5t-42.5 -43.5l-111 39q14 32 41 62t69.5 49t102.5 19q112 0 167.5 -60.5t55.5 -175.5v-276h-123l-1 54q-21 -32 -54.5 -49t-81.5 -17zM247 93q33 0 58.5 16
t40.5 42t15 54h1v3h-79q-66 0 -91.5 -17t-25.5 -46q0 -25 21.5 -38.5t59.5 -13.5zM437 -212q-58 0 -97 27.5t-39 82.5q0 32 23 60t54 47l102 -5q-30 -21 -51 -45.5t-21 -49.5t27 -25q13 0 22.5 3t14.5 6l39 -83q-28 -18 -74 -18z" />
    <glyph glyph-name="Cacute" unicode="&#x106;" horiz-adv-x="725" 
d="M385 -12q-102 0 -181 46.5t-124 128t-45 187.5t44.5 187.5t123.5 128t181 46.5q72 0 134 -25.5t108.5 -71t71.5 -104.5l-127 -47q-26 55 -75.5 89t-111.5 34q-61 0 -108.5 -30.5t-74 -83.5t-26.5 -123t27 -123.5t75 -84t110 -30.5q64 0 112 36t74 93l127 -46
q-25 -62 -71.5 -108.5t-108.5 -72.5t-135 -26zM300 750l114 138h148l-129 -138h-133z" />
    <glyph glyph-name="cacute" unicode="&#x107;" horiz-adv-x="546" 
d="M298 -12q-79 0 -139 33.5t-94.5 92.5t-34.5 136t34 136t94 92.5t138 33.5q75 0 136.5 -37.5t90.5 -106.5l-124 -44q-14 29 -43.5 46.5t-65.5 17.5q-55 0 -90 -38.5t-35 -99.5t35.5 -99.5t91.5 -38.5q36 0 65.5 19t43.5 50l125 -44q-29 -71 -90.5 -110t-137.5 -39z
M211 562l114 138h148l-129 -138h-133z" />
    <glyph glyph-name="Cdotaccent" unicode="&#x10a;" horiz-adv-x="725" 
d="M385 -12q-102 0 -181 46.5t-124 128t-45 187.5t44.5 187.5t123.5 128t181 46.5q72 0 134 -25.5t108.5 -71t71.5 -104.5l-127 -47q-26 55 -75.5 89t-111.5 34q-61 0 -108.5 -30.5t-74 -83.5t-26.5 -123t27 -123.5t75 -84t110 -30.5q64 0 112 36t74 93l127 -46
q-25 -62 -71.5 -108.5t-108.5 -72.5t-135 -26zM384 769q-31 0 -53.5 22.5t-22.5 53.5t22.5 53.5t53.5 22.5t53.5 -22.5t22.5 -53.5t-22.5 -53.5t-53.5 -22.5z" />
    <glyph glyph-name="cdotaccent" unicode="&#x10b;" horiz-adv-x="546" 
d="M298 -12q-79 0 -139 33.5t-94.5 92.5t-34.5 136t34 136t94 92.5t138 33.5q75 0 136.5 -37.5t90.5 -106.5l-124 -44q-14 29 -43.5 46.5t-65.5 17.5q-55 0 -90 -38.5t-35 -99.5t35.5 -99.5t91.5 -38.5q36 0 65.5 19t43.5 50l125 -44q-29 -71 -90.5 -110t-137.5 -39z
M296 581q-31 0 -53.5 22.5t-22.5 53.5t22.5 53.5t53.5 22.5t53.5 -22.5t22.5 -53.5t-22.5 -53.5t-53.5 -22.5z" />
    <glyph glyph-name="Ccaron" unicode="&#x10c;" horiz-adv-x="725" 
d="M385 -12q-102 0 -181 46.5t-124 128t-45 187.5t44.5 187.5t123.5 128t181 46.5q72 0 134 -25.5t108.5 -71t71.5 -104.5l-127 -47q-26 55 -75.5 89t-111.5 34q-61 0 -108.5 -30.5t-74 -83.5t-26.5 -123t27 -123.5t75 -84t110 -30.5q64 0 112 36t74 93l127 -46
q-25 -62 -71.5 -108.5t-108.5 -72.5t-135 -26zM188 888h121l72 -73l71 73h121l-124 -138h-137z" />
    <glyph glyph-name="ccaron" unicode="&#x10d;" horiz-adv-x="546" 
d="M298 -12q-79 0 -139 33.5t-94.5 92.5t-34.5 136t34 136t94 92.5t138 33.5q75 0 136.5 -37.5t90.5 -106.5l-124 -44q-14 29 -43.5 46.5t-65.5 17.5q-55 0 -90 -38.5t-35 -99.5t35.5 -99.5t91.5 -38.5q36 0 65.5 19t43.5 50l125 -44q-29 -71 -90.5 -110t-137.5 -39z
M100 700h121l72 -73l71 73h121l-124 -138h-137z" />
    <glyph glyph-name="Dcaron" unicode="&#x10e;" horiz-adv-x="700" 
d="M76 0v700h224q107 0 189 -44.5t129 -123.5t47 -182q0 -102 -47 -181t-129 -124t-189 -45h-224zM300 572h-87v-444h87q64 0 115 29.5t80.5 79.5t29.5 113t-29.5 113t-80.5 79.5t-115 29.5zM109 888h121l72 -73l71 73h121l-124 -138h-137z" />
    <glyph glyph-name="dcaron" unicode="&#x10f;" horiz-adv-x="595" 
d="M256 -12q-69 0 -119.5 32t-78.5 91t-28 139t28 139t78.5 91t119.5 32q50 0 87.5 -20.5t62.5 -58.5v267h132v-700h-125l-5 69q-25 -39 -63.5 -60t-88.5 -21zM290 109q48 0 80 35t36 91v30q-4 56 -36.5 90.5t-80.5 34.5q-54 0 -88 -39t-34 -101t34.5 -101.5t88.5 -39.5z
M557 542l36 158h118l-53 -158h-101z" />
    <glyph glyph-name="Dcroat" unicode="&#x110;" horiz-adv-x="746" 
d="M122 0v300h-66v100h66v300h224q107 0 189 -44.5t129 -123.5t47 -182q0 -102 -47 -181t-129 -124t-189 -45h-224zM385 300h-126v-172h87q64 0 115 29.5t80.5 79.5t29.5 113t-29.5 113t-80.5 79.5t-115 29.5h-87v-172h126v-100z" />
    <glyph glyph-name="dcroat" unicode="&#x111;" horiz-adv-x="595" 
d="M256 -12q-69 0 -119.5 32t-78.5 91t-28 139t28 139t78.5 91t119.5 32q50 0 87.5 -20.5t62.5 -58.5v122h-138v85h138v60h132v-60h65v-85h-65v-555h-125l-5 69q-25 -39 -63.5 -60t-88.5 -21zM290 109q48 0 80 35t36 91v30q-4 56 -36.5 90.5t-80.5 34.5q-54 0 -88 -39
t-34 -101t34.5 -101.5t88.5 -39.5z" />
    <glyph glyph-name="Emacron" unicode="&#x112;" horiz-adv-x="589" 
d="M76 0v700h443v-125h-306v-159h264v-122h-264v-169h310v-125h-447zM134 749v114h324v-114h-324z" />
    <glyph glyph-name="emacron" unicode="&#x113;" horiz-adv-x="557" 
d="M291 -12q-74 0 -131 33.5t-89 92.5t-32 136t33 136t91 92.5t134 33.5q65 0 120 -34.5t88.5 -100.5t33.5 -159h-365q8 -56 44.5 -85.5t85.5 -29.5q40 0 66 18.5t41 46.5l116 -46q-32 -63 -90.5 -98.5t-145.5 -35.5zM292 401q-89 0 -112 -85h220q-14 45 -42 65t-66 20z
M129 561v114h324v-114h-324z" />
    <glyph glyph-name="Edotaccent" unicode="&#x116;" horiz-adv-x="589" 
d="M76 0v700h443v-125h-306v-159h264v-122h-264v-169h310v-125h-447zM296 769q-31 0 -53.5 22.5t-22.5 53.5t22.5 53.5t53.5 22.5t53.5 -22.5t22.5 -53.5t-22.5 -53.5t-53.5 -22.5z" />
    <glyph glyph-name="edotaccent" unicode="&#x117;" horiz-adv-x="557" 
d="M291 -12q-74 0 -131 33.5t-89 92.5t-32 136t33 136t91 92.5t134 33.5q65 0 120 -34.5t88.5 -100.5t33.5 -159h-365q8 -56 44.5 -85.5t85.5 -29.5q40 0 66 18.5t41 46.5l116 -46q-32 -63 -90.5 -98.5t-145.5 -35.5zM292 401q-89 0 -112 -85h220q-14 45 -42 65t-66 20z
M291 581q-31 0 -53.5 22.5t-22.5 53.5t22.5 53.5t53.5 22.5t53.5 -22.5t22.5 -53.5t-22.5 -53.5t-53.5 -22.5z" />
    <glyph glyph-name="Eogonek" unicode="&#x118;" horiz-adv-x="589" 
d="M76 0v700h443v-125h-306v-159h264v-122h-264v-169h310v-125h-447zM479 -212q-58 0 -97 27.5t-39 82.5q0 32 23 60t54 47l102 -5q-30 -21 -51 -45.5t-21 -49.5t27 -25q13 0 22.5 3t14.5 6l39 -83q-28 -18 -74 -18z" />
    <glyph glyph-name="eogonek" unicode="&#x119;" horiz-adv-x="557" 
d="M291 -12q-74 0 -131 33.5t-89 92.5t-32 136t33 136t91 92.5t134 33.5q65 0 120 -34.5t88.5 -100.5t33.5 -159h-365q8 -56 44.5 -85.5t85.5 -29.5q40 0 66 18.5t41 46.5l116 -46q-32 -63 -90.5 -98.5t-145.5 -35.5zM292 401q-89 0 -112 -85h220q-14 45 -42 65t-66 20z
M463 -205q-65 0 -109 25.5t-44 74.5q0 51 41.5 88.5t103.5 73.5l24 -1q-42 -40 -54.5 -70.5t-12.5 -58.5q0 -40 41 -40q15 0 27 2t23 6l39 -82q-17 -10 -36.5 -14t-42.5 -4z" />
    <glyph glyph-name="Ecaron" unicode="&#x11a;" horiz-adv-x="589" 
d="M76 0v700h443v-125h-306v-159h264v-122h-264v-169h310v-125h-447zM100 888h121l72 -73l71 73h121l-124 -138h-137z" />
    <glyph glyph-name="ecaron" unicode="&#x11b;" horiz-adv-x="557" 
d="M291 -12q-74 0 -131 33.5t-89 92.5t-32 136t33 136t91 92.5t134 33.5q65 0 120 -34.5t88.5 -100.5t33.5 -159h-365q8 -56 44.5 -85.5t85.5 -29.5q40 0 66 18.5t41 46.5l116 -46q-32 -63 -90.5 -98.5t-145.5 -35.5zM292 401q-89 0 -112 -85h220q-14 45 -42 65t-66 20z
M95 700h121l72 -73l71 73h121l-124 -138h-137z" />
    <glyph glyph-name="Gbreve" unicode="&#x11e;" horiz-adv-x="743" 
d="M401 -12q-107 0 -190 46.5t-129.5 128t-46.5 187.5t46.5 187.5t129.5 128t190 46.5q96 0 168.5 -42t114.5 -106l-112 -70q-26 41 -74 67t-97 26q-66 0 -117 -30.5t-80 -84t-29 -122.5q0 -70 28.5 -123.5t80 -84t120.5 -30.5q76 0 127 43t56 113h-163v107h294v-85v0
q-2 -96 -43 -163.5t-112 -103t-162 -35.5zM454 900h122q0 -43 -24 -76.5t-66 -52t-96 -18.5q-55 0 -97 18.5t-66 52t-24 76.5h122q0 -24 18.5 -39t46.5 -15t46 15t18 39z" />
    <glyph glyph-name="gbreve" unicode="&#x11f;" horiz-adv-x="592" 
d="M256 14q-69 0 -119.5 30t-78.5 84t-28 128q0 78 28 135.5t78.5 89t119.5 31.5q51 0 91 -23.5t65 -66.5v78h132v-446q0 -127 -70.5 -197t-191.5 -70q-87 0 -141.5 17.5t-82.5 37.5l52 106q21 -12 62 -28t104 -16q59 0 97.5 35t38.5 111v48q-25 -40 -65 -62t-91 -22z
M294 125q51 0 82 38t31 97t-31.5 96.5t-82.5 37.5q-53 0 -86 -37.5t-34 -96.5q1 -59 34.5 -97t86.5 -38zM356 700h122q0 -43 -24 -76.5t-66 -52t-96 -18.5q-55 0 -97 18.5t-66 52t-24 76.5h122q0 -24 18.5 -39t46.5 -15t46 15t18 39z" />
    <glyph glyph-name="Gdotaccent" unicode="&#x120;" horiz-adv-x="743" 
d="M401 -12q-107 0 -190 46.5t-129.5 128t-46.5 187.5t46.5 187.5t129.5 128t190 46.5q96 0 168.5 -42t114.5 -106l-112 -70q-26 41 -74 67t-97 26q-66 0 -117 -30.5t-80 -84t-29 -122.5q0 -70 28.5 -123.5t80 -84t120.5 -30.5q76 0 127 43t56 113h-163v107h294v-85v0
q-2 -96 -43 -163.5t-112 -103t-162 -35.5zM389 781q-31 0 -53.5 22.5t-22.5 53.5t22.5 53.5t53.5 22.5t53.5 -22.5t22.5 -53.5t-22.5 -53.5t-53.5 -22.5z" />
    <glyph glyph-name="gdotaccent" unicode="&#x121;" horiz-adv-x="592" 
d="M256 14q-69 0 -119.5 30t-78.5 84t-28 128q0 78 28 135.5t78.5 89t119.5 31.5q51 0 91 -23.5t65 -66.5v78h132v-446q0 -127 -70.5 -197t-191.5 -70q-87 0 -141.5 17.5t-82.5 37.5l52 106q21 -12 62 -28t104 -16q59 0 97.5 35t38.5 111v48q-25 -40 -65 -62t-91 -22z
M294 125q51 0 82 38t31 97t-31.5 96.5t-82.5 37.5q-53 0 -86 -37.5t-34 -96.5q1 -59 34.5 -97t86.5 -38zM291 581q-31 0 -53.5 22.5t-22.5 53.5t22.5 53.5t53.5 22.5t53.5 -22.5t22.5 -53.5t-22.5 -53.5t-53.5 -22.5z" />
    <glyph glyph-name="uni0122" unicode="&#x122;" horiz-adv-x="743" 
d="M401 -12q-107 0 -190 46.5t-129.5 128t-46.5 187.5t46.5 187.5t129.5 128t190 46.5q96 0 168.5 -42t114.5 -106l-112 -70q-26 41 -74 67t-97 26q-66 0 -117 -30.5t-80 -84t-29 -122.5q0 -70 28.5 -123.5t80 -84t120.5 -30.5q76 0 127 43t56 113h-163v107h294v-85v0
q-2 -96 -43 -163.5t-112 -103t-162 -35.5zM299 -200l46 150h129l-74 -150h-101z" />
    <glyph glyph-name="uni0123" unicode="&#x123;" horiz-adv-x="592" 
d="M414 713l-61 -142h-137l98 142h100zM256 14q-69 0 -119.5 30t-78.5 84t-28 128q0 78 28 135.5t78.5 89t119.5 31.5q51 0 91 -23.5t65 -66.5v78h132v-446q0 -127 -70.5 -197t-191.5 -70q-87 0 -141.5 17.5t-82.5 37.5l52 106q21 -12 62 -28t104 -16q59 0 97.5 35t38.5 111
v48q-25 -40 -65 -62t-91 -22zM294 125q51 0 82 38t31 97t-31.5 96.5t-82.5 37.5q-53 0 -86 -37.5t-34 -96.5q1 -59 34.5 -97t86.5 -38z" />
    <glyph glyph-name="Hbar" unicode="&#x126;" horiz-adv-x="750" 
d="M76 0v502h-71v100h71v99l137 -1v-98h324v98h137v-98h71v-100h-71v-502h-137v295h-324v-296zM213 421h324v81h-324v-81z" />
    <glyph glyph-name="hbar" unicode="&#x127;" horiz-adv-x="570" 
d="M58 0l-1 555h-57v85h57v66h132v-66h147v-85h-147v-119q51 76 145 76q91 0 139.5 -55.5t48.5 -170.5v-286h-132v256q0 75 -26 103t-68 29q-51 1 -78.5 -31.5t-27.5 -94.5v0v-262h-132z" />
    <glyph glyph-name="Imacron" unicode="&#x12a;" horiz-adv-x="289" 
d="M76 0v700h137v-700h-137zM-16 749v114h324v-114h-324z" />
    <glyph glyph-name="imacron" unicode="&#x12b;" horiz-adv-x="262" 
d="M-9 561v114h279v-114h-279zM65 0v500h132v-500h-132z" />
    <glyph glyph-name="Iogonek" unicode="&#x12e;" horiz-adv-x="289" 
d="M76 0v700h137v-700h-137zM169 -212q-58 0 -97 27.5t-39 82.5q0 32 23 60t54 47l102 -5q-30 -21 -51 -45.5t-21 -49.5t27 -25q13 0 22.5 3t14.5 6l39 -83q-28 -18 -74 -18z" />
    <glyph glyph-name="iogonek" unicode="&#x12f;" horiz-adv-x="262" 
d="M65 0v500h132v-500h-132zM131 581q-31 0 -53.5 22.5t-22.5 53.5t22.5 53.5t53.5 22.5t53.5 -22.5t22.5 -53.5t-22.5 -53.5t-53.5 -22.5zM153 -212q-58 0 -97 27.5t-39 82.5q0 32 23 60t54 47l102 -5q-30 -21 -51 -45.5t-21 -49.5t27 -25q13 0 22.5 3t14.5 6l39 -83
q-28 -18 -74 -18z" />
    <glyph glyph-name="Idotaccent" unicode="&#x130;" horiz-adv-x="289" 
d="M76 0v700h137v-700h-137zM146 769q-31 0 -53.5 22.5t-22.5 53.5t22.5 53.5t53.5 22.5t53.5 -22.5t22.5 -53.5t-22.5 -53.5t-53.5 -22.5z" />
    <glyph glyph-name="dotlessi" unicode="&#x131;" horiz-adv-x="262" 
d="M65 0v500h132v-500h-132z" />
    <glyph glyph-name="IJ" unicode="&#x132;" horiz-adv-x="841" 
d="M76 0v700h137v-700h-137zM520 -14q-68 0 -115 28t-73.5 68t-34.5 77l120 45q11 -44 37.5 -68.5t67.5 -24.5q30 0 57 14t43.5 44.5t16.5 80.5v450h136v-490q0 -70 -33.5 -120t-91 -77t-130.5 -27z" />
    <glyph glyph-name="ij" unicode="&#x133;" horiz-adv-x="553" 
d="M65 0v500h132v-500h-132zM131 581q-31 0 -53.5 22.5t-22.5 53.5t22.5 53.5t53.5 22.5t53.5 -22.5t22.5 -53.5t-22.5 -53.5t-53.5 -22.5zM420 578q-32 0 -55 23t-23 55t23 55t55 23t55 -23t23 -55t-23 -55t-55 -23zM309 -215q-57 0 -109 31l53 109q34 -17 53 -17
q48 0 48 63v529h132v-538q0 -85 -46 -131t-131 -46z" />
    <glyph glyph-name="uni0136" unicode="&#x136;" horiz-adv-x="666" 
d="M76 0v700h135v-277l259 277h177l-295 -316l306 -384h-169l-226 289l-52 -55v-234h-135zM231 -200l46 150h129l-74 -150h-101z" />
    <glyph glyph-name="uni0137" unicode="&#x137;" horiz-adv-x="538" 
d="M57 0v700h132v-388l171 188h157l-189 -211l204 -289h-155l-134 194l-54 -61v-133h-132zM166 -200l46 150h129l-74 -150h-101z" />
    <glyph glyph-name="Lacute" unicode="&#x139;" horiz-adv-x="537" 
d="M76 0v700h137v-575h308v-125h-445zM60 750l114 138h148l-129 -138h-133z" />
    <glyph glyph-name="lacute" unicode="&#x13a;" horiz-adv-x="247" 
d="M57 0l1 700h132l-1 -700h-132zM39 750l114 138h148l-129 -138h-133z" />
    <glyph glyph-name="uni013B" unicode="&#x13b;" horiz-adv-x="537" 
d="M76 0v700h137v-575h308v-125h-445zM183 -200l46 150h129l-74 -150h-101z" />
    <glyph glyph-name="uni013C" unicode="&#x13c;" horiz-adv-x="247" 
d="M57 0l1 700h132l-1 -700h-132zM19 -200l46 150h129l-74 -150h-101z" />
    <glyph glyph-name="Lcaron" unicode="&#x13d;" horiz-adv-x="537" 
d="M76 0v700h137v-575h308v-125h-445zM254 601l36 158h118l-53 -158h-101z" />
    <glyph glyph-name="lcaron" unicode="&#x13e;" horiz-adv-x="247" 
d="M57 0l1 700h132l-1 -700h-132zM210 542l36 158h118l-53 -158h-101z" />
    <glyph glyph-name="Lslash" unicode="&#x141;" horiz-adv-x="537" 
d="M76 0v277l-74 -38v112l74 38v311h137v-242l100 51v-112l-100 -51v-221h308v-125h-445z" />
    <glyph glyph-name="lslash" unicode="&#x142;" horiz-adv-x="270" 
d="M69 0v265l-69 -35v106l69 35v329h132v-261l69 35v-106l-69 -35v-333h-132z" />
    <glyph glyph-name="Nacute" unicode="&#x143;" horiz-adv-x="773" 
d="M76 0v700h143l342 -472v472h136v-700h-136l-348 480v-481zM300 738l114 138h148l-129 -138h-133z" />
    <glyph glyph-name="nacute" unicode="&#x144;" 
d="M57 0v500h124l6 -67q51 79 146 79q91 0 139.5 -55.5t47.5 -170.5v-286h-132v256q0 75 -25.5 103t-67.5 29q-51 1 -78.5 -31.5t-27.5 -94.5v-262h-132zM197 562l114 138h148l-129 -138h-133z" />
    <glyph glyph-name="uni0145" unicode="&#x145;" horiz-adv-x="773" 
d="M76 0v700h143l342 -472v472h136v-700h-136l-348 480v-481zM286 -200l46 150h129l-74 -150h-101z" />
    <glyph glyph-name="uni0146" unicode="&#x146;" 
d="M57 0v500h124l6 -67q51 79 146 79q91 0 139.5 -55.5t47.5 -170.5v-286h-132v256q0 75 -25.5 103t-67.5 29q-51 1 -78.5 -31.5t-27.5 -94.5v-262h-132zM179 -200l46 150h129l-74 -150h-101z" />
    <glyph glyph-name="Ncaron" unicode="&#x147;" horiz-adv-x="773" 
d="M76 0v700h143l342 -472v472h136v-700h-136l-348 480v-481zM189 876h121l72 -73l71 73h121l-124 -138h-137z" />
    <glyph glyph-name="ncaron" unicode="&#x148;" 
d="M57 0v500h124l6 -67q51 79 146 79q91 0 139.5 -55.5t47.5 -170.5v-286h-132v256q0 75 -25.5 103t-67.5 29q-51 1 -78.5 -31.5t-27.5 -94.5v-262h-132zM85 700h121l72 -73l71 73h121l-124 -138h-137z" />
    <glyph glyph-name="Eng" unicode="&#x14a;" horiz-adv-x="773" 
d="M76 0v700h143l342 -472v472h136v-737q0 -85 -46 -131t-132 -46q-58 0 -110 31l53 110q33 -18 53 -18q47 0 47 63v28h-1l-348 480v-481z" />
    <glyph glyph-name="eng" unicode="&#x14b;" 
d="M57 0v500h124l6 -67q51 79 146 79q91 0 139.5 -55.5t47.5 -170.5v-324q0 -85 -45.5 -131t-131.5 -46q-56 0 -108 31l53 109q33 -17 53 -17q47 0 47 63v285q0 75 -25.5 103t-67.5 29q-51 1 -78.5 -31.5t-27.5 -94.5v-262h-132z" />
    <glyph glyph-name="Omacron" unicode="&#x14c;" horiz-adv-x="787" 
d="M199 749v114h389v-114h-389zM396 -12q-106 0 -187.5 46t-127.5 128t-46 187q0 107 46 188.5t126.5 127.5t185.5 46t186 -46t127 -128t46 -188q0 -105 -45.5 -187t-126 -128t-184.5 -46zM396 113q63 0 112 30.5t76.5 83.5t27.5 122q0 70 -28 123t-77.5 83.5t-113.5 30.5
t-113 -30.5t-77 -83.5t-28 -123q0 -69 28 -122t78 -83.5t115 -30.5z" />
    <glyph glyph-name="omacron" unicode="&#x14d;" horiz-adv-x="581" 
d="M301 -12q-77 0 -136 33.5t-92.5 92.5t-33.5 136t33 136t92 92.5t135 33.5q77 0 136 -33.5t92 -92.5t33 -136t-33 -136t-91.5 -92.5t-134.5 -33.5zM301 110q54 0 89 39t35 101t-35.5 101t-90.5 39t-90 -39t-35 -101t35.5 -101t91.5 -39zM126 561v114h324v-114h-324z" />
    <glyph glyph-name="Ohungarumlaut" unicode="&#x150;" horiz-adv-x="787" 
d="M396 -12q-106 0 -187.5 46t-127.5 128t-46 187q0 107 46 188.5t126.5 127.5t185.5 46t186 -46t127 -128t46 -188q0 -105 -45.5 -187t-126 -128t-184.5 -46zM396 113q63 0 112 30.5t76.5 83.5t27.5 122q0 70 -28 123t-77.5 83.5t-113.5 30.5t-113 -30.5t-77 -83.5
t-28 -123q0 -69 28 -122t78 -83.5t115 -30.5zM431 750l100 138h138l-117 -138h-121zM225 750l98 138h137l-115 -138h-120z" />
    <glyph glyph-name="ohungarumlaut" unicode="&#x151;" horiz-adv-x="581" 
d="M301 -12q-77 0 -136 33.5t-92.5 92.5t-33.5 136t33 136t92 92.5t135 33.5q77 0 136 -33.5t92 -92.5t33 -136t-33 -136t-91.5 -92.5t-134.5 -33.5zM301 110q54 0 89 39t35 101t-35.5 101t-90.5 39t-90 -39t-35 -101t35.5 -101t91.5 -39zM325 562l100 138h138l-117 -138
h-121zM119 562l98 138h137l-115 -138h-120z" />
    <glyph glyph-name="OE" unicode="&#x152;" horiz-adv-x="1114" 
d="M396 -14q-106 0 -187.5 46.5t-127.5 128.5t-46 188q0 107 46 189t126.5 128.5t185.5 46.5q62 0 114.5 -19t93.5 -55v61h442v-125h-306v-159h264v-122h-264v-169h311v-125h-447v61q-41 -36 -93 -55.5t-112 -19.5zM396 115q81 0 136.5 49.5t68.5 136.5v96q-13 88 -69.5 138
t-138.5 50q-63 0 -111.5 -30t-76 -83.5t-27.5 -122.5q0 -68 28 -121t77 -83t113 -30z" />
    <glyph glyph-name="oe" unicode="&#x153;" horiz-adv-x="975" 
d="M301 -12q-77 0 -136 33.5t-92.5 92.5t-33.5 136t33 136t92 92.5t135 33.5q77 0 136 -33.5t92 -92.5t33 -136t-33 -136t-91.5 -92.5t-134.5 -33.5zM301 110q54 0 89 39t35 101t-35.5 101t-90.5 39t-90 -39t-35 -101t35.5 -101t91.5 -39zM710 -12q-74 0 -131 33.5t-89 92.5
t-32 136t33 136t91 92.5t134 33.5q65 0 120 -34.5t88.5 -100.5t33.5 -159h-365q8 -56 44.5 -85.5t85.5 -29.5q40 0 66 18.5t41 46.5l116 -46q-32 -63 -90.5 -98.5t-145.5 -35.5zM711 401q-89 0 -112 -85h220q-14 45 -42 65t-66 20z" />
    <glyph glyph-name="Racute" unicode="&#x154;" horiz-adv-x="645" 
d="M76 0v700h121l139 1q74 1 131 -28.5t89 -80.5t32 -118q0 -69 -36.5 -122t-97.5 -80l162 -272h-155l-143 248h-105v-248h-137zM330 575h-117v-202h124q46 0 77.5 28.5t31.5 72.5q0 45 -32.5 73t-83.5 28zM211 750l114 138h148l-129 -138h-133z" />
    <glyph glyph-name="racute" unicode="&#x155;" horiz-adv-x="379" 
d="M57 0v500h132v-92q31 48 78.5 71t98.5 23v-128q-46 0 -86.5 -11.5t-65.5 -36t-25 -63.5v-263h-132zM90 562l114 138h148l-129 -138h-133z" />
    <glyph glyph-name="uni0156" unicode="&#x156;" horiz-adv-x="645" 
d="M76 0v700h121l139 1q74 1 131 -28.5t89 -80.5t32 -118q0 -69 -36.5 -122t-97.5 -80l162 -272h-155l-143 248h-105v-248h-137zM330 575h-117v-202h124q46 0 77.5 28.5t31.5 72.5q0 45 -32.5 73t-83.5 28zM220 -200l46 150h129l-74 -150h-101z" />
    <glyph glyph-name="uni0157" unicode="&#x157;" horiz-adv-x="379" 
d="M57 0v500h132v-92q31 48 78.5 71t98.5 23v-128q-46 0 -86.5 -11.5t-65.5 -36t-25 -63.5v-263h-132zM47 -200l46 150h129l-74 -150h-101z" />
    <glyph glyph-name="Rcaron" unicode="&#x158;" horiz-adv-x="645" 
d="M76 0v700h121l139 1q74 1 131 -28.5t89 -80.5t32 -118q0 -69 -36.5 -122t-97.5 -80l162 -272h-155l-143 248h-105v-248h-137zM330 575h-117v-202h124q46 0 77.5 28.5t31.5 72.5q0 45 -32.5 73t-83.5 28zM100 888h121l72 -73l71 73h121l-124 -138h-137z" />
    <glyph glyph-name="rcaron" unicode="&#x159;" horiz-adv-x="379" 
d="M57 0v500h132v-92q31 48 78.5 71t98.5 23v-128q-46 0 -86.5 -11.5t-65.5 -36t-25 -63.5v-263h-132zM-21 700h121l72 -73l71 73h121l-124 -138h-137z" />
    <glyph glyph-name="Sacute" unicode="&#x15a;" horiz-adv-x="607" 
d="M311 -12q-71 0 -129 23t-95 60t-47 80l134 40q13 -34 46 -59t83 -25q53 -1 86.5 23t33.5 62q0 33 -26.5 56t-72.5 34l-91 24q-77 19 -125 68.5t-48 127.5q0 99 65.5 154.5t185.5 55.5q100 0 163.5 -43t90.5 -117l-133 -41q-12 34 -44 58t-81 24q-50 0 -78.5 -23.5
t-28.5 -64.5q0 -33 22.5 -52.5t61.5 -28.5l92 -23q90 -22 140 -79t50 -127q0 -93 -66.5 -150t-188.5 -57zM227 750l114 138h148l-129 -138h-133z" />
    <glyph glyph-name="sacute" unicode="&#x15b;" horiz-adv-x="479" 
d="M244 -12q-74 0 -130.5 32.5t-81.5 90.5l107 49q15 -25 42 -42t62 -17q34 0 54 10t20 30q0 19 -16 29t-42 17l-47 12q-72 19 -113 60t-41 94q0 75 49 117t141 42q69 0 123.5 -31t71.5 -79l-104 -47q-8 21 -35.5 33t-56.5 12t-45 -12t-16 -33q0 -27 58 -40l63 -16
q49 -12 79 -38t44 -58t14 -64q0 -45 -26 -79t-71 -53t-103 -19zM163 562l114 138h148l-129 -138h-133z" />
    <glyph glyph-name="Scedilla" unicode="&#x15e;" horiz-adv-x="607" 
d="M311 -12q-71 0 -129 23t-95 60t-47 80l134 40q13 -34 46 -59t83 -25q53 -1 86.5 23t33.5 62q0 33 -26.5 56t-72.5 34l-91 24q-77 19 -125 68.5t-48 127.5q0 99 65.5 154.5t185.5 55.5q100 0 163.5 -43t90.5 -117l-133 -41q-12 34 -44 58t-81 24q-50 0 -78.5 -23.5
t-28.5 -64.5q0 -33 22.5 -52.5t61.5 -28.5l92 -23q90 -22 140 -79t50 -127q0 -93 -66.5 -150t-188.5 -57zM268 -198q-48 0 -96 29l20 63q15 -8 29 -13t27 -5q17 0 29 6t12 21q0 36 -65 42l30 73l76 -6l-13 -29q70 -25 70 -84q0 -97 -119 -97z" />
    <glyph glyph-name="scedilla" unicode="&#x15f;" horiz-adv-x="479" 
d="M244 -12q-74 0 -130.5 32.5t-81.5 90.5l107 49q15 -25 42 -42t62 -17q34 0 54 10t20 30q0 19 -16 29t-42 17l-47 12q-72 19 -113 60t-41 94q0 75 49 117t141 42q69 0 123.5 -31t71.5 -79l-104 -47q-8 21 -35.5 33t-56.5 12t-45 -12t-16 -33q0 -27 58 -40l63 -16
q49 -12 79 -38t44 -58t14 -64q0 -45 -26 -79t-71 -53t-103 -19zM196 -210q-48 0 -96 29l20 63q15 -8 29 -13t27 -5q17 0 29 6t12 21q0 36 -65 42l30 73l76 -6l-13 -29q70 -25 70 -84q0 -97 -119 -97z" />
    <glyph glyph-name="Scaron" unicode="&#x160;" horiz-adv-x="607" 
d="M311 -12q-71 0 -129 23t-95 60t-47 80l134 40q13 -34 46 -59t83 -25q53 -1 86.5 23t33.5 62q0 33 -26.5 56t-72.5 34l-91 24q-77 19 -125 68.5t-48 127.5q0 99 65.5 154.5t185.5 55.5q100 0 163.5 -43t90.5 -117l-133 -41q-12 34 -44 58t-81 24q-50 0 -78.5 -23.5
t-28.5 -64.5q0 -33 22.5 -52.5t61.5 -28.5l92 -23q90 -22 140 -79t50 -127q0 -93 -66.5 -150t-188.5 -57zM115 888h121l72 -73l71 73h121l-124 -138h-137z" />
    <glyph glyph-name="scaron" unicode="&#x161;" horiz-adv-x="479" 
d="M244 -12q-74 0 -130.5 32.5t-81.5 90.5l107 49q15 -25 42 -42t62 -17q34 0 54 10t20 30q0 19 -16 29t-42 17l-47 12q-72 19 -113 60t-41 94q0 75 49 117t141 42q69 0 123.5 -31t71.5 -79l-104 -47q-8 21 -35.5 33t-56.5 12t-45 -12t-16 -33q0 -27 58 -40l63 -16
q49 -12 79 -38t44 -58t14 -64q0 -45 -26 -79t-71 -53t-103 -19zM51 700h121l72 -73l71 73h121l-124 -138h-137z" />
    <glyph glyph-name="Tcaron" unicode="&#x164;" horiz-adv-x="584" 
d="M224 0v575h-210v125h556v-125h-209v-575h-137zM96 888h121l72 -73l71 73h121l-124 -138h-137z" />
    <glyph glyph-name="tcaron" unicode="&#x165;" horiz-adv-x="423" 
d="M266 571l36 139h119l-54 -139h-101zM273 -12q-83 0 -125.5 41t-42.5 117v242h-81v112h81v156h132v-156h125v-112h-125v-213q0 -65 55 -65q21 0 47 18l46 -99q-25 -18 -54 -29.5t-58 -11.5z" />
    <glyph glyph-name="Umacron" unicode="&#x16a;" horiz-adv-x="704" 
d="M191 749v114h322v-114h-322zM66 261v439h137v-439q0 -68 40.5 -108t108.5 -40q67 0 108 40t41 108v439h137v-439q0 -84 -35.5 -145.5t-100 -95.5t-152.5 -34q-87 0 -150.5 34t-98.5 95.5t-35 145.5z" />
    <glyph glyph-name="umacron" unicode="&#x16b;" 
d="M180 244q0 -75 25.5 -103t67.5 -29q52 -1 79 31.5t27 94.5v262h132v-500h-124l-5 67q-51 -79 -147 -79q-91 0 -139.5 55.5t-47.5 170.5v286h132v-256zM120 561v114h324v-114h-324z" />
    <glyph glyph-name="Ubreve" unicode="&#x16c;" horiz-adv-x="704" 
d="M66 261v439h137v-439q0 -68 40.5 -108t108.5 -40q67 0 108 40t41 108v439h137v-439q0 -84 -35.5 -145.5t-100 -95.5t-152.5 -34q-87 0 -150.5 34t-98.5 95.5t-35 145.5zM417 888h122q0 -43 -24 -76.5t-66 -52t-96 -18.5q-55 0 -97 18.5t-66 52t-24 76.5h122
q0 -24 18.5 -39t46.5 -15t46 15t18 39z" />
    <glyph glyph-name="ubreve" unicode="&#x16d;" 
d="M180 244q0 -75 25.5 -103t67.5 -29q52 -1 79 31.5t27 94.5v262h132v-500h-124l-5 67q-51 -79 -147 -79q-91 0 -139.5 55.5t-47.5 170.5v286h132v-256zM347 700h122q0 -43 -24 -76.5t-66 -52t-96 -18.5q-55 0 -97 18.5t-66 52t-24 76.5h122q0 -24 18.5 -39t46.5 -15t46 15
t18 39z" />
    <glyph glyph-name="Uring" unicode="&#x16e;" horiz-adv-x="704" 
d="M66 261v439h137v-439q0 -68 40.5 -108t108.5 -40q67 0 108 40t41 108v439h137v-439q0 -84 -35.5 -145.5t-100 -95.5t-152.5 -34q-87 0 -150.5 34t-98.5 95.5t-35 145.5zM352 726q-32 0 -59 15t-43 40t-16 56t16 56.5t43 40.5t59 15t58.5 -15t42.5 -40.5t16 -56.5t-16 -56
t-42.5 -40t-58.5 -15zM352 802q34 0 34 35q0 36 -34 36q-35 0 -35 -36q0 -35 35 -35z" />
    <glyph glyph-name="uring" unicode="&#x16f;" 
d="M180 244q0 -75 25.5 -103t67.5 -29q52 -1 79 31.5t27 94.5v262h132v-500h-124l-5 67q-51 -79 -147 -79q-91 0 -139.5 55.5t-47.5 170.5v286h132v-256zM282 538q-32 0 -59 15t-43 40t-16 56t16 56.5t43 40.5t59 15t58.5 -15t42.5 -40.5t16 -56.5t-16 -56t-42.5 -40
t-58.5 -15zM282 614q34 0 34 35q0 36 -34 36q-35 0 -35 -36q0 -35 35 -35z" />
    <glyph glyph-name="Uhungarumlaut" unicode="&#x170;" horiz-adv-x="704" 
d="M66 261v439h137v-439q0 -68 40.5 -108t108.5 -40q67 0 108 40t41 108v439h137v-439q0 -84 -35.5 -145.5t-100 -95.5t-152.5 -34q-87 0 -150.5 34t-98.5 95.5t-35 145.5zM389 750l100 138h138l-117 -138h-121zM183 750l98 138h137l-115 -138h-120z" />
    <glyph glyph-name="uhungarumlaut" unicode="&#x171;" 
d="M180 244q0 -75 25.5 -103t67.5 -29q52 -1 79 31.5t27 94.5v262h132v-500h-124l-5 67q-51 -79 -147 -79q-91 0 -139.5 55.5t-47.5 170.5v286h132v-256zM320 562l100 138h138l-117 -138h-121zM114 562l98 138h137l-115 -138h-120z" />
    <glyph glyph-name="Uogonek" unicode="&#x172;" horiz-adv-x="704" 
d="M66 261v439h137v-439q0 -68 40.5 -108t108.5 -40q67 0 108 40t41 108v439h137v-439q0 -84 -35.5 -145.5t-100 -95.5t-152.5 -34q-87 0 -150.5 34t-98.5 95.5t-35 145.5zM538 -205q-65 0 -109 25.5t-44 74.5q0 51 41.5 88.5t103.5 73.5l24 -1q-42 -40 -54.5 -70.5
t-12.5 -58.5q0 -40 41 -40q15 0 27 2t23 6l39 -82q-17 -10 -36.5 -14t-42.5 -4z" />
    <glyph glyph-name="uogonek" unicode="&#x173;" 
d="M180 244q0 -75 25.5 -103t67.5 -29q52 -1 79 31.5t27 94.5v262h132v-500h-124l-5 67q-51 -79 -147 -79q-91 0 -139.5 55.5t-47.5 170.5v286h132v-256zM468 -212q-58 0 -97 27.5t-39 82.5q0 32 23 60t54 47l102 -5q-30 -21 -51 -45.5t-21 -49.5t27 -25q13 0 22.5 3t14.5 6
l39 -83q-28 -18 -74 -18z" />
    <glyph glyph-name="Wcircumflex" unicode="&#x174;" horiz-adv-x="985" 
d="M215 0l-207 700h139l142 -498l135 498h136l137 -490l141 490h139l-209 -700h-144l-132 493l-134 -493h-143zM296 743l124 139h137l124 -139h-120l-72 68l-73 -68h-120z" />
    <glyph glyph-name="wcircumflex" unicode="&#x175;" horiz-adv-x="835" 
d="M180 0l-170 500h134l104 -327l105 327h130l102 -320l106 320h134l-170 -500h-130l-107 342l-108 -342h-130zM222 573l124 139h137l124 -139h-120l-72 68l-73 -68h-120z" />
    <glyph glyph-name="Ycircumflex" unicode="&#x176;" horiz-adv-x="647" 
d="M255 0v295l-248 405h156l160 -269l161 269h156l-248 -404v-296h-137zM127 743l124 139h137l124 -139h-120l-72 68l-73 -68h-120z" />
    <glyph glyph-name="ycircumflex" unicode="&#x177;" horiz-adv-x="576" 
d="M157 -212q-27 0 -59.5 10.5t-57.5 24.5l49 107q17 -9 31.5 -14.5t25.5 -5.5q44 0 63 45l21 50l-226 495h145l142 -346l136 346h145l-227 -543q-21 -50 -43.5 -88.5t-56.5 -59.5t-88 -21zM92 573l124 139h137l124 -139h-120l-72 68l-73 -68h-120z" />
    <glyph glyph-name="Ydieresis" unicode="&#x178;" horiz-adv-x="647" 
d="M255 0v295l-248 405h156l160 -269l161 269h156l-248 -404v-296h-137zM194 763q-29 0 -49 20.5t-20 48.5t20 48.5t49 20.5q28 0 48 -20.5t20 -48.5t-20 -48.5t-48 -20.5zM452 763q-27 0 -47.5 20.5t-20.5 48.5t20.5 48.5t47.5 20.5q28 0 48.5 -20.5t20.5 -48.5
t-20.5 -48.5t-48.5 -20.5z" />
    <glyph glyph-name="Zacute" unicode="&#x179;" horiz-adv-x="632" 
d="M38 0v128l379 444h-376v128h553v-128l-378 -444h375v-128h-553zM233 750l114 138h148l-129 -138h-133z" />
    <glyph glyph-name="zacute" unicode="&#x17a;" horiz-adv-x="477" 
d="M32 0v96l249 295h-249v109h412v-95l-250 -297h251v-108h-413zM154 562l114 138h148l-129 -138h-133z" />
    <glyph glyph-name="Zdotaccent" unicode="&#x17b;" horiz-adv-x="632" 
d="M38 0v128l379 444h-376v128h553v-128l-378 -444h375v-128h-553zM317 769q-31 0 -53.5 22.5t-22.5 53.5t22.5 53.5t53.5 22.5t53.5 -22.5t22.5 -53.5t-22.5 -53.5t-53.5 -22.5z" />
    <glyph glyph-name="zdotaccent" unicode="&#x17c;" horiz-adv-x="477" 
d="M32 0v96l249 295h-249v109h412v-95l-250 -297h251v-108h-413zM238 581q-31 0 -53.5 22.5t-22.5 53.5t22.5 53.5t53.5 22.5t53.5 -22.5t22.5 -53.5t-22.5 -53.5t-53.5 -22.5z" />
    <glyph glyph-name="Zcaron" unicode="&#x17d;" horiz-adv-x="632" 
d="M38 0v128l379 444h-376v128h553v-128l-378 -444h375v-128h-553zM121 888h121l72 -73l71 73h121l-124 -138h-137z" />
    <glyph glyph-name="zcaron" unicode="&#x17e;" horiz-adv-x="477" 
d="M32 0v96l249 295h-249v109h412v-95l-250 -297h251v-108h-413zM42 700h121l72 -73l71 73h121l-124 -138h-137z" />
    <glyph glyph-name="uni01CD" unicode="&#x1cd;" horiz-adv-x="714" 
d="M8 0l276 700h146l276 -700h-145l-59 154h-290l-59 -154h-145zM258 275h198l-99 258zM161 888h121l72 -73l71 73h121l-124 -138h-137z" />
    <glyph glyph-name="uni01CE" unicode="&#x1ce;" horiz-adv-x="528" 
d="M228 -12q-90 0 -139.5 40t-49.5 113q0 80 53 120.5t149 40.5h117q-7 47 -29.5 72.5t-65.5 25.5q-32 0 -57.5 -13.5t-42.5 -43.5l-111 39q14 32 41 62t69.5 49t102.5 19q112 0 167.5 -60.5t55.5 -175.5v-276h-123l-1 54q-21 -32 -54.5 -49t-81.5 -17zM247 93q33 0 58.5 16
t40.5 42t15 54h1v3h-79q-66 0 -91.5 -17t-25.5 -46q0 -25 21.5 -38.5t59.5 -13.5zM56 700h121l72 -73l71 73h121l-124 -138h-137z" />
    <glyph glyph-name="uni0218" unicode="&#x218;" horiz-adv-x="607" 
d="M311 -12q-71 0 -129 23t-95 60t-47 80l134 40q13 -34 46 -59t83 -25q53 -1 86.5 23t33.5 62q0 33 -26.5 56t-72.5 34l-91 24q-77 19 -125 68.5t-48 127.5q0 99 65.5 154.5t185.5 55.5q100 0 163.5 -43t90.5 -117l-133 -41q-12 34 -44 58t-81 24q-50 0 -78.5 -23.5
t-28.5 -64.5q0 -33 22.5 -52.5t61.5 -28.5l92 -23q90 -22 140 -79t50 -127q0 -93 -66.5 -150t-188.5 -57zM208 -200l46 150h129l-74 -150h-101z" />
    <glyph glyph-name="uni0219" unicode="&#x219;" horiz-adv-x="479" 
d="M244 -12q-74 0 -130.5 32.5t-81.5 90.5l107 49q15 -25 42 -42t62 -17q34 0 54 10t20 30q0 19 -16 29t-42 17l-47 12q-72 19 -113 60t-41 94q0 75 49 117t141 42q69 0 123.5 -31t71.5 -79l-104 -47q-8 21 -35.5 33t-56.5 12t-45 -12t-16 -33q0 -27 58 -40l63 -16
q49 -12 79 -38t44 -58t14 -64q0 -45 -26 -79t-71 -53t-103 -19zM136 -212l46 150h129l-74 -150h-101z" />
    <glyph glyph-name="uni021A" unicode="&#x21a;" horiz-adv-x="584" 
d="M224 0v575h-210v125h556v-125h-209v-575h-137zM190 -200l46 150h129l-74 -150h-101z" />
    <glyph glyph-name="uni021B" unicode="&#x21b;" horiz-adv-x="406" 
d="M273 -12q-83 0 -125.5 41t-42.5 117v242h-81v112h81v156h132v-156h125v-112h-125v-213q0 -65 55 -65q21 0 47 18l46 -99q-25 -18 -54 -29.5t-58 -11.5zM125 -200l46 150h129l-74 -150h-101z" />
    <glyph glyph-name="uni0237" unicode="&#x237;" horiz-adv-x="279" 
d="M47 -215q-57 0 -109 31l53 109q34 -17 53 -17q48 0 48 63v529h132v-538q0 -85 -46 -131t-131 -46z" />
    <glyph glyph-name="circumflex" unicode="&#x2c6;" horiz-adv-x="405" 
d="M10 573l124 139h137l124 -139h-120l-72 68l-73 -68h-120z" />
    <glyph glyph-name="caron" unicode="&#x2c7;" horiz-adv-x="405" 
d="M10 700h121l72 -73l71 73h121l-124 -138h-137z" />
    <glyph glyph-name="breve" unicode="&#x2d8;" horiz-adv-x="373" 
d="M251 700h122q0 -43 -24 -76.5t-66 -52t-96 -18.5q-55 0 -97 18.5t-66 52t-24 76.5h122q0 -24 18.5 -39t46.5 -15t46 15t18 39z" />
    <glyph glyph-name="dotaccent" unicode="&#x2d9;" horiz-adv-x="262" 
d="M76 581q-31 0 -53.5 22.5t-22.5 53.5t22.5 53.5t53.5 22.5t53.5 -22.5t22.5 -53.5t-22.5 -53.5t-53.5 -22.5z" />
    <glyph glyph-name="ring" unicode="&#x2da;" horiz-adv-x="600" 
d="M332 606q-32 0 -59 15t-43 40t-16 56t16 56.5t43 40.5t59 15t58.5 -15t42.5 -40.5t16 -56.5t-16 -56t-42.5 -40t-58.5 -15zM332 682q34 0 34 35q0 36 -34 36q-35 0 -35 -36q0 -35 35 -35z" />
    <glyph glyph-name="ogonek" unicode="&#x2db;" horiz-adv-x="250" 
d="M164 -212q-58 0 -97 27.5t-39 82.5q0 32 23 60t54 47l102 -5q-30 -21 -51 -45.5t-21 -49.5t27 -25q13 0 22.5 3t14.5 6l39 -83q-28 -18 -74 -18z" />
    <glyph glyph-name="tilde" unicode="&#x2dc;" horiz-adv-x="392" 
d="M263 549q-33 0 -52.5 11t-31 25t-21 25t-24.5 11q-12 0 -21 -7t-14 -31h-89q14 124 120 124q34 0 54 -11t32 -25t22 -25t25 -11t21.5 11t8.5 28h89q-7 -56 -35.5 -90.5t-83.5 -34.5z" />
    <glyph glyph-name="hungarumlaut" unicode="&#x2dd;" horiz-adv-x="462" 
d="M218 562l100 138h138l-117 -138h-121zM12 562l98 138h137l-115 -138h-120z" />
    <glyph glyph-name="gravecomb" unicode="&#x300;" horiz-adv-x="0" 
d="M345 562h-133l-131 139h148z" />
    <glyph glyph-name="acutecomb" unicode="&#x301;" horiz-adv-x="0" 
d="M240 562l114 138h148l-129 -138h-133z" />
    <glyph glyph-name="uni0302" unicode="&#x302;" horiz-adv-x="0" 
d="M6 573l124 139h137l124 -139h-120l-72 68l-73 -68h-120z" />
    <glyph glyph-name="tildecomb" unicode="&#x303;" horiz-adv-x="0" 
d="M342 549q-33 0 -52.5 11t-31 25t-21 25t-24.5 11q-12 0 -21 -7t-14 -31h-89q14 124 120 124q34 0 54 -11t32 -25t22 -25t25 -11t21.5 11t8.5 28h89q-7 -56 -35.5 -90.5t-83.5 -34.5z" />
    <glyph glyph-name="uni0304" unicode="&#x304;" horiz-adv-x="0" 
d="M-12 561v114h324v-114h-324z" />
    <glyph glyph-name="uni0306" unicode="&#x306;" horiz-adv-x="0" 
d="M251 700h122q0 -43 -24 -76.5t-66 -52t-96 -18.5q-55 0 -97 18.5t-66 52t-24 76.5h122q0 -24 18.5 -39t46.5 -15t46 15t18 39z" />
    <glyph glyph-name="uni0307" unicode="&#x307;" horiz-adv-x="0" 
d="M76 581q-31 0 -53.5 22.5t-22.5 53.5t22.5 53.5t53.5 22.5t53.5 -22.5t22.5 -53.5t-22.5 -53.5t-53.5 -22.5z" />
    <glyph glyph-name="uni0308" unicode="&#x308;" horiz-adv-x="0" 
d="M93 593q-29 0 -49 20.5t-20 48.5t20 48.5t49 20.5q28 0 48 -20.5t20 -48.5t-20 -48.5t-48 -20.5zM351 593q-27 0 -47.5 20.5t-20.5 48.5t20.5 48.5t47.5 20.5q28 0 48.5 -20.5t20.5 -48.5t-20.5 -48.5t-48.5 -20.5z" />
    <glyph glyph-name="uni030A" unicode="&#x30a;" horiz-adv-x="0" 
d="M162 538q-32 0 -59 15t-43 40t-16 56t16 56.5t43 40.5t59 15t58.5 -15t42.5 -40.5t16 -56.5t-16 -56t-42.5 -40t-58.5 -15zM162 614q34 0 34 35q0 36 -34 36q-35 0 -35 -36q0 -35 35 -35z" />
    <glyph glyph-name="uni030B" unicode="&#x30b;" horiz-adv-x="0" 
d="M208 562l100 138h138l-117 -138h-121zM2 562l98 138h137l-115 -138h-120z" />
    <glyph glyph-name="uni030C" unicode="&#x30c;" horiz-adv-x="0" 
d="M6 700h121l72 -73l71 73h121l-124 -138h-137z" />
    <glyph glyph-name="uni0312" unicode="&#x312;" horiz-adv-x="0" 
d="M198 713l-62 -142h-136l98 142h100z" />
    <glyph glyph-name="uni0326" unicode="&#x326;" horiz-adv-x="0" 
d="M19 -200l46 150h129l-74 -150h-101z" />
    <glyph glyph-name="uni0327" unicode="&#x327;" horiz-adv-x="0" 
d="M262 -210q-48 0 -96 29l20 63q15 -8 29 -13t27 -5q17 0 29 6t12 21q0 36 -65 42l30 73l76 -6l-13 -29q70 -25 70 -84q0 -97 -119 -97z" />
    <glyph glyph-name="uni0328" unicode="&#x328;" horiz-adv-x="0" 
d="M164 -212q-58 0 -97 27.5t-39 82.5q0 32 23 60t54 47l102 -5q-30 -21 -51 -45.5t-21 -49.5t27 -25q13 0 22.5 3t14.5 6l39 -83q-28 -18 -74 -18z" />
    <glyph glyph-name="Wgrave" unicode="&#x1e80;" horiz-adv-x="985" 
d="M215 0l-207 700h139l142 -498l135 498h136l137 -490l141 490h139l-209 -700h-144l-132 493l-134 -493h-143zM600 732h-133l-131 139h148z" />
    <glyph glyph-name="wgrave" unicode="&#x1e81;" horiz-adv-x="835" 
d="M180 0l-170 500h134l104 -327l105 327h130l102 -320l106 320h134l-170 -500h-130l-107 342l-108 -342h-130zM527 562h-133l-131 139h148z" />
    <glyph glyph-name="Wacute" unicode="&#x1e82;" horiz-adv-x="985" 
d="M215 0l-207 700h139l142 -498l135 498h136l137 -490l141 490h139l-209 -700h-144l-132 493l-134 -493h-143zM407 732l114 138h148l-129 -138h-133z" />
    <glyph glyph-name="wacute" unicode="&#x1e83;" horiz-adv-x="835" 
d="M180 0l-170 500h134l104 -327l105 327h130l102 -320l106 320h134l-170 -500h-130l-107 342l-108 -342h-130zM334 562l114 138h148l-129 -138h-133z" />
    <glyph glyph-name="Wdieresis" unicode="&#x1e84;" horiz-adv-x="985" 
d="M215 0l-207 700h139l142 -498l135 498h136l137 -490l141 490h139l-209 -700h-144l-132 493l-134 -493h-143zM363 763q-29 0 -49 20.5t-20 48.5t20 48.5t49 20.5q28 0 48 -20.5t20 -48.5t-20 -48.5t-48 -20.5zM621 763q-27 0 -47.5 20.5t-20.5 48.5t20.5 48.5t47.5 20.5
q28 0 48.5 -20.5t20.5 -48.5t-20.5 -48.5t-48.5 -20.5z" />
    <glyph glyph-name="wdieresis" unicode="&#x1e85;" horiz-adv-x="835" 
d="M180 0l-170 500h134l104 -327l105 327h130l102 -320l106 320h134l-170 -500h-130l-107 342l-108 -342h-130zM289 593q-29 0 -49 20.5t-20 48.5t20 48.5t49 20.5q28 0 48 -20.5t20 -48.5t-20 -48.5t-48 -20.5zM547 593q-27 0 -47.5 20.5t-20.5 48.5t20.5 48.5t47.5 20.5
q28 0 48.5 -20.5t20.5 -48.5t-20.5 -48.5t-48.5 -20.5z" />
    <glyph glyph-name="uni1E9E" unicode="&#x1e9e;" horiz-adv-x="634" 
d="M76 0v542q0 80 62 125t177 45q67 0 120.5 -20t94.5 -49.5t67 -57.5l-77 -103l-1 1l-71 -96q76 -18 113.5 -67.5t37.5 -125.5q0 -97 -57.5 -151.5t-168.5 -54.5q-19 0 -51.5 6.5t-60.5 25.5l37 118q9 -6 26 -13.5t43 -7.5q44 0 71 25.5t27 71.5q0 42 -26 63.5t-83 21.5
h-61v99l130 162q-24 13 -53.5 21t-65.5 8q-44 0 -67 -23t-23 -63v-503h-140z" />
    <glyph glyph-name="Ygrave" unicode="&#x1ef2;" horiz-adv-x="647" 
d="M255 0v295l-248 405h156l160 -269l161 269h156l-248 -404v-296h-137zM432 732h-133l-131 139h148z" />
    <glyph glyph-name="ygrave" unicode="&#x1ef3;" horiz-adv-x="576" 
d="M157 -212q-27 0 -59.5 10.5t-57.5 24.5l49 107q17 -9 31.5 -14.5t25.5 -5.5q44 0 63 45l21 50l-226 495h145l142 -346l136 346h145l-227 -543q-21 -50 -43.5 -88.5t-56.5 -59.5t-88 -21zM396 562h-133l-131 139h148z" />
    <glyph glyph-name="endash" unicode="&#x2013;" horiz-adv-x="550" 
d="M0 241v113h550v-113h-550z" />
    <glyph glyph-name="emdash" unicode="&#x2014;" horiz-adv-x="1100" 
d="M0 241v113h1100v-113h-1100z" />
    <glyph glyph-name="quoteleft" unicode="&#x2018;" horiz-adv-x="219" 
d="M206 700l-62 -236h-136l98 236h100z" />
    <glyph glyph-name="quoteright" unicode="&#x2019;" horiz-adv-x="219" 
d="M13 464l61 236h137l-98 -236h-100z" />
    <glyph glyph-name="quotesinglbase" unicode="&#x201a;" horiz-adv-x="250" 
d="M29 -114l61 236h137l-98 -236h-100z" />
    <glyph glyph-name="quotedblleft" unicode="&#x201c;" horiz-adv-x="415" 
d="M206 702l-62 -236h-136l98 236h100zM402 702l-62 -236h-136l97 236h101z" />
    <glyph glyph-name="quotedblright" unicode="&#x201d;" horiz-adv-x="415" 
d="M209 464l61 236h137l-98 -236h-100zM13 464l61 236h137l-98 -236h-100z" />
    <glyph glyph-name="quotedblbase" unicode="&#x201e;" horiz-adv-x="250" 
d="M29 -114l61 236h137l-98 -236h-100zM29 -114l61 236h137l-98 -236h-100z" />
    <glyph glyph-name="dagger" unicode="&#x2020;" horiz-adv-x="488" 
d="M29 508l173 -19l-19 211h122l-19 -210l172 18v-122l-173 19l26 -405h-134l26 405l-174 -19v122z" />
    <glyph glyph-name="daggerdbl" unicode="&#x2021;" horiz-adv-x="488" 
d="M31 111l169 -16l-13 155l13 155l-173 -16v116l173 -16l-19 211h122l-19 -211l172 16v-116l-172 16l13 -155l-13 -156l176 17v-116l-175 16l24 -211h-134l24 210l-168 -15v116z" />
    <glyph glyph-name="bullet" unicode="&#x2022;" horiz-adv-x="476" 
d="M233 166q-33 0 -60 16.5t-43 43.5t-16 60q0 32 16 59t43 43t60 16q34 0 61 -16t43.5 -43t16.5 -59q0 -33 -16.5 -60t-43.5 -43.5t-61 -16.5z" />
    <glyph glyph-name="ellipsis" unicode="&#x2026;" horiz-adv-x="709" 
d="M124 -15q-32 0 -56 24t-24 57q0 32 24 56t56 24q33 0 56.5 -24t23.5 -56q0 -33 -23.5 -57t-56.5 -24zM354 -15q-32 0 -56 24t-24 57q0 32 24 56t56 24q33 0 56.5 -24t23.5 -56q0 -33 -23.5 -57t-56.5 -24zM585 -15q-32 0 -56 24t-24 57q0 32 24 56t56 24q33 0 56.5 -24
t23.5 -56q0 -33 -23.5 -57t-56.5 -24z" />
    <glyph glyph-name="guilsinglleft" unicode="&#x2039;" horiz-adv-x="400" 
d="M47 298l148 202h151l-143 -202l143 -202h-151z" />
    <glyph glyph-name="guilsinglright" unicode="&#x203a;" horiz-adv-x="400" 
d="M353 298l-148 -202h-151l143 202l-143 202h151z" />
    <glyph glyph-name="fraction" unicode="&#x2044;" horiz-adv-x="222" 
d="M302 700h99l-481 -700h-99z" />
    <glyph glyph-name="uni2070" unicode="&#x2070;" horiz-adv-x="406" 
d="M203 373q-52 0 -92 27.5t-63 76.5t-23 113q0 65 22.5 113.5t62.5 76t92 27.5q53 0 93.5 -27.5t63 -76t22.5 -113.5q0 -64 -22.5 -113t-62.5 -76.5t-93 -27.5zM203 463q36 0 59 35.5t23 91.5t-23 92.5t-60 36.5q-33 0 -54.5 -36.5t-21.5 -92.5t21.5 -91.5t55.5 -35.5z" />
    <glyph glyph-name="uni2074" unicode="&#x2074;" horiz-adv-x="395" 
d="M18 452v80l183 268l1 -1v1h106v-264h66v-84h-66v-72h-94v72h-196zM117 536h97v143z" />
    <glyph glyph-name="uni2075" unicode="&#x2075;" horiz-adv-x="367" 
d="M186 373q-31 0 -63 11t-57 31.5t-35 50.5l94 22q8 -15 23 -22.5t32 -7.5q25 0 41 15.5t16 41.5q0 24 -15.5 40.5t-41.5 16.5q-32 0 -48 -26l-89 20l28 234h245v-90h-160l-14 -84q16 9 36 14.5t43 5.5q49 -1 84 -35.5t35 -89.5q0 -66 -43 -107t-111 -41z" />
    <glyph glyph-name="uni2076" unicode="&#x2076;" horiz-adv-x="362" 
d="M185 373q-55 0 -90 25.5t-52 69.5t-17 98q0 61 17 116t56 90t104 35q72 0 124 -37l-47 -73q-19 13 -40 18.5t-36 5.5q-33 0 -55.5 -25t-28.5 -80q33 36 85 36q39 0 70 -19.5t48.5 -52t17.5 -71.5q0 -59 -42 -97.5t-114 -38.5zM186 456q24 0 40.5 16.5t16.5 41.5
q0 24 -16.5 41.5t-40.5 17.5t-40.5 -17t-16.5 -42t16.5 -41.5t40.5 -16.5z" />
    <glyph glyph-name="uni2077" unicode="&#x2077;" horiz-adv-x="349" 
d="M66 380l151 329h-194v91h305v-71l-152 -349h-110z" />
    <glyph glyph-name="uni2078" unicode="&#x2078;" horiz-adv-x="384" 
d="M191 373q-80 0 -121 32t-41 84q0 38 18.5 66.5t53.5 44.5q-59 29 -59 93q0 50 38.5 82t110.5 32q73 0 111.5 -32t38.5 -82q0 -64 -60 -93q36 -16 54.5 -44.5t18.5 -66.5q0 -52 -41.5 -84t-121.5 -32zM191 633q24 0 39 13.5t15 35.5q0 20 -15 33.5t-39 13.5
q-23 0 -38 -13.5t-15 -33.5q0 -22 15 -35.5t38 -13.5zM191 454q27 0 44 14t17 35q0 24 -17 39.5t-44 15.5q-26 0 -43 -15.5t-17 -39.5q0 -21 17 -35t43 -14z" />
    <glyph glyph-name="uni2079" unicode="&#x2079;" horiz-adv-x="362" 
d="M177 807q55 0 90 -26t52 -69.5t17 -98.5q0 -60 -17 -115t-56 -90.5t-104 -35.5q-71 0 -124 37l47 73q19 -13 40.5 -18t35.5 -5q32 0 54.5 24t28.5 80q-15 -17 -36 -26.5t-48 -9.5q-40 0 -70.5 19.5t-48 52.5t-17.5 72q0 58 42 97t114 39zM176 724q-24 0 -40.5 -16.5
t-16.5 -41.5t16.5 -42.5t40.5 -17.5t40.5 18t16.5 42q0 25 -16.5 41.5t-40.5 16.5z" />
    <glyph glyph-name="uni2080" unicode="&#x2080;" horiz-adv-x="406" 
d="M203 -106q-52 0 -92 27.5t-63 76.5t-23 113q0 65 22.5 113.5t62.5 76t92 27.5q53 0 93.5 -27.5t63 -76t22.5 -113.5q0 -64 -22.5 -113t-62.5 -76.5t-93 -27.5zM203 -16q36 0 59 35.5t23 91.5t-23 92.5t-60 36.5q-33 0 -54.5 -36.5t-21.5 -92.5t21.5 -91.5t55.5 -35.5z
" />
    <glyph glyph-name="uni2081" unicode="&#x2081;" horiz-adv-x="280" 
d="M119 -100v296q-43 -26 -86 -22v90q22 -2 48 15t48 42l1 -1h83v-420h-94z" />
    <glyph glyph-name="uni2082" unicode="&#x2082;" horiz-adv-x="367" 
d="M33 -100v71q0 24 26.5 59t67.5 63l51 35q18 12 35 29t17 35q0 19 -14 32t-42 13q-21 0 -35.5 -13.5t-19.5 -31.5l-102 17q8 47 49.5 83t107.5 36q73 0 115 -37.5t42 -97.5q0 -43 -23.5 -73t-61.5 -56l-51 -35q-24 -17 -46 -42h187v-87h-303z" />
    <glyph glyph-name="uni2083" unicode="&#x2083;" horiz-adv-x="355" 
d="M183 -106q-61 0 -104 27.5t-52 78.5l94 21q6 -13 17.5 -27.5t38.5 -14.5q23 0 37 13t14 35q0 19 -14 33.5t-58 14.5h-33v80h33q36 0 51 12.5t15 33.5q0 18 -12.5 30t-33.5 12q-16 0 -31 -9.5t-22 -32.5l-92 21q6 35 28.5 58.5t54 35.5t65.5 12q39 0 71.5 -14.5t51.5 -41
t19 -60.5t-19 -57.5t-48 -37.5q33 -16 53.5 -42.5t20.5 -60.5q0 -39 -20.5 -65.5t-54 -40.5t-70.5 -14z" />
    <glyph glyph-name="uni2084" unicode="&#x2084;" horiz-adv-x="395" 
d="M18 -28v80l183 268l1 -1v1h106v-264h66v-84h-66v-72h-94v72h-196zM117 56h97v143z" />
    <glyph glyph-name="uni2085" unicode="&#x2085;" horiz-adv-x="367" 
d="M186 -107q-31 0 -63 11t-57 31.5t-35 50.5l94 22q8 -15 23 -22.5t32 -7.5q25 0 41 15.5t16 41.5q0 24 -15.5 40.5t-41.5 16.5q-32 0 -48 -26l-89 20l28 234h245v-90h-160l-14 -84q16 9 36 14.5t43 5.5q49 -1 84 -35.5t35 -89.5q0 -66 -43 -107t-111 -41z" />
    <glyph glyph-name="uni2086" unicode="&#x2086;" horiz-adv-x="362" 
d="M185 -107q-55 0 -90 25.5t-52 69.5t-17 98q0 61 17 116t56 90t104 35q72 0 124 -37l-47 -73q-19 13 -40 18.5t-36 5.5q-33 0 -55.5 -25t-28.5 -80q33 36 85 36q39 0 70 -19.5t48.5 -52t17.5 -71.5q0 -59 -42 -97.5t-114 -38.5zM186 -24q24 0 40.5 16.5t16.5 41.5
q0 24 -16.5 41.5t-40.5 17.5t-40.5 -17t-16.5 -42t16.5 -41.5t40.5 -16.5z" />
    <glyph glyph-name="uni2087" unicode="&#x2087;" horiz-adv-x="349" 
d="M66 -100l151 329h-194v91h305v-71l-152 -349h-110z" />
    <glyph glyph-name="uni2088" unicode="&#x2088;" horiz-adv-x="384" 
d="M191 -107q-80 0 -121 32t-41 84q0 38 18.5 66.5t53.5 44.5q-59 29 -59 93q0 50 38.5 82t110.5 32q73 0 111.5 -32t38.5 -82q0 -64 -60 -93q36 -16 54.5 -44.5t18.5 -66.5q0 -52 -41.5 -84t-121.5 -32zM191 153q24 0 39 13.5t15 35.5q0 20 -15 33.5t-39 13.5
q-23 0 -38 -13.5t-15 -33.5q0 -22 15 -35.5t38 -13.5zM191 -26q27 0 44 14t17 35q0 24 -17 39.5t-44 15.5q-26 0 -43 -15.5t-17 -39.5q0 -21 17 -35t43 -14z" />
    <glyph glyph-name="uni2089" unicode="&#x2089;" horiz-adv-x="362" 
d="M177 327q55 0 90 -26t52 -69.5t17 -98.5q0 -60 -17 -115t-56 -90.5t-104 -35.5q-71 0 -124 37l47 73q19 -13 40.5 -18t35.5 -5q32 0 54.5 24t28.5 80q-15 -17 -36 -26.5t-48 -9.5q-40 0 -70.5 19.5t-48 52.5t-17.5 72q0 58 42 97t114 39zM176 244q-24 0 -40.5 -16.5
t-16.5 -41.5t16.5 -42.5t40.5 -17.5t40.5 18t16.5 42q0 25 -16.5 41.5t-40.5 16.5z" />
    <glyph glyph-name="Euro" unicode="&#x20ac;" horiz-adv-x="695" 
d="M14 256v70h75q-1 12 -1 24q0 13 1 24h-75v70h83q16 81 58 141t103.5 93.5t138.5 33.5q62 0 115.5 -24.5t93 -68.5t61.5 -102l-120 -47q-21 53 -60.5 85t-89.5 32q-56 0 -97.5 -38.5t-59.5 -104.5h231v-70h-242q-1 -11 -1 -24t1 -24h242v-70h-231q19 -66 61 -104.5
t99 -38.5q52 0 90 34t59 88l121 -46q-22 -60 -62 -105t-93.5 -70.5t-116.5 -25.5q-77 0 -139 33.5t-104 93.5t-58 141h-83z" />
    <glyph glyph-name="trademark" unicode="&#x2122;" horiz-adv-x="879" 
d="M131 280v329h-122v91h342v-91h-121v-329h-99zM401 280v420h99v0h10l110 -163l110 163h10v0h99v-420h-99v266l-120 -175l-120 174v-265h-99z" />
    <glyph glyph-name="oneeighth" unicode="&#x215b;" horiz-adv-x="886" 
d="M119 280v296q-43 -26 -86 -22v90q22 -2 48 15t48 42l1 -1h83v-420h-94zM582 700h99l-481 -700h-99zM693 -7q-80 0 -121 32t-41 84q0 38 18.5 66.5t53.5 44.5q-59 29 -59 93q0 50 38.5 82t110.5 32q73 0 111.5 -32t38.5 -82q0 -64 -60 -93q36 -16 54.5 -44.5t18.5 -66.5
q0 -52 -41.5 -84t-121.5 -32zM693 253q24 0 39 13.5t15 35.5q0 20 -15 33.5t-39 13.5q-23 0 -38 -13.5t-15 -33.5q0 -22 15 -35.5t38 -13.5zM693 74q27 0 44 14t17 35q0 24 -17 39.5t-44 15.5q-26 0 -43 -15.5t-17 -39.5q0 -21 17 -35t43 -14z" />
    <glyph glyph-name="threeeighths" unicode="&#x215c;" horiz-adv-x="960" 
d="M183 273q-61 0 -104 27.5t-52 78.5l94 21q6 -13 17.5 -27.5t38.5 -14.5q23 0 37 13t14 35q0 19 -14 33.5t-58 14.5h-33v80h33q36 0 51 12.5t15 33.5q0 18 -12.5 30t-33.5 12q-16 0 -31 -9.5t-22 -32.5l-92 21q6 35 28.5 58.5t54 35.5t65.5 12q39 0 71.5 -14.5t51.5 -41
t19 -60.5t-19 -57.5t-48 -37.5q33 -16 53.5 -42.5t20.5 -60.5q0 -39 -20.5 -65.5t-54 -40.5t-70.5 -14zM657 700h99l-481 -700h-99zM768 -7q-80 0 -121 32t-41 84q0 38 18.5 66.5t53.5 44.5q-59 29 -59 93q0 50 38.5 82t110.5 32q73 0 111.5 -32t38.5 -82q0 -64 -60 -93
q36 -16 54.5 -44.5t18.5 -66.5q0 -52 -41.5 -84t-121.5 -32zM768 253q24 0 39 13.5t15 35.5q0 20 -15 33.5t-39 13.5q-23 0 -38 -13.5t-15 -33.5q0 -22 15 -35.5t38 -13.5zM768 74q27 0 44 14t17 35q0 24 -17 39.5t-44 15.5q-26 0 -43 -15.5t-17 -39.5q0 -21 17 -35t43 -14z
" />
    <glyph glyph-name="fiveeighths" unicode="&#x215d;" horiz-adv-x="972" 
d="M186 273q-31 0 -63 11t-57 31.5t-35 50.5l94 22q8 -15 23 -22.5t32 -7.5q25 0 41 15.5t16 41.5q0 24 -15.5 40.5t-41.5 16.5q-32 0 -48 -26l-89 20l28 234h245v-90h-160l-14 -84q16 9 36 14.5t43 5.5q49 -1 84 -35.5t35 -89.5q0 -66 -43 -107t-111 -41zM669 700h99
l-481 -700h-99zM780 -7q-80 0 -121 32t-41 84q0 38 18.5 66.5t53.5 44.5q-59 29 -59 93q0 50 38.5 82t110.5 32q73 0 111.5 -32t38.5 -82q0 -64 -60 -93q36 -16 54.5 -44.5t18.5 -66.5q0 -52 -41.5 -84t-121.5 -32zM780 253q24 0 39 13.5t15 35.5q0 20 -15 33.5t-39 13.5
q-23 0 -38 -13.5t-15 -33.5q0 -22 15 -35.5t38 -13.5zM780 74q27 0 44 14t17 35q0 24 -17 39.5t-44 15.5q-26 0 -43 -15.5t-17 -39.5q0 -21 17 -35t43 -14z" />
    <glyph glyph-name="seveneighths" unicode="&#x215e;" horiz-adv-x="926" 
d="M66 280l151 329h-194v91h305v-71l-152 -349h-110zM623 700h99l-481 -700h-99zM734 -7q-80 0 -121 32t-41 84q0 38 18.5 66.5t53.5 44.5q-59 29 -59 93q0 50 38.5 82t110.5 32q73 0 111.5 -32t38.5 -82q0 -64 -60 -93q36 -16 54.5 -44.5t18.5 -66.5q0 -52 -41.5 -84
t-121.5 -32zM734 253q24 0 39 13.5t15 35.5q0 20 -15 33.5t-39 13.5q-23 0 -38 -13.5t-15 -33.5q0 -22 15 -35.5t38 -13.5zM734 74q27 0 44 14t17 35q0 24 -17 39.5t-44 15.5q-26 0 -43 -15.5t-17 -39.5q0 -21 17 -35t43 -14z" />
    <glyph glyph-name="arrowleft" unicode="&#x2190;" horiz-adv-x="751" 
d="M687 242h-405l140 -137l-77 -82l-288 274l285 279l78 -81l-141 -140h408v-113z" />
    <glyph glyph-name="arrowup" unicode="&#x2191;" horiz-adv-x="730" 
d="M424 8h-113v408l-140 -141l-81 79l279 284l274 -288l-82 -77l-137 140v-405z" />
    <glyph glyph-name="arrowright" unicode="&#x2192;" horiz-adv-x="751" 
d="M64 241v113h407l-140 140l78 82l285 -279l-288 -275l-78 82l141 137h-405z" />
    <glyph glyph-name="arrowdown" unicode="&#x2193;" horiz-adv-x="730" 
d="M309 631h113v-407l140 140l81 -78l-278 -285l-275 288l82 78l137 -141v405z" />
    <glyph glyph-name="minus" unicode="&#x2212;" horiz-adv-x="470" 
d="M52 243v109h366v-109h-366z" />
    <glyph glyph-name="uni2215" unicode="&#x2215;" horiz-adv-x="590" 
d="M491 700h89l-481 -700h-89z" />
    <glyph glyph-name="notequal" unicode="&#x2260;" horiz-adv-x="592" 
d="M114 72l52 104h-70v106h123l47 94h-170v106h223l51 102h105l-51 -102h72v-106h-125l-47 -94h172v-106h-225l-52 -104h-105z" />
    <glyph glyph-name="lessequal" unicode="&#x2264;" horiz-adv-x="529" 
d="M443 541v-112l-245 -95l245 -93v-113l-373 154v103zM70 0v92h373v-92h-373z" />
    <glyph glyph-name="greaterequal" unicode="&#x2265;" horiz-adv-x="529" 
d="M86 128v112l245 95l-245 93v112l373 -153v-104zM86 0v92h373v-92h-373z" />
    <glyph glyph-name="uni004A0301" horiz-adv-x="552" 
d="M231 -14q-68 0 -115 28t-73.5 68t-34.5 77l120 45q11 -44 37.5 -68.5t67.5 -24.5q30 0 57 14t43.5 44.5t16.5 80.5v450h136v-490q0 -70 -33.5 -120t-91 -77t-130.5 -27zM331 732l114 138h148l-129 -138h-133z" />
    <glyph glyph-name="i.loclTRK" horiz-adv-x="262" 
d="M65 0v500h132v-500h-132zM131 581q-31 0 -53.5 22.5t-22.5 53.5t22.5 53.5t53.5 22.5t53.5 -22.5t22.5 -53.5t-22.5 -53.5t-53.5 -22.5z" />
    <glyph glyph-name="uni006A0301" horiz-adv-x="279" 
d="M47 -215q-57 0 -109 31l53 109q34 -17 53 -17q48 0 48 63v529h132v-538q0 -85 -46 -131t-131 -46zM73 562l114 138h148l-129 -138h-133z" />
    <glyph glyph-name="a.001" horiz-adv-x="544" 
d="M236 -16q-93 0 -145 41.5t-52 115.5q0 77 52 119.5t145 42.5q79 0 136 -33q-4 63 -33.5 98t-78.5 35q-33 0 -68 -14.5t-65 -40.5l-74 82q35 41 92.5 65t117.5 24q108 0 171 -64t63 -175v-280h-121l-1 48q-50 -64 -139 -64zM161 137q0 -25 26.5 -39.5t73.5 -14.5
q53 0 82.5 26t29.5 73v0v1q-16 13 -42.5 20.5t-57.5 7.5q-53 0 -82.5 -19.5t-29.5 -54.5z" />
    <glyph glyph-name="a.002" horiz-adv-x="595" 
d="M256 -12q-69 0 -119.5 32t-78.5 91t-28 139t28 139t78.5 91t119.5 32q50 0 87.5 -20.5t62.5 -58.5v67h132v-500h-125l-5 69q-25 -39 -63.5 -60t-88.5 -21zM290 109q48 0 80 35t36 91v30q-4 56 -36.5 90.5t-80.5 34.5q-54 0 -88 -39t-34 -101t34.5 -101.5t88.5 -39.5z" />
    <glyph glyph-name="g.001" horiz-adv-x="601" 
d="M256 14q-69 0 -119.5 30t-78.5 84t-28 128q0 78 28 135.5t78.5 89t119.5 31.5q51 0 91 -23.5t65 -66.5v78h132v-458q0 -80 -33.5 -136t-92.5 -85.5t-136 -29.5q-59 0 -109 18.5t-86 50.5t-51 75l110 50q16 -40 51.5 -61t84.5 -21q58 0 94 37t36 98v60q-25 -40 -65 -62
t-91 -22zM294 125q51 0 82 38t31 97t-31.5 96.5t-82.5 37.5q-53 0 -86 -37.5t-34 -96.5q1 -59 34.5 -97t86.5 -38z" />
    <glyph glyph-name="t.001" horiz-adv-x="406" 
d="M273 -12q-83 0 -125.5 41t-42.5 117v248h-81v106h81v156h132v-156h125v-106h-125v-220q0 -73 57 -73q22 0 52 20l45 -98q-25 -16 -56 -25.5t-62 -9.5z" />
    <glyph glyph-name="zero.tf" horiz-adv-x="632" 
d="M316 -12q-85 0 -150 46.5t-102 128t-37 187.5t36.5 187.5t101.5 128t150 46.5t150.5 -46.5t102.5 -128t37 -187.5t-37 -187.5t-102 -128t-150 -46.5zM316 112q45 0 80.5 30.5t55.5 84t20 123.5t-20.5 124t-55.5 84.5t-81 30.5q-45 0 -80 -30.5t-54.5 -84.5t-19.5 -124
t19.5 -123.5t54.5 -84t81 -30.5z" />
    <glyph glyph-name="one.tf" horiz-adv-x="632" 
d="M139 120h147l1 406q-35 -24 -72 -37t-76 -10v124q24 -2 53.5 12.5t57.5 38t50 47.5l1 -1h117l-1 -580h146v-120h-424v120z" />
    <glyph glyph-name="two.tf" horiz-adv-x="632" 
d="M83 0v101q0 44 39 99t104 100l106 76q32 22 59 54.5t27 64.5q0 39 -28 65.5t-80 26.5q-46 0 -75 -26t-38 -61l-141 24q10 50 43.5 93t86.5 69.5t121 26.5q78 0 134 -28t86.5 -76.5t30.5 -112.5q0 -65 -36 -115t-97 -95l-95 -69q-27 -18 -51.5 -41.5t-40.5 -55.5h329v-120
h-484z" />
    <glyph glyph-name="three.tf" horiz-adv-x="632" 
d="M319 -12q-93 0 -158 41t-84 112l126 37q7 -13 19 -30t33 -29t55 -12q50 0 79.5 27.5t29.5 71.5t-34.5 72.5t-116.5 28.5h-42v112h42q70 0 104 24t34 66q0 35 -27 59.5t-70 24.5q-29 0 -58 -14.5t-44 -54.5l-124 37q14 49 48.5 82.5t82 51t99.5 17.5q65 0 116.5 -24.5
t82 -67.5t30.5 -99q0 -55 -31 -94t-81 -62q57 -26 91.5 -71t34.5 -104q0 -64 -33 -109t-87 -69t-117 -24z" />
    <glyph glyph-name="four.tf" horiz-adv-x="632" 
d="M28 138v109l307 453v-1v1h143v-445h121v-117h-121v-138h-128v138h-322zM167 255h183v271z" />
    <glyph glyph-name="five.tf" horiz-adv-x="632" 
d="M318 -12q-48 0 -98.5 16t-91 48t-59.5 79l125 37q22 -32 52.5 -47t63.5 -15q52 0 84.5 32t32.5 84q0 49 -31.5 82t-83.5 33q-32 0 -57.5 -14t-39.5 -33l-123 27l42 383h396v-124h-277l-24 -170q27 16 60 26t73 9q57 -1 103.5 -28t74.5 -74.5t28 -110.5q0 -71 -32 -125
t-88.5 -84.5t-129.5 -30.5z" />
    <glyph glyph-name="six.tf" horiz-adv-x="632" 
d="M325 -12q-94 0 -152 44t-84 119t-26 166q0 80 16.5 151.5t51.5 126.5t89 86t130 31q115 0 202 -62l-68 -100q-31 22 -66.5 32t-65.5 10q-67 0 -110 -52t-51 -163q27 33 67 52.5t89 19.5q67 0 118.5 -31t81 -84.5t29.5 -119.5t-31 -117t-87.5 -80t-132.5 -29zM325 104
q49 0 82 32.5t33 83.5q0 50 -33 84t-82 34q-50 0 -83 -34t-33 -84q0 -51 33 -83.5t83 -32.5z" />
    <glyph glyph-name="seven.tf" horiz-adv-x="632" 
d="M131 0l282 575h-342v125h493v-101l-281 -599h-152z" />
    <glyph glyph-name="eight.tf" horiz-adv-x="632" 
d="M315 -12q-127 0 -195 54t-68 140q0 63 31.5 110.5t90.5 73.5q-48 23 -73.5 63.5t-25.5 92.5q0 84 63.5 137t176.5 53q114 0 178 -53t64 -137q0 -52 -26 -92.5t-74 -63.5q60 -26 91.5 -73.5t31.5 -110.5q0 -86 -69 -140t-196 -54zM315 414q48 0 78.5 25.5t30.5 66.5
q0 43 -30.5 69.5t-78.5 26.5q-47 0 -77 -26.5t-30 -69.5q0 -41 30 -66.5t77 -25.5zM315 102q55 0 90 27.5t35 70.5q0 47 -35 76t-90 29q-54 0 -88.5 -29t-34.5 -76q0 -43 34.5 -70.5t88.5 -27.5z" />
    <glyph glyph-name="nine.tf" horiz-adv-x="632" 
d="M308 711q94 0 151.5 -44t83.5 -118.5t26 -165.5q0 -81 -16.5 -152.5t-51.5 -126t-89 -86t-129 -31.5q-115 0 -203 62l68 100q31 -21 67 -31.5t65 -10.5q67 0 110 52t51 164q-27 -34 -66.5 -53.5t-89.5 -19.5q-67 0 -118.5 31.5t-81 84.5t-29.5 120q0 65 31.5 116t88 80
t132.5 29zM307 596q-49 0 -82 -33t-33 -83q0 -51 33 -84.5t82 -33.5q50 0 83 33.5t33 84.5q0 50 -33 83t-83 33z" />
    <glyph glyph-name="zero.dnom" horiz-adv-x="406" 
d="M203 -6q-52 0 -92 27.5t-63 76.5t-23 113q0 65 22.5 113.5t62.5 76t92 27.5q53 0 93.5 -27.5t63 -76t22.5 -113.5q0 -64 -22.5 -113t-62.5 -76.5t-93 -27.5zM203 84q36 0 59 35.5t23 91.5t-23 92.5t-60 36.5q-33 0 -54.5 -36.5t-21.5 -92.5t21.5 -91.5t55.5 -35.5z" />
    <glyph glyph-name="one.dnom" horiz-adv-x="280" 
d="M119 0v296q-43 -26 -86 -22v90q22 -2 48 15t48 42l1 -1h83v-420h-94z" />
    <glyph glyph-name="two.dnom" horiz-adv-x="367" 
d="M33 0v71q0 24 26.5 59t67.5 63l51 35q18 12 35 29t17 35q0 19 -14 32t-42 13q-21 0 -35.5 -13.5t-19.5 -31.5l-102 17q8 47 49.5 83t107.5 36q73 0 115 -37.5t42 -97.5q0 -43 -23.5 -73t-61.5 -56l-51 -35q-24 -17 -46 -42h187v-87h-303z" />
    <glyph glyph-name="three.dnom" horiz-adv-x="355" 
d="M183 -6q-61 0 -104 27.5t-52 78.5l94 21q6 -13 17.5 -27.5t38.5 -14.5q23 0 37 13t14 35q0 19 -14 33.5t-58 14.5h-33v80h33q36 0 51 12.5t15 33.5q0 18 -12.5 30t-33.5 12q-16 0 -31 -9.5t-22 -32.5l-92 21q6 35 28.5 58.5t54 35.5t65.5 12q39 0 71.5 -14.5t51.5 -41
t19 -60.5t-19 -57.5t-48 -37.5q33 -16 53.5 -42.5t20.5 -60.5q0 -39 -20.5 -65.5t-54 -40.5t-70.5 -14z" />
    <glyph glyph-name="four.dnom" horiz-adv-x="395" 
d="M18 72v80l183 268l1 -1v1h106v-264h66v-84h-66v-72h-94v72h-196zM117 156h97v143z" />
    <glyph glyph-name="five.dnom" horiz-adv-x="367" 
d="M186 -7q-31 0 -63 11t-57 31.5t-35 50.5l94 22q8 -15 23 -22.5t32 -7.5q25 0 41 15.5t16 41.5q0 24 -15.5 40.5t-41.5 16.5q-32 0 -48 -26l-89 20l28 234h245v-90h-160l-14 -84q16 9 36 14.5t43 5.5q49 -1 84 -35.5t35 -89.5q0 -66 -43 -107t-111 -41z" />
    <glyph glyph-name="six.dnom" horiz-adv-x="362" 
d="M185 -7q-55 0 -90 25.5t-52 69.5t-17 98q0 61 17 116t56 90t104 35q72 0 124 -37l-47 -73q-19 13 -40 18.5t-36 5.5q-33 0 -55.5 -25t-28.5 -80q33 36 85 36q39 0 70 -19.5t48.5 -52t17.5 -71.5q0 -59 -42 -97.5t-114 -38.5zM186 76q24 0 40.5 16.5t16.5 41.5
q0 24 -16.5 41.5t-40.5 17.5t-40.5 -17t-16.5 -42t16.5 -41.5t40.5 -16.5z" />
    <glyph glyph-name="seven.dnom" horiz-adv-x="349" 
d="M66 0l151 329h-194v91h305v-71l-152 -349h-110z" />
    <glyph glyph-name="eight.dnom" horiz-adv-x="384" 
d="M191 -7q-80 0 -121 32t-41 84q0 38 18.5 66.5t53.5 44.5q-59 29 -59 93q0 50 38.5 82t110.5 32q73 0 111.5 -32t38.5 -82q0 -64 -60 -93q36 -16 54.5 -44.5t18.5 -66.5q0 -52 -41.5 -84t-121.5 -32zM191 253q24 0 39 13.5t15 35.5q0 20 -15 33.5t-39 13.5
q-23 0 -38 -13.5t-15 -33.5q0 -22 15 -35.5t38 -13.5zM191 74q27 0 44 14t17 35q0 24 -17 39.5t-44 15.5q-26 0 -43 -15.5t-17 -39.5q0 -21 17 -35t43 -14z" />
    <glyph glyph-name="nine.dnom" horiz-adv-x="362" 
d="M177 427q55 0 90 -26t52 -69.5t17 -98.5q0 -60 -17 -115t-56 -90.5t-104 -35.5q-71 0 -124 37l47 73q19 -13 40.5 -18t35.5 -5q32 0 54.5 24t28.5 80q-15 -17 -36 -26.5t-48 -9.5q-40 0 -70.5 19.5t-48 52.5t-17.5 72q0 58 42 97t114 39zM176 344q-24 0 -40.5 -16.5
t-16.5 -41.5t16.5 -42.5t40.5 -17.5t40.5 18t16.5 42q0 25 -16.5 41.5t-40.5 16.5z" />
    <glyph glyph-name="zero.numr" horiz-adv-x="406" 
d="M203 273q-52 0 -92 27.5t-63 76.5t-23 113q0 65 22.5 113.5t62.5 76t92 27.5q53 0 93.5 -27.5t63 -76t22.5 -113.5q0 -64 -22.5 -113t-62.5 -76.5t-93 -27.5zM203 363q36 0 59 35.5t23 91.5t-23 92.5t-60 36.5q-33 0 -54.5 -36.5t-21.5 -92.5t21.5 -91.5t55.5 -35.5z" />
    <glyph glyph-name="one.numr" horiz-adv-x="280" 
d="M119 280v296q-43 -26 -86 -22v90q22 -2 48 15t48 42l1 -1h83v-420h-94z" />
    <glyph glyph-name="two.numr" horiz-adv-x="367" 
d="M33 280v71q0 24 26.5 59t67.5 63l51 35q18 12 35 29t17 35q0 19 -14 32t-42 13q-21 0 -35.5 -13.5t-19.5 -31.5l-102 17q8 47 49.5 83t107.5 36q73 0 115 -37.5t42 -97.5q0 -43 -23.5 -73t-61.5 -56l-51 -35q-24 -17 -46 -42h187v-87h-303z" />
    <glyph glyph-name="three.numr" horiz-adv-x="355" 
d="M183 273q-61 0 -104 27.5t-52 78.5l94 21q6 -13 17.5 -27.5t38.5 -14.5q23 0 37 13t14 35q0 19 -14 33.5t-58 14.5h-33v80h33q36 0 51 12.5t15 33.5q0 18 -12.5 30t-33.5 12q-16 0 -31 -9.5t-22 -32.5l-92 21q6 35 28.5 58.5t54 35.5t65.5 12q39 0 71.5 -14.5t51.5 -41
t19 -60.5t-19 -57.5t-48 -37.5q33 -16 53.5 -42.5t20.5 -60.5q0 -39 -20.5 -65.5t-54 -40.5t-70.5 -14z" />
    <glyph glyph-name="four.numr" horiz-adv-x="395" 
d="M18 352v80l183 268l1 -1v1h106v-264h66v-84h-66v-72h-94v72h-196zM117 436h97v143z" />
    <glyph glyph-name="five.numr" horiz-adv-x="367" 
d="M186 273q-31 0 -63 11t-57 31.5t-35 50.5l94 22q8 -15 23 -22.5t32 -7.5q25 0 41 15.5t16 41.5q0 24 -15.5 40.5t-41.5 16.5q-32 0 -48 -26l-89 20l28 234h245v-90h-160l-14 -84q16 9 36 14.5t43 5.5q49 -1 84 -35.5t35 -89.5q0 -66 -43 -107t-111 -41z" />
    <glyph glyph-name="six.numr" horiz-adv-x="362" 
d="M185 273q-55 0 -90 25.5t-52 69.5t-17 98q0 61 17 116t56 90t104 35q72 0 124 -37l-47 -73q-19 13 -40 18.5t-36 5.5q-33 0 -55.5 -25t-28.5 -80q33 36 85 36q39 0 70 -19.5t48.5 -52t17.5 -71.5q0 -59 -42 -97.5t-114 -38.5zM186 356q24 0 40.5 16.5t16.5 41.5
q0 24 -16.5 41.5t-40.5 17.5t-40.5 -17t-16.5 -42t16.5 -41.5t40.5 -16.5z" />
    <glyph glyph-name="seven.numr" horiz-adv-x="349" 
d="M66 280l151 329h-194v91h305v-71l-152 -349h-110z" />
    <glyph glyph-name="eight.numr" horiz-adv-x="384" 
d="M191 273q-80 0 -121 32t-41 84q0 38 18.5 66.5t53.5 44.5q-59 29 -59 93q0 50 38.5 82t110.5 32q73 0 111.5 -32t38.5 -82q0 -64 -60 -93q36 -16 54.5 -44.5t18.5 -66.5q0 -52 -41.5 -84t-121.5 -32zM191 533q24 0 39 13.5t15 35.5q0 20 -15 33.5t-39 13.5
q-23 0 -38 -13.5t-15 -33.5q0 -22 15 -35.5t38 -13.5zM191 354q27 0 44 14t17 35q0 24 -17 39.5t-44 15.5q-26 0 -43 -15.5t-17 -39.5q0 -21 17 -35t43 -14z" />
    <glyph glyph-name="nine.numr" horiz-adv-x="362" 
d="M177 707q55 0 90 -26t52 -69.5t17 -98.5q0 -60 -17 -115t-56 -90.5t-104 -35.5q-71 0 -124 37l47 73q19 -13 40.5 -18t35.5 -5q32 0 54.5 24t28.5 80q-15 -17 -36 -26.5t-48 -9.5q-40 0 -70.5 19.5t-48 52.5t-17.5 72q0 58 42 97t114 39zM176 624q-24 0 -40.5 -16.5
t-16.5 -41.5t16.5 -42.5t40.5 -17.5t40.5 18t16.5 42q0 25 -16.5 41.5t-40.5 16.5z" />
    <glyph glyph-name="periodcentered.loclCAT" horiz-adv-x="136" 
d="M68 241q-32 0 -56 24t-24 57q0 32 24 56t56 24q33 0 56.5 -24t23.5 -56q0 -33 -23.5 -57t-56.5 -24z" />
    <glyph glyph-name="periodcentered.loclCAT.case" horiz-adv-x="43" 
d="M-52 293q-32 0 -56 24t-24 57q0 32 24 56t56 24q33 0 56.5 -24t23.5 -56q0 -33 -23.5 -57t-56.5 -24z" />
    <glyph glyph-name="uni030C.alt" horiz-adv-x="0" 
d="M18 542l36 158h118l-53 -158h-101z" />
    <glyph glyph-name="uni0328.alt" horiz-adv-x="0" 
d="M171 -212q-65 0 -109 25.5t-44 74.5q0 51 41.5 88.5t103.5 73.5l24 -1q-42 -40 -54.5 -70.5t-12.5 -58.5q0 -40 41 -40q15 0 27 2t23 6l39 -82q-17 -10 -36.5 -14t-42.5 -4z" />
    <glyph glyph-name="Bowl" horiz-adv-x="584" 
d="M251 -12q-69 0 -120 32t-78.5 91t-27.5 139t27.5 139t78.5 91t120 32q94 0 144.5 -71t50.5 -191t-50.5 -191t-144.5 -71zM284 109q52 0 84.5 39.5t32.5 101.5t-33 101t-85 39q-53 0 -87 -39t-35 -101q1 -62 35.5 -101.5t87.5 -39.5z" />
    <glyph glyph-name="arch" horiz-adv-x="371" 
d="M239 256q0 75 -25.5 103t-67.5 29q-51 1 -78.5 -31.5t-27.5 -94.5h-44q0 119 51.5 184.5t136.5 65.5q91 0 139.5 -55.5t47.5 -170.5z" />
    <glyph glyph-name="dollar.BRACKET.550" horiz-adv-x="554" 
d="M231 -103v131q-76 12 -128 52.5t-63 90.5l122 36q8 -22 25.5 -39.5t43.5 -26.5v163l-18 4q-70 18 -112 63t-42 116q0 78 44.5 126t127.5 60v107h110v-108q65 -11 108 -47.5t64 -92.5l-122 -37q-6 17 -18.5 32.5t-31.5 25.5v-156h2q81 -20 125.5 -71.5t44.5 -114.5
q0 -73 -44.5 -121.5t-127.5 -61.5v-131h-110zM187 490q0 -22 11.5 -37.5t32.5 -24.5v130q-44 -19 -44 -68zM383 209q0 37 -42 61v-124q42 21 42 63z" />
    </font>
</defs>
</svg>
