<?xml version="1.0" standalone="no"?>
<!DOCTYPE svg PUBLIC "-//W3C//DTD SVG 1.1//EN" "http://www.w3.org/Graphics/SVG/1.1/DTD/svg11.dtd" >
<svg xmlns="http://www.w3.org/2000/svg" xmlns:xlink="http://www.w3.org/1999/xlink" version="1.1">
<metadata>
Created by FontForge 20170731 at Tue Jun 21 10:31:34 2022
 By Aleksey,,,
</metadata>
<defs>
<font id="Figtree-Light" horiz-adv-x="554" >
  <font-face 
    font-family="Figtree Light"
    font-weight="300"
    font-stretch="normal"
    units-per-em="1000"
    panose-1="0 0 0 0 0 0 0 0 0 0"
    ascent="800"
    descent="-200"
    x-height="500"
    cap-height="700"
    bbox="-170 -220 1100 910"
    underline-thickness="50"
    underline-position="-175"
    unicode-range="U+000D-2265"
  />
<missing-glyph horiz-adv-x="600" 
 />
    <glyph glyph-name=".notdef" horiz-adv-x="600" 
 />
    <glyph glyph-name=".null" horiz-adv-x="600" 
 />
    <glyph glyph-name="nonmarkingreturn" horiz-adv-x="333" 
 />
    <glyph glyph-name="CR" unicode="&#xd;" horiz-adv-x="600" 
 />
    <glyph glyph-name="space" unicode=" " horiz-adv-x="250" 
 />
    <glyph glyph-name="exclam" unicode="!" horiz-adv-x="292" 
d="M114 193v507h64v-507h-64zM146 -14q-19 0 -32.5 13.5t-13.5 32.5t13.5 32.5t32.5 13.5t32.5 -13.5t13.5 -32.5t-13.5 -32.5t-32.5 -13.5z" />
    <glyph glyph-name="quotedbl" unicode="&#x22;" horiz-adv-x="284" 
d="M65 490l-5 226h62l-5 -226h-52zM167 490l-5 226h62l-5 -226h-52z" />
    <glyph glyph-name="numbersign" unicode="#" horiz-adv-x="628" 
d="M118 0l31 200h-139l6 42h140l34 216h-140l6 42h141l31 200h52l-31 -200h178l31 200h52l-31 -200h139l-6 -42h-140l-34 -216h140l-6 -42h-141l-31 -200h-52l31 200h-178l-31 -200h-52zM208 242h178l34 216h-178z" />
    <glyph glyph-name="dollar" unicode="$" horiz-adv-x="567" 
d="M265 -103v127q-92 6 -142.5 47t-67.5 90l56 22q15 -39 55.5 -68.5t98.5 -33.5v245l-28 7q-42 11 -77.5 32t-56.5 53.5t-21 79.5q0 78 46.5 124.5t136.5 53.5v104h59v-104q53 -6 91.5 -27t62 -50.5t32.5 -57.5l-57 -23q-16 39 -49.5 64.5t-79.5 33.5v-238
q91 -23 139.5 -73t48.5 -105q0 -67 -47 -117.5t-141 -58.5v-127h-59zM251 395l14 -3v226q-55 -5 -87 -35t-32 -78q0 -49 29 -74t76 -36zM448 193q0 43 -34 71.5t-90 45.5v-226q59 8 91.5 37t32.5 72z" />
    <glyph glyph-name="percent" unicode="%" horiz-adv-x="775" 
d="M203 390q-45 0 -79.5 21t-54 58t-19.5 84q0 48 19.5 84.5t54 57.5t79.5 21t79.5 -21t54 -57.5t19.5 -84.5q0 -47 -19.5 -84t-54 -58t-79.5 -21zM100 0l497 700h78l-500 -700h-75zM203 450q44 0 71.5 29t27.5 74t-27.5 74t-71.5 29q-43 0 -71 -29t-28 -74t28 -74t71 -29z
M572 -16q-45 0 -79.5 21t-54 58t-19.5 84q0 48 19.5 84.5t54 57.5t79.5 21t79.5 -21t54 -57.5t19.5 -84.5q0 -47 -19.5 -84t-54 -58t-79.5 -21zM572 44q44 0 71.5 29t27.5 74t-27.5 74t-71.5 29q-43 0 -71 -29t-28 -74t28 -74t71 -29z" />
    <glyph glyph-name="ampersand" unicode="&#x26;" horiz-adv-x="642" 
d="M261 -15q-58 0 -103.5 23t-71.5 64.5t-26 94.5q0 47 18 83t48 65t65 53l31 22l-17 20q-32 39 -56 75.5t-24 79.5t21 76.5t56.5 53.5t79.5 20q47 0 85 -19t60 -53t22 -80q0 -37 -18.5 -69t-49.5 -60.5t-67 -53.5l61 -74l109 -133q32 61 32 136l64 -1q0 -54 -13.5 -101
t-39.5 -86l100 -121h-82l-59 71q-42 -41 -99.5 -63.5t-125.5 -22.5zM256 449l19 -23q27 19 52.5 39.5t41.5 44.5t16 53q0 43 -29 68.5t-74 25.5q-38 0 -65.5 -27t-27.5 -65q0 -31 19 -56t48 -60zM124 167q0 -55 38.5 -89.5t98.5 -34.5q57 0 104 20t81 56l-128 155l-57 69
l-35 -24q-25 -17 -48.5 -37.5t-38.5 -47.5t-15 -67z" />
    <glyph glyph-name="quotesingle" unicode="'" horiz-adv-x="182" 
d="M65 490l-5 226h62l-5 -226h-52z" />
    <glyph glyph-name="parenleft" unicode="(" horiz-adv-x="340" 
d="M226 -100q-46 61 -84 132.5t-60 151.5t-22 166q0 87 22 166.5t60 151t84 132.5h64q-46 -64 -84 -137t-60 -151.5t-22 -161.5q0 -82 22 -161t60 -151.5t84 -137.5h-64z" />
    <glyph glyph-name="parenright" unicode=")" horiz-adv-x="340" 
d="M114 -100h-64q47 65 84.5 137.5t59.5 151.5t22 161q0 83 -22 161.5t-59.5 151.5t-84.5 137h64q47 -61 84.5 -132.5t59.5 -151t22 -166.5q0 -86 -22 -166t-59.5 -151.5t-84.5 -132.5z" />
    <glyph glyph-name="asterisk" unicode="*" horiz-adv-x="478" 
d="M165 394l-49 36l83 105l-129 37l19 58l125 -46l-5 132h60l-5 -133l126 45l18 -57l-123 -35l81 -104l-49 -35l-75 111z" />
    <glyph glyph-name="plus" unicode="+" horiz-adv-x="610" 
d="M80 269v57h197v197h57v-197h196v-57h-196v-196h-57v196h-197z" />
    <glyph glyph-name="comma" unicode="," horiz-adv-x="214" 
d="M45 -116l55 202h71l-70 -202h-56z" />
    <glyph glyph-name="hyphen" unicode="-" horiz-adv-x="420" 
d="M60 269v57h300v-57h-300z" />
    <glyph glyph-name="period" unicode="." horiz-adv-x="192" 
d="M96 -14q-19 0 -32.5 13.5t-13.5 32.5t13.5 32.5t32.5 13.5t32.5 -13.5t13.5 -32.5t-13.5 -32.5t-32.5 -13.5z" />
    <glyph glyph-name="slash" unicode="/" horiz-adv-x="372" 
d="M15 -84l276 831h66l-274 -831h-68z" />
    <glyph glyph-name="zero" unicode="0" horiz-adv-x="638" 
d="M319 -12q-79 0 -139.5 46.5t-95 128t-34.5 187.5t34.5 187.5t95 128t139.5 46.5t139.5 -46.5t95 -128t34.5 -187.5t-34.5 -187.5t-95 -128t-139.5 -46.5zM319 46q60 0 106.5 39t72.5 107.5t26 157.5t-26 157.5t-72.5 107.5t-106.5 39t-106.5 -39t-72.5 -107.5t-26 -157.5
t26 -157.5t72.5 -107.5t106.5 -39z" />
    <glyph glyph-name="one" unicode="1" horiz-adv-x="410" 
d="M224 0l2 613q-40 -33 -80.5 -55t-80.5 -22v58q19 0 48.5 15t61 39.5t55.5 51.5h60l-2 -700h-64z" />
    <glyph glyph-name="two" unicode="2" horiz-adv-x="551" 
d="M60 0v58q0 102 104 187l160 121q40 30 63.5 71t23.5 78q0 38 -19 69.5t-52.5 50.5t-78.5 19t-79 -17t-56 -44.5t-31 -58.5l-65 14q12 43 43 80.5t78 60.5t104 23q67 0 116.5 -26t77 -70.5t27.5 -100.5q0 -102 -111 -195l-153 -117q-88 -67 -88 -145h362v-58h-426z" />
    <glyph glyph-name="three" unicode="3" horiz-adv-x="539" 
d="M264 -12q-47 0 -85 14t-65.5 35.5t-46.5 42.5l48 40q12 -15 30.5 -32.5t46.5 -29.5t68 -12q75 0 120 43.5t45 108.5q0 76 -62 114.5t-164 38.5h-10v57h10q93 0 150 32t57 91q0 33 -18 61t-51.5 45t-78.5 17q-43 0 -77.5 -17.5t-61.5 -47.5l-44 38q32 38 78 61.5t109 23.5
q60 0 107 -24t74 -65t27 -91q0 -53 -30 -91.5t-83 -60.5q62 -25 97 -71.5t35 -112.5q0 -62 -29.5 -109t-80.5 -73t-115 -26z" />
    <glyph glyph-name="four" unicode="4" horiz-adv-x="616" 
d="M50 182v49l322 469h63v-459h151v-59h-151v-182h-63v182h-322zM129 241h243v356z" />
    <glyph glyph-name="five" unicode="5" horiz-adv-x="572" 
d="M289 -12q-39 0 -80.5 11t-79 35t-64.5 63l45 39q41 -48 86 -70t93 -22q76 0 123.5 46.5t47.5 121.5q0 76 -46 122.5t-120 46.5q-40 0 -79.5 -17t-61.5 -43l-58 14l30 365h365v-58h-306l-21 -244q29 18 63 28.5t68 10.5q67 0 118 -28.5t80.5 -79.5t29.5 -117t-30 -116.5
t-82.5 -79t-120.5 -28.5z" />
    <glyph glyph-name="six" unicode="6" horiz-adv-x="560" 
d="M298 -12q-73 0 -121.5 28t-77 76t-40 110.5t-11.5 131.5q0 125 33.5 209t93 126.5t136.5 42.5q51 0 102 -16.5t91 -45.5l-39 -45q-68 49 -144 49q-104 0 -160.5 -81t-57.5 -245q28 51 79 80t116 29q68 0 120.5 -28.5t82 -79t29.5 -116.5t-29.5 -117t-82 -79.5
t-120.5 -28.5zM298 46q49 0 87 21t59.5 59t21.5 87t-21.5 86.5t-59.5 58.5t-87 21t-87.5 -21t-60 -58.5t-21.5 -86.5t21.5 -87t60 -59t87.5 -21z" />
    <glyph glyph-name="seven" unicode="7" horiz-adv-x="530" 
d="M77 0l353 642h-385v58h455v-58l-352 -642h-71z" />
    <glyph glyph-name="eight" unicode="8" horiz-adv-x="615" 
d="M307 -12q-72 0 -128 24.5t-87.5 68.5t-31.5 101q0 62 34.5 109t94.5 71q-47 24 -74.5 65t-27.5 95q0 56 28 99t78 67t114 24q65 0 114.5 -24t78 -67t28.5 -99q0 -54 -27.5 -95t-74.5 -65q59 -24 94 -71t35 -109q0 -58 -32 -101.5t-87.5 -68t-128.5 -24.5zM307 394
q69 0 113 34t44 89q0 61 -44 99t-113 38q-68 0 -112 -38t-44 -99q0 -55 44 -89t112 -34zM307 46q81 0 132.5 39t51.5 101q0 63 -51.5 102t-132.5 39q-54 0 -95 -17.5t-64.5 -49.5t-23.5 -74q0 -41 23.5 -73t64.5 -49.5t95 -17.5z" />
    <glyph glyph-name="nine" unicode="9" horiz-adv-x="560" 
d="M262 712q74 0 122 -28t76.5 -76t40 -110.5t11.5 -131.5q0 -124 -33.5 -208.5t-93 -127t-136.5 -42.5q-51 0 -102 16.5t-91 45.5l39 45q68 -49 144 -49q104 0 160.5 81t57.5 245q-28 -51 -79 -80t-116 -29q-68 0 -120.5 28.5t-82 79t-29.5 116.5q0 67 29.5 117.5t82 79
t120.5 28.5zM262 654q-49 0 -87 -21t-59.5 -58.5t-21.5 -87.5q0 -49 21.5 -86.5t59.5 -58.5t87 -21q50 0 88 21t59.5 58.5t21.5 86.5q0 50 -21.5 87.5t-59.5 58.5t-88 21z" />
    <glyph glyph-name="colon" unicode=":" horiz-adv-x="234" 
d="M116 410q-19 0 -32.5 13.5t-13.5 32.5t13.5 32.5t32.5 13.5t32.5 -13.5t13.5 -32.5t-13.5 -32.5t-32.5 -13.5zM118 -2q-19 0 -32.5 13.5t-13.5 32.5t13.5 32.5t32.5 13.5t32.5 -13.5t13.5 -32.5t-13.5 -32.5t-32.5 -13.5z" />
    <glyph glyph-name="semicolon" unicode=";" horiz-adv-x="241" 
d="M112 410q-19 0 -32.5 13.5t-13.5 32.5t13.5 32.5t32.5 13.5t32.5 -13.5t13.5 -32.5t-13.5 -32.5t-32.5 -13.5zM45 -116l55 202h71l-70 -202h-56z" />
    <glyph glyph-name="less" unicode="&#x3c;" horiz-adv-x="541" 
d="M431 490v-62l-263 -130l263 -127v-63l-331 157v66z" />
    <glyph glyph-name="equal" unicode="=" horiz-adv-x="640" 
d="M120 369v57h400v-57h-400zM120 169v57h400v-57h-400z" />
    <glyph glyph-name="greater" unicode="&#x3e;" horiz-adv-x="541" 
d="M110 107v62l263 130l-263 127v63l331 -157v-66z" />
    <glyph glyph-name="question" unicode="?" horiz-adv-x="500" 
d="M180 183v179h44q71 0 116.5 40.5t45.5 107.5q0 63 -43 103.5t-111 40.5q-50 0 -88 -23t-51 -58l-58 20q20 52 71.5 85.5t125.5 33.5q64 0 113 -26t77 -71.5t28 -104.5q0 -58 -26 -103t-72.5 -71.5t-107.5 -30.5v-122h-64zM212 -14q-20 0 -33 13t-13 33t13 33t33 13
t33 -13t13 -33t-13 -33t-33 -13z" />
    <glyph glyph-name="at" unicode="@" horiz-adv-x="988" 
d="M465 15q-67 0 -118.5 30.5t-80.5 84.5t-29 123q0 70 29 123t80.5 83.5t118.5 30.5q59 0 106 -26.5t75 -73.5v89h66v-379q0 -25 12 -41t31 -16q35 0 62 27t42 74t15 108q0 89 -26.5 163t-74.5 128.5t-114 84t-145 29.5q-88 0 -161 -29.5t-126.5 -84t-83 -128.5t-29.5 -163
t29.5 -163.5t83 -129t126.5 -84.5t161 -30q41 0 89 10t82 26l28 -47q-42 -21 -98 -34t-101 -13q-102 0 -187 34t-147 96.5t-96 147.5t-34 187t34 186.5t96 146.5t147 96t187 34q93 0 170.5 -34t134.5 -96t88 -146.5t31 -186.5q0 -78 -23.5 -138t-65.5 -94.5t-96 -34.5
q-53 -1 -80 30t-27 85v15q-28 -46 -75 -73t-106 -27zM475 73q68 0 115 41.5t56 108.5v60q-9 66 -56 107.5t-115 41.5q-51 0 -90 -23t-61.5 -63t-22.5 -93q0 -52 22.5 -93t61.5 -64t90 -23z" />
    <glyph glyph-name="A" unicode="A" horiz-adv-x="662" 
d="M10 0l288 700h66l288 -700h-68l-89 217h-328l-89 -217h-68zM190 275h282l-141 344z" />
    <glyph glyph-name="B" unicode="B" horiz-adv-x="610" 
d="M100 0v700h64l151 1q106 0 165.5 -49.5t59.5 -138.5q0 -55 -23.5 -95t-68.5 -63q54 -25 83 -67.5t29 -100.5q0 -88 -57.5 -137.5t-160.5 -49.5h-242zM315 642h-151v-257h178q64 0 99.5 34t35.5 94q0 62 -42.5 96t-119.5 33zM164 326v-267h178q73 0 114 34t41 94
q0 66 -48 103t-134 36h-151z" />
    <glyph glyph-name="C" unicode="C" horiz-adv-x="719" 
d="M389 -12q-99 0 -175.5 46.5t-120 128t-43.5 187.5t43 187.5t119 128t174 46.5q59 0 115.5 -21.5t102.5 -60t71 -88.5l-53 -33q-21 43 -58.5 75.5t-83.5 51t-94 18.5q-79 0 -140.5 -39t-96.5 -107.5t-35 -157.5q0 -90 35 -159t97.5 -108t142.5 -39q49 0 95 20.5t83.5 56.5
t58.5 82l53 -33q-26 -53 -71.5 -94.5t-102.5 -64.5t-116 -23z" />
    <glyph glyph-name="D" unicode="D" horiz-adv-x="683" 
d="M164 642v-584h145q54 0 101 22.5t83 63t56 93.5t20 113t-20 113t-56 93.5t-83 63t-101 22.5h-145zM100 0v700h209q95 0 168 -44.5t114.5 -123.5t41.5 -182q0 -102 -41.5 -181t-114.5 -124t-168 -45h-209z" />
    <glyph glyph-name="E" unicode="E" horiz-adv-x="593" 
d="M100 0v700h403v-58h-339v-252h315v-58h-315v-274h339v-58h-403z" />
    <glyph glyph-name="F" unicode="F" horiz-adv-x="539" 
d="M100 0v700h403v-58h-339v-267h305v-58h-305v-317h-64z" />
    <glyph glyph-name="G" unicode="G" horiz-adv-x="767" 
d="M413 -12q-106 0 -188 46.5t-128.5 128t-46.5 186.5q0 107 46.5 188.5t128.5 128t188 46.5q53 0 106 -18t97.5 -49.5t71.5 -72.5l-49 -37q-22 35 -58.5 62t-80 42t-87.5 15q-87 0 -154.5 -39t-106 -107.5t-38.5 -158.5q0 -88 38.5 -156.5t106 -107.5t154.5 -39
q73 0 130 31t89.5 86.5t32.5 127.5h-176v59h238v-59q0 -88 -40 -156.5t-111 -107.5t-163 -39z" />
    <glyph glyph-name="H" unicode="H" horiz-adv-x="752" 
d="M100 0v700h64v-310h424v310h64v-700h-64v332h-424v-332h-64z" />
    <glyph glyph-name="I" unicode="I" horiz-adv-x="264" 
d="M100 0v700h64v-700h-64z" />
    <glyph glyph-name="J" unicode="J" horiz-adv-x="500" 
d="M184 -11q-62 0 -106.5 30t-71.5 76l45 35q22 -35 54.5 -59t78.5 -24q38 0 75.5 18.5t62 61.5t24.5 115v458h64v-488q0 -57 -20 -99t-53 -69.5t-73 -41t-80 -13.5z" />
    <glyph glyph-name="K" unicode="K" horiz-adv-x="588" 
d="M100 0v700h60v-341l331 341h78l-303 -315l317 -385h-77l-281 343l-65 -68v-275h-60z" />
    <glyph glyph-name="L" unicode="L" horiz-adv-x="513" 
d="M100 0v700h64v-642h339v-58h-403z" />
    <glyph glyph-name="M" unicode="M" horiz-adv-x="841" 
d="M100 0v700h64l257 -380l256 380h64v-700h-64v594l-257 -383l-256 381v-592h-64z" />
    <glyph glyph-name="N" unicode="N" horiz-adv-x="774" 
d="M100 0v700h64l446 -597v597h64v-700h-64l-446 598v-598h-64z" />
    <glyph glyph-name="O" unicode="O" horiz-adv-x="772" 
d="M389 -12q-99 0 -175.5 46t-120 128t-43.5 188q0 107 43 188.5t118.5 127.5t174.5 46t175 -46.5t118.5 -128t42.5 -187.5t-42.5 -188t-117.5 -128t-173 -46zM389 46q79 0 139.5 39t95 107.5t34.5 157.5t-35 157.5t-96 107.5t-141 39q-79 0 -140.5 -39t-96.5 -107.5
t-35 -157.5t35 -157.5t97.5 -107.5t142.5 -39z" />
    <glyph glyph-name="P" unicode="P" horiz-adv-x="570" 
d="M100 0v700h64l151 1q66 0 117 -28t79.5 -77t28.5 -113q0 -63 -25.5 -112t-70 -77t-102.5 -28h-178v-266h-64zM315 642h-151v-317h178q59 0 97 44t38 114q0 47 -20.5 83t-57 56.5t-84.5 19.5z" />
    <glyph glyph-name="Q" unicode="Q" horiz-adv-x="776" 
d="M389 -12q-99 0 -175.5 46t-120 128t-43.5 188q0 107 43 188.5t118.5 127.5t174.5 46t175 -46.5t118.5 -128t42.5 -187.5q0 -77 -23 -141.5t-64 -111.5l91 -92l-42 -43l-92 93q-41 -32 -92.5 -49.5t-110.5 -17.5zM389 46q46 0 86.5 14t72.5 39l-111 112l44 42l110 -112
q32 40 49.5 93t17.5 116q0 89 -35 157.5t-96 107.5t-141 39q-79 0 -140.5 -39t-96.5 -107.5t-35 -157.5t35 -157.5t97.5 -107.5t142.5 -39z" />
    <glyph glyph-name="R" unicode="R" horiz-adv-x="618" 
d="M100 0v700h64l151 1q66 1 117 -26t79.5 -74t28.5 -108q0 -69 -41 -120t-106 -73l175 -300h-70l-168 287q-14 -1 -28 -1h-138v-286h-64zM315 642h-151v-297h168q40 0 72.5 19t52.5 52.5t20 76.5q0 66 -45.5 107.5t-116.5 41.5z" />
    <glyph glyph-name="S" unicode="S" horiz-adv-x="617" 
d="M319 -12q-78 0 -132 22t-86 57t-46 74l60 23q17 -47 67 -82.5t122 -35.5q92 0 143 35.5t51 93.5q0 56 -47 89.5t-122 52.5l-71 18q-46 12 -85.5 34.5t-63.5 57.5t-24 86q0 94 60 146.5t175 52.5q69 0 119 -23.5t80.5 -58t40.5 -69.5l-59 -23q-22 55 -71.5 85.5
t-119.5 30.5q-74 0 -117.5 -36t-43.5 -97q0 -55 34 -82.5t89 -41.5l71 -17q106 -25 162.5 -79.5t56.5 -116.5q0 -53 -27 -97.5t-81 -71.5t-135 -27z" />
    <glyph glyph-name="T" unicode="T" horiz-adv-x="540" 
d="M238 0v642h-228v58h520v-58h-228v-642h-64z" />
    <glyph glyph-name="U" unicode="U" horiz-adv-x="709" 
d="M90 245v455h64v-455q0 -59 25.5 -105t71 -72t103.5 -26q59 0 104.5 26t71 72t25.5 105v455h64v-455q0 -76 -34 -135t-94.5 -92.5t-138.5 -33.5q-76 0 -135.5 33.5t-93 92.5t-33.5 135z" />
    <glyph glyph-name="V" unicode="V" horiz-adv-x="681" 
d="M304 0l-294 700h66l264 -630l264 630h67l-295 -700h-72z" />
    <glyph glyph-name="W" unicode="W" horiz-adv-x="950" 
d="M226 0l-216 700h64l187 -602l182 602h64l178 -602l191 602h64l-221 -700h-70l-174 593l-179 -593h-70z" />
    <glyph glyph-name="X" unicode="X" horiz-adv-x="589" 
d="M10 0l248 354l-248 346h76l209 -295l208 295h76l-248 -346l248 -354h-78l-206 303l-207 -303h-78z" />
    <glyph glyph-name="Y" unicode="Y" horiz-adv-x="588" 
d="M262 0v292l-252 408h75l209 -341l209 341h75l-252 -408v-292h-64z" />
    <glyph glyph-name="Z" unicode="Z" horiz-adv-x="644" 
d="M50 0v58l465 584h-462v58h541v-58l-465 -584h462v-58h-541z" />
    <glyph glyph-name="bracketleft" unicode="[" horiz-adv-x="316" 
d="M100 -100v900h136v-58h-72v-784h72v-58h-136z" />
    <glyph glyph-name="backslash" unicode="\" horiz-adv-x="372" 
d="M357 -84h-68l-274 831h66z" />
    <glyph glyph-name="bracketright" unicode="]" horiz-adv-x="316" 
d="M216 -100h-136v58h72v784h-72v58h136v-900z" />
    <glyph glyph-name="asciicircum" unicode="^" horiz-adv-x="539" 
d="M80 373l155 327h67l157 -327h-62l-129 260l-125 -260h-63z" />
    <glyph glyph-name="underscore" unicode="_" horiz-adv-x="440" 
d="M20 -57v57h400v-57h-400z" />
    <glyph glyph-name="grave" unicode="`" horiz-adv-x="205" 
d="M206 574h-76l-130 127h85z" />
    <glyph glyph-name="a" unicode="a" horiz-adv-x="501" 
d="M232 -12q-88 0 -137.5 40.5t-49.5 112.5q0 74 49.5 115t137.5 41h147q-7 81 -38 120.5t-99 39.5q-96 0 -138 -76l-54 24q65 107 192 107q199 0 199 -244v-268h-50l-2 57q-27 -33 -66.5 -51t-90.5 -18zM228 43q73 0 114 47.5t41 123.5v0l-1 28h-142q-72 0 -103.5 -26.5
t-31.5 -74.5q0 -46 32.5 -72t90.5 -26z" />
    <glyph glyph-name="b" unicode="b" horiz-adv-x="582" 
d="M75 0v700h60v-291q28 48 73.5 75.5t102.5 27.5q66 0 117 -33.5t80 -92.5t29 -136q0 -76 -29 -135.5t-80 -93t-117 -33.5q-57 0 -102.5 27.5t-73.5 75.5l-3 -91h-57zM299 42q52 0 92 26.5t63 73.5t23 108t-22.5 108t-62.5 73.5t-92 26.5q-48 0 -85.5 -26.5t-58.5 -73.5
t-21 -108t21 -108t58 -73.5t85 -26.5z" />
    <glyph glyph-name="c" unicode="c" horiz-adv-x="539" 
d="M291 -12q-72 0 -127.5 33.5t-87 92.5t-31.5 136t31 136t86.5 92.5t126.5 33.5t126 -31.5t85 -87.5l-52 -28q-23 43 -64.5 67.5t-94.5 24.5q-54 0 -95.5 -26.5t-65 -73t-23.5 -107.5t24 -107.5t66 -73t96 -26.5t96 27.5t64 76.5l53 -28q-30 -61 -85.5 -96t-127.5 -35z" />
    <glyph glyph-name="d" unicode="d" horiz-adv-x="582" 
d="M271 -12q-66 0 -117 33.5t-80 93t-29 135.5q0 77 29 136t80 92.5t117 33.5q57 0 102.5 -27.5t73.5 -75.5v291h60v-700h-57l-3 91q-28 -48 -73.5 -75.5t-102.5 -27.5zM283 42q48 0 85 26.5t58 73.5t21 108t-21 108t-58 73.5t-86 26.5q-52 0 -92 -26.5t-62.5 -73.5
t-22.5 -108t23 -108t63 -73.5t92 -26.5z" />
    <glyph glyph-name="e" unicode="e" horiz-adv-x="543" 
d="M291 -12q-72 0 -127.5 33.5t-87 92.5t-31.5 136t31 136t85.5 92.5t124.5 33.5q71 0 120.5 -34.5t75.5 -95t26 -139.5h-403q2 -59 26 -104t65.5 -70.5t94.5 -25.5q58 0 98.5 28.5t63.5 73.5l50 -31q-28 -55 -82.5 -90.5t-129.5 -35.5zM286 457q-69 0 -116.5 -44
t-60.5 -115h335q-10 72 -49.5 115.5t-108.5 43.5z" />
    <glyph glyph-name="f" unicode="f" horiz-adv-x="360" 
d="M125 0v445h-95v55h95v60q0 152 141 152q31 0 89 -24l-22 -51q-26 10 -43.5 15t-28.5 5q-76 0 -76 -97v-60h153v-55h-153v-445h-60z" />
    <glyph glyph-name="g" unicode="g" horiz-adv-x="567" 
d="M271 0q-66 0 -117 33t-80 91.5t-29 133.5t29 132t80 89.5t117 32.5q57 0 102.5 -26.5t73.5 -72.5v87h60v-454q0 -87 -32.5 -144.5t-87.5 -85.5t-121 -28q-45 0 -83 10t-64 21.5t-36 16.5l22 50q12 -7 36.5 -17.5t57 -18t67.5 -7.5q52 0 93 21t64.5 66t23.5 116v55
q-28 -47 -73.5 -74t-102.5 -27zM283 53q48 0 85 26.5t58 72.5t21 106q0 59 -21 104.5t-58 71.5t-86 26q-52 0 -92 -26t-62.5 -71.5t-22.5 -104.5q0 -60 23 -106t63 -72.5t92 -26.5z" />
    <glyph glyph-name="h" unicode="h" 
d="M75 0v716h60v-292q25 43 65.5 65.5t95.5 22.5q90 0 144.5 -56t53.5 -170v-286h-60v256q0 83 -19.5 126t-53 58.5t-75.5 15.5q-71 0 -111 -52.5t-40 -146.5v-257h-60z" />
    <glyph glyph-name="i" unicode="i" horiz-adv-x="220" 
d="M79 0l2 500h60l-2 -500h-60zM110 630q-16 0 -28 12t-12 28q0 17 12 28.5t28 11.5q17 0 28.5 -11.5t11.5 -28.5q0 -16 -11.5 -28t-28.5 -12z" />
    <glyph glyph-name="j" unicode="j" horiz-adv-x="260" 
d="M150 632q-16 0 -28 12t-12 28q0 17 12 28.5t28 11.5q17 0 28.5 -11.5t11.5 -28.5q0 -16 -11.5 -28t-28.5 -12zM39 -215q-30 0 -89 24l22 51q26 -10 44 -15t28 -5q76 0 76 97v563h60v-563q0 -152 -141 -152z" />
    <glyph glyph-name="k" unicode="k" horiz-adv-x="465" 
d="M75 0v700h60v-442l230 242h78l-185 -196l207 -304h-77l-171 261l-82 -87v-174h-60z" />
    <glyph glyph-name="l" unicode="l" horiz-adv-x="212" 
d="M75 0l2 700h60l-2 -700h-60z" />
    <glyph glyph-name="m" unicode="m" horiz-adv-x="913" 
d="M75 0v500h56l3 -77q25 43 65.5 66t96.5 23q66 0 113.5 -30t68.5 -91q23 58 67.5 89.5t109.5 31.5q90 0 144.5 -56t53.5 -170v-286h-60v256q0 83 -19.5 126t-53 58.5t-75.5 15.5q-71 0 -111 -52.5t-40 -146.5v-257h-60v256q0 83 -19.5 126t-53 58.5t-75.5 15.5
q-71 0 -111 -52.5t-40 -146.5v-257h-60z" />
    <glyph glyph-name="n" unicode="n" 
d="M75 0v500h56l3 -77q25 43 65.5 66t96.5 23q90 0 144.5 -56t53.5 -170v-286h-60v256q0 83 -19.5 126t-53 58.5t-75.5 15.5q-71 0 -111 -52.5t-40 -146.5v-257h-60z" />
    <glyph glyph-name="o" unicode="o" horiz-adv-x="579" 
d="M291 -12q-72 0 -127.5 33.5t-87 92.5t-31.5 136t31 136t86.5 92.5t126.5 33.5q72 0 127.5 -33.5t86.5 -92.5t31 -136t-31 -136t-86 -92.5t-126 -33.5zM291 43q54 0 95 26.5t64.5 73t23.5 107.5t-23.5 107.5t-65.5 73t-96 26.5t-95.5 -26.5t-65 -73t-23.5 -107.5
t24 -107.5t66 -73t96 -26.5z" />
    <glyph glyph-name="p" unicode="p" horiz-adv-x="587" 
d="M80 -200v700h56l4 -91q28 48 73.5 75.5t102.5 27.5q66 0 117 -33.5t80 -92.5t29 -136q0 -76 -29 -135.5t-80 -93t-117 -33.5q-57 0 -102.5 27.5t-73.5 75.5v-291h-60zM304 42q52 0 92 26.5t63 73.5t23 108t-22.5 108t-62.5 73.5t-92 26.5q-48 0 -85.5 -26.5t-58.5 -73.5
t-21 -108t21 -108t58 -73.5t85 -26.5z" />
    <glyph glyph-name="q" unicode="q" horiz-adv-x="572" 
d="M271 -12q-66 0 -117 33.5t-80 93t-29 135.5q0 77 29 136t80 92.5t117 33.5q57 0 102.5 -27.5t73.5 -75.5l3 91h57v-700h-60v291q-28 -48 -73.5 -75.5t-102.5 -27.5zM283 42q48 0 85 26.5t58 73.5t21 108t-21 108t-58 73.5t-86 26.5q-52 0 -92 -26.5t-62.5 -73.5
t-22.5 -108t23 -108t63 -73.5t92 -26.5z" />
    <glyph glyph-name="r" unicode="r" horiz-adv-x="322" 
d="M75 0v500h60v-88q30 47 77.5 68.5t99.5 21.5v-55q-44 0 -84.5 -15.5t-66.5 -52t-26 -99.5v-280h-60z" />
    <glyph glyph-name="s" unicode="s" horiz-adv-x="466" 
d="M245 -12q-57 0 -98 17t-66.5 44t-35.5 56l54 20q17 -37 54.5 -59.5t80.5 -22.5q53 0 90 22t37 62q0 36 -27 59t-80 37l-49 13q-67 18 -103.5 52.5t-36.5 77.5q0 69 45.5 107.5t137.5 38.5q65 0 109.5 -27.5t63.5 -75.5l-54 -23q-16 39 -47 55t-81 16q-53 0 -83.5 -22.5
t-30.5 -63.5q0 -22 24.5 -43.5t73.5 -34.5l43 -11q74 -19 114.5 -58.5t40.5 -91.5q0 -68 -50 -106t-126 -38z" />
    <glyph glyph-name="t" unicode="t" horiz-adv-x="377" 
d="M266 -12q-69 0 -108 36.5t-39 103.5v317h-89v55h89v156h60v-156h159v-55h-159v-317q0 -40 23 -62.5t64 -22.5q12 0 23.5 3.5t33.5 18.5l25 -52q-27 -16 -45 -20.5t-37 -4.5z" />
    <glyph glyph-name="u" unicode="u" 
d="M120 244q0 -83 19.5 -126t53.5 -58.5t75 -15.5q71 0 111 52.5t40 146.5v257h60v-500h-56l-3 77q-25 -43 -65.5 -66t-96.5 -23q-90 0 -144.5 56t-53.5 170v286h60v-256z" />
    <glyph glyph-name="v" unicode="v" horiz-adv-x="506" 
d="M221 0l-211 500h62l181 -430l180 430h63l-211 -500h-64z" />
    <glyph glyph-name="w" unicode="w" horiz-adv-x="764" 
d="M180 0l-170 500h60l141 -413l142 413h60l141 -411l140 411h60l-170 -500h-61l-140 412l-141 -412h-62z" />
    <glyph glyph-name="x" unicode="x" horiz-adv-x="442" 
d="M5 0l184 259l-171 241h72l132 -193l131 193h72l-169 -242l181 -258h-73l-142 210l-143 -210h-74z" />
    <glyph glyph-name="y" unicode="y" horiz-adv-x="507" 
d="M222 0l-211 500h62l180 -428l181 428h63l-245 -580q-27 -64 -59 -98t-94 -34q-30 0 -89 24l22 51q26 -10 44 -15t28 -5q29 0 47.5 16t30.5 44l41 97h-1z" />
    <glyph glyph-name="z" unicode="z" horiz-adv-x="497" 
d="M50 0v52l314 393h-314v55h394v-49l-315 -396h318v-55h-397z" />
    <glyph glyph-name="braceleft" unicode="{" horiz-adv-x="382" 
d="M322 -100q-49 0 -80.5 13t-49.5 45t-25 88t-7 142q0 55 -8.5 84.5t-30 41t-61.5 11.5v50q40 0 61.5 11.5t30 41t8.5 84.5q0 86 7 142t25 88t49.5 45t80.5 13v-58q-39 -1 -60.5 -20.5t-29.5 -68.5t-8 -140q0 -73 -15 -111t-57 -52q42 -14 57 -52t15 -111q0 -90 8.5 -139.5
t29.5 -69t60 -20.5v-58z" />
    <glyph glyph-name="bar" unicode="|" horiz-adv-x="258" 
d="M100 -220v1010h58v-1010h-58z" />
    <glyph glyph-name="braceright" unicode="}" horiz-adv-x="382" 
d="M60 -100v58q39 1 60.5 20.5t29.5 69t8 139.5q0 73 15 111t57 52q-42 14 -57 52t-15 111q0 91 -8 140t-29.5 68.5t-60.5 20.5v58q49 0 80.5 -13t49.5 -45t25 -88t7 -142q0 -55 8.5 -84.5t30 -41t61.5 -11.5v-50q-40 0 -61.5 -11.5t-30 -41t-8.5 -84.5q0 -86 -7 -142
t-25 -88t-49.5 -45t-80.5 -13z" />
    <glyph glyph-name="asciitilde" unicode="~" horiz-adv-x="529" 
d="M284 341q14 -14 31.5 -30.5t35.5 -16.5q27 0 42 20.5t21 53.5h55q-6 -54 -36 -92.5t-82 -38.5q-37 0 -60.5 15t-43.5 38q-24 27 -40 38t-30 11q-26 0 -41 -20t-22 -54h-54q3 35 17.5 65t40 48t59.5 18q33 0 60 -16.5t47 -38.5z" />
    <glyph glyph-name="uni00A0" unicode="&#xa0;" horiz-adv-x="250" 
 />
    <glyph glyph-name="exclamdown" unicode="&#xa1;" horiz-adv-x="292" 
d="M178 305v-507h-64v507h64zM146 512q19 0 32.5 -13.5t13.5 -32.5t-13.5 -32.5t-32.5 -13.5t-32.5 13.5t-13.5 32.5t13.5 32.5t32.5 13.5z" />
    <glyph glyph-name="cent" unicode="&#xa2;" horiz-adv-x="534" 
d="M260 0v100q-64 7 -112.5 41.5t-75.5 91t-27 127.5q0 72 27.5 128.5t76.5 91t113 41.5v79h56v-79q60 -7 107.5 -37.5t74.5 -80.5l-52 -28q-20 37 -54 60.5t-77 29.5l-1 -410q45 6 80 32.5t55 69.5l53 -28q-27 -56 -76 -90t-113 -40v-99h-55zM105 360q0 -83 43 -138.5
t112 -66.5l2 410q-70 -10 -113.5 -65.5t-43.5 -139.5z" />
    <glyph glyph-name="sterling" unicode="&#xa3;" horiz-adv-x="569" 
d="M50 0v58h28q21 0 36 18t15 44v171h-79v59h79v169q0 57 25 100.5t69.5 68t101.5 24.5q85 0 139.5 -53t54.5 -148l-63 10q0 59 -36.5 96t-94.5 37t-95 -38t-37 -97v-169h199v-59h-199v-156q0 -44 -17 -77h343v-58h-469z" />
    <glyph glyph-name="currency" unicode="&#xa4;" horiz-adv-x="538" 
d="M272 189q-27 0 -50.5 8t-43.5 23l-59 -58l-39 39l59 59q-28 41 -28 90t30 90l-61 60l39 40l62 -62q42 28 91 28q47 0 87 -25l59 59l40 -40l-57 -56q15 -20 24 -44t9 -50q0 -50 -31 -93l55 -56l-40 -39l-54 56q-20 -14 -43.5 -21.5t-48.5 -7.5zM272 243q47 0 74.5 29
t27.5 78q0 47 -27.5 74.5t-74.5 27.5q-46 0 -73.5 -27.5t-27.5 -74.5q0 -49 27.5 -78t73.5 -29z" />
    <glyph glyph-name="yen" unicode="&#xa5;" horiz-adv-x="522" 
d="M91 194v52h138v50h-138v52h111l-192 364h71l180 -347l180 347h71l-192 -364h111v-52h-138v-50h138v-52h-138v-194h-64v194h-138z" />
    <glyph glyph-name="brokenbar" unicode="&#xa6;" horiz-adv-x="258" 
d="M100 350v440h58v-440h-58zM100 -220v440h58v-440h-58z" />
    <glyph glyph-name="section" unicode="&#xa7;" horiz-adv-x="588" 
d="M302 -90q-87 0 -137 36t-65 82l61 22q12 -34 46.5 -58.5t84.5 -24.5q62 0 96.5 24.5t34.5 64.5q0 37 -31 60.5t-82 35.5l-58 14q-55 14 -93.5 48t-38.5 92q0 94 77 132q-36 18 -59 47.5t-23 73.5q0 72 47 112.5t135 40.5q52 0 90 -17t62 -43.5t33 -55.5l-60 -21
q-14 37 -48 58.5t-83 21.5q-52 0 -81.5 -25t-29.5 -66q0 -37 23.5 -56.5t61.5 -28.5l58 -14q78 -19 119 -61t41 -90q0 -42 -20.5 -76.5t-61.5 -53.5q42 -23 64.5 -55.5t22.5 -67.5q0 -63 -47 -107t-139 -44zM185 311q0 -37 23.5 -57t60.5 -29q15 -2 30 -2q56 0 87.5 24
t31.5 62q0 29 -19 49t-52 33q-30 11 -60 11q-47 0 -74.5 -25t-27.5 -66z" />
    <glyph glyph-name="dieresis" unicode="&#xa8;" horiz-adv-x="422" 
d="M90 630q-16 0 -28 12t-12 28q0 17 12 28.5t28 11.5q17 0 28.5 -11.5t11.5 -28.5q0 -16 -11.5 -28t-28.5 -12zM332 630q-16 0 -28 12t-12 28q0 17 12 28.5t28 11.5q17 0 28.5 -11.5t11.5 -28.5q0 -16 -11.5 -28t-28.5 -12z" />
    <glyph glyph-name="copyright" unicode="&#xa9;" horiz-adv-x="823" 
d="M412 -11q-75 0 -140.5 28t-115.5 77.5t-78 115t-28 140.5t28 140.5t78 115.5t115.5 78t140.5 28t140.5 -28t115 -78t77.5 -115.5t28 -140.5t-28 -140.5t-77.5 -115t-115 -77.5t-140.5 -28zM412 45q87 0 154.5 39t106 108t38.5 158q0 90 -39 159t-106.5 108t-153.5 39
t-154 -39t-107 -108t-39 -159q0 -89 39 -158t107 -108t154 -39zM410 152q-54 0 -96 25.5t-66 70t-24 102.5t24 102.5t65.5 70t95.5 25.5q49 0 93 -26t64 -67l13 -27l-54 -21l-13 22q-13 27 -42 44t-61 17q-55 0 -90 -39t-35 -101q0 -61 35.5 -100.5t90.5 -39.5q32 0 61 19
t44 48l10 22l57 -21l-13 -27q-22 -43 -66.5 -71t-92.5 -28z" />
    <glyph glyph-name="ordfeminine" unicode="&#xaa;" horiz-adv-x="329" 
d="M143 393q-53 0 -82.5 24.5t-29.5 67.5q0 44 29.5 68.5t82.5 24.5h84q-4 38 -20 58t-52 20q-25 0 -41 -10t-27 -28l-54 20q41 69 123 69q65 0 98 -37t33 -107v-163h-54l-1 33q-32 -40 -89 -40zM150 440q36 0 57 23.5t21 61.5h1v10h-69q-69 0 -69 -50q0 -21 15.5 -33
t43.5 -12z" />
    <glyph glyph-name="guillemotleft" unicode="&#xab;" horiz-adv-x="520" 
d="M227 298l157 202h76l-157 -202l157 -202h-76zM50 298l157 202h76l-157 -202l157 -202h-76z" />
    <glyph glyph-name="logicalnot" unicode="&#xac;" horiz-adv-x="520" 
d="M70 299v57h360v-155h-57v98h-303z" />
    <glyph glyph-name="uni00AD" unicode="&#xad;" horiz-adv-x="420" 
d="M60 269v57h300v-57h-300z" />
    <glyph glyph-name="registered" unicode="&#xae;" horiz-adv-x="626" 
d="M313 176q-55 0 -104 21t-85.5 57.5t-57.5 85.5t-21 104q0 56 21 104.5t57.5 85t85.5 57.5t104 21q56 0 104.5 -21t85 -57.5t57.5 -85t21 -104.5q0 -55 -21 -104t-57.5 -85.5t-85 -57.5t-104.5 -21zM313 228q63 0 111 27.5t75.5 76.5t27.5 112q0 64 -27.5 112.5t-75.5 76
t-111 27.5t-111 -27.5t-75.5 -76t-27.5 -112.5q0 -63 27.5 -112t75.5 -76.5t111 -27.5zM213 301v292h102q44 0 72.5 -25.5t28.5 -66.5q0 -28 -16 -50t-42 -33l70 -117h-53l-62 108h-53v-108h-47zM260 453h58q21 0 35.5 13.5t14.5 34.5q0 22 -15 35.5t-40 13.5h-53v-97z" />
    <glyph glyph-name="macron" unicode="&#xaf;" horiz-adv-x="300" 
d="M0 580v57h300v-57h-300z" />
    <glyph glyph-name="degree" unicode="&#xb0;" horiz-adv-x="365" 
d="M182 450q-36 0 -66 18.5t-48 49.5t-18 67t18 65.5t48 47t66 17.5t66.5 -17.5t48.5 -47t18 -65.5t-18 -67t-48.5 -49.5t-66.5 -18.5zM182 505q30 0 51.5 24t21.5 56q0 31 -21.5 53t-51.5 22q-29 0 -50.5 -22t-21.5 -53q0 -32 21.5 -56t50.5 -24z" />
    <glyph glyph-name="plusminus" unicode="&#xb1;" horiz-adv-x="610" 
d="M277 139v175h-197v57h197v176h57v-176h196v-57h-196v-175h-57zM80 0v51h450v-51h-450z" />
    <glyph glyph-name="uni00B2" unicode="&#xb2;" horiz-adv-x="359" 
d="M38 380v49q0 29 20 59.5t55 56.5l78 58q21 15 36.5 36.5t15.5 42.5q0 29 -20.5 48.5t-55.5 19.5q-34 0 -54.5 -19t-27.5 -42l-64 12q10 42 48.5 74t95.5 32q65 0 103.5 -35t38.5 -89q0 -36 -19 -65t-55 -57l-75 -56q-20 -15 -35 -33t-20 -36h210v-56h-275z" />
    <glyph glyph-name="uni00B3" unicode="&#xb3;" horiz-adv-x="354" 
d="M180 373q-52 0 -86 22.5t-47 52.5l55 23q12 -19 29 -31t45 -12q37 0 58.5 21t21.5 53q0 35 -28 54.5t-82 19.5h-17v53h17q47 0 74 16t27 46q0 25 -19.5 43t-52.5 18q-21 0 -39.5 -9.5t-31.5 -30.5l-53 22q16 35 50 54t77 19q56 0 94 -32t38 -79q0 -32 -18.5 -55.5
t-48.5 -37.5q35 -15 55.5 -42.5t20.5 -64.5q0 -57 -41 -90t-98 -33z" />
    <glyph glyph-name="acute" unicode="&#xb4;" horiz-adv-x="205" 
d="M1 574l119 126h85l-128 -126h-76z" />
    <glyph glyph-name="uni00B5" unicode="&#xb5;" 
d="M60 -200v700h60v-256q0 -83 19.5 -126t53.5 -58.5t75 -15.5q71 0 111 52.5t40 146.5v257h60v-500h-56l-3 77q-25 -43 -65.5 -66t-96.5 -23q-91 0 -138 67v-255h-60z" />
    <glyph glyph-name="paragraph" unicode="&#xb6;" horiz-adv-x="531" 
d="M317 -84h-64v350h-25q-58 0 -102.5 28t-70 77t-25.5 112q0 64 25.5 113t70 76.5t102.5 27.5h203v-784h-64v726h-50v-726z" />
    <glyph glyph-name="periodcentered" unicode="&#xb7;" horiz-adv-x="252" 
d="M126 275q-19 0 -32.5 13.5t-13.5 32.5t13.5 32.5t32.5 13.5t32.5 -13.5t13.5 -32.5t-13.5 -32.5t-32.5 -13.5z" />
    <glyph glyph-name="cedilla" unicode="&#xb8;" horiz-adv-x="206" 
d="M105 -210q-18 0 -40 4.5t-55 21.5l19 43q16 -8 34 -15.5t34 -7.5q18 0 33.5 7.5t15.5 31.5q0 28 -19.5 41.5t-60.5 20.5l29 69l45 -14l-11 -25q38 -14 52.5 -37.5t14.5 -49.5q0 -37 -20.5 -63.5t-70.5 -26.5z" />
    <glyph glyph-name="uni00B9" unicode="&#xb9;" horiz-adv-x="282" 
d="M137 380v338q-23 -18 -46 -27.5t-46 -7.5v56q19 0 47 18t51 43h55l-1 -420h-60z" />
    <glyph glyph-name="ordmasculine" unicode="&#xba;" horiz-adv-x="366" 
d="M184 393q-67 0 -110 44t-43 113t42.5 113t109.5 44t109.5 -44t42.5 -113t-42.5 -113t-108.5 -44zM184 448q40 0 65 28.5t25 73.5t-25.5 73.5t-65.5 28.5t-65.5 -28.5t-25.5 -73.5t26 -73.5t66 -28.5z" />
    <glyph glyph-name="guillemotright" unicode="&#xbb;" horiz-adv-x="520" 
d="M293 298l-157 -202h-76l157 202l-157 202h76zM470 298l-157 -202h-76l157 202l-157 202h76z" />
    <glyph glyph-name="onequarter" unicode="&#xbc;" horiz-adv-x="824" 
d="M137 280v338q-23 -18 -46 -27.5t-46 -7.5v56q19 0 47 18t51 43h55l-1 -420h-60zM593 700h75l-481 -700h-75zM662 0v94h-194v50l189 276h65v-271h81v-55h-81v-94h-60zM536 149h126v186z" />
    <glyph glyph-name="onehalf" unicode="&#xbd;" horiz-adv-x="857" 
d="M137 280v338q-23 -18 -46 -27.5t-46 -7.5v56q19 0 47 18t51 43h55l-1 -420h-60zM593 700h75l-481 -700h-75zM536 0v49q0 29 20 59.5t55 56.5l78 58q21 15 36.5 36.5t15.5 42.5q0 29 -20.5 48.5t-55.5 19.5q-34 0 -54.5 -19t-27.5 -42l-64 12q10 42 48.5 74t95.5 32
q65 0 103.5 -35t38.5 -89q0 -36 -19 -65t-55 -57l-75 -56q-20 -15 -35 -33t-20 -36h210v-56h-275z" />
    <glyph glyph-name="threequarters" unicode="&#xbe;" horiz-adv-x="896" 
d="M180 273q-52 0 -86 22.5t-47 52.5l55 23q12 -19 29 -31t45 -12q37 0 58.5 21t21.5 53q0 35 -28 54.5t-82 19.5h-17v53h17q47 0 74 16t27 46q0 25 -19.5 43t-52.5 18q-21 0 -39.5 -9.5t-31.5 -30.5l-53 22q16 35 50 54t77 19q56 0 94 -32t38 -79q0 -32 -18.5 -55.5
t-48.5 -37.5q35 -15 55.5 -42.5t20.5 -64.5q0 -57 -41 -90t-98 -33zM665 700h75l-481 -700h-75zM734 0v94h-194v50l189 276h65v-271h81v-55h-81v-94h-60zM608 149h126v186z" />
    <glyph glyph-name="questiondown" unicode="&#xbf;" horiz-adv-x="460" 
d="M290 316v-179h-44q-71 0 -116.5 -40.5t-45.5 -107.5q0 -63 43.5 -103.5t110.5 -40.5q50 0 88 23t51 58l58 -20q-19 -52 -71 -85.5t-126 -33.5q-64 0 -113 26t-77 71.5t-28 104.5q0 58 26 103t72.5 71.5t107.5 30.5v122h64zM258 513q20 0 33 -13t13 -33t-13 -33t-33 -13
t-33 13t-13 33t13 33t33 13z" />
    <glyph glyph-name="Agrave" unicode="&#xc0;" horiz-adv-x="662" 
d="M10 0l288 700h66l288 -700h-68l-89 217h-328l-89 -217h-68zM190 275h282l-141 344zM434 744h-76l-130 127h85z" />
    <glyph glyph-name="Aacute" unicode="&#xc1;" horiz-adv-x="662" 
d="M269 740l119 120h85l-128 -120h-76zM10 0l288 700h66l288 -700h-68l-89 217h-328l-89 -217h-68zM190 275h282l-141 344z" />
    <glyph glyph-name="Acircumflex" unicode="&#xc2;" horiz-adv-x="662" 
d="M10 0l288 700h66l288 -700h-68l-89 217h-328l-89 -217h-68zM190 275h282l-141 344zM168 756l120 126h85l120 -126h-76l-86 84l-87 -84h-76z" />
    <glyph glyph-name="Atilde" unicode="&#xc3;" horiz-adv-x="662" 
d="M10 0l288 700h66l288 -700h-68l-89 217h-328l-89 -217h-68zM190 275h282l-141 344zM413 742q-27 0 -44.5 11t-29 25t-21.5 25t-22 11q-18 0 -26.5 -8.5t-13.5 -28.5h-55q2 22 14 43.5t33 35.5t48 14q25 0 41 -11t28 -25t23 -25t25 -11q18 0 26.5 9.5t11.5 28.5h55
q-4 -34 -28 -64t-65 -30z" />
    <glyph glyph-name="Adieresis" unicode="&#xc4;" horiz-adv-x="662" 
d="M10 0l288 700h66l288 -700h-68l-89 217h-328l-89 -217h-68zM190 275h282l-141 344zM210 800q-16 0 -28 12t-12 28q0 17 12 28.5t28 11.5q17 0 28.5 -11.5t11.5 -28.5q0 -16 -11.5 -28t-28.5 -12zM452 800q-16 0 -28 12t-12 28q0 17 12 28.5t28 11.5q17 0 28.5 -11.5
t11.5 -28.5q0 -16 -11.5 -28t-28.5 -12z" />
    <glyph glyph-name="Aring" unicode="&#xc5;" horiz-adv-x="662" 
d="M10 0l288 700h66l288 -700h-68l-89 217h-328l-89 -217h-68zM190 275h282l-141 344zM331 734q-37 0 -62.5 25.5t-25.5 59.5q0 35 25.5 60.5t62.5 25.5q36 0 61.5 -25.5t25.5 -60.5q0 -34 -25.5 -59.5t-61.5 -25.5zM331 780q37 0 37 39q0 40 -37 40q-38 0 -38 -40
q0 -39 38 -39z" />
    <glyph glyph-name="AE" unicode="&#xc6;" horiz-adv-x="995" 
d="M253 275h249v367h-20zM10 0l438 700h457v-58h-339v-252h315v-58h-315v-274h339v-58h-403v217h-285l-135 -217h-72z" />
    <glyph glyph-name="Ccedilla" unicode="&#xc7;" horiz-adv-x="719" 
d="M389 -12q-99 0 -175.5 46.5t-120 128t-43.5 187.5t43 187.5t119 128t174 46.5q59 0 115.5 -21.5t102.5 -60t71 -88.5l-53 -33q-21 43 -58.5 75.5t-83.5 51t-94 18.5q-79 0 -140.5 -39t-96.5 -107.5t-35 -157.5q0 -90 35 -159t97.5 -108t142.5 -39q49 0 95 20.5t83.5 56.5
t58.5 82l53 -33q-26 -53 -71.5 -94.5t-102.5 -64.5t-116 -23zM362 -210q-18 0 -40 4.5t-55 21.5l19 43q16 -8 34 -15.5t34 -7.5q18 0 33.5 7.5t15.5 31.5q0 28 -19.5 41.5t-60.5 20.5l29 69l45 -14l-11 -25q38 -14 52.5 -37.5t14.5 -49.5q0 -37 -20.5 -63.5t-70.5 -26.5z
" />
    <glyph glyph-name="Egrave" unicode="&#xc8;" horiz-adv-x="593" 
d="M100 0v700h403v-58h-339v-252h315v-58h-315v-274h339v-58h-403zM411 744h-76l-130 127h85z" />
    <glyph glyph-name="Eacute" unicode="&#xc9;" horiz-adv-x="593" 
d="M246 740l119 120h85l-128 -120h-76zM100 0v700h403v-58h-339v-252h315v-58h-315v-274h339v-58h-403z" />
    <glyph glyph-name="Ecircumflex" unicode="&#xca;" horiz-adv-x="593" 
d="M100 0v700h403v-58h-339v-252h315v-58h-315v-274h339v-58h-403zM145 756l120 126h85l120 -126h-76l-86 84l-87 -84h-76z" />
    <glyph glyph-name="Edieresis" unicode="&#xcb;" horiz-adv-x="593" 
d="M100 0v700h403v-58h-339v-252h315v-58h-315v-274h339v-58h-403zM187 800q-16 0 -28 12t-12 28q0 17 12 28.5t28 11.5q17 0 28.5 -11.5t11.5 -28.5q0 -16 -11.5 -28t-28.5 -12zM429 800q-16 0 -28 12t-12 28q0 17 12 28.5t28 11.5q17 0 28.5 -11.5t11.5 -28.5
q0 -16 -11.5 -28t-28.5 -12z" />
    <glyph glyph-name="Igrave" unicode="&#xcc;" horiz-adv-x="264" 
d="M100 0v700h64v-700h-64zM235 744h-76l-130 127h85z" />
    <glyph glyph-name="Iacute" unicode="&#xcd;" horiz-adv-x="264" 
d="M70 740l119 120h85l-128 -120h-76zM100 0v700h64v-700h-64z" />
    <glyph glyph-name="Icircumflex" unicode="&#xce;" horiz-adv-x="264" 
d="M100 0v700h64v-700h-64zM-31 756l120 126h85l120 -126h-76l-86 84l-87 -84h-76z" />
    <glyph glyph-name="Idieresis" unicode="&#xcf;" horiz-adv-x="264" 
d="M72 800q-16 0 -28 12t-12 28q0 17 12 28.5t28 11.5q17 0 28.5 -11.5t11.5 -28.5q0 -16 -11.5 -28t-28.5 -12zM193 800q-16 0 -28 12t-12 28q0 17 12 28.5t28 11.5q17 0 28.5 -11.5t11.5 -28.5q0 -16 -11.5 -28t-28.5 -12zM100 0v700h64v-700h-64z" />
    <glyph glyph-name="Eth" unicode="&#xd0;" horiz-adv-x="753" 
d="M234 642v-264h161v-58h-161v-262h145q54 0 101 22.5t83 63t56 93.5t20 113t-20 113t-56 93.5t-83 63t-101 22.5h-145zM170 0v320h-90v58h90v322h209q95 0 168 -44.5t114.5 -123.5t41.5 -182q0 -102 -41.5 -181t-114.5 -124t-168 -45h-209z" />
    <glyph glyph-name="Ntilde" unicode="&#xd1;" horiz-adv-x="774" 
d="M100 0v700h64l446 -597v597h64v-700h-64l-446 598v-598h-64zM463 742q-27 0 -44.5 11t-29 25t-21.5 25t-22 11q-18 0 -26.5 -8.5t-13.5 -28.5h-55q2 22 14 43.5t33 35.5t48 14q25 0 41 -11t28 -25t23 -25t25 -11q18 0 26.5 9.5t11.5 28.5h55q-4 -34 -28 -64t-65 -30z" />
    <glyph glyph-name="Ograve" unicode="&#xd2;" horiz-adv-x="772" 
d="M389 -12q-99 0 -175.5 46t-120 128t-43.5 188q0 107 43 188.5t118.5 127.5t174.5 46t175 -46.5t118.5 -128t42.5 -187.5t-42.5 -188t-117.5 -128t-173 -46zM389 46q79 0 139.5 39t95 107.5t34.5 157.5t-35 157.5t-96 107.5t-141 39q-79 0 -140.5 -39t-96.5 -107.5
t-35 -157.5t35 -157.5t97.5 -107.5t142.5 -39zM489 744h-76l-130 127h85z" />
    <glyph glyph-name="Oacute" unicode="&#xd3;" horiz-adv-x="772" 
d="M321 740l125 120h90l-135 -120h-80zM389 -12q-99 0 -175.5 46t-120 128t-43.5 188q0 107 43 188.5t118.5 127.5t174.5 46t175 -46.5t118.5 -128t42.5 -187.5t-42.5 -188t-117.5 -128t-173 -46zM389 46q79 0 139.5 39t95 107.5t34.5 157.5t-35 157.5t-96 107.5t-141 39
q-79 0 -140.5 -39t-96.5 -107.5t-35 -157.5t35 -157.5t97.5 -107.5t142.5 -39z" />
    <glyph glyph-name="Ocircumflex" unicode="&#xd4;" horiz-adv-x="772" 
d="M389 -12q-99 0 -175.5 46t-120 128t-43.5 188q0 107 43 188.5t118.5 127.5t174.5 46t175 -46.5t118.5 -128t42.5 -187.5t-42.5 -188t-117.5 -128t-173 -46zM389 46q79 0 139.5 39t95 107.5t34.5 157.5t-35 157.5t-96 107.5t-141 39q-79 0 -140.5 -39t-96.5 -107.5
t-35 -157.5t35 -157.5t97.5 -107.5t142.5 -39zM223 756l120 126h85l120 -126h-76l-86 84l-87 -84h-76z" />
    <glyph glyph-name="Otilde" unicode="&#xd5;" horiz-adv-x="772" 
d="M389 -12q-99 0 -175.5 46t-120 128t-43.5 188q0 107 43 188.5t118.5 127.5t174.5 46t175 -46.5t118.5 -128t42.5 -187.5t-42.5 -188t-117.5 -128t-173 -46zM389 46q79 0 139.5 39t95 107.5t34.5 157.5t-35 157.5t-96 107.5t-141 39q-79 0 -140.5 -39t-96.5 -107.5
t-35 -157.5t35 -157.5t97.5 -107.5t142.5 -39zM468 742q-27 0 -44.5 11t-29 25t-21.5 25t-22 11q-18 0 -26.5 -8.5t-13.5 -28.5h-55q2 22 14 43.5t33 35.5t48 14q25 0 41 -11t28 -25t23 -25t25 -11q18 0 26.5 9.5t11.5 28.5h55q-4 -34 -28 -64t-65 -30z" />
    <glyph glyph-name="Odieresis" unicode="&#xd6;" horiz-adv-x="772" 
d="M389 -12q-99 0 -175.5 46t-120 128t-43.5 188q0 107 43 188.5t118.5 127.5t174.5 46t175 -46.5t118.5 -128t42.5 -187.5t-42.5 -188t-117.5 -128t-173 -46zM389 46q79 0 139.5 39t95 107.5t34.5 157.5t-35 157.5t-96 107.5t-141 39q-79 0 -140.5 -39t-96.5 -107.5
t-35 -157.5t35 -157.5t97.5 -107.5t142.5 -39zM265 800q-16 0 -28 12t-12 28q0 17 12 28.5t28 11.5q17 0 28.5 -11.5t11.5 -28.5q0 -16 -11.5 -28t-28.5 -12zM507 800q-16 0 -28 12t-12 28q0 17 12 28.5t28 11.5q17 0 28.5 -11.5t11.5 -28.5q0 -16 -11.5 -28t-28.5 -12z" />
    <glyph glyph-name="multiply" unicode="&#xd7;" horiz-adv-x="578" 
d="M139 109l-39 39l149 150l-149 149l39 40l150 -150l149 150l40 -40l-150 -149l150 -150l-40 -39l-149 149z" />
    <glyph glyph-name="Oslash" unicode="&#xd8;" horiz-adv-x="791" 
d="M50 0l92 105q-39 47 -60.5 109t-21.5 136q0 107 42.5 188.5t118.5 127.5t175 46q63 0 116.5 -19t95.5 -54l54 61h79l-91 -103q39 -48 60.5 -110.5t21.5 -136.5q0 -106 -42.5 -188t-117.5 -128t-173 -46q-63 0 -118 19.5t-98 55.5l-55 -63h-78zM124 350q0 -58 15.5 -108
t44.5 -89l384 439q-35 30 -78.5 46t-93.5 16q-79 0 -140.5 -39t-96.5 -107.5t-35 -157.5zM399 46q79 0 139.5 39t95 107.5t34.5 157.5q0 59 -15.5 109t-44.5 89l-384 -439q34 -30 78.5 -46.5t96.5 -16.5z" />
    <glyph glyph-name="Ugrave" unicode="&#xd9;" horiz-adv-x="709" 
d="M90 245v455h64v-455q0 -59 25.5 -105t71 -72t103.5 -26q59 0 104.5 26t71 72t25.5 105v455h64v-455q0 -76 -34 -135t-94.5 -92.5t-138.5 -33.5q-76 0 -135.5 33.5t-93 92.5t-33.5 135zM458 744h-76l-130 127h85z" />
    <glyph glyph-name="Uacute" unicode="&#xda;" horiz-adv-x="709" 
d="M90 245v455h64v-455q0 -59 25.5 -105t71 -72t103.5 -26q59 0 104.5 26t71 72t25.5 105v455h64v-455q0 -76 -34 -135t-94.5 -92.5t-138.5 -33.5q-76 0 -135.5 33.5t-93 92.5t-33.5 135zM293 744l119 126h85l-128 -126h-76z" />
    <glyph glyph-name="Ucircumflex" unicode="&#xdb;" horiz-adv-x="709" 
d="M90 245v455h64v-455q0 -59 25.5 -105t71 -72t103.5 -26q59 0 104.5 26t71 72t25.5 105v455h64v-455q0 -76 -34 -135t-94.5 -92.5t-138.5 -33.5q-76 0 -135.5 33.5t-93 92.5t-33.5 135zM192 756l120 126h85l120 -126h-76l-86 84l-87 -84h-76z" />
    <glyph glyph-name="Udieresis" unicode="&#xdc;" horiz-adv-x="709" 
d="M90 245v455h64v-455q0 -59 25.5 -105t71 -72t103.5 -26q59 0 104.5 26t71 72t25.5 105v455h64v-455q0 -76 -34 -135t-94.5 -92.5t-138.5 -33.5q-76 0 -135.5 33.5t-93 92.5t-33.5 135zM234 800q-16 0 -28 12t-12 28q0 17 12 28.5t28 11.5q17 0 28.5 -11.5t11.5 -28.5
q0 -16 -11.5 -28t-28.5 -12zM476 800q-16 0 -28 12t-12 28q0 17 12 28.5t28 11.5q17 0 28.5 -11.5t11.5 -28.5q0 -16 -11.5 -28t-28.5 -12z" />
    <glyph glyph-name="Yacute" unicode="&#xdd;" horiz-adv-x="588" 
d="M262 0v292l-252 408h75l209 -341l209 341h75l-252 -408v-292h-64zM232 744l119 126h85l-128 -126h-76z" />
    <glyph glyph-name="Thorn" unicode="&#xde;" horiz-adv-x="570" 
d="M100 1v700h64v-122l151 1q66 0 117 -28t79.5 -77t28.5 -113q0 -63 -25.5 -112t-70 -77t-102.5 -28h-178v-144h-64zM315 521h-151v-317h178q59 0 97 44t38 114q0 47 -20.5 83t-57 56.5t-84.5 19.5z" />
    <glyph glyph-name="germandbls" unicode="&#xdf;" horiz-adv-x="550" 
d="M75 0v519q0 57 26.5 100.5t73 68t106.5 24.5t106 -24.5t72 -67.5t26 -99q0 -61 -24 -103.5t-68 -64.5q54 -23 83 -66.5t29 -103.5q0 -86 -57.5 -134.5t-160.5 -48.5h-48v59h48q73 0 114 33t41 91q0 64 -40.5 99.5t-111.5 35.5h-46v71h4q68 0 106 16t53 45.5t15 70.5
q0 59 -39.5 96t-101.5 37t-102 -38t-40 -97v-519h-64z" />
    <glyph glyph-name="agrave" unicode="&#xe0;" horiz-adv-x="501" 
d="M232 -12q-88 0 -137.5 40.5t-49.5 112.5q0 74 49.5 115t137.5 41h147q-7 81 -38 120.5t-99 39.5q-96 0 -138 -76l-54 24q65 107 192 107q199 0 199 -244v-268h-50l-2 57q-27 -33 -66.5 -51t-90.5 -18zM228 43q73 0 114 47.5t41 123.5v0l-1 28h-142q-72 0 -103.5 -26.5
t-31.5 -74.5q0 -46 32.5 -72t90.5 -26zM355 574h-76l-130 127h85z" />
    <glyph glyph-name="aacute" unicode="&#xe1;" horiz-adv-x="501" 
d="M232 -12q-88 0 -137.5 40.5t-49.5 112.5q0 74 49.5 115t137.5 41h147q-7 81 -38 120.5t-99 39.5q-96 0 -138 -76l-54 24q65 107 192 107q199 0 199 -244v-268h-50l-2 57q-27 -33 -66.5 -51t-90.5 -18zM228 43q73 0 114 47.5t41 123.5v0l-1 28h-142q-72 0 -103.5 -26.5
t-31.5 -74.5q0 -46 32.5 -72t90.5 -26zM190 574l119 126h85l-128 -126h-76z" />
    <glyph glyph-name="acircumflex" unicode="&#xe2;" horiz-adv-x="501" 
d="M232 -12q-88 0 -137.5 40.5t-49.5 112.5q0 74 49.5 115t137.5 41h147q-7 81 -38 120.5t-99 39.5q-96 0 -138 -76l-54 24q65 107 192 107q199 0 199 -244v-268h-50l-2 57q-27 -33 -66.5 -51t-90.5 -18zM228 43q73 0 114 47.5t41 123.5v0l-1 28h-142q-72 0 -103.5 -26.5
t-31.5 -74.5q0 -46 32.5 -72t90.5 -26zM89 586l120 126h85l120 -126h-76l-86 84l-87 -84h-76z" />
    <glyph glyph-name="atilde" unicode="&#xe3;" horiz-adv-x="501" 
d="M232 -12q-88 0 -137.5 40.5t-49.5 112.5q0 74 49.5 115t137.5 41h147q-7 81 -38 120.5t-99 39.5q-96 0 -138 -76l-54 24q65 107 192 107q199 0 199 -244v-268h-50l-2 57q-27 -33 -66.5 -51t-90.5 -18zM228 43q73 0 114 47.5t41 123.5v0l-1 28h-142q-72 0 -103.5 -26.5
t-31.5 -74.5q0 -46 32.5 -72t90.5 -26zM334 572q-27 0 -44.5 11t-29 25t-21.5 25t-22 11q-18 0 -26.5 -8.5t-13.5 -28.5h-55q2 22 14 43.5t33 35.5t48 14q25 0 41 -11t28 -25t23 -25t25 -11q18 0 26.5 9.5t11.5 28.5h55q-4 -34 -28 -64t-65 -30z" />
    <glyph glyph-name="adieresis" unicode="&#xe4;" horiz-adv-x="501" 
d="M232 -12q-88 0 -137.5 40.5t-49.5 112.5q0 74 49.5 115t137.5 41h147q-7 81 -38 120.5t-99 39.5q-96 0 -138 -76l-54 24q65 107 192 107q199 0 199 -244v-268h-50l-2 57q-27 -33 -66.5 -51t-90.5 -18zM228 43q73 0 114 47.5t41 123.5v0l-1 28h-142q-72 0 -103.5 -26.5
t-31.5 -74.5q0 -46 32.5 -72t90.5 -26zM131 630q-16 0 -28 12t-12 28q0 17 12 28.5t28 11.5q17 0 28.5 -11.5t11.5 -28.5q0 -16 -11.5 -28t-28.5 -12zM373 630q-16 0 -28 12t-12 28q0 17 12 28.5t28 11.5q17 0 28.5 -11.5t11.5 -28.5q0 -16 -11.5 -28t-28.5 -12z" />
    <glyph glyph-name="aring" unicode="&#xe5;" horiz-adv-x="501" 
d="M232 -12q-88 0 -137.5 40.5t-49.5 112.5q0 74 49.5 115t137.5 41h147q-7 81 -38 120.5t-99 39.5q-96 0 -138 -76l-54 24q65 107 192 107q199 0 199 -244v-268h-50l-2 57q-27 -33 -66.5 -51t-90.5 -18zM228 43q73 0 114 47.5t41 123.5v0l-1 28h-142q-72 0 -103.5 -26.5
t-31.5 -74.5q0 -46 32.5 -72t90.5 -26zM252 564q-37 0 -62.5 25.5t-25.5 59.5q0 35 25.5 60.5t62.5 25.5q36 0 61.5 -25.5t25.5 -60.5q0 -34 -25.5 -59.5t-61.5 -25.5zM252 610q37 0 37 39q0 40 -37 40q-38 0 -38 -40q0 -39 38 -39z" />
    <glyph glyph-name="ae" unicode="&#xe6;" horiz-adv-x="890" 
d="M242 -12q-93 0 -145 40.5t-52 112.5q0 74 52 115.5t145 41.5h146q-12 80 -45.5 119.5t-96.5 39.5q-77 0 -143 -66l-35 39q73 82 178 82q141 0 185 -113q31 53 83.5 83t118.5 30q71 0 120.5 -34.5t75.5 -95t26 -139.5h-403q2 -59 26 -104t65.5 -70.5t94.5 -25.5
q58 0 98.5 28.5t63.5 73.5l50 -31q-28 -55 -82.5 -90.5t-129.5 -35.5q-70 0 -124.5 31.5t-85.5 87.5q-23 -56 -70.5 -87.5t-115.5 -31.5zM633 457q-69 0 -116.5 -44t-60.5 -115h335q-10 72 -49.5 115.5t-108.5 43.5zM238 43q73 0 114 46.5t41 120.5l-1 33h-142
q-77 0 -111 -27t-34 -75q0 -46 35 -72t98 -26z" />
    <glyph glyph-name="ccedilla" unicode="&#xe7;" horiz-adv-x="539" 
d="M291 -12q-72 0 -127.5 33.5t-87 92.5t-31.5 136t31 136t86.5 92.5t126.5 33.5t126 -31.5t85 -87.5l-52 -28q-23 43 -64.5 67.5t-94.5 24.5q-54 0 -95.5 -26.5t-65 -73t-23.5 -107.5t24 -107.5t66 -73t96 -26.5t96 27.5t64 76.5l53 -28q-30 -61 -85.5 -96t-127.5 -35z
M264 -210q-18 0 -40 4.5t-55 21.5l19 43q16 -8 34 -15.5t34 -7.5q18 0 33.5 7.5t15.5 31.5q0 28 -19.5 41.5t-60.5 20.5l29 69l45 -14l-11 -25q38 -14 52.5 -37.5t14.5 -49.5q0 -37 -20.5 -63.5t-70.5 -26.5z" />
    <glyph glyph-name="egrave" unicode="&#xe8;" horiz-adv-x="543" 
d="M291 -12q-72 0 -127.5 33.5t-87 92.5t-31.5 136t31 136t85.5 92.5t124.5 33.5q71 0 120.5 -34.5t75.5 -95t26 -139.5h-403q2 -59 26 -104t65.5 -70.5t94.5 -25.5q58 0 98.5 28.5t63.5 73.5l50 -31q-28 -55 -82.5 -90.5t-129.5 -35.5zM286 457q-69 0 -116.5 -44
t-60.5 -115h335q-10 72 -49.5 115.5t-108.5 43.5zM389 574h-76l-130 127h85z" />
    <glyph glyph-name="eacute" unicode="&#xe9;" horiz-adv-x="543" 
d="M291 -12q-72 0 -127.5 33.5t-87 92.5t-31.5 136t31 136t85.5 92.5t124.5 33.5q71 0 120.5 -34.5t75.5 -95t26 -139.5h-403q2 -59 26 -104t65.5 -70.5t94.5 -25.5q58 0 98.5 28.5t63.5 73.5l50 -31q-28 -55 -82.5 -90.5t-129.5 -35.5zM286 457q-69 0 -116.5 -44
t-60.5 -115h335q-10 72 -49.5 115.5t-108.5 43.5zM224 574l119 126h85l-128 -126h-76z" />
    <glyph glyph-name="ecircumflex" unicode="&#xea;" horiz-adv-x="543" 
d="M291 -12q-72 0 -127.5 33.5t-87 92.5t-31.5 136t31 136t85.5 92.5t124.5 33.5q71 0 120.5 -34.5t75.5 -95t26 -139.5h-403q2 -59 26 -104t65.5 -70.5t94.5 -25.5q58 0 98.5 28.5t63.5 73.5l50 -31q-28 -55 -82.5 -90.5t-129.5 -35.5zM286 457q-69 0 -116.5 -44
t-60.5 -115h335q-10 72 -49.5 115.5t-108.5 43.5zM123 586l120 126h85l120 -126h-76l-86 84l-87 -84h-76z" />
    <glyph glyph-name="edieresis" unicode="&#xeb;" horiz-adv-x="543" 
d="M291 -12q-72 0 -127.5 33.5t-87 92.5t-31.5 136t31 136t85.5 92.5t124.5 33.5q71 0 120.5 -34.5t75.5 -95t26 -139.5h-403q2 -59 26 -104t65.5 -70.5t94.5 -25.5q58 0 98.5 28.5t63.5 73.5l50 -31q-28 -55 -82.5 -90.5t-129.5 -35.5zM286 457q-69 0 -116.5 -44
t-60.5 -115h335q-10 72 -49.5 115.5t-108.5 43.5zM165 630q-16 0 -28 12t-12 28q0 17 12 28.5t28 11.5q17 0 28.5 -11.5t11.5 -28.5q0 -16 -11.5 -28t-28.5 -12zM407 630q-16 0 -28 12t-12 28q0 17 12 28.5t28 11.5q17 0 28.5 -11.5t11.5 -28.5q0 -16 -11.5 -28t-28.5 -12z
" />
    <glyph glyph-name="igrave" unicode="&#xec;" horiz-adv-x="220" 
d="M79 0l2 500h60l-2 -500h-60zM213 574h-76l-130 127h85z" />
    <glyph glyph-name="iacute" unicode="&#xed;" horiz-adv-x="220" 
d="M79 0l2 500h60l-2 -500h-60zM48 574l119 126h85l-128 -126h-76z" />
    <glyph glyph-name="icircumflex" unicode="&#xee;" horiz-adv-x="220" 
d="M79 0l2 500h60l-2 -500h-60zM-53 586l120 126h85l120 -126h-76l-86 84l-87 -84h-76z" />
    <glyph glyph-name="idieresis" unicode="&#xef;" horiz-adv-x="220" 
d="M50 630q-16 0 -28 12t-12 28q0 17 12 28.5t28 11.5q17 0 28.5 -11.5t11.5 -28.5q0 -16 -11.5 -28t-28.5 -12zM171 630q-16 0 -28 12t-12 28q0 17 12 28.5t28 11.5q17 0 28.5 -11.5t11.5 -28.5q0 -16 -11.5 -28t-28.5 -12zM79 0l2 500h60l-2 -500h-60z" />
    <glyph glyph-name="eth" unicode="&#xf0;" horiz-adv-x="600" 
d="M45 250q0 77 31 136t86 92.5t127 33.5q50 0 92 -16.5t74 -45.5q-19 84 -55 139l-54 -37l-28 42l49 34q-30 29 -67 42l27 54q53 -18 93 -60l61 42l28 -42l-58 -40q83 -125 83 -374q0 -77 -31 -136t-86 -92.5t-126 -33.5q-72 0 -127.5 33.5t-87 92.5t-31.5 136zM105 250
q0 -61 24 -107.5t66 -73t96 -26.5t95 26.5t64.5 73t23.5 107.5t-23.5 107.5t-65.5 73t-96 26.5t-95.5 -26.5t-65 -73t-23.5 -107.5z" />
    <glyph glyph-name="ntilde" unicode="&#xf1;" 
d="M75 0v500h56l3 -77q25 43 65.5 66t96.5 23q90 0 144.5 -56t53.5 -170v-286h-60v256q0 83 -19.5 126t-53 58.5t-75.5 15.5q-71 0 -111 -52.5t-40 -146.5v-257h-60zM359 572q-27 0 -44.5 11t-29 25t-21.5 25t-22 11q-18 0 -26.5 -8.5t-13.5 -28.5h-55q2 22 14 43.5t33 35.5
t48 14q25 0 41 -11t28 -25t23 -25t25 -11q18 0 26.5 9.5t11.5 28.5h55q-4 -34 -28 -64t-65 -30z" />
    <glyph glyph-name="ograve" unicode="&#xf2;" horiz-adv-x="579" 
d="M291 -12q-72 0 -127.5 33.5t-87 92.5t-31.5 136t31 136t86.5 92.5t126.5 33.5q72 0 127.5 -33.5t86.5 -92.5t31 -136t-31 -136t-86 -92.5t-126 -33.5zM291 43q54 0 95 26.5t64.5 73t23.5 107.5t-23.5 107.5t-65.5 73t-96 26.5t-95.5 -26.5t-65 -73t-23.5 -107.5
t24 -107.5t66 -73t96 -26.5zM393 574h-76l-130 127h85z" />
    <glyph glyph-name="oacute" unicode="&#xf3;" horiz-adv-x="579" 
d="M291 -12q-72 0 -127.5 33.5t-87 92.5t-31.5 136t31 136t86.5 92.5t126.5 33.5q72 0 127.5 -33.5t86.5 -92.5t31 -136t-31 -136t-86 -92.5t-126 -33.5zM291 43q54 0 95 26.5t64.5 73t23.5 107.5t-23.5 107.5t-65.5 73t-96 26.5t-95.5 -26.5t-65 -73t-23.5 -107.5
t24 -107.5t66 -73t96 -26.5zM228 574l119 126h85l-128 -126h-76z" />
    <glyph glyph-name="ocircumflex" unicode="&#xf4;" horiz-adv-x="579" 
d="M291 -12q-72 0 -127.5 33.5t-87 92.5t-31.5 136t31 136t86.5 92.5t126.5 33.5q72 0 127.5 -33.5t86.5 -92.5t31 -136t-31 -136t-86 -92.5t-126 -33.5zM291 43q54 0 95 26.5t64.5 73t23.5 107.5t-23.5 107.5t-65.5 73t-96 26.5t-95.5 -26.5t-65 -73t-23.5 -107.5
t24 -107.5t66 -73t96 -26.5zM127 586l120 126h85l120 -126h-76l-86 84l-87 -84h-76z" />
    <glyph glyph-name="otilde" unicode="&#xf5;" horiz-adv-x="579" 
d="M291 -12q-72 0 -127.5 33.5t-87 92.5t-31.5 136t31 136t86.5 92.5t126.5 33.5q72 0 127.5 -33.5t86.5 -92.5t31 -136t-31 -136t-86 -92.5t-126 -33.5zM291 43q54 0 95 26.5t64.5 73t23.5 107.5t-23.5 107.5t-65.5 73t-96 26.5t-95.5 -26.5t-65 -73t-23.5 -107.5
t24 -107.5t66 -73t96 -26.5zM372 572q-27 0 -44.5 11t-29 25t-21.5 25t-22 11q-18 0 -26.5 -8.5t-13.5 -28.5h-55q2 22 14 43.5t33 35.5t48 14q25 0 41 -11t28 -25t23 -25t25 -11q18 0 26.5 9.5t11.5 28.5h55q-4 -34 -28 -64t-65 -30z" />
    <glyph glyph-name="odieresis" unicode="&#xf6;" horiz-adv-x="579" 
d="M291 -12q-72 0 -127.5 33.5t-87 92.5t-31.5 136t31 136t86.5 92.5t126.5 33.5q72 0 127.5 -33.5t86.5 -92.5t31 -136t-31 -136t-86 -92.5t-126 -33.5zM291 43q54 0 95 26.5t64.5 73t23.5 107.5t-23.5 107.5t-65.5 73t-96 26.5t-95.5 -26.5t-65 -73t-23.5 -107.5
t24 -107.5t66 -73t96 -26.5zM169 630q-16 0 -28 12t-12 28q0 17 12 28.5t28 11.5q17 0 28.5 -11.5t11.5 -28.5q0 -16 -11.5 -28t-28.5 -12zM411 630q-16 0 -28 12t-12 28q0 17 12 28.5t28 11.5q17 0 28.5 -11.5t11.5 -28.5q0 -16 -11.5 -28t-28.5 -12z" />
    <glyph glyph-name="divide" unicode="&#xf7;" horiz-adv-x="520" 
d="M260 406q-16 0 -28 12t-12 28q0 17 12 28.5t28 11.5q17 0 28.5 -11.5t11.5 -28.5q0 -16 -11.5 -28t-28.5 -12zM80 269v57h360v-57h-360zM260 109q-16 0 -28 12t-12 28q0 17 12 28.5t28 11.5q17 0 28.5 -11.5t11.5 -28.5q0 -16 -11.5 -28t-28.5 -12z" />
    <glyph glyph-name="oslash" unicode="&#xf8;" horiz-adv-x="579" 
d="M32 0l68 77q-27 34 -41.5 77.5t-14.5 95.5q0 77 31 136t86.5 92.5t126.5 33.5q44 0 82 -13t68 -36l33 37h76l-68 -78q26 -33 40 -77t14 -95q0 -77 -31 -136t-86 -92.5t-126 -33.5q-44 0 -82 13t-68 36l-33 -37h-75zM104 250q0 -74 35 -128l261 297q-48 38 -112 38
q-54 0 -95.5 -26.5t-65 -73t-23.5 -107.5zM290 43q54 0 95 26.5t64.5 73t23.5 107.5q0 73 -35 127l-260 -297q47 -37 112 -37z" />
    <glyph glyph-name="ugrave" unicode="&#xf9;" 
d="M120 244q0 -83 19.5 -126t53.5 -58.5t75 -15.5q71 0 111 52.5t40 146.5v257h60v-500h-56l-3 77q-25 -43 -65.5 -66t-96.5 -23q-90 0 -144.5 56t-53.5 170v286h60v-256zM380 574h-76l-130 127h85z" />
    <glyph glyph-name="uacute" unicode="&#xfa;" 
d="M120 244q0 -83 19.5 -126t53.5 -58.5t75 -15.5q71 0 111 52.5t40 146.5v257h60v-500h-56l-3 77q-25 -43 -65.5 -66t-96.5 -23q-90 0 -144.5 56t-53.5 170v286h60v-256zM215 574l119 126h85l-128 -126h-76z" />
    <glyph glyph-name="ucircumflex" unicode="&#xfb;" 
d="M120 244q0 -83 19.5 -126t53.5 -58.5t75 -15.5q71 0 111 52.5t40 146.5v257h60v-500h-56l-3 77q-25 -43 -65.5 -66t-96.5 -23q-90 0 -144.5 56t-53.5 170v286h60v-256zM114 586l120 126h85l120 -126h-76l-86 84l-87 -84h-76z" />
    <glyph glyph-name="udieresis" unicode="&#xfc;" 
d="M120 244q0 -83 19.5 -126t53.5 -58.5t75 -15.5q71 0 111 52.5t40 146.5v257h60v-500h-56l-3 77q-25 -43 -65.5 -66t-96.5 -23q-90 0 -144.5 56t-53.5 170v286h60v-256zM156 630q-16 0 -28 12t-12 28q0 17 12 28.5t28 11.5q17 0 28.5 -11.5t11.5 -28.5q0 -16 -11.5 -28
t-28.5 -12zM398 630q-16 0 -28 12t-12 28q0 17 12 28.5t28 11.5q17 0 28.5 -11.5t11.5 -28.5q0 -16 -11.5 -28t-28.5 -12z" />
    <glyph glyph-name="yacute" unicode="&#xfd;" horiz-adv-x="507" 
d="M222 0l-211 500h62l180 -428l181 428h63l-245 -580q-27 -64 -59 -98t-94 -34q-30 0 -89 24l22 51q26 -10 44 -15t28 -5q29 0 47.5 16t30.5 44l41 97h-1zM191 574l119 126h85l-128 -126h-76z" />
    <glyph glyph-name="thorn" unicode="&#xfe;" horiz-adv-x="582" 
d="M75 -200v900h60v-291q28 48 73.5 75.5t102.5 27.5q66 0 117 -33.5t80 -92.5t29 -136q0 -76 -29 -135.5t-80 -93t-117 -33.5q-57 0 -102.5 27.5t-73.5 75.5v-291h-60zM299 42q52 0 92 26.5t63 73.5t23 108t-22.5 108t-62.5 73.5t-92 26.5q-48 0 -85.5 -26.5t-58.5 -73.5
t-21 -108t21 -108t58 -73.5t85 -26.5z" />
    <glyph glyph-name="ydieresis" unicode="&#xff;" horiz-adv-x="507" 
d="M222 0l-211 500h62l180 -428l181 428h63l-245 -580q-27 -64 -59 -98t-94 -34q-30 0 -89 24l22 51q26 -10 44 -15t28 -5q29 0 47.5 16t30.5 44l41 97h-1zM132 630q-16 0 -28 12t-12 28q0 17 12 28.5t28 11.5q17 0 28.5 -11.5t11.5 -28.5q0 -16 -11.5 -28t-28.5 -12z
M374 630q-16 0 -28 12t-12 28q0 17 12 28.5t28 11.5q17 0 28.5 -11.5t11.5 -28.5q0 -16 -11.5 -28t-28.5 -12z" />
    <glyph glyph-name="Amacron" unicode="&#x100;" horiz-adv-x="662" 
d="M10 0l288 700h66l288 -700h-68l-89 217h-328l-89 -217h-68zM190 275h282l-141 344zM181 750v57h300v-57h-300z" />
    <glyph glyph-name="amacron" unicode="&#x101;" horiz-adv-x="501" 
d="M232 -12q-88 0 -137.5 40.5t-49.5 112.5q0 74 49.5 115t137.5 41h147q-7 81 -38 120.5t-99 39.5q-96 0 -138 -76l-54 24q65 107 192 107q199 0 199 -244v-268h-50l-2 57q-27 -33 -66.5 -51t-90.5 -18zM228 43q73 0 114 47.5t41 123.5v0l-1 28h-142q-72 0 -103.5 -26.5
t-31.5 -74.5q0 -46 32.5 -72t90.5 -26zM102 580v57h300v-57h-300z" />
    <glyph glyph-name="Abreve" unicode="&#x102;" horiz-adv-x="662" 
d="M10 0l288 700h66l288 -700h-68l-89 217h-328l-89 -217h-68zM190 275h282l-141 344zM433 870h60q0 -58 -45.5 -94.5t-116.5 -36.5t-117 36.5t-46 94.5h60q0 -34 29 -55.5t74 -21.5t73.5 21.5t28.5 55.5z" />
    <glyph glyph-name="abreve" unicode="&#x103;" horiz-adv-x="501" 
d="M232 -12q-88 0 -137.5 40.5t-49.5 112.5q0 74 49.5 115t137.5 41h147q-7 81 -38 120.5t-99 39.5q-96 0 -138 -76l-54 24q65 107 192 107q199 0 199 -244v-268h-50l-2 57q-27 -33 -66.5 -51t-90.5 -18zM228 43q73 0 114 47.5t41 123.5v0l-1 28h-142q-72 0 -103.5 -26.5
t-31.5 -74.5q0 -46 32.5 -72t90.5 -26zM354 700h60q0 -58 -45.5 -94.5t-116.5 -36.5t-117 36.5t-46 94.5h60q0 -34 29 -55.5t74 -21.5t73.5 21.5t28.5 55.5z" />
    <glyph glyph-name="Aogonek" unicode="&#x104;" horiz-adv-x="662" 
d="M10 0l288 700h66l288 -700h-68l-89 217h-328l-89 -217h-68zM190 275h282l-141 344zM602 -212q-50 0 -78 22.5t-28 65.5q0 38 32.5 72t73.5 64l50 -12q-35 -26 -65.5 -56.5t-30.5 -67.5q0 -33 40 -33q19 0 34 4.5t20 6.5l19 -46q-13 -9 -30 -14.5t-37 -5.5z" />
    <glyph glyph-name="aogonek" unicode="&#x105;" horiz-adv-x="501" 
d="M232 -12q-88 0 -137.5 40.5t-49.5 112.5q0 74 49.5 115t137.5 41h147q-7 81 -38 120.5t-99 39.5q-96 0 -138 -76l-54 24q65 107 192 107q199 0 199 -244v-268h-50l-2 57q-27 -33 -66.5 -51t-90.5 -18zM228 43q73 0 114 47.5t41 123.5v0l-1 28h-142q-72 0 -103.5 -26.5
t-31.5 -74.5q0 -46 32.5 -72t90.5 -26zM391 -212q-50 0 -78 22.5t-28 65.5q0 38 32.5 72t73.5 64l50 -12q-35 -26 -65.5 -56.5t-30.5 -67.5q0 -33 40 -33q19 0 34 4.5t20 6.5l19 -46q-13 -9 -30 -14.5t-37 -5.5z" />
    <glyph glyph-name="Cacute" unicode="&#x106;" horiz-adv-x="719" 
d="M389 -12q-99 0 -175.5 46.5t-120 128t-43.5 187.5t43 187.5t119 128t174 46.5q59 0 115.5 -21.5t102.5 -60t71 -88.5l-53 -33q-21 43 -58.5 75.5t-83.5 51t-94 18.5q-79 0 -140.5 -39t-96.5 -107.5t-35 -157.5q0 -90 35 -159t97.5 -108t142.5 -39q49 0 95 20.5t83.5 56.5
t58.5 82l53 -33q-26 -53 -71.5 -94.5t-102.5 -64.5t-116 -23zM324 744l119 126h85l-128 -126h-76z" />
    <glyph glyph-name="cacute" unicode="&#x107;" horiz-adv-x="539" 
d="M291 -12q-72 0 -127.5 33.5t-87 92.5t-31.5 136t31 136t86.5 92.5t126.5 33.5t126 -31.5t85 -87.5l-52 -28q-23 43 -64.5 67.5t-94.5 24.5q-54 0 -95.5 -26.5t-65 -73t-23.5 -107.5t24 -107.5t66 -73t96 -26.5t96 27.5t64 76.5l53 -28q-30 -61 -85.5 -96t-127.5 -35z
M227 574l119 126h85l-128 -126h-76z" />
    <glyph glyph-name="Cdotaccent" unicode="&#x10a;" horiz-adv-x="719" 
d="M389 -12q-99 0 -175.5 46.5t-120 128t-43.5 187.5t43 187.5t119 128t174 46.5q59 0 115.5 -21.5t102.5 -60t71 -88.5l-53 -33q-21 43 -58.5 75.5t-83.5 51t-94 18.5q-79 0 -140.5 -39t-96.5 -107.5t-35 -157.5q0 -90 35 -159t97.5 -108t142.5 -39q49 0 95 20.5t83.5 56.5
t58.5 82l53 -33q-26 -53 -71.5 -94.5t-102.5 -64.5t-116 -23zM386 800q-16 0 -28 12t-12 28q0 17 12 28.5t28 11.5q17 0 28.5 -11.5t11.5 -28.5q0 -16 -11.5 -28t-28.5 -12z" />
    <glyph glyph-name="cdotaccent" unicode="&#x10b;" horiz-adv-x="539" 
d="M291 -12q-72 0 -127.5 33.5t-87 92.5t-31.5 136t31 136t86.5 92.5t126.5 33.5t126 -31.5t85 -87.5l-52 -28q-23 43 -64.5 67.5t-94.5 24.5q-54 0 -95.5 -26.5t-65 -73t-23.5 -107.5t24 -107.5t66 -73t96 -26.5t96 27.5t64 76.5l53 -28q-30 -61 -85.5 -96t-127.5 -35z
M289 630q-16 0 -28 12t-12 28q0 17 12 28.5t28 11.5q17 0 28.5 -11.5t11.5 -28.5q0 -16 -11.5 -28t-28.5 -12z" />
    <glyph glyph-name="Ccaron" unicode="&#x10c;" horiz-adv-x="719" 
d="M389 -12q-99 0 -175.5 46.5t-120 128t-43.5 187.5t43 187.5t119 128t174 46.5q59 0 115.5 -21.5t102.5 -60t71 -88.5l-53 -33q-21 43 -58.5 75.5t-83.5 51t-94 18.5q-79 0 -140.5 -39t-96.5 -107.5t-35 -157.5q0 -90 35 -159t97.5 -108t142.5 -39q49 0 95 20.5t83.5 56.5
t58.5 82l53 -33q-26 -53 -71.5 -94.5t-102.5 -64.5t-116 -23zM223 870h78l85 -87l84 87h78l-120 -126h-85z" />
    <glyph glyph-name="ccaron" unicode="&#x10d;" horiz-adv-x="539" 
d="M291 -12q-72 0 -127.5 33.5t-87 92.5t-31.5 136t31 136t86.5 92.5t126.5 33.5t126 -31.5t85 -87.5l-52 -28q-23 43 -64.5 67.5t-94.5 24.5q-54 0 -95.5 -26.5t-65 -73t-23.5 -107.5t24 -107.5t66 -73t96 -26.5t96 27.5t64 76.5l53 -28q-30 -61 -85.5 -96t-127.5 -35z
M126 700h78l85 -87l84 87h78l-120 -126h-85z" />
    <glyph glyph-name="Dcaron" unicode="&#x10e;" horiz-adv-x="683" 
d="M164 642v-584h145q54 0 101 22.5t83 63t56 93.5t20 113t-20 113t-56 93.5t-83 63t-101 22.5h-145zM100 0v700h209q95 0 168 -44.5t114.5 -123.5t41.5 -182q0 -102 -41.5 -181t-114.5 -124t-168 -45h-209zM145 870h78l85 -87l84 87h78l-120 -126h-85z" />
    <glyph glyph-name="dcaron" unicode="&#x10f;" horiz-adv-x="582" 
d="M271 -12q-66 0 -117 33.5t-80 93t-29 135.5q0 77 29 136t80 92.5t117 33.5q57 0 102.5 -27.5t73.5 -75.5v291h60v-700h-57l-3 91q-28 -48 -73.5 -75.5t-102.5 -27.5zM283 42q48 0 85 26.5t58 73.5t21 108t-21 108t-58 73.5t-86 26.5q-52 0 -92 -26.5t-62.5 -73.5
t-22.5 -108t23 -108t63 -73.5t92 -26.5zM531 527l55 172h71l-70 -172h-56z" />
    <glyph glyph-name="Dcroat" unicode="&#x110;" horiz-adv-x="753" 
d="M234 642v-264h161v-58h-161v-262h145q54 0 101 22.5t83 63t56 93.5t20 113t-20 113t-56 93.5t-83 63t-101 22.5h-145zM170 0v320h-90v58h90v322h209q95 0 168 -44.5t114.5 -123.5t41.5 -182q0 -102 -41.5 -181t-114.5 -124t-168 -45h-209z" />
    <glyph glyph-name="dcroat" unicode="&#x111;" horiz-adv-x="582" 
d="M271 -12q-66 0 -117 33.5t-80 93t-29 135.5q0 77 29 136t80 92.5t117 33.5q57 0 102.5 -27.5t73.5 -75.5v162h-168v55h168v74h60v-74h80v-55h-80v-571h-57l-3 91q-28 -48 -73.5 -75.5t-102.5 -27.5zM283 42q48 0 85 26.5t58 73.5t21 108t-21 108t-58 73.5t-86 26.5
q-52 0 -92 -26.5t-62.5 -73.5t-22.5 -108t23 -108t63 -73.5t92 -26.5z" />
    <glyph glyph-name="Emacron" unicode="&#x112;" horiz-adv-x="593" 
d="M100 0v700h403v-58h-339v-252h315v-58h-315v-274h339v-58h-403zM158 750v57h300v-57h-300z" />
    <glyph glyph-name="emacron" unicode="&#x113;" horiz-adv-x="543" 
d="M291 -12q-72 0 -127.5 33.5t-87 92.5t-31.5 136t31 136t85.5 92.5t124.5 33.5q71 0 120.5 -34.5t75.5 -95t26 -139.5h-403q2 -59 26 -104t65.5 -70.5t94.5 -25.5q58 0 98.5 28.5t63.5 73.5l50 -31q-28 -55 -82.5 -90.5t-129.5 -35.5zM286 457q-69 0 -116.5 -44
t-60.5 -115h335q-10 72 -49.5 115.5t-108.5 43.5zM136 580v57h300v-57h-300z" />
    <glyph glyph-name="Edotaccent" unicode="&#x116;" horiz-adv-x="593" 
d="M100 0v700h403v-58h-339v-252h315v-58h-315v-274h339v-58h-403zM308 800q-16 0 -28 12t-12 28q0 17 12 28.5t28 11.5q17 0 28.5 -11.5t11.5 -28.5q0 -16 -11.5 -28t-28.5 -12z" />
    <glyph glyph-name="edotaccent" unicode="&#x117;" horiz-adv-x="543" 
d="M291 -12q-72 0 -127.5 33.5t-87 92.5t-31.5 136t31 136t85.5 92.5t124.5 33.5q71 0 120.5 -34.5t75.5 -95t26 -139.5h-403q2 -59 26 -104t65.5 -70.5t94.5 -25.5q58 0 98.5 28.5t63.5 73.5l50 -31q-28 -55 -82.5 -90.5t-129.5 -35.5zM286 457q-69 0 -116.5 -44
t-60.5 -115h335q-10 72 -49.5 115.5t-108.5 43.5zM286 630q-16 0 -28 12t-12 28q0 17 12 28.5t28 11.5q17 0 28.5 -11.5t11.5 -28.5q0 -16 -11.5 -28t-28.5 -12z" />
    <glyph glyph-name="Eogonek" unicode="&#x118;" horiz-adv-x="593" 
d="M100 0v700h403v-58h-339v-252h315v-58h-315v-274h339v-58h-403zM453 -212q-50 0 -78 22.5t-28 65.5q0 38 32.5 72t73.5 64l50 -12q-35 -26 -65.5 -56.5t-30.5 -67.5q0 -33 40 -33q19 0 34 4.5t20 6.5l19 -46q-13 -9 -30 -14.5t-37 -5.5z" />
    <glyph glyph-name="eogonek" unicode="&#x119;" horiz-adv-x="543" 
d="M291 -12q-72 0 -127.5 33.5t-87 92.5t-31.5 136t31 136t85.5 92.5t124.5 33.5q71 0 120.5 -34.5t75.5 -95t26 -139.5h-403q2 -59 26 -104t65.5 -70.5t94.5 -25.5q58 0 98.5 28.5t63.5 73.5l50 -31q-28 -55 -82.5 -90.5t-129.5 -35.5zM286 457q-69 0 -116.5 -44
t-60.5 -115h335q-10 72 -49.5 115.5t-108.5 43.5zM445 -195q-55 0 -86.5 23t-31.5 64q0 47 30 89t82 70l16 -1q-36 -31 -52 -67.5t-16 -71.5q0 -24 13.5 -37.5t37.5 -13.5q39 0 67 11l19 -46q-37 -20 -79 -20z" />
    <glyph glyph-name="Ecaron" unicode="&#x11a;" horiz-adv-x="593" 
d="M100 0v700h403v-58h-339v-252h315v-58h-315v-274h339v-58h-403zM145 870h78l85 -87l84 87h78l-120 -126h-85z" />
    <glyph glyph-name="ecaron" unicode="&#x11b;" horiz-adv-x="543" 
d="M291 -12q-72 0 -127.5 33.5t-87 92.5t-31.5 136t31 136t85.5 92.5t124.5 33.5q71 0 120.5 -34.5t75.5 -95t26 -139.5h-403q2 -59 26 -104t65.5 -70.5t94.5 -25.5q58 0 98.5 28.5t63.5 73.5l50 -31q-28 -55 -82.5 -90.5t-129.5 -35.5zM286 457q-69 0 -116.5 -44
t-60.5 -115h335q-10 72 -49.5 115.5t-108.5 43.5zM123 700h78l85 -87l84 87h78l-120 -126h-85z" />
    <glyph glyph-name="Gbreve" unicode="&#x11e;" horiz-adv-x="767" 
d="M413 -12q-106 0 -188 46.5t-128.5 128t-46.5 186.5q0 107 46.5 188.5t128.5 128t188 46.5q53 0 106 -18t97.5 -49.5t71.5 -72.5l-49 -37q-22 35 -58.5 62t-80 42t-87.5 15q-87 0 -154.5 -39t-106 -107.5t-38.5 -158.5q0 -88 38.5 -156.5t106 -107.5t154.5 -39
q73 0 130 31t89.5 86.5t32.5 127.5h-176v59h238v-59q0 -88 -40 -156.5t-111 -107.5t-163 -39zM486 900h60q0 -58 -45.5 -94.5t-116.5 -36.5t-117 36.5t-46 94.5h60q0 -34 29 -55.5t74 -21.5t73.5 21.5t28.5 55.5z" />
    <glyph glyph-name="gbreve" unicode="&#x11f;" horiz-adv-x="567" 
d="M271 0q-66 0 -117 33t-80 91.5t-29 133.5t29 132t80 89.5t117 32.5q57 0 102.5 -26.5t73.5 -72.5v87h60v-454q0 -87 -32.5 -144.5t-87.5 -85.5t-121 -28q-45 0 -83 10t-64 21.5t-36 16.5l22 50q12 -7 36.5 -17.5t57 -18t67.5 -7.5q52 0 93 21t64.5 66t23.5 116v55
q-28 -47 -73.5 -74t-102.5 -27zM283 53q48 0 85 26.5t58 72.5t21 106q0 59 -21 104.5t-58 71.5t-86 26q-52 0 -92 -26t-62.5 -71.5t-22.5 -104.5q0 -60 23 -106t63 -72.5t92 -26.5zM373 700h60q0 -58 -45.5 -94.5t-116.5 -36.5t-117 36.5t-46 94.5h60q0 -34 29 -55.5
t74 -21.5t73.5 21.5t28.5 55.5z" />
    <glyph glyph-name="Gdotaccent" unicode="&#x120;" horiz-adv-x="767" 
d="M413 -12q-106 0 -188 46.5t-128.5 128t-46.5 186.5q0 107 46.5 188.5t128.5 128t188 46.5q53 0 106 -18t97.5 -49.5t71.5 -72.5l-49 -37q-22 35 -58.5 62t-80 42t-87.5 15q-87 0 -154.5 -39t-106 -107.5t-38.5 -158.5q0 -88 38.5 -156.5t106 -107.5t154.5 -39
q73 0 130 31t89.5 86.5t32.5 127.5h-176v59h238v-59q0 -88 -40 -156.5t-111 -107.5t-163 -39zM384 830q-16 0 -28 12t-12 28q0 17 12 28.5t28 11.5q17 0 28.5 -11.5t11.5 -28.5q0 -16 -11.5 -28t-28.5 -12z" />
    <glyph glyph-name="gdotaccent" unicode="&#x121;" horiz-adv-x="567" 
d="M271 0q-66 0 -117 33t-80 91.5t-29 133.5t29 132t80 89.5t117 32.5q57 0 102.5 -26.5t73.5 -72.5v87h60v-454q0 -87 -32.5 -144.5t-87.5 -85.5t-121 -28q-45 0 -83 10t-64 21.5t-36 16.5l22 50q12 -7 36.5 -17.5t57 -18t67.5 -7.5q52 0 93 21t64.5 66t23.5 116v55
q-28 -47 -73.5 -74t-102.5 -27zM283 53q48 0 85 26.5t58 72.5t21 106q0 59 -21 104.5t-58 71.5t-86 26q-52 0 -92 -26t-62.5 -71.5t-22.5 -104.5q0 -60 23 -106t63 -72.5t92 -26.5zM271 630q-16 0 -28 12t-12 28q0 17 12 28.5t28 11.5q17 0 28.5 -11.5t11.5 -28.5
q0 -16 -11.5 -28t-28.5 -12z" />
    <glyph glyph-name="uni0122" unicode="&#x122;" horiz-adv-x="767" 
d="M413 -12q-106 0 -188 46.5t-128.5 128t-46.5 186.5q0 107 46.5 188.5t128.5 128t188 46.5q53 0 106 -18t97.5 -49.5t71.5 -72.5l-49 -37q-22 35 -58.5 62t-80 42t-87.5 15q-87 0 -154.5 -39t-106 -107.5t-38.5 -158.5q0 -88 38.5 -156.5t106 -107.5t154.5 -39
q73 0 130 31t89.5 86.5t32.5 127.5h-176v59h238v-59q0 -88 -40 -156.5t-111 -107.5t-163 -39zM336 -200l46 136h71l-61 -136h-56z" />
    <glyph glyph-name="uni0123" unicode="&#x123;" horiz-adv-x="567" 
d="M364 713l-55 -129h-71l70 129h56zM271 0q-66 0 -117 33t-80 91.5t-29 133.5t29 132t80 89.5t117 32.5q57 0 102.5 -26.5t73.5 -72.5v87h60v-454q0 -87 -32.5 -144.5t-87.5 -85.5t-121 -28q-45 0 -83 10t-64 21.5t-36 16.5l22 50q12 -7 36.5 -17.5t57 -18t67.5 -7.5
q52 0 93 21t64.5 66t23.5 116v55q-28 -47 -73.5 -74t-102.5 -27zM283 53q48 0 85 26.5t58 72.5t21 106q0 59 -21 104.5t-58 71.5t-86 26q-52 0 -92 -26t-62.5 -71.5t-22.5 -104.5q0 -60 23 -106t63 -72.5t92 -26.5z" />
    <glyph glyph-name="Hbar" unicode="&#x126;" horiz-adv-x="752" 
d="M588 390v110h-424v-110h424zM100 0v500h-95v58h95v142h64v-142h424v142h64v-142h95v-58h-95v-500h-64v332h-424v-332h-64z" />
    <glyph glyph-name="hbar" unicode="&#x127;" 
d="M75 0v571h-75v55h75v90h60v-90h173v-55h-173v-147q25 43 65.5 65.5t95.5 22.5q90 0 144.5 -56t53.5 -170v-286h-60v256q0 83 -19.5 126t-53 58.5t-75.5 15.5q-71 0 -111 -52.5t-40 -146.5v-257h-60z" />
    <glyph glyph-name="Imacron" unicode="&#x12a;" horiz-adv-x="264" 
d="M100 0v700h64v-700h-64zM-18 750v57h300v-57h-300z" />
    <glyph glyph-name="imacron" unicode="&#x12b;" horiz-adv-x="220" 
d="M-15 580v57h249v-57h-249zM79 0l2 500h60l-2 -500h-60z" />
    <glyph glyph-name="Iogonek" unicode="&#x12e;" horiz-adv-x="264" 
d="M100 0v700h64v-700h-64zM114 -212q-50 0 -78 22.5t-28 65.5q0 38 32.5 72t73.5 64l50 -12q-35 -26 -65.5 -56.5t-30.5 -67.5q0 -33 40 -33q19 0 34 4.5t20 6.5l19 -46q-13 -9 -30 -14.5t-37 -5.5z" />
    <glyph glyph-name="iogonek" unicode="&#x12f;" horiz-adv-x="220" 
d="M79 0l2 500h60l-2 -500h-60zM110 630q-16 0 -28 12t-12 28q0 17 12 28.5t28 11.5q17 0 28.5 -11.5t11.5 -28.5q0 -16 -11.5 -28t-28.5 -12zM89 -212q-50 0 -78 22.5t-28 65.5q0 38 32.5 72t73.5 64l50 -12q-35 -26 -65.5 -56.5t-30.5 -67.5q0 -33 40 -33q19 0 34 4.5
t20 6.5l19 -46q-13 -9 -30 -14.5t-37 -5.5z" />
    <glyph glyph-name="Idotaccent" unicode="&#x130;" horiz-adv-x="264" 
d="M100 0v700h64v-700h-64zM132 800q-16 0 -28 12t-12 28q0 17 12 28.5t28 11.5q17 0 28.5 -11.5t11.5 -28.5q0 -16 -11.5 -28t-28.5 -12z" />
    <glyph glyph-name="dotlessi" unicode="&#x131;" horiz-adv-x="220" 
d="M79 0l2 500h60l-2 -500h-60z" />
    <glyph glyph-name="IJ" unicode="&#x132;" horiz-adv-x="764" 
d="M100 0v700h64v-700h-64zM448 -11q-62 0 -106.5 30t-71.5 76l45 35q22 -35 54.5 -59t78.5 -24q38 0 75.5 18.5t62 61.5t24.5 115v458h64v-488q0 -57 -20 -99t-53 -69.5t-73 -41t-80 -13.5z" />
    <glyph glyph-name="ij" unicode="&#x133;" horiz-adv-x="480" 
d="M79 0l2 500h60l-2 -500h-60zM110 630q-16 0 -28 12t-12 28q0 17 12 28.5t28 11.5q17 0 28.5 -11.5t11.5 -28.5q0 -16 -11.5 -28t-28.5 -12zM370 632q-16 0 -28 12t-12 28q0 17 12 28.5t28 11.5q17 0 28.5 -11.5t11.5 -28.5q0 -16 -11.5 -28t-28.5 -12zM259 -215
q-30 0 -89 24l22 51q26 -10 44 -15t28 -5q76 0 76 97v563h60v-563q0 -152 -141 -152z" />
    <glyph glyph-name="uni0136" unicode="&#x136;" horiz-adv-x="588" 
d="M100 0v700h60v-341l331 341h78l-303 -315l317 -385h-77l-281 343l-65 -68v-275h-60zM217 -200l46 136h71l-61 -136h-56z" />
    <glyph glyph-name="uni0137" unicode="&#x137;" horiz-adv-x="465" 
d="M75 0v700h60v-442l230 242h78l-185 -196l207 -304h-77l-171 261l-82 -87v-174h-60zM164 -200l46 136h71l-61 -136h-56z" />
    <glyph glyph-name="Lacute" unicode="&#x139;" horiz-adv-x="513" 
d="M100 0v700h64v-642h339v-58h-403zM70 744l119 126h85l-128 -126h-76z" />
    <glyph glyph-name="lacute" unicode="&#x13a;" horiz-adv-x="212" 
d="M75 0l2 700h60l-2 -700h-60zM45 744l119 126h85l-128 -126h-76z" />
    <glyph glyph-name="uni013B" unicode="&#x13b;" horiz-adv-x="513" 
d="M100 0v700h64v-642h339v-58h-403zM207 -200l46 136h71l-61 -136h-56z" />
    <glyph glyph-name="uni013C" unicode="&#x13c;" horiz-adv-x="212" 
d="M75 0l2 700h60l-2 -700h-60zM9 -200l46 136h71l-61 -136h-56z" />
    <glyph glyph-name="Lcaron" unicode="&#x13d;" horiz-adv-x="513" 
d="M100 0v700h64v-642h339v-58h-403zM227 586l55 172h71l-70 -172h-56z" />
    <glyph glyph-name="lcaron" unicode="&#x13e;" horiz-adv-x="212" 
d="M75 0l2 700h60l-2 -700h-60zM162 527l55 172h71l-70 -172h-56z" />
    <glyph glyph-name="Lslash" unicode="&#x141;" horiz-adv-x="513" 
d="M100 0v309l-96 -43v58l96 43v333h64v-305l118 53v-58l-118 -53v-279h339v-58h-403z" />
    <glyph glyph-name="lslash" unicode="&#x142;" horiz-adv-x="240" 
d="M89 0l1 312l-90 -43v58l90 43l1 330h60l-1 -301l90 43v-58l-90 -43l-1 -341h-60z" />
    <glyph glyph-name="Nacute" unicode="&#x143;" horiz-adv-x="774" 
d="M100 0v700h64l446 -597v597h64v-700h-64l-446 598v-598h-64zM319 744l119 126h85l-128 -126h-76z" />
    <glyph glyph-name="nacute" unicode="&#x144;" 
d="M75 0v500h56l3 -77q25 43 65.5 66t96.5 23q90 0 144.5 -56t53.5 -170v-286h-60v256q0 83 -19.5 126t-53 58.5t-75.5 15.5q-71 0 -111 -52.5t-40 -146.5v-257h-60zM215 574l119 126h85l-128 -126h-76z" />
    <glyph glyph-name="uni0145" unicode="&#x145;" horiz-adv-x="774" 
d="M100 0v700h64l446 -597v597h64v-700h-64l-446 598v-598h-64zM310 -200l46 136h71l-61 -136h-56z" />
    <glyph glyph-name="uni0146" unicode="&#x146;" 
d="M75 0v500h56l3 -77q25 43 65.5 66t96.5 23q90 0 144.5 -56t53.5 -170v-286h-60v256q0 83 -19.5 126t-53 58.5t-75.5 15.5q-71 0 -111 -52.5t-40 -146.5v-257h-60zM200 -200l46 136h71l-61 -136h-56z" />
    <glyph glyph-name="Ncaron" unicode="&#x147;" horiz-adv-x="774" 
d="M100 0v700h64l446 -597v597h64v-700h-64l-446 598v-598h-64zM218 870h78l85 -87l84 87h78l-120 -126h-85z" />
    <glyph glyph-name="ncaron" unicode="&#x148;" 
d="M75 0v500h56l3 -77q25 43 65.5 66t96.5 23q90 0 144.5 -56t53.5 -170v-286h-60v256q0 83 -19.5 126t-53 58.5t-75.5 15.5q-71 0 -111 -52.5t-40 -146.5v-257h-60zM114 700h78l85 -87l84 87h78l-120 -126h-85z" />
    <glyph glyph-name="Eng" unicode="&#x14a;" horiz-adv-x="774" 
d="M100 0v700h64l446 -597v597h64v-760q0 -152 -141 -152q-30 0 -89 24l22 51q26 -10 44 -15t28 -5q76 0 76 97v60h-4l-446 598v-598h-64z" />
    <glyph glyph-name="eng" unicode="&#x14b;" 
d="M75 0v500h56l3 -77q25 43 65.5 66t96.5 23q90 0 144.5 -56t53.5 -170v-349q0 -152 -141 -152q-30 0 -89 24l22 51q26 -10 44 -15t28 -5q76 0 76 97v319q0 83 -19.5 126t-53 58.5t-75.5 15.5q-71 0 -111 -52.5t-40 -146.5v-257h-60z" />
    <glyph glyph-name="Omacron" unicode="&#x14c;" horiz-adv-x="772" 
d="M201 750v57h369v-57h-369zM389 -12q-99 0 -175.5 46t-120 128t-43.5 188q0 107 43 188.5t118.5 127.5t174.5 46t175 -46.5t118.5 -128t42.5 -187.5t-42.5 -188t-117.5 -128t-173 -46zM389 46q79 0 139.5 39t95 107.5t34.5 157.5t-35 157.5t-96 107.5t-141 39
q-79 0 -140.5 -39t-96.5 -107.5t-35 -157.5t35 -157.5t97.5 -107.5t142.5 -39z" />
    <glyph glyph-name="omacron" unicode="&#x14d;" horiz-adv-x="579" 
d="M291 -12q-72 0 -127.5 33.5t-87 92.5t-31.5 136t31 136t86.5 92.5t126.5 33.5q72 0 127.5 -33.5t86.5 -92.5t31 -136t-31 -136t-86 -92.5t-126 -33.5zM291 43q54 0 95 26.5t64.5 73t23.5 107.5t-23.5 107.5t-65.5 73t-96 26.5t-95.5 -26.5t-65 -73t-23.5 -107.5
t24 -107.5t66 -73t96 -26.5zM140 580v57h300v-57h-300z" />
    <glyph glyph-name="Ohungarumlaut" unicode="&#x150;" horiz-adv-x="772" 
d="M389 -12q-99 0 -175.5 46t-120 128t-43.5 188q0 107 43 188.5t118.5 127.5t174.5 46t175 -46.5t118.5 -128t42.5 -187.5t-42.5 -188t-117.5 -128t-173 -46zM389 46q79 0 139.5 39t95 107.5t34.5 157.5t-35 157.5t-96 107.5t-141 39q-79 0 -140.5 -39t-96.5 -107.5
t-35 -157.5t35 -157.5t97.5 -107.5t142.5 -39zM414 744l99 126h89l-108 -126h-80zM244 744l99 126h89l-108 -126h-80z" />
    <glyph glyph-name="ohungarumlaut" unicode="&#x151;" horiz-adv-x="579" 
d="M291 -12q-72 0 -127.5 33.5t-87 92.5t-31.5 136t31 136t86.5 92.5t126.5 33.5q72 0 127.5 -33.5t86.5 -92.5t31 -136t-31 -136t-86 -92.5t-126 -33.5zM291 43q54 0 95 26.5t64.5 73t23.5 107.5t-23.5 107.5t-65.5 73t-96 26.5t-95.5 -26.5t-65 -73t-23.5 -107.5
t24 -107.5t66 -73t96 -26.5zM318 574l99 126h89l-108 -126h-80zM148 574l99 126h89l-108 -126h-80z" />
    <glyph glyph-name="OE" unicode="&#x152;" horiz-adv-x="1140" 
d="M389 42q108 0 179 70.5t79 204.5v65q-6 90 -40.5 151.5t-91.5 93t-129 31.5q-79 0 -140.5 -39.5t-96.5 -109t-35 -159.5t35 -159.5t97 -109t143 -39.5zM389 -16q-99 0 -175.5 46.5t-120 129t-43.5 190.5t43 190.5t118.5 129t174.5 46.5q85 0 152.5 -36t108.5 -104v124
h403v-58h-339v-252h315v-58h-315v-274h339v-58h-403v124q-41 -69 -107.5 -104.5t-150.5 -35.5z" />
    <glyph glyph-name="oe" unicode="&#x153;" horiz-adv-x="982" 
d="M291 -12q-72 0 -127.5 33.5t-87 92.5t-31.5 136t31 136t86.5 92.5t126.5 33.5q72 0 127.5 -33.5t86.5 -92.5t31 -136t-31 -136t-86 -92.5t-126 -33.5zM291 43q54 0 95 26.5t64.5 73t23.5 107.5t-23.5 107.5t-65.5 73t-96 26.5t-95.5 -26.5t-65 -73t-23.5 -107.5
t24 -107.5t66 -73t96 -26.5zM730 -12q-72 0 -127.5 33.5t-87 92.5t-31.5 136t31 136t85.5 92.5t124.5 33.5q71 0 120.5 -34.5t75.5 -95t26 -139.5h-403q2 -59 26 -104t65.5 -70.5t94.5 -25.5q58 0 98.5 28.5t63.5 73.5l50 -31q-28 -55 -82.5 -90.5t-129.5 -35.5zM725 457
q-69 0 -116.5 -44t-60.5 -115h335q-10 72 -49.5 115.5t-108.5 43.5z" />
    <glyph glyph-name="Racute" unicode="&#x154;" horiz-adv-x="618" 
d="M100 0v700h64l151 1q66 1 117 -26t79.5 -74t28.5 -108q0 -69 -41 -120t-106 -73l175 -300h-70l-168 287q-14 -1 -28 -1h-138v-286h-64zM315 642h-151v-297h168q40 0 72.5 19t52.5 52.5t20 76.5q0 66 -45.5 107.5t-116.5 41.5zM226 744l119 126h85l-128 -126h-76z" />
    <glyph glyph-name="racute" unicode="&#x155;" horiz-adv-x="322" 
d="M75 0v500h60v-88q30 47 77.5 68.5t99.5 21.5v-55q-44 0 -84.5 -15.5t-66.5 -52t-26 -99.5v-280h-60zM93 574l119 126h85l-128 -126h-76z" />
    <glyph glyph-name="uni0156" unicode="&#x156;" horiz-adv-x="618" 
d="M100 0v700h64l151 1q66 1 117 -26t79.5 -74t28.5 -108q0 -69 -41 -120t-106 -73l175 -300h-70l-168 287q-14 -1 -28 -1h-138v-286h-64zM315 642h-151v-297h168q40 0 72.5 19t52.5 52.5t20 76.5q0 66 -45.5 107.5t-116.5 41.5zM232 -200l46 136h71l-61 -136h-56z" />
    <glyph glyph-name="uni0157" unicode="&#x157;" horiz-adv-x="322" 
d="M75 0v500h60v-88q30 47 77.5 68.5t99.5 21.5v-55q-44 0 -84.5 -15.5t-66.5 -52t-26 -99.5v-280h-60zM50 -200l46 136h71l-61 -136h-56z" />
    <glyph glyph-name="Rcaron" unicode="&#x158;" horiz-adv-x="618" 
d="M100 0v700h64l151 1q66 1 117 -26t79.5 -74t28.5 -108q0 -69 -41 -120t-106 -73l175 -300h-70l-168 287q-14 -1 -28 -1h-138v-286h-64zM315 642h-151v-297h168q40 0 72.5 19t52.5 52.5t20 76.5q0 66 -45.5 107.5t-116.5 41.5zM125 870h78l85 -87l84 87h78l-120 -126h-85z
" />
    <glyph glyph-name="rcaron" unicode="&#x159;" horiz-adv-x="322" 
d="M75 0v500h60v-88q30 47 77.5 68.5t99.5 21.5v-55q-44 0 -84.5 -15.5t-66.5 -52t-26 -99.5v-280h-60zM-8 700h78l85 -87l84 87h78l-120 -126h-85z" />
    <glyph glyph-name="Sacute" unicode="&#x15a;" horiz-adv-x="617" 
d="M319 -12q-78 0 -132 22t-86 57t-46 74l60 23q17 -47 67 -82.5t122 -35.5q92 0 143 35.5t51 93.5q0 56 -47 89.5t-122 52.5l-71 18q-46 12 -85.5 34.5t-63.5 57.5t-24 86q0 94 60 146.5t175 52.5q69 0 119 -23.5t80.5 -58t40.5 -69.5l-59 -23q-22 55 -71.5 85.5
t-119.5 30.5q-74 0 -117.5 -36t-43.5 -97q0 -55 34 -82.5t89 -41.5l71 -17q106 -25 162.5 -79.5t56.5 -116.5q0 -53 -27 -97.5t-81 -71.5t-135 -27zM258 744l119 126h85l-128 -126h-76z" />
    <glyph glyph-name="sacute" unicode="&#x15b;" horiz-adv-x="466" 
d="M245 -12q-57 0 -98 17t-66.5 44t-35.5 56l54 20q17 -37 54.5 -59.5t80.5 -22.5q53 0 90 22t37 62q0 36 -27 59t-80 37l-49 13q-67 18 -103.5 52.5t-36.5 77.5q0 69 45.5 107.5t137.5 38.5q65 0 109.5 -27.5t63.5 -75.5l-54 -23q-16 39 -47 55t-81 16q-53 0 -83.5 -22.5
t-30.5 -63.5q0 -22 24.5 -43.5t73.5 -34.5l43 -11q74 -19 114.5 -58.5t40.5 -91.5q0 -68 -50 -106t-126 -38zM186 574l119 126h85l-128 -126h-76z" />
    <glyph glyph-name="Scedilla" unicode="&#x15e;" horiz-adv-x="617" 
d="M319 -12q-78 0 -132 22t-86 57t-46 74l60 23q17 -47 67 -82.5t122 -35.5q92 0 143 35.5t51 93.5q0 56 -47 89.5t-122 52.5l-71 18q-46 12 -85.5 34.5t-63.5 57.5t-24 86q0 94 60 146.5t175 52.5q69 0 119 -23.5t80.5 -58t40.5 -69.5l-59 -23q-22 55 -71.5 85.5
t-119.5 30.5q-74 0 -117.5 -36t-43.5 -97q0 -55 34 -82.5t89 -41.5l71 -17q106 -25 162.5 -79.5t56.5 -116.5q0 -53 -27 -97.5t-81 -71.5t-135 -27zM292 -198q-18 0 -40 4.5t-55 21.5l19 43q16 -8 34 -15.5t34 -7.5q18 0 33.5 7.5t15.5 31.5q0 28 -19.5 41.5t-60.5 20.5
l29 69l45 -14l-11 -25q38 -14 52.5 -37.5t14.5 -49.5q0 -37 -20.5 -63.5t-70.5 -26.5z" />
    <glyph glyph-name="scedilla" unicode="&#x15f;" horiz-adv-x="466" 
d="M245 -12q-57 0 -98 17t-66.5 44t-35.5 56l54 20q17 -37 54.5 -59.5t80.5 -22.5q53 0 90 22t37 62q0 36 -27 59t-80 37l-49 13q-67 18 -103.5 52.5t-36.5 77.5q0 69 45.5 107.5t137.5 38.5q65 0 109.5 -27.5t63.5 -75.5l-54 -23q-16 39 -47 55t-81 16q-53 0 -83.5 -22.5
t-30.5 -63.5q0 -22 24.5 -43.5t73.5 -34.5l43 -11q74 -19 114.5 -58.5t40.5 -91.5q0 -68 -50 -106t-126 -38zM218 -210q-18 0 -40 4.5t-55 21.5l19 43q16 -8 34 -15.5t34 -7.5q18 0 33.5 7.5t15.5 31.5q0 28 -19.5 41.5t-60.5 20.5l29 69l45 -14l-11 -25q38 -14 52.5 -37.5
t14.5 -49.5q0 -37 -20.5 -63.5t-70.5 -26.5z" />
    <glyph glyph-name="Scaron" unicode="&#x160;" horiz-adv-x="617" 
d="M319 -12q-78 0 -132 22t-86 57t-46 74l60 23q17 -47 67 -82.5t122 -35.5q92 0 143 35.5t51 93.5q0 56 -47 89.5t-122 52.5l-71 18q-46 12 -85.5 34.5t-63.5 57.5t-24 86q0 94 60 146.5t175 52.5q69 0 119 -23.5t80.5 -58t40.5 -69.5l-59 -23q-22 55 -71.5 85.5
t-119.5 30.5q-74 0 -117.5 -36t-43.5 -97q0 -55 34 -82.5t89 -41.5l71 -17q106 -25 162.5 -79.5t56.5 -116.5q0 -53 -27 -97.5t-81 -71.5t-135 -27zM157 870h78l85 -87l84 87h78l-120 -126h-85z" />
    <glyph glyph-name="scaron" unicode="&#x161;" horiz-adv-x="466" 
d="M245 -12q-57 0 -98 17t-66.5 44t-35.5 56l54 20q17 -37 54.5 -59.5t80.5 -22.5q53 0 90 22t37 62q0 36 -27 59t-80 37l-49 13q-67 18 -103.5 52.5t-36.5 77.5q0 69 45.5 107.5t137.5 38.5q65 0 109.5 -27.5t63.5 -75.5l-54 -23q-16 39 -47 55t-81 16q-53 0 -83.5 -22.5
t-30.5 -63.5q0 -22 24.5 -43.5t73.5 -34.5l43 -11q74 -19 114.5 -58.5t40.5 -91.5q0 -68 -50 -106t-126 -38zM85 700h78l85 -87l84 87h78l-120 -126h-85z" />
    <glyph glyph-name="Tcaron" unicode="&#x164;" horiz-adv-x="540" 
d="M238 0v642h-228v58h520v-58h-228v-642h-64zM107 870h78l85 -87l84 87h78l-120 -126h-85z" />
    <glyph glyph-name="tcaron" unicode="&#x165;" horiz-adv-x="377" 
d="M266 -12q-69 0 -108 36.5t-39 103.5v317h-89v55h89v156h60v-156h159v-55h-159v-317q0 -40 23 -62.5t64 -22.5q12 0 23.5 3.5t33.5 18.5l25 -52q-27 -16 -45 -20.5t-37 -4.5zM231 553l55 172h71l-70 -172h-56z" />
    <glyph glyph-name="Umacron" unicode="&#x16a;" horiz-adv-x="709" 
d="M208 750v57h295v-57h-295zM90 245v455h64v-455q0 -59 25.5 -105t71 -72t103.5 -26q59 0 104.5 26t71 72t25.5 105v455h64v-455q0 -76 -34 -135t-94.5 -92.5t-138.5 -33.5q-76 0 -135.5 33.5t-93 92.5t-33.5 135z" />
    <glyph glyph-name="umacron" unicode="&#x16b;" 
d="M120 244q0 -83 19.5 -126t53.5 -58.5t75 -15.5q71 0 111 52.5t40 146.5v257h60v-500h-56l-3 77q-25 -43 -65.5 -66t-96.5 -23q-90 0 -144.5 56t-53.5 170v286h60v-256zM127 580v57h300v-57h-300z" />
    <glyph glyph-name="Ubreve" unicode="&#x16c;" horiz-adv-x="709" 
d="M90 245v455h64v-455q0 -59 25.5 -105t71 -72t103.5 -26q59 0 104.5 26t71 72t25.5 105v455h64v-455q0 -76 -34 -135t-94.5 -92.5t-138.5 -33.5q-76 0 -135.5 33.5t-93 92.5t-33.5 135zM457 870h60q0 -58 -45.5 -94.5t-116.5 -36.5t-117 36.5t-46 94.5h60q0 -34 29 -55.5
t74 -21.5t73.5 21.5t28.5 55.5z" />
    <glyph glyph-name="ubreve" unicode="&#x16d;" 
d="M120 244q0 -83 19.5 -126t53.5 -58.5t75 -15.5q71 0 111 52.5t40 146.5v257h60v-500h-56l-3 77q-25 -43 -65.5 -66t-96.5 -23q-90 0 -144.5 56t-53.5 170v286h60v-256zM379 700h60q0 -58 -45.5 -94.5t-116.5 -36.5t-117 36.5t-46 94.5h60q0 -34 29 -55.5t74 -21.5
t73.5 21.5t28.5 55.5z" />
    <glyph glyph-name="Uring" unicode="&#x16e;" horiz-adv-x="709" 
d="M90 245v455h64v-455q0 -59 25.5 -105t71 -72t103.5 -26q59 0 104.5 26t71 72t25.5 105v455h64v-455q0 -76 -34 -135t-94.5 -92.5t-138.5 -33.5q-76 0 -135.5 33.5t-93 92.5t-33.5 135zM355 734q-37 0 -62.5 25.5t-25.5 59.5q0 35 25.5 60.5t62.5 25.5q36 0 61.5 -25.5
t25.5 -60.5q0 -34 -25.5 -59.5t-61.5 -25.5zM355 780q37 0 37 39q0 40 -37 40q-38 0 -38 -40q0 -39 38 -39z" />
    <glyph glyph-name="uring" unicode="&#x16f;" 
d="M120 244q0 -83 19.5 -126t53.5 -58.5t75 -15.5q71 0 111 52.5t40 146.5v257h60v-500h-56l-3 77q-25 -43 -65.5 -66t-96.5 -23q-90 0 -144.5 56t-53.5 170v286h60v-256zM277 564q-37 0 -62.5 25.5t-25.5 59.5q0 35 25.5 60.5t62.5 25.5q36 0 61.5 -25.5t25.5 -60.5
q0 -34 -25.5 -59.5t-61.5 -25.5zM277 610q37 0 37 39q0 40 -37 40q-38 0 -38 -40q0 -39 38 -39z" />
    <glyph glyph-name="Uhungarumlaut" unicode="&#x170;" horiz-adv-x="709" 
d="M90 245v455h64v-455q0 -59 25.5 -105t71 -72t103.5 -26q59 0 104.5 26t71 72t25.5 105v455h64v-455q0 -76 -34 -135t-94.5 -92.5t-138.5 -33.5q-76 0 -135.5 33.5t-93 92.5t-33.5 135zM383 744l99 126h89l-108 -126h-80zM213 744l99 126h89l-108 -126h-80z" />
    <glyph glyph-name="uhungarumlaut" unicode="&#x171;" 
d="M120 244q0 -83 19.5 -126t53.5 -58.5t75 -15.5q71 0 111 52.5t40 146.5v257h60v-500h-56l-3 77q-25 -43 -65.5 -66t-96.5 -23q-90 0 -144.5 56t-53.5 170v286h60v-256zM305 574l99 126h89l-108 -126h-80zM135 574l99 126h89l-108 -126h-80z" />
    <glyph glyph-name="Uogonek" unicode="&#x172;" horiz-adv-x="709" 
d="M90 245v455h64v-455q0 -59 25.5 -105t71 -72t103.5 -26q59 0 104.5 26t71 72t25.5 105v455h64v-455q0 -76 -34 -135t-94.5 -92.5t-138.5 -33.5q-76 0 -135.5 33.5t-93 92.5t-33.5 135zM526 -195q-55 0 -86.5 23t-31.5 64q0 47 30 89t82 70l16 -1q-36 -31 -52 -67.5
t-16 -71.5q0 -24 13.5 -37.5t37.5 -13.5q39 0 67 11l19 -46q-37 -20 -79 -20z" />
    <glyph glyph-name="uogonek" unicode="&#x173;" 
d="M120 244q0 -83 19.5 -126t53.5 -58.5t75 -15.5q71 0 111 52.5t40 146.5v257h60v-500h-56l-3 77q-25 -43 -65.5 -66t-96.5 -23q-90 0 -144.5 56t-53.5 170v286h60v-256zM429 -212q-50 0 -78 22.5t-28 65.5q0 38 32.5 72t73.5 64l50 -12q-35 -26 -65.5 -56.5t-30.5 -67.5
q0 -33 40 -33q19 0 34 4.5t20 6.5l19 -46q-13 -9 -30 -14.5t-37 -5.5z" />
    <glyph glyph-name="Wcircumflex" unicode="&#x174;" horiz-adv-x="950" 
d="M226 0l-216 700h64l187 -602l182 602h64l178 -602l191 602h64l-221 -700h-70l-174 593l-179 -593h-70zM312 756l120 126h85l120 -126h-76l-86 84l-87 -84h-76z" />
    <glyph glyph-name="wcircumflex" unicode="&#x175;" horiz-adv-x="764" 
d="M180 0l-170 500h60l141 -413l142 413h60l141 -411l140 411h60l-170 -500h-61l-140 412l-141 -412h-62zM220 586l120 126h85l120 -126h-76l-86 84l-87 -84h-76z" />
    <glyph glyph-name="Ycircumflex" unicode="&#x176;" horiz-adv-x="588" 
d="M262 0v292l-252 408h75l209 -341l209 341h75l-252 -408v-292h-64zM131 756l120 126h85l120 -126h-76l-86 84l-87 -84h-76z" />
    <glyph glyph-name="ycircumflex" unicode="&#x177;" horiz-adv-x="507" 
d="M222 0l-211 500h62l180 -428l181 428h63l-245 -580q-27 -64 -59 -98t-94 -34q-30 0 -89 24l22 51q26 -10 44 -15t28 -5q29 0 47.5 16t30.5 44l41 97h-1zM90 586l120 126h85l120 -126h-76l-86 84l-87 -84h-76z" />
    <glyph glyph-name="Ydieresis" unicode="&#x178;" horiz-adv-x="588" 
d="M262 0v292l-252 408h75l209 -341l209 341h75l-252 -408v-292h-64zM173 800q-16 0 -28 12t-12 28q0 17 12 28.5t28 11.5q17 0 28.5 -11.5t11.5 -28.5q0 -16 -11.5 -28t-28.5 -12zM415 800q-16 0 -28 12t-12 28q0 17 12 28.5t28 11.5q17 0 28.5 -11.5t11.5 -28.5
q0 -16 -11.5 -28t-28.5 -12z" />
    <glyph glyph-name="Zacute" unicode="&#x179;" horiz-adv-x="644" 
d="M50 0v58l465 584h-462v58h541v-58l-465 -584h462v-58h-541zM261 744l119 126h85l-128 -126h-76z" />
    <glyph glyph-name="zacute" unicode="&#x17a;" horiz-adv-x="497" 
d="M50 0v52l314 393h-314v55h394v-49l-315 -396h318v-55h-397zM185 574l119 126h85l-128 -126h-76z" />
    <glyph glyph-name="Zdotaccent" unicode="&#x17b;" horiz-adv-x="644" 
d="M50 0v58l465 584h-462v58h541v-58l-465 -584h462v-58h-541zM323 800q-16 0 -28 12t-12 28q0 17 12 28.5t28 11.5q17 0 28.5 -11.5t11.5 -28.5q0 -16 -11.5 -28t-28.5 -12z" />
    <glyph glyph-name="zdotaccent" unicode="&#x17c;" horiz-adv-x="497" 
d="M50 0v52l314 393h-314v55h394v-49l-315 -396h318v-55h-397zM247 630q-16 0 -28 12t-12 28q0 17 12 28.5t28 11.5q17 0 28.5 -11.5t11.5 -28.5q0 -16 -11.5 -28t-28.5 -12z" />
    <glyph glyph-name="Zcaron" unicode="&#x17d;" horiz-adv-x="644" 
d="M50 0v58l465 584h-462v58h541v-58l-465 -584h462v-58h-541zM160 870h78l85 -87l84 87h78l-120 -126h-85z" />
    <glyph glyph-name="zcaron" unicode="&#x17e;" horiz-adv-x="497" 
d="M50 0v52l314 393h-314v55h394v-49l-315 -396h318v-55h-397zM84 700h78l85 -87l84 87h78l-120 -126h-85z" />
    <glyph glyph-name="uni01CD" unicode="&#x1cd;" horiz-adv-x="662" 
d="M10 0l288 700h66l288 -700h-68l-89 217h-328l-89 -217h-68zM190 275h282l-141 344zM168 870h78l85 -87l84 87h78l-120 -126h-85z" />
    <glyph glyph-name="uni01CE" unicode="&#x1ce;" horiz-adv-x="501" 
d="M232 -12q-88 0 -137.5 40.5t-49.5 112.5q0 74 49.5 115t137.5 41h147q-7 81 -38 120.5t-99 39.5q-96 0 -138 -76l-54 24q65 107 192 107q199 0 199 -244v-268h-50l-2 57q-27 -33 -66.5 -51t-90.5 -18zM228 43q73 0 114 47.5t41 123.5v0l-1 28h-142q-72 0 -103.5 -26.5
t-31.5 -74.5q0 -46 32.5 -72t90.5 -26zM89 700h78l85 -87l84 87h78l-120 -126h-85z" />
    <glyph glyph-name="uni0218" unicode="&#x218;" horiz-adv-x="617" 
d="M319 -12q-78 0 -132 22t-86 57t-46 74l60 23q17 -47 67 -82.5t122 -35.5q92 0 143 35.5t51 93.5q0 56 -47 89.5t-122 52.5l-71 18q-46 12 -85.5 34.5t-63.5 57.5t-24 86q0 94 60 146.5t175 52.5q69 0 119 -23.5t80.5 -58t40.5 -69.5l-59 -23q-22 55 -71.5 85.5
t-119.5 30.5q-74 0 -117.5 -36t-43.5 -97q0 -55 34 -82.5t89 -41.5l71 -17q106 -25 162.5 -79.5t56.5 -116.5q0 -53 -27 -97.5t-81 -71.5t-135 -27zM242 -200l46 136h71l-61 -136h-56z" />
    <glyph glyph-name="uni0219" unicode="&#x219;" horiz-adv-x="466" 
d="M245 -12q-57 0 -98 17t-66.5 44t-35.5 56l54 20q17 -37 54.5 -59.5t80.5 -22.5q53 0 90 22t37 62q0 36 -27 59t-80 37l-49 13q-67 18 -103.5 52.5t-36.5 77.5q0 69 45.5 107.5t137.5 38.5q65 0 109.5 -27.5t63.5 -75.5l-54 -23q-16 39 -47 55t-81 16q-53 0 -83.5 -22.5
t-30.5 -63.5q0 -22 24.5 -43.5t73.5 -34.5l43 -11q74 -19 114.5 -58.5t40.5 -91.5q0 -68 -50 -106t-126 -38zM168 -212l46 136h71l-61 -136h-56z" />
    <glyph glyph-name="uni021A" unicode="&#x21a;" horiz-adv-x="540" 
d="M238 0v642h-228v58h520v-58h-228v-642h-64zM193 -200l46 136h71l-61 -136h-56z" />
    <glyph glyph-name="uni021B" unicode="&#x21b;" horiz-adv-x="377" 
d="M266 -12q-69 0 -108 36.5t-39 103.5v317h-89v55h89v156h60v-156h159v-55h-159v-317q0 -40 23 -62.5t64 -22.5q12 0 23.5 3.5t33.5 18.5l25 -52q-27 -16 -45 -20.5t-37 -4.5zM142 -200l46 136h71l-61 -136h-56z" />
    <glyph glyph-name="uni0237" unicode="&#x237;" horiz-adv-x="250" 
d="M39 -215q-30 0 -89 24l22 51q26 -10 44 -15t28 -5q76 0 76 97v563h60v-563q0 -152 -141 -152z" />
    <glyph glyph-name="circumflex" unicode="&#x2c6;" horiz-adv-x="345" 
d="M10 586l120 126h85l120 -126h-76l-86 84l-87 -84h-76z" />
    <glyph glyph-name="caron" unicode="&#x2c7;" horiz-adv-x="345" 
d="M10 700h78l85 -87l84 87h78l-120 -126h-85z" />
    <glyph glyph-name="breve" unicode="&#x2d8;" horiz-adv-x="325" 
d="M265 700h60q0 -58 -45.5 -94.5t-116.5 -36.5t-117 36.5t-46 94.5h60q0 -34 29 -55.5t74 -21.5t73.5 21.5t28.5 55.5z" />
    <glyph glyph-name="dotaccent" unicode="&#x2d9;" horiz-adv-x="220" 
d="M40 630q-16 0 -28 12t-12 28q0 17 12 28.5t28 11.5q17 0 28.5 -11.5t11.5 -28.5q0 -16 -11.5 -28t-28.5 -12z" />
    <glyph glyph-name="ring" unicode="&#x2da;" horiz-adv-x="600" 
d="M332 734q-37 0 -62.5 25.5t-25.5 59.5q0 35 25.5 60.5t62.5 25.5q36 0 61.5 -25.5t25.5 -60.5q0 -34 -25.5 -59.5t-61.5 -25.5zM332 780q37 0 37 39q0 40 -37 40q-38 0 -38 -40q0 -39 38 -39z" />
    <glyph glyph-name="ogonek" unicode="&#x2db;" horiz-adv-x="244" 
d="M146 -212q-50 0 -78 22.5t-28 65.5q0 38 32.5 72t73.5 64l50 -12q-35 -26 -65.5 -56.5t-30.5 -67.5q0 -33 40 -33q19 0 34 4.5t20 6.5l19 -46q-13 -9 -30 -14.5t-37 -5.5z" />
    <glyph glyph-name="tilde" unicode="&#x2dc;" horiz-adv-x="325" 
d="M222 572q-27 0 -44.5 11t-29 25t-21.5 25t-22 11q-18 0 -26.5 -8.5t-13.5 -28.5h-55q2 22 14 43.5t33 35.5t48 14q25 0 41 -11t28 -25t23 -25t25 -11q18 0 26.5 9.5t11.5 28.5h55q-4 -34 -28 -64t-65 -30z" />
    <glyph glyph-name="hungarumlaut" unicode="&#x2dd;" horiz-adv-x="368" 
d="M180 574l99 126h89l-108 -126h-80zM10 574l99 126h89l-108 -126h-80z" />
    <glyph glyph-name="gravecomb" unicode="&#x300;" horiz-adv-x="0" 
d="M352 574h-76l-130 127h85z" />
    <glyph glyph-name="acutecomb" unicode="&#x301;" horiz-adv-x="0" 
d="M227 574l119 126h85l-128 -126h-76z" />
    <glyph glyph-name="uni0302" unicode="&#x302;" horiz-adv-x="0" 
d="M0 586l120 126h85l120 -126h-76l-86 84l-87 -84h-76z" />
    <glyph glyph-name="tildecomb" unicode="&#x303;" horiz-adv-x="0" 
d="M329 572q-27 0 -44.5 11t-29 25t-21.5 25t-22 11q-18 0 -26.5 -8.5t-13.5 -28.5h-55q2 22 14 43.5t33 35.5t48 14q25 0 41 -11t28 -25t23 -25t25 -11q18 0 26.5 9.5t11.5 28.5h55q-4 -34 -28 -64t-65 -30z" />
    <glyph glyph-name="uni0304" unicode="&#x304;" horiz-adv-x="0" 
d="M0 580v57h300v-57h-300z" />
    <glyph glyph-name="uni0306" unicode="&#x306;" horiz-adv-x="0" 
d="M265 700h60q0 -58 -45.5 -94.5t-116.5 -36.5t-117 36.5t-46 94.5h60q0 -34 29 -55.5t74 -21.5t73.5 21.5t28.5 55.5z" />
    <glyph glyph-name="uni0307" unicode="&#x307;" horiz-adv-x="0" 
d="M40 630q-16 0 -28 12t-12 28q0 17 12 28.5t28 11.5q17 0 28.5 -11.5t11.5 -28.5q0 -16 -11.5 -28t-28.5 -12z" />
    <glyph glyph-name="uni0308" unicode="&#x308;" horiz-adv-x="0" 
d="M14 630q-16 0 -28 12t-12 28q0 17 12 28.5t28 11.5q17 0 28.5 -11.5t11.5 -28.5q0 -16 -11.5 -28t-28.5 -12zM256 630q-16 0 -28 12t-12 28q0 17 12 28.5t28 11.5q17 0 28.5 -11.5t11.5 -28.5q0 -16 -11.5 -28t-28.5 -12z" />
    <glyph glyph-name="uni030A" unicode="&#x30a;" horiz-adv-x="0" 
d="M138 564q-37 0 -62.5 25.5t-25.5 59.5q0 35 25.5 60.5t62.5 25.5q36 0 61.5 -25.5t25.5 -60.5q0 -34 -25.5 -59.5t-61.5 -25.5zM138 610q37 0 37 39q0 40 -37 40q-38 0 -38 -40q0 -39 38 -39z" />
    <glyph glyph-name="uni030B" unicode="&#x30b;" horiz-adv-x="0" 
d="M170 574l99 126h89l-108 -126h-80zM0 574l99 126h89l-108 -126h-80z" />
    <glyph glyph-name="uni030C" unicode="&#x30c;" horiz-adv-x="0" 
d="M0 700h78l85 -87l84 87h78l-120 -126h-85z" />
    <glyph glyph-name="uni0312" unicode="&#x312;" horiz-adv-x="0" 
d="M126 713l-55 -129h-71l70 129h56z" />
    <glyph glyph-name="uni0326" unicode="&#x326;" horiz-adv-x="0" 
d="M9 -200l46 136h71l-61 -136h-56z" />
    <glyph glyph-name="uni0327" unicode="&#x327;" horiz-adv-x="0" 
d="M270 -210q-18 0 -40 4.5t-55 21.5l19 43q16 -8 34 -15.5t34 -7.5q18 0 33.5 7.5t15.5 31.5q0 28 -19.5 41.5t-60.5 20.5l29 69l45 -14l-11 -25q38 -14 52.5 -37.5t14.5 -49.5q0 -37 -20.5 -63.5t-70.5 -26.5z" />
    <glyph glyph-name="uni0328" unicode="&#x328;" horiz-adv-x="0" 
d="M146 -212q-50 0 -78 22.5t-28 65.5q0 38 32.5 72t73.5 64l50 -12q-35 -26 -65.5 -56.5t-30.5 -67.5q0 -33 40 -33q19 0 34 4.5t20 6.5l19 -46q-13 -9 -30 -14.5t-37 -5.5z" />
    <glyph glyph-name="Wgrave" unicode="&#x1e80;" horiz-adv-x="950" 
d="M226 0l-216 700h64l187 -602l182 602h64l178 -602l191 602h64l-221 -700h-70l-174 593l-179 -593h-70zM578 744h-76l-130 127h85z" />
    <glyph glyph-name="wgrave" unicode="&#x1e81;" horiz-adv-x="764" 
d="M180 0l-170 500h60l141 -413l142 413h60l141 -411l140 411h60l-170 -500h-61l-140 412l-141 -412h-62zM486 574h-76l-130 127h85z" />
    <glyph glyph-name="Wacute" unicode="&#x1e82;" horiz-adv-x="950" 
d="M226 0l-216 700h64l187 -602l182 602h64l178 -602l191 602h64l-221 -700h-70l-174 593l-179 -593h-70zM413 744l119 126h85l-128 -126h-76z" />
    <glyph glyph-name="wacute" unicode="&#x1e83;" horiz-adv-x="764" 
d="M180 0l-170 500h60l141 -413l142 413h60l141 -411l140 411h60l-170 -500h-61l-140 412l-141 -412h-62zM321 574l119 126h85l-128 -126h-76z" />
    <glyph glyph-name="Wdieresis" unicode="&#x1e84;" horiz-adv-x="950" 
d="M226 0l-216 700h64l187 -602l182 602h64l178 -602l191 602h64l-221 -700h-70l-174 593l-179 -593h-70zM354 800q-16 0 -28 12t-12 28q0 17 12 28.5t28 11.5q17 0 28.5 -11.5t11.5 -28.5q0 -16 -11.5 -28t-28.5 -12zM596 800q-16 0 -28 12t-12 28q0 17 12 28.5t28 11.5
q17 0 28.5 -11.5t11.5 -28.5q0 -16 -11.5 -28t-28.5 -12z" />
    <glyph glyph-name="wdieresis" unicode="&#x1e85;" horiz-adv-x="764" 
d="M180 0l-170 500h60l141 -413l142 413h60l141 -411l140 411h60l-170 -500h-61l-140 412l-141 -412h-62zM262 630q-16 0 -28 12t-12 28q0 17 12 28.5t28 11.5q17 0 28.5 -11.5t11.5 -28.5q0 -16 -11.5 -28t-28.5 -12zM504 630q-16 0 -28 12t-12 28q0 17 12 28.5t28 11.5
q17 0 28.5 -11.5t11.5 -28.5q0 -16 -11.5 -28t-28.5 -12z" />
    <glyph glyph-name="uni1E9E" unicode="&#x1e9e;" horiz-adv-x="559" 
d="M100 0v540q0 82 48.5 127t146.5 45q66 0 108 -20t67 -47.5t39 -48.5l-29 -32l-162 -187q90 -4 140.5 -55t50.5 -139q0 -92 -51 -143.5t-149 -51.5q-19 0 -52 10.5t-62 41.5l45 40q8 -6 25.5 -20t51.5 -14q65 0 96.5 36.5t31.5 100.5t-37.5 100t-103.5 36h-61v63l185 213
q-20 24 -52 41.5t-86 17.5q-64 0 -95 -33t-31 -91v-530h-64z" />
    <glyph glyph-name="Ygrave" unicode="&#x1ef2;" horiz-adv-x="588" 
d="M262 0v292l-252 408h75l209 -341l209 341h75l-252 -408v-292h-64zM397 744h-76l-130 127h85z" />
    <glyph glyph-name="ygrave" unicode="&#x1ef3;" horiz-adv-x="507" 
d="M222 0l-211 500h62l180 -428l181 428h63l-245 -580q-27 -64 -59 -98t-94 -34q-30 0 -89 24l22 51q26 -10 44 -15t28 -5q29 0 47.5 16t30.5 44l41 97h-1zM356 574h-76l-130 127h85z" />
    <glyph glyph-name="endash" unicode="&#x2013;" horiz-adv-x="550" 
d="M0 269v57h550v-57h-550z" />
    <glyph glyph-name="emdash" unicode="&#x2014;" horiz-adv-x="1100" 
d="M0 269v57h1100v-57h-1100z" />
    <glyph glyph-name="quoteleft" unicode="&#x2018;" horiz-adv-x="166" 
d="M146 700l-55 -202h-71l70 202h56z" />
    <glyph glyph-name="quoteright" unicode="&#x2019;" horiz-adv-x="166" 
d="M20 498l55 202h71l-70 -202h-56z" />
    <glyph glyph-name="quotesinglbase" unicode="&#x201a;" horiz-adv-x="197" 
d="M45 -116l55 202h71l-70 -202h-56z" />
    <glyph glyph-name="quotedblleft" unicode="&#x201c;" horiz-adv-x="297" 
d="M146 699l-55 -202h-71l70 202h56zM277 699l-55 -202h-71l70 202h56z" />
    <glyph glyph-name="quotedblright" unicode="&#x201d;" horiz-adv-x="297" 
d="M151 498l55 202h71l-70 -202h-56zM20 498l55 202h71l-70 -202h-56z" />
    <glyph glyph-name="quotedblbase" unicode="&#x201e;" horiz-adv-x="197" 
d="M45 -116l55 202h71l-70 -202h-56zM45 -116l55 202h71l-70 -202h-56z" />
    <glyph glyph-name="dagger" unicode="&#x2020;" horiz-adv-x="478" 
d="M24 502l188 -4l-4 202h62l-4 -202l187 4v-56l-188 4l5 -450h-62l5 450l-189 -4v56z" />
    <glyph glyph-name="daggerdbl" unicode="&#x2021;" horiz-adv-x="478" 
d="M25 53l187 -4l-4 201l5 200l-188 -4v56l187 -4l-4 202h62l-4 -202l187 4v-56l-188 4l5 -200l-4 -201l187 4v-56l-187 4l4 -201h-62l4 201l-187 -4v56z" />
    <glyph glyph-name="bullet" unicode="&#x2022;" horiz-adv-x="500" 
d="M249 183q-40 0 -69 29.5t-29 69.5q0 41 29 69.5t69 28.5t69.5 -28.5t29.5 -69.5q0 -27 -13.5 -49.5t-36 -36t-49.5 -13.5z" />
    <glyph glyph-name="ellipsis" unicode="&#x2026;" horiz-adv-x="576" 
d="M96 -14q-19 0 -32.5 13.5t-13.5 32.5t13.5 32.5t32.5 13.5t32.5 -13.5t13.5 -32.5t-13.5 -32.5t-32.5 -13.5zM288 -14q-19 0 -32.5 13.5t-13.5 32.5t13.5 32.5t32.5 13.5t32.5 -13.5t13.5 -32.5t-13.5 -32.5t-32.5 -13.5zM480 -14q-19 0 -32.5 13.5t-13.5 32.5t13.5 32.5
t32.5 13.5t32.5 -13.5t13.5 -32.5t-13.5 -32.5t-32.5 -13.5z" />
    <glyph glyph-name="guilsinglleft" unicode="&#x2039;" horiz-adv-x="343" 
d="M50 298l157 202h76l-157 -202l157 -202h-76z" />
    <glyph glyph-name="guilsinglright" unicode="&#x203a;" horiz-adv-x="343" 
d="M293 298l-157 -202h-76l157 202l-157 202h76z" />
    <glyph glyph-name="fraction" unicode="&#x2044;" horiz-adv-x="216" 
d="M311 700h75l-481 -700h-75z" />
    <glyph glyph-name="uni2070" unicode="&#x2070;" horiz-adv-x="406" 
d="M204 373q-49 0 -87.5 27.5t-60 76.5t-21.5 113q0 65 21.5 113.5t59.5 76t87 27.5q50 0 87.5 -27.5t59 -76t21.5 -113.5q0 -64 -21.5 -113t-59 -76.5t-86.5 -27.5zM204 430q47 0 76.5 45t29.5 115q0 71 -30 116t-77 45q-46 0 -75.5 -45t-29.5 -116q0 -70 30 -115t76 -45z
" />
    <glyph glyph-name="uni2074" unicode="&#x2074;" horiz-adv-x="391" 
d="M229 380v94h-194v50l189 276h65v-271h81v-55h-81v-94h-60zM103 529h126v186z" />
    <glyph glyph-name="uni2075" unicode="&#x2075;" horiz-adv-x="369" 
d="M188 373q-40 0 -81 19t-61 57l54 23q18 -23 40 -34t46 -11q38 0 61.5 23t23.5 60t-23 60.5t-60 23.5q-21 0 -40 -9t-30 -23l-56 13l22 225h229v-57h-174l-14 -122q17 10 37 16.5t42 6.5q56 0 93 -37t37 -94q0 -62 -41 -101t-105 -39z" />
    <glyph glyph-name="uni2076" unicode="&#x2076;" horiz-adv-x="354" 
d="M187 373q-57 0 -90.5 27.5t-48 73.5t-14.5 101q0 104 42.5 168t122.5 64q31 0 63 -9.5t57 -27.5l-33 -45q-19 14 -42 20.5t-41 6.5q-50 0 -79.5 -39t-32.5 -120q17 25 43.5 39t60.5 14q61 0 99.5 -39.5t38.5 -98.5t-40.5 -97t-105.5 -38zM188 427q36 0 59.5 23t23.5 60
t-23.5 60.5t-59.5 23.5q-37 0 -60.5 -23.5t-23.5 -60.5t23.5 -60t60.5 -23z" />
    <glyph glyph-name="uni2077" unicode="&#x2077;" horiz-adv-x="338" 
d="M60 380l188 363h-217v57h286v-49l-188 -371h-69z" />
    <glyph glyph-name="uni2078" unicode="&#x2078;" horiz-adv-x="392" 
d="M196 373q-71 0 -112.5 32t-41.5 84q0 37 19.5 65.5t55.5 43.5q-60 30 -60 95q0 50 37.5 82t101.5 32t101.5 -32t37.5 -82q0 -32 -16 -56t-45 -39q36 -15 56 -43.5t20 -65.5q0 -52 -41.5 -84t-112.5 -32zM196 623q34 0 56 18t22 46q0 30 -22 49t-56 19t-56 -19t-22 -49
q0 -28 22 -46t56 -18zM196 426q39 0 64.5 19.5t25.5 50.5q0 32 -25 52.5t-65 20.5t-65 -20.5t-25 -52.5q0 -31 25 -50.5t65 -19.5z" />
    <glyph glyph-name="uni2079" unicode="&#x2079;" horiz-adv-x="354" 
d="M167 807q58 0 91 -28t47.5 -73.5t14.5 -100.5q0 -103 -42 -167.5t-123 -64.5q-31 0 -62.5 9.5t-56.5 27.5l33 45q19 -13 41.5 -20t40.5 -7q50 0 79.5 39t32.5 119q-36 -52 -104 -52q-61 0 -99.5 39.5t-38.5 98.5t40.5 97t105.5 38zM166 753q-36 0 -59.5 -23.5
t-23.5 -59.5q0 -37 24 -60.5t59 -23.5q37 0 60.5 24t23.5 60t-23.5 59.5t-60.5 23.5z" />
    <glyph glyph-name="uni2080" unicode="&#x2080;" horiz-adv-x="406" 
d="M204 -106q-49 0 -87.5 27.5t-60 76.5t-21.5 113q0 65 21.5 113.5t59.5 76t87 27.5q50 0 87.5 -27.5t59 -76t21.5 -113.5q0 -64 -21.5 -113t-59 -76.5t-86.5 -27.5zM204 -49q47 0 76.5 45t29.5 115q0 71 -30 116t-77 45q-46 0 -75.5 -45t-29.5 -116q0 -70 30 -115t76 -45z
" />
    <glyph glyph-name="uni2081" unicode="&#x2081;" horiz-adv-x="282" 
d="M137 -100v338q-23 -18 -46 -27.5t-46 -7.5v56q19 0 47 18t51 43h55l-1 -420h-60z" />
    <glyph glyph-name="uni2082" unicode="&#x2082;" horiz-adv-x="359" 
d="M38 -100v49q0 29 20 59.5t55 56.5l78 58q21 15 36.5 36.5t15.5 42.5q0 29 -20.5 48.5t-55.5 19.5q-34 0 -54.5 -19t-27.5 -42l-64 12q10 42 48.5 74t95.5 32q65 0 103.5 -35t38.5 -89q0 -36 -19 -65t-55 -57l-75 -56q-20 -15 -35 -33t-20 -36h210v-56h-275z" />
    <glyph glyph-name="uni2083" unicode="&#x2083;" horiz-adv-x="354" 
d="M180 -106q-52 0 -86 22.5t-47 52.5l55 23q12 -19 29 -31t45 -12q37 0 58.5 21t21.5 53q0 35 -28 54.5t-82 19.5h-17v53h17q47 0 74 16t27 46q0 25 -19.5 43t-52.5 18q-21 0 -39.5 -9.5t-31.5 -30.5l-53 22q16 35 50 54t77 19q56 0 94 -32t38 -79q0 -32 -18.5 -55.5
t-48.5 -37.5q35 -15 55.5 -42.5t20.5 -64.5q0 -57 -41 -90t-98 -33z" />
    <glyph glyph-name="uni2084" unicode="&#x2084;" horiz-adv-x="391" 
d="M229 -100v94h-194v50l189 276h65v-271h81v-55h-81v-94h-60zM103 49h126v186z" />
    <glyph glyph-name="uni2085" unicode="&#x2085;" horiz-adv-x="369" 
d="M188 -106q-40 0 -81 19t-61 57l54 23q18 -23 40 -34t46 -11q38 0 61.5 23t23.5 60t-23 60.5t-60 23.5q-21 0 -40 -9t-30 -23l-56 13l22 225h229v-57h-174l-14 -122q17 10 37 16.5t42 6.5q56 0 93 -37t37 -94q0 -62 -41 -101t-105 -39z" />
    <glyph glyph-name="uni2086" unicode="&#x2086;" horiz-adv-x="354" 
d="M187 -106q-57 0 -90.5 27.5t-48 73.5t-14.5 101q0 104 42.5 168t122.5 64q31 0 63 -9.5t57 -27.5l-33 -45q-19 14 -42 20.5t-41 6.5q-50 0 -79.5 -39t-32.5 -120q17 25 43.5 39t60.5 14q61 0 99.5 -39.5t38.5 -98.5t-40.5 -97t-105.5 -38zM188 -52q36 0 59.5 23t23.5 60
t-23.5 60.5t-59.5 23.5q-37 0 -60.5 -23.5t-23.5 -60.5t23.5 -60t60.5 -23z" />
    <glyph glyph-name="uni2087" unicode="&#x2087;" horiz-adv-x="338" 
d="M60 -100l188 363h-217v57h286v-49l-188 -371h-69z" />
    <glyph glyph-name="uni2088" unicode="&#x2088;" horiz-adv-x="392" 
d="M196 -106q-71 0 -112.5 32t-41.5 84q0 37 19.5 65.5t55.5 43.5q-60 30 -60 95q0 50 37.5 82t101.5 32t101.5 -32t37.5 -82q0 -32 -16 -56t-45 -39q36 -15 56 -43.5t20 -65.5q0 -52 -41.5 -84t-112.5 -32zM196 144q34 0 56 18t22 46q0 30 -22 49t-56 19t-56 -19t-22 -49
q0 -28 22 -46t56 -18zM196 -53q39 0 64.5 19.5t25.5 50.5q0 32 -25 52.5t-65 20.5t-65 -20.5t-25 -52.5q0 -31 25 -50.5t65 -19.5z" />
    <glyph glyph-name="uni2089" unicode="&#x2089;" horiz-adv-x="354" 
d="M167 328q58 0 91 -28t47.5 -73.5t14.5 -100.5q0 -103 -42 -167.5t-123 -64.5q-31 0 -62.5 9.5t-56.5 27.5l33 45q19 -13 41.5 -20t40.5 -7q50 0 79.5 39t32.5 119q-36 -52 -104 -52q-61 0 -99.5 39.5t-38.5 98.5t40.5 97t105.5 38zM166 274q-36 0 -59.5 -23.5
t-23.5 -59.5q0 -37 24 -60.5t59 -23.5q37 0 60.5 24t23.5 60t-23.5 59.5t-60.5 23.5z" />
    <glyph glyph-name="Euro" unicode="&#x20ac;" horiz-adv-x="649" 
d="M20 258v52h82q-1 20 -1 40t1 40h-82v52h89q13 81 50 142t91.5 94.5t121.5 33.5q48 0 94 -21.5t82.5 -60t57.5 -88.5l-54 -33q-16 43 -44.5 75.5t-64 51t-71.5 18.5q-74 0 -127 -58t-72 -154h276v-52h-283q-1 -20 -1 -40q0 -21 1 -40h283v-52h-276q19 -96 72.5 -154
t129.5 -58q37 0 72 20t63.5 55.5t44.5 81.5l54 -33q-21 -53 -58 -94.5t-82.5 -64.5t-93.5 -23q-68 0 -123 33.5t-92 94.5t-51 142h-89z" />
    <glyph glyph-name="trademark" unicode="&#x2122;" horiz-adv-x="848" 
d="M138 280v363h-131v57h324v-57h-131v-363h-62zM390 280v420h63v-1l4 1l137 -202l136 202l4 -1v1h62v-420h-62v320l-141 -208l-140 206v-318h-63z" />
    <glyph glyph-name="oneeighth" unicode="&#x215b;" horiz-adv-x="890" 
d="M137 280v338q-23 -18 -46 -27.5t-46 -7.5v56q19 0 47 18t51 43h55l-1 -420h-60zM593 700h75l-481 -700h-75zM694 -6q-71 0 -112.5 32t-41.5 84q0 37 19.5 65.5t55.5 43.5q-60 30 -60 95q0 50 37.5 82t101.5 32t101.5 -32t37.5 -82q0 -32 -16 -56t-45 -39q36 -15 56 -43.5
t20 -65.5q0 -52 -41.5 -84t-112.5 -32zM694 244q34 0 56 18t22 46q0 30 -22 49t-56 19t-56 -19t-22 -49q0 -28 22 -46t56 -18zM694 47q39 0 64.5 19.5t25.5 50.5q0 32 -25 52.5t-65 20.5t-65 -20.5t-25 -52.5q0 -31 25 -50.5t65 -19.5z" />
    <glyph glyph-name="threeeighths" unicode="&#x215c;" horiz-adv-x="962" 
d="M180 273q-52 0 -86 22.5t-47 52.5l55 23q12 -19 29 -31t45 -12q37 0 58.5 21t21.5 53q0 35 -28 54.5t-82 19.5h-17v53h17q47 0 74 16t27 46q0 25 -19.5 43t-52.5 18q-21 0 -39.5 -9.5t-31.5 -30.5l-53 22q16 35 50 54t77 19q56 0 94 -32t38 -79q0 -32 -18.5 -55.5
t-48.5 -37.5q35 -15 55.5 -42.5t20.5 -64.5q0 -57 -41 -90t-98 -33zM665 700h75l-481 -700h-75zM766 -6q-71 0 -112.5 32t-41.5 84q0 37 19.5 65.5t55.5 43.5q-60 30 -60 95q0 50 37.5 82t101.5 32t101.5 -32t37.5 -82q0 -32 -16 -56t-45 -39q36 -15 56 -43.5t20 -65.5
q0 -52 -41.5 -84t-112.5 -32zM766 244q34 0 56 18t22 46q0 30 -22 49t-56 19t-56 -19t-22 -49q0 -28 22 -46t56 -18zM766 47q39 0 64.5 19.5t25.5 50.5q0 32 -25 52.5t-65 20.5t-65 -20.5t-25 -52.5q0 -31 25 -50.5t65 -19.5z" />
    <glyph glyph-name="fiveeighths" unicode="&#x215d;" horiz-adv-x="977" 
d="M188 273q-40 0 -81 19t-61 57l54 23q18 -23 40 -34t46 -11q38 0 61.5 23t23.5 60t-23 60.5t-60 23.5q-21 0 -40 -9t-30 -23l-56 13l22 225h229v-57h-174l-14 -122q17 10 37 16.5t42 6.5q56 0 93 -37t37 -94q0 -62 -41 -101t-105 -39zM680 700h75l-481 -700h-75zM781 -6
q-71 0 -112.5 32t-41.5 84q0 37 19.5 65.5t55.5 43.5q-60 30 -60 95q0 50 37.5 82t101.5 32t101.5 -32t37.5 -82q0 -32 -16 -56t-45 -39q36 -15 56 -43.5t20 -65.5q0 -52 -41.5 -84t-112.5 -32zM781 244q34 0 56 18t22 46q0 30 -22 49t-56 19t-56 -19t-22 -49q0 -28 22 -46
t56 -18zM781 47q39 0 64.5 19.5t25.5 50.5q0 32 -25 52.5t-65 20.5t-65 -20.5t-25 -52.5q0 -31 25 -50.5t65 -19.5z" />
    <glyph glyph-name="seveneighths" unicode="&#x215e;" horiz-adv-x="906" 
d="M60 280l188 363h-217v57h286v-49l-188 -371h-69zM609 700h75l-481 -700h-75zM710 -6q-71 0 -112.5 32t-41.5 84q0 37 19.5 65.5t55.5 43.5q-60 30 -60 95q0 50 37.5 82t101.5 32t101.5 -32t37.5 -82q0 -32 -16 -56t-45 -39q36 -15 56 -43.5t20 -65.5q0 -52 -41.5 -84
t-112.5 -32zM710 244q34 0 56 18t22 46q0 30 -22 49t-56 19t-56 -19t-22 -49q0 -28 22 -46t56 -18zM710 47q39 0 64.5 19.5t25.5 50.5q0 32 -25 52.5t-65 20.5t-65 -20.5t-25 -52.5q0 -31 25 -50.5t65 -19.5z" />
    <glyph glyph-name="arrowleft" unicode="&#x2190;" horiz-adv-x="740" 
d="M670 270h-482l214 -181l-34 -44l-308 253l308 254l34 -44l-214 -181h482v-57z" />
    <glyph glyph-name="arrowup" unicode="&#x2191;" horiz-adv-x="687" 
d="M372 21h-57v482l-181 -214l-44 34l254 308l253 -308l-44 -34l-181 214v-482z" />
    <glyph glyph-name="arrowright" unicode="&#x2192;" horiz-adv-x="740" 
d="M70 269v57h482l-214 181l34 44l308 -254l-308 -253l-34 44l214 181h-482z" />
    <glyph glyph-name="arrowdown" unicode="&#x2193;" horiz-adv-x="687" 
d="M315 631h57v-482l181 214l44 -34l-254 -308l-253 308l44 34l181 -214v482z" />
    <glyph glyph-name="minus" unicode="&#x2212;" horiz-adv-x="500" 
d="M70 269v57h360v-57h-360z" />
    <glyph glyph-name="uni2215" unicode="&#x2215;" horiz-adv-x="569" 
d="M491 700h68l-481 -700h-68z" />
    <glyph glyph-name="notequal" unicode="&#x2260;" horiz-adv-x="640" 
d="M165 70l62 129h-107v57h134l69 143h-203v57h230l61 126h64l-61 -126h106v-57h-133l-69 -143h202v-57h-229l-62 -129h-64z" />
    <glyph glyph-name="lessequal" unicode="&#x2264;" horiz-adv-x="541" 
d="M100 331l331 159v-62l-263 -130l263 -127v-63l-331 157v66zM100 0v51h331v-51h-331z" />
    <glyph glyph-name="greaterequal" unicode="&#x2265;" horiz-adv-x="541" 
d="M110 107v62l263 130l-263 127v63l331 -157v-66zM110 0v51h331v-51h-331z" />
    <glyph glyph-name="uni004A0301" horiz-adv-x="500" 
d="M184 -11q-62 0 -106.5 30t-71.5 76l45 35q22 -35 54.5 -59t78.5 -24q38 0 75.5 18.5t62 61.5t24.5 115v458h64v-488q0 -57 -20 -99t-53 -69.5t-73 -41t-80 -13.5zM316 744l119 126h85l-128 -126h-76z" />
    <glyph glyph-name="i.loclTRK" horiz-adv-x="220" 
d="M79 0l2 500h60l-2 -500h-60zM110 630q-16 0 -28 12t-12 28q0 17 12 28.5t28 11.5q17 0 28.5 -11.5t11.5 -28.5q0 -16 -11.5 -28t-28.5 -12z" />
    <glyph glyph-name="uni006A0301" horiz-adv-x="250" 
d="M39 -215q-30 0 -89 24l22 51q26 -10 44 -15t28 -5q76 0 76 97v563h60v-563q0 -152 -141 -152zM88 574l119 126h85l-128 -126h-76z" />
    <glyph glyph-name="a.001" horiz-adv-x="511" 
d="M242 -16q-93 0 -145 41.5t-52 115.5q0 78 52 122t145 44q88 0 149 -29q-10 183 -145 183q-77 0 -143 -66l-35 39q73 82 178 82q205 0 205 -244v-272h-50l-2 54q-26 -33 -66 -51.5t-91 -18.5zM105 141q0 -48 35 -75t98 -27q73 0 113.5 48.5t40.5 126.5v0q-70 38 -142 38
q-68 0 -106.5 -29t-38.5 -82z" />
    <glyph glyph-name="a.002" horiz-adv-x="582" 
d="M271 -12q-66 0 -117 33.5t-80 93t-29 135.5q0 77 29 136t80 92.5t117 33.5q57 0 102.5 -27.5t73.5 -75.5v91h60v-500h-57l-3 91q-28 -48 -73.5 -75.5t-102.5 -27.5zM283 42q48 0 85 26.5t58 73.5t21 108t-21 108t-58 73.5t-86 26.5q-52 0 -92 -26.5t-62.5 -73.5
t-22.5 -108t23 -108t63 -73.5t92 -26.5z" />
    <glyph glyph-name="g.001" horiz-adv-x="582" 
d="M271 0q-66 0 -117 33t-80 91.5t-29 133.5t29 132t80 89.5t117 32.5q57 0 102.5 -26.5t73.5 -72.5v87h60v-454q0 -78 -30 -133t-84.5 -84.5t-126.5 -29.5t-127.5 36.5t-85.5 98.5l53 28q23 -50 64.5 -79t95.5 -29q82 0 131.5 49.5t49.5 142.5v55q-28 -47 -73.5 -74
t-102.5 -27zM283 53q48 0 85 26.5t58 72.5t21 106q0 59 -21 104.5t-58 71.5t-86 26q-52 0 -92 -26t-62.5 -71.5t-22.5 -104.5q0 -60 23 -106t63 -72.5t92 -26.5z" />
    <glyph glyph-name="t.001" horiz-adv-x="377" 
d="M266 -12q-69 0 -108 36.5t-39 103.5v317h-89v55h89v156h60v-156h159v-55h-159v-317q0 -40 23 -62.5t64 -22.5q12 0 23.5 3.5t33.5 18.5l25 -52q-27 -16 -45 -20.5t-37 -4.5z" />
    <glyph glyph-name="zero.tf" horiz-adv-x="620" 
d="M310 -12q-79 0 -139.5 46.5t-95 128t-34.5 187.5t34.5 187.5t95 128t139.5 46.5t139.5 -46.5t95 -128t34.5 -187.5t-34.5 -187.5t-95 -128t-139.5 -46.5zM310 46q60 0 106.5 39t72.5 107.5t26 157.5t-26 157.5t-72.5 107.5t-106.5 39t-106.5 -39t-72.5 -107.5t-26 -157.5
t26 -157.5t72.5 -107.5t106.5 -39z" />
    <glyph glyph-name="one.tf" horiz-adv-x="620" 
d="M150 57h159l2 556q-40 -33 -80.5 -55t-80.5 -22v58q19 0 48.5 15t61 39.5t55.5 51.5h60l-2 -643h156v-57h-379v57z" />
    <glyph glyph-name="two.tf" horiz-adv-x="620" 
d="M102 0v58q0 102 104 187l160 121q40 30 63.5 71t23.5 78q0 38 -19 69.5t-52.5 50.5t-78.5 19t-79 -17t-56 -44.5t-31 -58.5l-65 14q12 43 43 80.5t78 60.5t104 23q67 0 116.5 -26t77 -70.5t27.5 -100.5q0 -102 -111 -195l-153 -117q-88 -67 -88 -145h362v-58h-426z" />
    <glyph glyph-name="three.tf" horiz-adv-x="620" 
d="M305 -12q-47 0 -85 14t-65.5 35.5t-46.5 42.5l48 40q12 -15 30.5 -32.5t46.5 -29.5t68 -12q75 0 120 43.5t45 108.5q0 76 -62 114.5t-164 38.5h-10v57h10q93 0 150 32t57 91q0 33 -18 61t-51.5 45t-78.5 17q-43 0 -77.5 -17.5t-61.5 -47.5l-44 38q32 38 78 61.5t109 23.5
q60 0 107 -24t74 -65t27 -91q0 -53 -30 -91.5t-83 -60.5q62 -25 97 -71.5t35 -112.5q0 -62 -29.5 -109t-80.5 -73t-115 -26z" />
    <glyph glyph-name="four.tf" horiz-adv-x="620" 
d="M52 182v49l322 469h63v-459h151v-59h-151v-182h-63v182h-322zM131 241h243v356z" />
    <glyph glyph-name="five.tf" horiz-adv-x="620" 
d="M313 -12q-39 0 -80.5 11t-79 35t-64.5 63l45 39q41 -48 86 -70t93 -22q76 0 123.5 46.5t47.5 121.5q0 76 -46 122.5t-120 46.5q-40 0 -79.5 -17t-61.5 -43l-58 14l30 365h365v-58h-306l-21 -244q29 18 63 28.5t68 10.5q67 0 118 -28.5t80.5 -79.5t29.5 -117t-30 -116.5
t-82.5 -79t-120.5 -28.5z" />
    <glyph glyph-name="six.tf" horiz-adv-x="620" 
d="M328 -12q-73 0 -121.5 28t-77 76t-40 110.5t-11.5 131.5q0 125 33.5 209t93 126.5t136.5 42.5q51 0 102 -16.5t91 -45.5l-39 -45q-68 49 -144 49q-104 0 -160.5 -81t-57.5 -245q28 51 79 80t116 29q68 0 120.5 -28.5t82 -79t29.5 -116.5t-29.5 -117t-82 -79.5
t-120.5 -28.5zM328 46q49 0 87 21t59.5 59t21.5 87t-21.5 86.5t-59.5 58.5t-87 21t-87.5 -21t-60 -58.5t-21.5 -86.5t21.5 -87t60 -59t87.5 -21z" />
    <glyph glyph-name="seven.tf" horiz-adv-x="620" 
d="M122 0l353 642h-385v58h455v-58l-352 -642h-71z" />
    <glyph glyph-name="eight.tf" horiz-adv-x="620" 
d="M309 -12q-72 0 -128 24.5t-87.5 68.5t-31.5 101q0 62 34.5 109t94.5 71q-47 24 -74.5 65t-27.5 95q0 56 28 99t78 67t114 24q65 0 114.5 -24t78 -67t28.5 -99q0 -54 -27.5 -95t-74.5 -65q59 -24 94 -71t35 -109q0 -58 -32 -101.5t-87.5 -68t-128.5 -24.5zM309 394
q69 0 113 34t44 89q0 61 -44 99t-113 38q-68 0 -112 -38t-44 -99q0 -55 44 -89t112 -34zM309 46q81 0 132.5 39t51.5 101q0 63 -51.5 102t-132.5 39q-54 0 -95 -17.5t-64.5 -49.5t-23.5 -74q0 -41 23.5 -73t64.5 -49.5t95 -17.5z" />
    <glyph glyph-name="nine.tf" horiz-adv-x="620" 
d="M292 712q74 0 122 -28t76.5 -76t40 -110.5t11.5 -131.5q0 -124 -33.5 -208.5t-93 -127t-136.5 -42.5q-51 0 -102 16.5t-91 45.5l39 45q68 -49 144 -49q104 0 160.5 81t57.5 245q-28 -51 -79 -80t-116 -29q-68 0 -120.5 28.5t-82 79t-29.5 116.5q0 67 29.5 117.5t82 79
t120.5 28.5zM292 654q-49 0 -87 -21t-59.5 -58.5t-21.5 -87.5q0 -49 21.5 -86.5t59.5 -58.5t87 -21q50 0 88 21t59.5 58.5t21.5 86.5q0 50 -21.5 87.5t-59.5 58.5t-88 21z" />
    <glyph glyph-name="zero.dnom" horiz-adv-x="406" 
d="M204 -6q-49 0 -87.5 27.5t-60 76.5t-21.5 113q0 65 21.5 113.5t59.5 76t87 27.5q50 0 87.5 -27.5t59 -76t21.5 -113.5q0 -64 -21.5 -113t-59 -76.5t-86.5 -27.5zM204 51q47 0 76.5 45t29.5 115q0 71 -30 116t-77 45q-46 0 -75.5 -45t-29.5 -116q0 -70 30 -115t76 -45z
" />
    <glyph glyph-name="one.dnom" horiz-adv-x="282" 
d="M137 0v338q-23 -18 -46 -27.5t-46 -7.5v56q19 0 47 18t51 43h55l-1 -420h-60z" />
    <glyph glyph-name="two.dnom" horiz-adv-x="359" 
d="M38 0v49q0 29 20 59.5t55 56.5l78 58q21 15 36.5 36.5t15.5 42.5q0 29 -20.5 48.5t-55.5 19.5q-34 0 -54.5 -19t-27.5 -42l-64 12q10 42 48.5 74t95.5 32q65 0 103.5 -35t38.5 -89q0 -36 -19 -65t-55 -57l-75 -56q-20 -15 -35 -33t-20 -36h210v-56h-275z" />
    <glyph glyph-name="three.dnom" horiz-adv-x="354" 
d="M180 -6q-52 0 -86 22.5t-47 52.5l55 23q12 -19 29 -31t45 -12q37 0 58.5 21t21.5 53q0 35 -28 54.5t-82 19.5h-17v53h17q47 0 74 16t27 46q0 25 -19.5 43t-52.5 18q-21 0 -39.5 -9.5t-31.5 -30.5l-53 22q16 35 50 54t77 19q56 0 94 -32t38 -79q0 -32 -18.5 -55.5
t-48.5 -37.5q35 -15 55.5 -42.5t20.5 -64.5q0 -57 -41 -90t-98 -33z" />
    <glyph glyph-name="four.dnom" horiz-adv-x="391" 
d="M229 0v94h-194v50l189 276h65v-271h81v-55h-81v-94h-60zM103 149h126v186z" />
    <glyph glyph-name="five.dnom" horiz-adv-x="369" 
d="M188 -6q-40 0 -81 19t-61 57l54 23q18 -23 40 -34t46 -11q38 0 61.5 23t23.5 60t-23 60.5t-60 23.5q-21 0 -40 -9t-30 -23l-56 13l22 225h229v-57h-174l-14 -122q17 10 37 16.5t42 6.5q56 0 93 -37t37 -94q0 -62 -41 -101t-105 -39z" />
    <glyph glyph-name="six.dnom" horiz-adv-x="354" 
d="M187 -6q-57 0 -90.5 27.5t-48 73.5t-14.5 101q0 104 42.5 168t122.5 64q31 0 63 -9.5t57 -27.5l-33 -45q-19 14 -42 20.5t-41 6.5q-50 0 -79.5 -39t-32.5 -120q17 25 43.5 39t60.5 14q61 0 99.5 -39.5t38.5 -98.5t-40.5 -97t-105.5 -38zM188 48q36 0 59.5 23t23.5 60
t-23.5 60.5t-59.5 23.5q-37 0 -60.5 -23.5t-23.5 -60.5t23.5 -60t60.5 -23z" />
    <glyph glyph-name="seven.dnom" horiz-adv-x="338" 
d="M60 0l188 363h-217v57h286v-49l-188 -371h-69z" />
    <glyph glyph-name="eight.dnom" horiz-adv-x="392" 
d="M196 -6q-71 0 -112.5 32t-41.5 84q0 37 19.5 65.5t55.5 43.5q-60 30 -60 95q0 50 37.5 82t101.5 32t101.5 -32t37.5 -82q0 -32 -16 -56t-45 -39q36 -15 56 -43.5t20 -65.5q0 -52 -41.5 -84t-112.5 -32zM196 244q34 0 56 18t22 46q0 30 -22 49t-56 19t-56 -19t-22 -49
q0 -28 22 -46t56 -18zM196 47q39 0 64.5 19.5t25.5 50.5q0 32 -25 52.5t-65 20.5t-65 -20.5t-25 -52.5q0 -31 25 -50.5t65 -19.5z" />
    <glyph glyph-name="nine.dnom" horiz-adv-x="354" 
d="M167 428q58 0 91 -28t47.5 -73.5t14.5 -100.5q0 -103 -42 -167.5t-123 -64.5q-31 0 -62.5 9.5t-56.5 27.5l33 45q19 -13 41.5 -20t40.5 -7q50 0 79.5 39t32.5 119q-36 -52 -104 -52q-61 0 -99.5 39.5t-38.5 98.5t40.5 97t105.5 38zM166 374q-36 0 -59.5 -23.5
t-23.5 -59.5q0 -37 24 -60.5t59 -23.5q37 0 60.5 24t23.5 60t-23.5 59.5t-60.5 23.5z" />
    <glyph glyph-name="zero.numr" horiz-adv-x="406" 
d="M204 273q-49 0 -87.5 27.5t-60 76.5t-21.5 113q0 65 21.5 113.5t59.5 76t87 27.5q50 0 87.5 -27.5t59 -76t21.5 -113.5q0 -64 -21.5 -113t-59 -76.5t-86.5 -27.5zM204 330q47 0 76.5 45t29.5 115q0 71 -30 116t-77 45q-46 0 -75.5 -45t-29.5 -116q0 -70 30 -115t76 -45z
" />
    <glyph glyph-name="one.numr" horiz-adv-x="282" 
d="M137 280v338q-23 -18 -46 -27.5t-46 -7.5v56q19 0 47 18t51 43h55l-1 -420h-60z" />
    <glyph glyph-name="two.numr" horiz-adv-x="359" 
d="M38 280v49q0 29 20 59.5t55 56.5l78 58q21 15 36.5 36.5t15.5 42.5q0 29 -20.5 48.5t-55.5 19.5q-34 0 -54.5 -19t-27.5 -42l-64 12q10 42 48.5 74t95.5 32q65 0 103.5 -35t38.5 -89q0 -36 -19 -65t-55 -57l-75 -56q-20 -15 -35 -33t-20 -36h210v-56h-275z" />
    <glyph glyph-name="three.numr" horiz-adv-x="354" 
d="M180 273q-52 0 -86 22.5t-47 52.5l55 23q12 -19 29 -31t45 -12q37 0 58.5 21t21.5 53q0 35 -28 54.5t-82 19.5h-17v53h17q47 0 74 16t27 46q0 25 -19.5 43t-52.5 18q-21 0 -39.5 -9.5t-31.5 -30.5l-53 22q16 35 50 54t77 19q56 0 94 -32t38 -79q0 -32 -18.5 -55.5
t-48.5 -37.5q35 -15 55.5 -42.5t20.5 -64.5q0 -57 -41 -90t-98 -33z" />
    <glyph glyph-name="four.numr" horiz-adv-x="391" 
d="M229 280v94h-194v50l189 276h65v-271h81v-55h-81v-94h-60zM103 429h126v186z" />
    <glyph glyph-name="five.numr" horiz-adv-x="369" 
d="M188 273q-40 0 -81 19t-61 57l54 23q18 -23 40 -34t46 -11q38 0 61.5 23t23.5 60t-23 60.5t-60 23.5q-21 0 -40 -9t-30 -23l-56 13l22 225h229v-57h-174l-14 -122q17 10 37 16.5t42 6.5q56 0 93 -37t37 -94q0 -62 -41 -101t-105 -39z" />
    <glyph glyph-name="six.numr" horiz-adv-x="354" 
d="M187 273q-57 0 -90.5 27.5t-48 73.5t-14.5 101q0 104 42.5 168t122.5 64q31 0 63 -9.5t57 -27.5l-33 -45q-19 14 -42 20.5t-41 6.5q-50 0 -79.5 -39t-32.5 -120q17 25 43.5 39t60.5 14q61 0 99.5 -39.5t38.5 -98.5t-40.5 -97t-105.5 -38zM188 327q36 0 59.5 23t23.5 60
t-23.5 60.5t-59.5 23.5q-37 0 -60.5 -23.5t-23.5 -60.5t23.5 -60t60.5 -23z" />
    <glyph glyph-name="seven.numr" horiz-adv-x="338" 
d="M60 280l188 363h-217v57h286v-49l-188 -371h-69z" />
    <glyph glyph-name="eight.numr" horiz-adv-x="392" 
d="M196 273q-71 0 -112.5 32t-41.5 84q0 37 19.5 65.5t55.5 43.5q-60 30 -60 95q0 50 37.5 82t101.5 32t101.5 -32t37.5 -82q0 -32 -16 -56t-45 -39q36 -15 56 -43.5t20 -65.5q0 -52 -41.5 -84t-112.5 -32zM196 523q34 0 56 18t22 46q0 30 -22 49t-56 19t-56 -19t-22 -49
q0 -28 22 -46t56 -18zM196 326q39 0 64.5 19.5t25.5 50.5q0 32 -25 52.5t-65 20.5t-65 -20.5t-25 -52.5q0 -31 25 -50.5t65 -19.5z" />
    <glyph glyph-name="nine.numr" horiz-adv-x="354" 
d="M167 707q58 0 91 -28t47.5 -73.5t14.5 -100.5q0 -103 -42 -167.5t-123 -64.5q-31 0 -62.5 9.5t-56.5 27.5l33 45q19 -13 41.5 -20t40.5 -7q50 0 79.5 39t32.5 119q-36 -52 -104 -52q-61 0 -99.5 39.5t-38.5 98.5t40.5 97t105.5 38zM166 653q-36 0 -59.5 -23.5
t-23.5 -59.5q0 -37 24 -60.5t59 -23.5q37 0 60.5 24t23.5 60t-23.5 59.5t-60.5 23.5z" />
    <glyph glyph-name="periodcentered.loclCAT" horiz-adv-x="92" 
d="M46 265q-19 0 -32.5 13.5t-13.5 32.5t13.5 32.5t32.5 13.5t32.5 -13.5t13.5 -32.5t-13.5 -32.5t-32.5 -13.5z" />
    <glyph glyph-name="periodcentered.loclCAT.case" horiz-adv-x="47" 
d="M-19 305q-19 0 -32.5 13.5t-13.5 32.5t13.5 32.5t32.5 13.5t32.5 -13.5t13.5 -32.5t-13.5 -32.5t-32.5 -13.5z" />
    <glyph glyph-name="uni030C.alt" horiz-adv-x="0" 
d="M23 527l55 172h71l-70 -172h-56z" />
    <glyph glyph-name="uni0328.alt" horiz-adv-x="0" 
d="M134 -212q-55 0 -86.5 23t-31.5 64q0 47 30 89t82 70l16 -1q-36 -31 -52 -67.5t-16 -71.5q0 -24 13.5 -37.5t37.5 -13.5q39 0 67 11l19 -46q-37 -20 -79 -20z" />
    <glyph glyph-name="Bowl" horiz-adv-x="582" 
d="M271 -12q-66 0 -117 33.5t-80 93t-29 135.5q0 77 29 136t80 92.5t117 33.5q64 0 112.5 -33.5t76 -92.5t27.5 -136q0 -76 -27.5 -135.5t-76 -93t-112.5 -33.5zM283 42q48 0 85 26.5t58 73.5t21 108t-21 108t-58 73.5t-86 26.5q-52 0 -92 -26.5t-62.5 -73.5t-22.5 -108
t23 -108t63 -73.5t92 -26.5z" />
    <glyph glyph-name="arch" horiz-adv-x="396" 
d="M336 256q0 83 -19.5 126t-53 58.5t-75.5 15.5q-71 0 -111 -52.5t-40 -146.5h-37q0 120 50.5 187.5t147.5 67.5q90 0 144.5 -56t53.5 -170z" />
    <glyph glyph-name="dollar.BRACKET.550" horiz-adv-x="567" 
d="M265 -103v127q-92 6 -142.5 47t-67.5 90l56 22q16 -41 60 -71.5t108 -30.5q80 0 124.5 31t44.5 81q0 48 -41.5 78t-106.5 46l-63 16q-42 11 -77.5 32t-56.5 53.5t-21 79.5q0 78 46.5 124.5t136.5 53.5v104h59v-104q53 -6 91.5 -27t62 -50.5t32.5 -57.5l-57 -23
q-19 47 -63 74t-105 27q-64 0 -101.5 -31t-37.5 -83q0 -49 29 -74t76 -36l65 -15q95 -22 145.5 -73t50.5 -107q0 -67 -47 -117.5t-141 -58.5v-127h-59z" />
    </font>
</defs>
</svg>
