<?xml version="1.0" standalone="no"?>
<!DOCTYPE svg PUBLIC "-//W3C//DTD SVG 1.1//EN" "http://www.w3.org/Graphics/SVG/1.1/DTD/svg11.dtd" >
<svg xmlns="http://www.w3.org/2000/svg" xmlns:xlink="http://www.w3.org/1999/xlink" version="1.1">
<metadata>
Created by FontForge 20170731 at Tue Jun 21 10:31:34 2022
 By Aleksey,,,
</metadata>
<defs>
<font id="Figtree-Regular" horiz-adv-x="558" >
  <font-face 
    font-family="Figtree"
    font-weight="400"
    font-stretch="normal"
    units-per-em="1000"
    panose-1="0 0 0 0 0 0 0 0 0 0"
    ascent="800"
    descent="-200"
    x-height="500"
    cap-height="700"
    bbox="-172 -220 1100 917"
    underline-thickness="50"
    underline-position="-175"
    unicode-range="U+000D-2265"
  />
<missing-glyph horiz-adv-x="600" 
 />
    <glyph glyph-name=".notdef" horiz-adv-x="600" 
 />
    <glyph glyph-name=".null" horiz-adv-x="600" 
 />
    <glyph glyph-name="nonmarkingreturn" horiz-adv-x="333" 
 />
    <glyph glyph-name="CR" unicode="&#xd;" horiz-adv-x="600" 
 />
    <glyph glyph-name="space" unicode=" " horiz-adv-x="247" 
 />
    <glyph glyph-name="exclam" unicode="!" horiz-adv-x="298" 
d="M108 203l-2 497h86l-2 -497h-82zM149 -14q-23 0 -39.5 16.5t-16.5 38.5q0 23 16.5 39.5t39.5 16.5q22 0 38.5 -16.5t16.5 -39.5q0 -22 -16.5 -38.5t-38.5 -16.5z" />
    <glyph glyph-name="quotedbl" unicode="&#x22;" horiz-adv-x="320" 
d="M68 482l-8 234h80l-8 -234h-64zM188 482l-8 234h80l-8 -234h-64z" />
    <glyph glyph-name="numbersign" unicode="#" horiz-adv-x="629" 
d="M115 0l30 195h-135l8 56h136l30 193h-136l9 56h136l32 200h64l-31 -200h161l32 200h64l-31 -200h135l-9 -56h-135l-31 -193h136l-8 -56h-136l-31 -195h-64l30 195h-161l-31 -195h-64zM219 251h161l30 193h-161z" />
    <glyph glyph-name="dollar" unicode="$" horiz-adv-x="564" 
d="M256 -103v128q-88 8 -138.5 48.5t-66.5 90.5l74 26q13 -35 47 -61.5t84 -31.5v223l-26 6q-65 17 -109.5 57.5t-45.5 111.5q0 78 46.5 125t134.5 55v105h73v-105q75 -9 120.5 -49.5t61.5 -86.5l-75 -27q-13 33 -40.5 56t-66.5 32v-217q88 -22 135.5 -72.5t47.5 -107.5
q0 -69 -46.5 -119t-136.5 -59v-128h-73zM254 401h2v202q-46 -7 -72.5 -34t-26.5 -68q0 -44 26.5 -66.5t70.5 -33.5zM430 197q0 37 -27.5 62t-73.5 41v-200q48 9 74.5 34.5t26.5 62.5z" />
    <glyph glyph-name="percent" unicode="%" horiz-adv-x="786" 
d="M203 384q-46 0 -81 21.5t-54.5 59t-19.5 85.5t19.5 85.5t54.5 59t81 21.5t81 -21.5t55 -59t20 -85.5t-20 -85.5t-55 -59t-81 -21.5zM97 0l497 700h93l-500 -700h-90zM203 454q41 0 66.5 27t25.5 69t-25.5 69t-66.5 27q-40 0 -66 -27t-26 -69t26 -69t66 -27zM582 -16
q-45 0 -80.5 21.5t-55 59t-19.5 85.5t19.5 85.5t55 59t80.5 21.5q46 0 81 -21.5t55 -59t20 -85.5t-20 -85.5t-55 -59t-81 -21.5zM582 54q41 0 67 27t26 69t-26 69t-67 27q-40 0 -66 -27t-26 -69t26 -69t66 -27z" />
    <glyph glyph-name="ampersand" unicode="&#x26;" horiz-adv-x="644" 
d="M259 -14q-59 0 -105.5 23t-72.5 64.5t-26 95.5q0 66 36.5 112.5t88.5 82.5l32 22l-16 19q-35 43 -57.5 78.5t-22.5 76.5q0 44 22 79t60 55.5t85 20.5q50 0 90 -20t63.5 -55.5t23.5 -81.5q0 -55 -38.5 -99t-96.5 -86l59 -70l97 -118q28 55 28 122l81 -1q0 -53 -14.5 -100
t-40.5 -86l99 -120h-102l-51 61q-43 -36 -99.5 -55.5t-122.5 -19.5zM261 451l16 -20q24 16 47.5 35t39.5 41.5t16 50.5q0 39 -27 62t-68 23q-36 0 -61.5 -24t-25.5 -59q0 -30 18 -53t45 -56zM139 170q0 -49 34.5 -80t87.5 -31q50 0 93.5 16t76.5 46l-115 139l-56 68l-31 -21
q-34 -24 -62 -54.5t-28 -82.5z" />
    <glyph glyph-name="quotesingle" unicode="'" horiz-adv-x="200" 
d="M68 482l-8 234h80l-8 -234h-64z" />
    <glyph glyph-name="parenleft" unicode="(" horiz-adv-x="352" 
d="M223 -100q-47 61 -84.5 132.5t-59.5 151.5t-22 166q0 87 22 166.5t59.5 151t84.5 132.5h82q-46 -64 -84 -137t-60 -151.5t-22 -161.5q0 -82 22 -161t60 -151.5t84 -137.5h-82z" />
    <glyph glyph-name="parenright" unicode=")" horiz-adv-x="352" 
d="M129 -100h-82q46 65 83.5 137.5t60 151.5t22.5 161q0 83 -22.5 161.5t-60 151.5t-83.5 137h82q47 -61 84.5 -132.5t59.5 -151t22 -166.5q0 -86 -22 -166t-59.5 -151.5t-84.5 -132.5z" />
    <glyph glyph-name="asterisk" unicode="*" horiz-adv-x="481" 
d="M168 382l-57 42l84 104l-130 36l22 67l125 -47l-7 132h70l-6 -134l126 47l21 -66l-125 -34l83 -103l-57 -41l-74 112z" />
    <glyph glyph-name="plus" unicode="+" horiz-adv-x="600" 
d="M73 262v71h192v192h71v-192h191v-71h-191v-191h-71v191h-192z" />
    <glyph glyph-name="comma" unicode="," horiz-adv-x="226" 
d="M41 -115l56 211h90l-78 -211h-68z" />
    <glyph glyph-name="hyphen" unicode="-" horiz-adv-x="417" 
d="M58 261v73h300v-73h-300z" />
    <glyph glyph-name="period" unicode="." horiz-adv-x="208" 
d="M104 -14q-23 0 -39.5 16.5t-16.5 38.5q0 23 16.5 39.5t39.5 16.5q22 0 38.5 -16.5t16.5 -39.5q0 -22 -16.5 -38.5t-38.5 -16.5z" />
    <glyph glyph-name="slash" unicode="/" horiz-adv-x="389" 
d="M15 -84l276 831h83l-274 -831h-85z" />
    <glyph glyph-name="zero" unicode="0" horiz-adv-x="641" 
d="M320 -12q-80 0 -142 46.5t-97 128t-35 187.5t35 187.5t96.5 128t142.5 46.5t143 -46.5t97 -128t35 -187.5t-35 -187.5t-97 -128t-143 -46.5zM320 64q56 0 99.5 36.5t68 101t24.5 148.5t-24.5 148.5t-68 101t-99.5 36.5t-99 -36.5t-67.5 -101t-24.5 -148.5t24.5 -148.5
t67.5 -101t99 -36.5z" />
    <glyph glyph-name="one" unicode="1" horiz-adv-x="413" 
d="M216 0l1 588q-38 -31 -77.5 -50t-79.5 -18v77q21 -1 50.5 14t60 39t53.5 50v0h76l-2 -700h-82z" />
    <glyph glyph-name="two" unicode="2" horiz-adv-x="559" 
d="M58 0v70q0 101 114 190l145 109q38 28 62.5 66t24.5 75q0 52 -38 89t-100 37t-100.5 -34t-51.5 -77l-86 16q11 45 43 84t80.5 63t109.5 24q70 0 121 -26.5t79.5 -72t28.5 -103.5q0 -55 -30 -104t-87 -95l-137 -104q-38 -28 -62.5 -60.5t-30.5 -71.5h357v-75h-442z" />
    <glyph glyph-name="three" unicode="3" horiz-adv-x="544" 
d="M269 -12q-77 0 -130.5 33t-79.5 76l70 39q11 -15 27.5 -32t42.5 -29t64 -12q68 0 109 39t41 98q0 67 -54.5 103t-150.5 36h-19v72h19q86 0 136.5 29.5t50.5 84.5q0 45 -36.5 78.5t-96.5 33.5q-81 0 -129 -66l-66 38q28 47 80 75t119 28q61 0 109.5 -24.5t76.5 -65.5
t28 -93q0 -53 -30.5 -92t-82.5 -61q60 -25 95 -71t35 -111q0 -62 -30.5 -108.5t-82.5 -72t-115 -25.5z" />
    <glyph glyph-name="four" unicode="4" horiz-adv-x="621" 
d="M43 170v65l319 465v0v0h86v-455h143v-75h-143v-170h-82v170h-323zM140 245h226v332z" />
    <glyph glyph-name="five" unicode="5" horiz-adv-x="575" 
d="M290 -12q-41 0 -85 12.5t-82.5 39t-63.5 66.5l68 39q35 -44 76 -64t85 -20q69 0 112.5 42.5t43.5 111.5q0 68 -42 111t-110 43q-38 0 -73.5 -16.5t-55.5 -40.5l-76 18l34 370h373v-76h-297l-23 -225q28 18 62 28.5t70 10.5q64 0 114 -28.5t79 -78t29 -114.5
q0 -68 -30.5 -119.5t-84 -80.5t-123.5 -29z" />
    <glyph glyph-name="six" unicode="6" horiz-adv-x="566" 
d="M298 -12q-73 0 -121.5 27t-77.5 74.5t-41.5 109t-12.5 130.5q0 120 32.5 205.5t93 131.5t144.5 46q52 0 103.5 -16.5t91.5 -45.5l-47 -60q-32 23 -69 35t-71 12q-94 0 -147 -73t-56 -221q28 45 75.5 71t109.5 26q67 0 119 -29t82 -80.5t30 -117.5t-30.5 -117t-84 -79.5
t-123.5 -28.5zM298 62q67 0 110.5 42.5t43.5 110.5q0 67 -43.5 110t-110.5 43t-110.5 -43t-43.5 -110q0 -68 43.5 -110.5t110.5 -42.5z" />
    <glyph glyph-name="seven" unicode="7" horiz-adv-x="537" 
d="M82 0l332 623h-372v77h465v-70l-332 -630h-93z" />
    <glyph glyph-name="eight" unicode="8" horiz-adv-x="614" 
d="M307 -12q-76 0 -132.5 24.5t-88 68.5t-31.5 101q0 62 33.5 109.5t93.5 71.5q-48 24 -74.5 65t-26.5 94q0 56 28 99t79 67t119 24q67 0 118 -24t79.5 -67t28.5 -99q0 -53 -27 -94t-75 -65q60 -24 94 -71.5t34 -109.5q0 -58 -31.5 -101.5t-88.5 -68t-132 -24.5zM307 400
q63 0 103 31.5t40 82.5q0 56 -40 91t-103 35t-103 -35t-40 -91q0 -51 40 -82.5t103 -31.5zM307 62q73 0 120 35.5t47 92.5q0 58 -47 94.5t-120 36.5q-74 0 -120.5 -36.5t-46.5 -94.5q0 -57 46.5 -92.5t120.5 -35.5z" />
    <glyph glyph-name="nine" unicode="9" horiz-adv-x="566" 
d="M267 712q73 0 122 -27t78 -74.5t41.5 -109.5t12.5 -130q0 -120 -33 -206t-93 -131.5t-144 -45.5q-52 0 -103.5 16t-92.5 46l47 60q32 -23 69.5 -35t71.5 -12q94 0 146.5 73t55.5 221q-28 -45 -75.5 -71t-108.5 -26q-68 0 -120 29t-81.5 80.5t-29.5 117.5t30 116.5
t83.5 79.5t123.5 29zM267 638q-67 0 -110 -42.5t-43 -110.5q0 -67 43 -110t110 -43q68 0 111.5 43t43.5 110q0 68 -43.5 110.5t-111.5 42.5z" />
    <glyph glyph-name="colon" unicode=":" horiz-adv-x="253" 
d="M126 391q-23 0 -39.5 16.5t-16.5 38.5q0 23 16.5 39.5t39.5 16.5q22 0 38.5 -16.5t16.5 -39.5q0 -22 -16.5 -38.5t-38.5 -16.5zM127 -2q-22 0 -38.5 16.5t-16.5 39.5q0 22 16.5 38.5t38.5 16.5q23 0 39.5 -16.5t16.5 -38.5q0 -23 -16.5 -39.5t-39.5 -16.5z" />
    <glyph glyph-name="semicolon" unicode=";" horiz-adv-x="259" 
d="M122 390q-22 0 -38.5 16.5t-16.5 39.5q0 22 16.5 38.5t38.5 16.5q23 0 39.5 -16.5t16.5 -38.5q0 -23 -16.5 -39.5t-39.5 -16.5zM42 -115l57 211h89l-77 -211h-69z" />
    <glyph glyph-name="less" unicode="&#x3c;" horiz-adv-x="538" 
d="M434 498v-78l-260 -122l260 -119v-79l-342 159v78z" />
    <glyph glyph-name="equal" unicode="=" horiz-adv-x="627" 
d="M113 362v71h400v-71h-400zM113 162v71h400v-71h-400z" />
    <glyph glyph-name="greater" unicode="&#x3e;" horiz-adv-x="538" 
d="M103 99v78l260 122l-260 119v79l343 -159v-78z" />
    <glyph glyph-name="question" unicode="?" horiz-adv-x="504" 
d="M175 188l-1 140v38l52 2q66 0 108 37t42 100q0 58 -40 95t-102 37q-46 0 -80.5 -21.5t-46.5 -53.5l-75 24q19 55 72 90.5t130 35.5q66 0 116.5 -26.5t79 -73.5t28.5 -107q0 -57 -25.5 -101t-70.5 -70.5t-105 -31.5v-114h-82zM216 -14q-24 0 -40 15.5t-16 39.5t16 40
t40 16t39.5 -16t15.5 -40t-15.5 -39.5t-39.5 -15.5z" />
    <glyph glyph-name="at" unicode="@" horiz-adv-x="989" 
d="M463 15q-66 0 -116 30.5t-78.5 84t-28.5 123.5q0 69 28.5 122.5t78.5 84t115 30.5q56 0 100.5 -23.5t73.5 -64.5l-1 77h79v-374q0 -25 12 -39.5t31 -14.5q33 0 58.5 26t40 71t14.5 104q0 87 -26 159t-73.5 125t-112.5 82t-143 29q-87 0 -159.5 -29t-125.5 -82t-82 -125
t-29 -159t29 -159.5t82 -125.5t125.5 -82t159.5 -29q39 0 84.5 10.5t78.5 26.5l35 -56q-42 -22 -98 -35.5t-100 -13.5q-103 0 -189 34t-149 96t-97 147t-34 187t34 186.5t97 146.5t149 96t189 34q94 0 172 -34t135.5 -96t89 -146.5t31.5 -186.5q0 -78 -24.5 -138
t-67.5 -94.5t-98 -34.5q-56 -1 -86 31t-30 87v3q-29 -43 -74 -67t-100 -24zM481 87q62 0 104.5 38.5t50.5 100.5v55q-8 61 -51 99t-105 38q-47 0 -83 -21.5t-56 -58.5t-20 -85t20.5 -85.5t56.5 -59t83 -21.5z" />
    <glyph glyph-name="A" unicode="A" horiz-adv-x="677" 
d="M10 0l284 700h88l285 -700h-89l-80 200h-319l-80 -200h-89zM209 275h258l-129 321z" />
    <glyph glyph-name="B" unicode="B" horiz-adv-x="611" 
d="M93 0v700h84v0l138 1q106 0 167.5 -50t60.5 -141q1 -50 -22 -89t-65 -64q52 -24 80.5 -66t28.5 -100q0 -91 -59.5 -141t-162.5 -50h-250zM312 628h-135v-235h158q58 0 91 31t33 86q0 56 -39 87.5t-108 30.5zM317 320h-67l-73 -2v-242h162q66 0 103.5 31.5t37.5 86.5
q0 59 -43.5 92.5t-119.5 33.5z" />
    <glyph glyph-name="C" unicode="C" horiz-adv-x="721" 
d="M388 -12q-100 0 -177.5 46.5t-121 128t-43.5 187.5t43.5 187.5t120 128t176.5 46.5q62 0 120 -22.5t104 -63t71 -93.5l-73 -36q-20 40 -55 71.5t-78.5 49t-88.5 17.5q-75 0 -132.5 -36.5t-90 -100.5t-32.5 -148t33 -149t91 -101.5t134 -36.5q46 0 89.5 19t78 53t54.5 79
l74 -37q-26 -56 -72 -98.5t-104 -66.5t-121 -24z" />
    <glyph glyph-name="D" unicode="D" horiz-adv-x="688" 
d="M93 0v700h214q97 0 173 -44.5t119 -123.5t43 -182q0 -102 -43 -181t-119 -124t-173 -45h-214zM307 623h-129v-545h129q69 0 126 36.5t90.5 98t33.5 137.5t-33.5 137.5t-90.5 98.5t-126 37z" />
    <glyph glyph-name="E" unicode="E" horiz-adv-x="592" 
d="M93 0v700h414v-77h-329v-226h300v-76h-300v-244h331v-77h-416z" />
    <glyph glyph-name="F" unicode="F" horiz-adv-x="543" 
d="M93 0v700h416v-77h-331v-239h292v-77h-292v-307h-85z" />
    <glyph glyph-name="G" unicode="G" horiz-adv-x="760" 
d="M410 -12q-107 0 -189 46.5t-128.5 128t-46.5 186.5q0 107 46.5 188.5t128.5 128t189 46.5q56 0 109 -18.5t96.5 -50.5t71.5 -73l-67 -46q-20 33 -54 58t-74.5 39t-81.5 14q-82 0 -145 -36.5t-98.5 -101t-35.5 -148.5q0 -83 35.5 -147.5t98.5 -101t146 -36.5
q67 0 119.5 28.5t82.5 78t30 114.5h-172v72h254v-66h-1q0 -91 -40.5 -159t-111.5 -106t-162 -38z" />
    <glyph glyph-name="H" unicode="H" horiz-adv-x="751" 
d="M93 0v700h85v-301h396v301h84v-700h-84v322h-396v-322h-85z" />
    <glyph glyph-name="I" unicode="I" horiz-adv-x="271" 
d="M93 0v700h85v-700h-85z" />
    <glyph glyph-name="J" unicode="J" horiz-adv-x="515" 
d="M197 -12q-49 0 -86 17.5t-63 46t-41 61.5l65 38q19 -38 50 -62t76 -24q35 0 69.5 17t57 56.5t22.5 105.5v456h84v-488q0 -74 -34 -124t-87.5 -75t-112.5 -25z" />
    <glyph glyph-name="K" unicode="K" horiz-adv-x="610" 
d="M93 0v700h81v-324l311 324h106l-301 -315l314 -385h-103l-265 328l-62 -64v-264h-81z" />
    <glyph glyph-name="L" unicode="L" horiz-adv-x="520" 
d="M93 0v700h85v-623h330v-77h-415z" />
    <glyph glyph-name="M" unicode="M" horiz-adv-x="846" 
d="M93 0v700h85v-1l3 1l242 -359l242 359l3 -1v1h84v-700h-84v563l-245 -364l-245 362v-561h-85z" />
    <glyph glyph-name="N" unicode="N" horiz-adv-x="774" 
d="M93 0v700h86l417 -563v563h85v-700h-85l-418 566v-566h-85z" />
    <glyph glyph-name="O" unicode="O" horiz-adv-x="776" 
d="M391 -12q-101 0 -179 46t-122 127.5t-44 188.5q0 106 43.5 188t120.5 128t178 46t178 -46.5t120.5 -128t43.5 -187.5q0 -107 -43.5 -188.5t-120 -127.5t-175.5 -46zM391 65q75 0 132 36.5t89.5 100.5t32.5 148q0 83 -33 147.5t-91 101t-133 36.5t-133 -36.5t-91 -101
t-33 -147.5q0 -84 33 -148t92 -100.5t135 -36.5z" />
    <glyph glyph-name="P" unicode="P" horiz-adv-x="579" 
d="M93 0v700h80l148 1q68 0 120.5 -28.5t82 -78.5t29.5 -115t-26.5 -115.5t-74 -78.5t-109.5 -28h-165v-257h-85zM320 624h-142v-290h165q55 0 90.5 40.5t35.5 104.5t-41.5 104.5t-107.5 40.5z" />
    <glyph glyph-name="Q" unicode="Q" horiz-adv-x="780" 
d="M391 -12q-101 0 -179 46t-122 127.5t-44 188.5q0 106 43.5 188t120.5 128t178 46t178 -46.5t120.5 -128t43.5 -187.5q0 -75 -22 -138t-62 -110l85 -86l-54 -55l-87 88q-41 -29 -91.5 -45t-107.5 -16zM391 65q80 0 141 42l-105 107l56 53l105 -106q27 37 42 85t15 104
q0 83 -33 147.5t-91 101t-133 36.5t-133 -36.5t-91 -101t-33 -147.5q0 -84 33 -148t92 -100.5t135 -36.5z" />
    <glyph glyph-name="R" unicode="R" horiz-adv-x="626" 
d="M93 0v700h80l148 1q68 1 120.5 -26.5t82 -76t29.5 -110.5q0 -69 -39.5 -120.5t-103.5 -75.5l171 -292h-93l-161 276q-8 -1 -17 -1h-132v-275h-85zM319 624h-141v-271h155q37 0 68 17t49 47.5t18 70.5q0 60 -41.5 98t-107.5 38z" />
    <glyph glyph-name="S" unicode="S" horiz-adv-x="614" 
d="M317 -12q-77 0 -131.5 22t-88 57.5t-46.5 76.5l81 28q15 -44 60.5 -76.5t111.5 -32.5q81 0 127 32t46 85q0 49 -41 80t-108 47l-77 20q-48 12 -87 35.5t-62.5 60t-23.5 87.5q0 95 61.5 148.5t178.5 53.5q68 0 118 -22.5t81.5 -57.5t44.5 -73l-80 -28q-19 48 -64 77
t-109 29q-67 0 -106.5 -32.5t-39.5 -87.5q0 -49 30.5 -74.5t81.5 -37.5l77 -19q102 -25 156.5 -80t54.5 -119q0 -55 -28 -100.5t-82.5 -72t-135.5 -26.5z" />
    <glyph glyph-name="T" unicode="T" horiz-adv-x="552" 
d="M234 0v623h-223v77h530v-77h-223v-623h-84z" />
    <glyph glyph-name="U" unicode="U" horiz-adv-x="708" 
d="M83 249v451h85v-451q0 -55 23.5 -97.5t65.5 -66t96 -23.5q56 0 98 23.5t65.5 66t23.5 97.5v451h84v-451q0 -78 -34.5 -137.5t-96 -93t-142.5 -33.5q-79 0 -139.5 33.5t-94.5 93t-34 137.5z" />
    <glyph glyph-name="V" unicode="V" horiz-adv-x="693" 
d="M299 0l-289 700h88l248 -608l248 608h89l-290 -700h-94z" />
    <glyph glyph-name="W" unicode="W" horiz-adv-x="960" 
d="M223 0l-213 700h84l174 -575l170 575h84l166 -573l177 573h85l-217 -700h-91l-163 567l-166 -567h-90z" />
    <glyph glyph-name="X" unicode="X" horiz-adv-x="614" 
d="M10 0l250 356l-249 344h101l195 -277l196 277h100l-249 -344l250 -356h-102l-195 288l-195 -288h-102z" />
    <glyph glyph-name="Y" unicode="Y" horiz-adv-x="604" 
d="M260 0v293l-251 407h98l195 -322l196 322h97l-251 -407v-293h-84z" />
    <glyph glyph-name="Z" unicode="Z" horiz-adv-x="641" 
d="M47 0v78l441 545h-438v77h544v-77l-441 -545h438v-78h-544z" />
    <glyph glyph-name="bracketleft" unicode="[" horiz-adv-x="324" 
d="M93 -100v900h157v-75h-78v-750h78v-75h-157z" />
    <glyph glyph-name="backslash" unicode="\" horiz-adv-x="389" 
d="M374 -84h-85l-274 831h83z" />
    <glyph glyph-name="bracketright" unicode="]" horiz-adv-x="324" 
d="M230 -100h-157v75h79v750h-79v75h157v-900z" />
    <glyph glyph-name="asciicircum" unicode="^" horiz-adv-x="551" 
d="M78 373l155 327h82l157 -327h-77l-121 244l-118 -244h-78z" />
    <glyph glyph-name="underscore" unicode="_" horiz-adv-x="438" 
d="M19 -72v72h400v-72h-400z" />
    <glyph glyph-name="grave" unicode="`" horiz-adv-x="221" 
d="M222 571h-92l-130 130h103z" />
    <glyph glyph-name="a" unicode="a" horiz-adv-x="511" 
d="M231 -12q-89 0 -138.5 40.5t-49.5 112.5q0 75 50.5 116t141.5 41h138q-7 72 -35.5 107.5t-89.5 35.5q-88 0 -127 -70l-70 28q29 52 78 82.5t120 30.5q205 0 205 -242v-270h-70l-2 56q-25 -32 -63 -50t-88 -18zM233 57q67 0 105.5 43.5t38.5 111.5v0l-1 21h-124
q-70 0 -100 -24t-30 -67q0 -40 29 -62.5t82 -22.5z" />
    <glyph glyph-name="b" unicode="b" horiz-adv-x="586" 
d="M70 0v700h80v-284q27 45 70.5 70.5t98.5 25.5q67 0 118 -33t79.5 -92t28.5 -137q0 -77 -28.5 -136.5t-79.5 -92.5t-118 -33q-55 0 -98.5 25.5t-70.5 71.5l-4 -85h-76zM301 61q47 0 84 24t58 67t21 98q0 56 -21 98.5t-57.5 66.5t-83.5 24q-45 0 -79 -24t-53.5 -66.5
t-19.5 -98.5q0 -55 19.5 -98t53.5 -67t78 -24z" />
    <glyph glyph-name="c" unicode="c" horiz-adv-x="541" 
d="M293 -12q-74 0 -131 33.5t-89 92.5t-32 136t32 136t88.5 92.5t129.5 33.5q72 0 129 -33.5t87 -92.5l-72 -32q-21 39 -59.5 61.5t-86.5 22.5q-49 0 -87 -24t-59 -66.5t-21 -97.5t21.5 -97.5t60 -66.5t87.5 -24t87.5 25t58.5 70l73 -33q-30 -64 -87 -100t-130 -36z" />
    <glyph glyph-name="d" unicode="d" horiz-adv-x="586" 
d="M267 -12q-67 0 -118 33t-79.5 92.5t-28.5 136.5q0 78 28.5 137t79.5 92t118 33q55 0 98 -25.5t71 -70.5v284h80v-700h-76l-4 85q-27 -46 -70.5 -71.5t-98.5 -25.5zM285 61q64 0 106 50t45 130v18q-3 80 -45 130t-107 50q-48 0 -84 -24t-57 -66.5t-21 -98.5q0 -55 21 -98
t57.5 -67t84.5 -24z" />
    <glyph glyph-name="e" unicode="e" horiz-adv-x="550" 
d="M291 -12q-72 0 -128 33.5t-88 92.5t-32 136t31.5 136t87 92.5t127.5 33.5q69 0 120.5 -34.5t79.5 -96.5t28 -145h-393q4 -80 51.5 -128t119.5 -48q53 0 89 25.5t57 66.5l69 -36q-30 -57 -85.5 -92.5t-133.5 -35.5zM288 442q-62 0 -104 -37.5t-55 -101.5h303
q-11 65 -48 102t-96 37z" />
    <glyph glyph-name="f" unicode="f" horiz-adv-x="369" 
d="M120 0v431h-92v69h92v57q0 157 148 157q20 0 44.5 -7t53.5 -20l-30 -63q-47 19 -66 19q-70 0 -70 -92v-51h145v-69h-145v-431h-80z" />
    <glyph glyph-name="g" unicode="g" horiz-adv-x="574" 
d="M267 4q-67 0 -118 32t-79.5 89t-28.5 132q0 76 28.5 133.5t79.5 89.5t118 32q55 0 99 -25.5t71 -71.5v85h80v-452q0 -86 -32.5 -144t-88 -87t-126.5 -29q-49 0 -88 9.5t-66.5 21t-39.5 19.5l30 65q19 -11 63 -27t100 -16q73 0 120.5 44.5t47.5 142.5v53
q-27 -45 -71 -70.5t-99 -25.5zM286 73q44 0 78 24t53 65.5t19 96.5q0 53 -19.5 94.5t-53 65t-78.5 23.5q-47 0 -83.5 -23.5t-57 -65t-20.5 -94.5q0 -55 21 -96.5t57.5 -65.5t83.5 -24z" />
    <glyph glyph-name="h" unicode="h" 
d="M70 0v713h80v-286q51 85 157 85q90 0 142.5 -56t52.5 -170v-286h-80v256q0 74 -17.5 113t-47.5 53.5t-68 14.5q-66 0 -102.5 -47t-36.5 -131v0v-259h-80z" />
    <glyph glyph-name="i" unicode="i" horiz-adv-x="232" 
d="M75 0l2 500h80l-2 -500h-80zM116 616q-21 0 -35.5 15t-14.5 35q0 21 14.5 35.5t35.5 14.5t35.5 -14.5t14.5 -35.5q0 -20 -14.5 -35t-35.5 -15z" />
    <glyph glyph-name="j" unicode="j" horiz-adv-x="269" 
d="M152 617q-21 0 -35.5 15t-14.5 36q0 20 14.5 35t35.5 15t36 -15t15 -35q0 -21 -15 -36t-36 -15zM41 -215q-37 0 -94 26l30 67q49 -19 67 -19q68 0 68 87v554h80v-556q0 -159 -151 -159z" />
    <glyph glyph-name="k" unicode="k" horiz-adv-x="485" 
d="M70 0v700h80v-427l214 227h100l-187 -201l207 -299h-99l-161 243l-74 -80v-163h-80z" />
    <glyph glyph-name="l" unicode="l" horiz-adv-x="222" 
d="M70 0l2 700h80l-2 -700h-80z" />
    <glyph glyph-name="m" unicode="m" horiz-adv-x="909" 
d="M70 0v500h75l4 -74q51 86 157 86q66 0 112 -29t67 -88q23 56 66.5 86.5t106.5 30.5q90 0 142.5 -56t52.5 -170v-286h-80v256q0 74 -17.5 113t-47.5 53.5t-68 14.5q-66 0 -102.5 -47t-36.5 -131v-259h-80v256q0 74 -17.5 113t-47.5 53.5t-67 14.5q-66 0 -102.5 -47
t-36.5 -131v-259h-80z" />
    <glyph glyph-name="n" unicode="n" 
d="M70 0v500h75l4 -74q51 86 157 86q91 0 143.5 -56t51.5 -170v-286h-80v256q0 74 -17.5 113t-47.5 53.5t-67 14.5q-66 0 -102.5 -47t-36.5 -131v-259h-80z" />
    <glyph glyph-name="o" unicode="o" horiz-adv-x="585" 
d="M294 -12q-73 0 -130 33.5t-89 92.5t-32 136t32 136t88 92.5t129 33.5t129.5 -33.5t88 -92.5t31.5 -136t-31.5 -136t-87.5 -92.5t-128 -33.5zM294 62q49 0 86.5 23.5t59 66.5t21.5 98q0 56 -22 98.5t-60 66.5t-87 24t-87 -24t-59.5 -66.5t-21.5 -98.5q0 -55 22 -98
t60 -66.5t88 -23.5z" />
    <glyph glyph-name="p" unicode="p" horiz-adv-x="591" 
d="M75 -200v700h75l5 -85q27 46 70.5 71.5t98.5 25.5q67 0 118 -33t79.5 -92t28.5 -137q0 -77 -28.5 -136.5t-79.5 -92.5t-118 -33q-55 0 -98.5 25.5t-70.5 70.5v-284h-80zM306 61q47 0 84 24t58 67t21 98q0 56 -21 98.5t-57.5 66.5t-83.5 24q-45 0 -79 -24t-53.5 -66.5
t-19.5 -98.5q0 -55 19.5 -98t53.5 -67t78 -24z" />
    <glyph glyph-name="q" unicode="q" horiz-adv-x="578" 
d="M267 -12q-67 0 -118 33t-79.5 92.5t-28.5 136.5q0 78 28.5 137t79.5 92t118 33q55 0 98.5 -25.5t70.5 -71.5l4 85h76v-700h-80v284q-28 -45 -71 -70.5t-98 -25.5zM285 61q44 0 78 24t53.5 67t19.5 98q0 56 -19.5 98.5t-53.5 66.5t-79 24q-48 0 -84 -24t-57 -66.5
t-21 -98.5q0 -55 21 -98t57.5 -67t84.5 -24z" />
    <glyph glyph-name="r" unicode="r" horiz-adv-x="338" 
d="M70 0v500h80v-89q30 47 77.5 69t99.5 22v-75q-45 0 -85.5 -14.5t-66 -48t-25.5 -89.5v-275h-80z" />
    <glyph glyph-name="s" unicode="s" horiz-adv-x="468" 
d="M245 -12q-83 0 -134.5 35.5t-69.5 83.5l69 28q16 -34 51 -55t76 -21q47 0 79.5 18.5t32.5 53.5q0 31 -24 50.5t-70 31.5l-48 13q-68 18 -106 54t-38 82q0 71 46.5 110.5t138.5 39.5q66 0 113.5 -28.5t65.5 -76.5l-68 -30q-13 34 -43 49t-75 15q-46 0 -72.5 -19.5
t-26.5 -54.5q0 -21 22 -39t65 -29l48 -12q74 -19 112.5 -61t38.5 -92q0 -68 -52 -107t-131 -39z" />
    <glyph glyph-name="t" unicode="t" horiz-adv-x="385" 
d="M268 -12q-73 0 -113 38t-40 107v296h-87v71h87v156h80v-156h150v-71h-150v-288q0 -38 20.5 -58.5t57.5 -20.5q12 0 23 3.5t31 17.5l31 -65q-26 -17 -47 -23.5t-43 -6.5z" />
    <glyph glyph-name="u" unicode="u" 
d="M137 244q0 -74 17.5 -113t47.5 -53.5t68 -14.5q65 0 101.5 47t36.5 132v258h80v-500h-75l-4 74q-51 -86 -157 -86q-91 0 -143.5 56t-51.5 170v286h80v-256z" />
    <glyph glyph-name="v" unicode="v" horiz-adv-x="520" 
d="M219 0l-210 500h83l168 -410l167 410h84l-209 -500h-83z" />
    <glyph glyph-name="w" unicode="w" horiz-adv-x="784" 
d="M180 0l-170 500h81l130 -390l132 390h80l129 -387l131 387h81l-170 -500h-80l-131 394l-132 -394h-81z" />
    <glyph glyph-name="x" unicode="x" horiz-adv-x="467" 
d="M6 0l184 259l-171 241h95l120 -177l120 177h95l-170 -242l182 -258h-96l-130 194l-132 -194h-97z" />
    <glyph glyph-name="y" unicode="y" horiz-adv-x="526" 
d="M115 -212q-19 0 -44 7.5t-53 19.5l30 67q23 -10 40 -15t28 -5q50 0 74 56l35 83l-216 499h85l170 -406l168 406h86l-240 -570q-19 -44 -39.5 -76t-49.5 -49t-74 -17z" />
    <glyph glyph-name="z" unicode="z" horiz-adv-x="492" 
d="M45 0v64l296 366h-296v70h399v-62l-297 -368h300v-70h-402z" />
    <glyph glyph-name="braceleft" unicode="{" horiz-adv-x="385" 
d="M327 -100q-51 0 -84.5 13t-52 45t-26 88t-7.5 142q0 52 -8.5 80.5t-29.5 39t-61 10.5v64q40 0 61 10.5t29.5 39t8.5 80.5q0 86 7.5 142t26 88t52 45t84.5 13v-71q-37 -1 -57 -19.5t-27.5 -65t-7.5 -131.5q0 -73 -16.5 -111t-60.5 -52q45 -14 61 -52t16 -111
q0 -85 8 -131.5t27.5 -65t56.5 -19.5v-71z" />
    <glyph glyph-name="bar" unicode="|" horiz-adv-x="258" 
d="M93 -220v1010h71v-1010h-71z" />
    <glyph glyph-name="braceright" unicode="}" horiz-adv-x="385" 
d="M58 -100v71q37 1 57 19.5t27.5 65t7.5 131.5q0 73 16.5 111t61.5 52q-45 14 -61.5 52t-16.5 111q0 85 -7.5 131.5t-27.5 65t-57 19.5v71q52 0 85 -13t52 -45t26.5 -88t7.5 -142q0 -52 8 -80.5t29.5 -39t60.5 -10.5v-64q-39 0 -60.5 -10.5t-29.5 -39t-8 -80.5
q0 -86 -7.5 -142t-26.5 -88t-52 -45t-85 -13z" />
    <glyph glyph-name="asciitilde" unicode="~" horiz-adv-x="567" 
d="M310 348q13 -16 31 -33t36 -17q27 0 42 20t21 53h69q-5 -63 -39.5 -106t-91.5 -43q-43 0 -70 17.5t-48 43.5q-22 26 -38 39t-32 13q-27 0 -42 -20t-21 -53h-69q2 41 19 75t45.5 54t66.5 20q39 0 69.5 -17t51.5 -46z" />
    <glyph glyph-name="uni00A0" unicode="&#xa0;" horiz-adv-x="247" 
 />
    <glyph glyph-name="exclamdown" unicode="&#xa1;" horiz-adv-x="294" 
d="M190 295l2 -497h-86l2 497h82zM149 512q22 0 38.5 -16.5t16.5 -38.5q0 -23 -16.5 -39.5t-38.5 -16.5q-23 0 -39.5 16.5t-16.5 39.5q0 22 16.5 38.5t39.5 16.5z" />
    <glyph glyph-name="cent" unicode="&#xa2;" horiz-adv-x="536" 
d="M258 0v100q-64 8 -113 43t-76.5 90.5t-27.5 126.5t27.5 127.5t77 91t113.5 41.5l1 80h60v-79q62 -7 111 -39.5t76 -85.5l-72 -32q-37 68 -115 81l-2 -371q83 13 119 93l73 -33q-27 -58 -77 -93.5t-115 -41.5v-99h-60zM122 360q0 -74 37.5 -124t98.5 -61l1 370
q-61 -10 -99 -60.5t-38 -124.5z" />
    <glyph glyph-name="sterling" unicode="&#xa3;" horiz-adv-x="576" 
d="M48 0v78h26q21 0 36 17.5t15 43.5v149h-77v72h77v152q0 60 26 105t72 70t106 25q88 0 144.5 -53t56.5 -151l-83 10q0 54 -33.5 87t-84.5 33q-53 0 -87 -35t-34 -91v-152h201v-72h-201v-135q0 -43 -19 -75h341v-78h-482z" />
    <glyph glyph-name="currency" unicode="&#xa4;" horiz-adv-x="555" 
d="M280 179q-53 0 -96 29l-58 -58l-49 49l58 58q-27 43 -27 93q0 51 29 93l-60 59l48 50l62 -61q42 26 93 26q48 0 89 -24l60 59l49 -50l-57 -55q32 -44 32 -97q0 -52 -30 -95l55 -56l-49 -49l-56 56q-42 -27 -93 -27zM280 249q44 0 70 27.5t26 73.5q0 44 -26 70.5t-70 26.5
t-69.5 -26.5t-25.5 -70.5q0 -46 25.5 -73.5t69.5 -27.5z" />
    <glyph glyph-name="yen" unicode="&#xa5;" horiz-adv-x="543" 
d="M90 189v59h139v46h-139v59h109l-190 357h94l168 -326l168 326h95l-191 -357h110v-59h-139v-46h139v-59h-139v-189h-85v189h-139z" />
    <glyph glyph-name="brokenbar" unicode="&#xa6;" horiz-adv-x="271" 
d="M100 350v440h71v-440h-71zM100 -220v440h71v-440h-71z" />
    <glyph glyph-name="section" unicode="&#xa7;" horiz-adv-x="570" 
d="M292 -90q-86 0 -138 36.5t-66 83.5l72 25q12 -32 44 -55.5t79 -23.5q57 0 89.5 23t32.5 60q0 34 -28.5 56t-75.5 33l-61 15q-56 14 -94.5 49t-38.5 94q0 91 71 130q-33 19 -54 48.5t-21 72.5q0 73 48.5 114t137.5 41q78 0 125 -35.5t63 -82.5l-71 -24q-13 34 -44.5 55
t-77.5 21q-49 0 -76.5 -23t-27.5 -62q0 -34 22 -52.5t58 -26.5l61 -15q76 -19 116.5 -61.5t40.5 -92.5q0 -41 -19.5 -74.5t-56.5 -53.5q38 -23 58.5 -55t20.5 -67q0 -65 -48 -109t-141 -44zM263 231l3 -1q12 -1 24 -1q52 0 81.5 22t29.5 58q0 27 -17.5 45.5t-48.5 31.5
q-27 10 -55 10q-45 0 -71 -23t-26 -62q0 -34 22 -52.5t58 -27.5z" />
    <glyph glyph-name="dieresis" unicode="&#xa8;" horiz-adv-x="439" 
d="M97 620q-20 0 -34 14t-14 34t14 34t34 14t34 -14t14 -34t-14 -34t-34 -14zM344 620q-20 0 -34 14t-14 34q0 19 14 33.5t34 14.5q19 0 33.5 -14.5t14.5 -33.5q0 -20 -14.5 -34t-33.5 -14z" />
    <glyph glyph-name="copyright" unicode="&#xa9;" horiz-adv-x="815" 
d="M408 -11q-76 0 -141.5 27.5t-115 77t-77.5 115t-28 141.5t28 141.5t77.5 115t115 77.5t141.5 28t141.5 -28t114.5 -77.5t77 -115t28 -141.5t-28 -141.5t-77 -115t-114.5 -77t-141.5 -27.5zM408 54q84 0 149.5 38t103 104.5t37.5 153.5t-37.5 154t-103 105t-149.5 38
t-150 -38t-103.5 -105t-37.5 -154q0 -86 37.5 -153t103.5 -105t150 -38zM406 152q-55 0 -97 25t-65.5 69.5t-23.5 103.5t23.5 103.5t65.5 69.5t96 25q49 0 92.5 -26t65.5 -67l12 -27l-61 -24l-13 22q-13 24 -39.5 39.5t-56.5 15.5q-51 0 -83.5 -36.5t-32.5 -94.5t32.5 -94.5
t84.5 -36.5q29 0 56.5 17.5t42.5 45.5l9 20l64 -24l-12 -25q-22 -45 -66.5 -73t-93.5 -28z" />
    <glyph glyph-name="ordfeminine" unicode="&#xaa;" horiz-adv-x="331" 
d="M140 393q-53 0 -82.5 24t-29.5 68q0 45 29.5 69t82.5 24h82q-4 34 -18.5 52.5t-48.5 18.5q-23 0 -37.5 -9t-24.5 -26l-63 22q20 34 51.5 52.5t74.5 18.5q66 0 101 -37.5t35 -105.5v-164h-64l-1 33q-31 -40 -87 -40zM151 446q33 0 52.5 21t19.5 56l1 1v7h-62
q-64 0 -64 -46q0 -39 53 -39z" />
    <glyph glyph-name="guillemotleft" unicode="&#xab;" horiz-adv-x="551" 
d="M242 298l155 202h97l-153 -202l153 -202h-97zM49 298l155 202h97l-153 -202l153 -202h-97z" />
    <glyph glyph-name="logicalnot" unicode="&#xac;" horiz-adv-x="510" 
d="M65 293v72h362v-175h-72v103h-290z" />
    <glyph glyph-name="uni00AD" unicode="&#xad;" horiz-adv-x="417" 
d="M58 261v73h300v-73h-300z" />
    <glyph glyph-name="registered" unicode="&#xae;" horiz-adv-x="623" 
d="M312 171q-57 0 -106 21t-86 58t-58 86t-21 105t21 105.5t58 86.5t86 58t106 21q56 0 105 -21t86 -58t58 -86.5t21 -105.5t-21 -105t-58 -86t-86 -58t-105 -21zM312 227q62 0 110 27t75 75.5t27 111.5q0 64 -27 112t-75 75.5t-110 27.5q-63 0 -111 -27.5t-75 -75.5
t-27 -112q0 -63 27 -111.5t75 -75.5t111 -27zM210 300v291l105 1q45 0 74 -26.5t29 -67.5q0 -28 -15.5 -50.5t-41.5 -32.5l69 -115h-59l-60 105h-49v-105h-52zM262 453h55q20 0 34 13t14 32q0 20 -14.5 33t-37.5 13h-51v-91z" />
    <glyph glyph-name="macron" unicode="&#xaf;" horiz-adv-x="300" 
d="M-3 575v73h306v-73h-306z" />
    <glyph glyph-name="degree" unicode="&#xb0;" horiz-adv-x="369" 
d="M184 442q-37 0 -68.5 19t-50 50.5t-18.5 69.5q0 37 18.5 67.5t50 48.5t68.5 18t68.5 -18t50.5 -48.5t19 -67.5q0 -38 -19 -69.5t-50.5 -50.5t-68.5 -19zM184 506q28 0 48 22.5t20 52.5q0 29 -20 49.5t-48 20.5q-27 0 -47 -20.5t-20 -49.5q0 -30 20 -52.5t47 -22.5z" />
    <glyph glyph-name="plusminus" unicode="&#xb1;" horiz-adv-x="600" 
d="M265 146v170h-192v70h192v171h71v-171h191v-70h-191v-170h-71zM73 5v63h454v-63h-454z" />
    <glyph glyph-name="uni00B2" unicode="&#xb2;" horiz-adv-x="361" 
d="M37 380v55q0 27 21.5 59t58.5 59l70 51q20 14 36 34.5t16 40.5q0 26 -18.5 44t-51.5 18q-30 0 -49 -17.5t-26 -39.5l-74 14q9 43 48.5 76t99.5 33q67 0 106.5 -35.5t39.5 -91.5q0 -38 -20.5 -67t-56.5 -57l-69 -50q-17 -13 -32 -29t-22 -32h205v-65h-282z" />
    <glyph glyph-name="uni00B3" unicode="&#xb3;" horiz-adv-x="354" 
d="M181 373q-54 0 -91 24t-48 60l65 22q11 -17 26.5 -30t42.5 -13q33 0 52.5 19t19.5 48q0 30 -24 48.5t-75 18.5h-22v61h22q91 0 91 57q0 23 -17.5 39.5t-47.5 16.5q-19 0 -37 -9.5t-29 -31.5l-64 22q14 39 51 60.5t82 21.5q57 0 96 -32t39 -80q0 -33 -18.5 -56.5
t-48.5 -37.5q34 -16 55 -43t21 -63q0 -38 -19.5 -65.5t-51.5 -42t-70 -14.5z" />
    <glyph glyph-name="acute" unicode="&#xb4;" horiz-adv-x="221" 
d="M2 571l117 129h103l-129 -129h-91z" />
    <glyph glyph-name="uni00B5" unicode="&#xb5;" 
d="M57 -200v700h80v-256q0 -74 17.5 -113t47.5 -53.5t68 -14.5q65 0 101.5 47t36.5 132v258h80v-500h-75l-4 70q-48 -82 -147 -82q-84 0 -129 62v-250h-76z" />
    <glyph glyph-name="paragraph" unicode="&#xb6;" horiz-adv-x="546" 
d="M331 -84h-73v341h-22q-62 0 -109 28t-74 78.5t-27 115.5t27 115t74 78t109 28h217v-784h-73v707h-49v-707z" />
    <glyph glyph-name="periodcentered" unicode="&#xb7;" horiz-adv-x="254" 
d="M127 270q-23 0 -39.5 16.5t-16.5 38.5q0 23 16.5 39.5t39.5 16.5q22 0 38.5 -16.5t16.5 -39.5q0 -22 -16.5 -38.5t-38.5 -16.5z" />
    <glyph glyph-name="cedilla" unicode="&#xb8;" horiz-adv-x="214" 
d="M106 -210q-20 0 -42.5 5t-52.5 22l19 48q15 -8 32 -14.5t32 -6.5q18 0 32.5 7t14.5 29q0 25 -18.5 37.5t-56.5 18.5l29 70l53 -12l-11 -26q37 -14 52.5 -37t15.5 -49q0 -40 -23 -66t-76 -26z" />
    <glyph glyph-name="uni00B9" unicode="&#xb9;" horiz-adv-x="282" 
d="M132 380v326q-22 -16 -44.5 -24.5t-45.5 -6.5v65q19 0 46.5 17.5t50.5 42.5v0h63l-1 -420h-69z" />
    <glyph glyph-name="ordmasculine" unicode="&#xba;" horiz-adv-x="365" 
d="M184 393q-69 0 -112.5 44t-43.5 113t43.5 113t110.5 44q68 0 111.5 -44t43.5 -113t-43 -113t-110 -44zM184 457q36 0 58.5 26t22.5 67t-23 67t-60 26q-36 0 -59 -26t-23 -67t23 -67t61 -26z" />
    <glyph glyph-name="guillemotright" unicode="&#xbb;" horiz-adv-x="551" 
d="M309 298l-155 -202h-96l153 202l-153 202h96zM502 298l-155 -202h-96l153 202l-153 202h96z" />
    <glyph glyph-name="onequarter" unicode="&#xbc;" horiz-adv-x="828" 
d="M132 280v326q-22 -16 -44.5 -24.5t-45.5 -6.5v65q19 0 46.5 17.5t50.5 42.5v0h63l-1 -420h-69zM591 700h81l-481 -700h-81zM661 0v88h-195v58l188 274v0v0h76v-269h77v-63h-77v-88h-69zM543 151h118v174z" />
    <glyph glyph-name="onehalf" unicode="&#xbd;" horiz-adv-x="860" 
d="M132 280v326q-22 -16 -44.5 -24.5t-45.5 -6.5v65q19 0 46.5 17.5t50.5 42.5v0h63l-1 -420h-69zM591 700h81l-481 -700h-81zM536 0v55q0 27 21.5 59t58.5 59l70 51q20 14 36 34.5t16 40.5q0 26 -18.5 44t-51.5 18q-30 0 -49 -17.5t-26 -39.5l-74 14q9 43 48.5 76t99.5 33
q67 0 106.5 -35.5t39.5 -91.5q0 -38 -20.5 -67t-56.5 -57l-69 -50q-17 -13 -32 -29t-22 -32h205v-65h-282z" />
    <glyph glyph-name="threequarters" unicode="&#xbe;" horiz-adv-x="901" 
d="M181 273q-54 0 -91 24t-48 60l65 22q11 -17 26.5 -30t42.5 -13q33 0 52.5 19t19.5 48q0 30 -24 48.5t-75 18.5h-22v61h22q91 0 91 57q0 23 -17.5 39.5t-47.5 16.5q-19 0 -37 -9.5t-29 -31.5l-64 22q14 39 51 60.5t82 21.5q57 0 96 -32t39 -80q0 -33 -18.5 -56.5
t-48.5 -37.5q34 -16 55 -43t21 -63q0 -38 -19.5 -65.5t-51.5 -42t-70 -14.5zM663 700h81l-481 -700h-81zM734 0v88h-195v58l188 274v0v0h76v-269h77v-63h-77v-88h-69zM616 151h118v174z" />
    <glyph glyph-name="questiondown" unicode="&#xbf;" horiz-adv-x="463" 
d="M299 311l1 -141v-37l-52 -2q-66 -1 -108 -37.5t-42 -99.5q0 -58 40 -95t102 -37q46 0 81 21t46 54l76 -24q-20 -56 -73 -91t-130 -35q-65 0 -115.5 26.5t-79 73t-29.5 107.5q1 57 26 101t70.5 70.5t104.5 31.5l1 114h81zM259 513q23 0 39 -16t16 -40t-16 -39.5t-39 -15.5
q-24 0 -40 15.5t-16 39.5t16 40t40 16z" />
    <glyph glyph-name="Agrave" unicode="&#xc0;" horiz-adv-x="677" 
d="M10 0l284 700h88l285 -700h-89l-80 200h-319l-80 -200h-89zM209 275h258l-129 321zM443 746h-92l-130 130h103z" />
    <glyph glyph-name="Aacute" unicode="&#xc1;" horiz-adv-x="677" 
d="M270 742l118 123h102l-128 -123h-92zM10 0l284 700h88l285 -700h-89l-80 200h-319l-80 -200h-89zM209 275h258l-129 321z" />
    <glyph glyph-name="Acircumflex" unicode="&#xc2;" horiz-adv-x="677" 
d="M10 0l284 700h88l285 -700h-89l-80 200h-319l-80 -200h-89zM209 275h258l-129 321zM167 758l121 129h99l121 -129h-88l-82 79l-83 -79h-88z" />
    <glyph glyph-name="Atilde" unicode="&#xc3;" horiz-adv-x="677" 
d="M10 0l284 700h88l285 -700h-89l-80 200h-319l-80 -200h-89zM209 275h258l-129 321zM421 741q-29 0 -47 10.5t-29.5 25t-21.5 25.5t-23 11q-16 0 -25 -8.5t-13 -29.5h-65q4 41 31 71.5t71 30.5q28 0 45 -11t29 -25t22.5 -25t25.5 -11q17 0 25 9.5t11 28.5h64
q-5 -40 -30.5 -71t-69.5 -31z" />
    <glyph glyph-name="Adieresis" unicode="&#xc4;" horiz-adv-x="677" 
d="M10 0l284 700h88l285 -700h-89l-80 200h-319l-80 -200h-89zM209 275h258l-129 321zM215 795q-20 0 -34 14t-14 34t14 34t34 14t34 -14t14 -34t-14 -34t-34 -14zM462 795q-20 0 -34 14t-14 34q0 19 14 33.5t34 14.5q19 0 33.5 -14.5t14.5 -33.5q0 -20 -14.5 -34t-33.5 -14
z" />
    <glyph glyph-name="Aring" unicode="&#xc5;" horiz-adv-x="677" 
d="M10 0l284 700h88l285 -700h-89l-80 200h-319l-80 -200h-89zM209 275h258l-129 321zM339 732q-40 0 -68.5 27t-28.5 65q0 39 28.5 66t68.5 27q39 0 67 -27t28 -66q0 -38 -28 -65t-67 -27zM339 786q36 0 36 38q0 39 -36 39q-37 0 -37 -39q0 -38 37 -38z" />
    <glyph glyph-name="AE" unicode="&#xc6;" horiz-adv-x="1001" 
d="M10 0l426 700h481v-77h-329v-226h300v-76h-300v-244h330v-77h-415v200h-278l-120 -200h-95zM270 275h233v348h-23z" />
    <glyph glyph-name="Ccedilla" unicode="&#xc7;" horiz-adv-x="721" 
d="M388 -12q-100 0 -177.5 46.5t-121 128t-43.5 187.5t43.5 187.5t120 128t176.5 46.5q62 0 120 -22.5t104 -63t71 -93.5l-73 -36q-20 40 -55 71.5t-78.5 49t-88.5 17.5q-75 0 -132.5 -36.5t-90 -100.5t-32.5 -148t33 -149t91 -101.5t134 -36.5q46 0 89.5 19t78 53t54.5 79
l74 -37q-26 -56 -72 -98.5t-104 -66.5t-121 -24zM357 -210q-20 0 -42.5 5t-52.5 22l19 48q15 -8 32 -14.5t32 -6.5q18 0 32.5 7t14.5 29q0 25 -18.5 37.5t-56.5 18.5l29 70l53 -12l-11 -26q37 -14 52.5 -37t15.5 -49q0 -40 -23 -66t-76 -26z" />
    <glyph glyph-name="Egrave" unicode="&#xc8;" horiz-adv-x="592" 
d="M93 0v700h414v-77h-329v-226h300v-76h-300v-244h331v-77h-416zM409 746h-92l-130 130h103z" />
    <glyph glyph-name="Eacute" unicode="&#xc9;" horiz-adv-x="592" 
d="M237 742l117 123h103l-129 -123h-91zM93 0v700h414v-77h-329v-226h300v-76h-300v-244h331v-77h-416z" />
    <glyph glyph-name="Ecircumflex" unicode="&#xca;" horiz-adv-x="592" 
d="M93 0v700h414v-77h-329v-226h300v-76h-300v-244h331v-77h-416zM133 758l121 129h99l121 -129h-88l-82 79l-83 -79h-88z" />
    <glyph glyph-name="Edieresis" unicode="&#xcb;" horiz-adv-x="592" 
d="M93 0v700h414v-77h-329v-226h300v-76h-300v-244h331v-77h-416zM182 795q-20 0 -34 14t-14 34t14 34t34 14t34 -14t14 -34t-14 -34t-34 -14zM429 795q-20 0 -34 14t-14 34q0 19 14 33.5t34 14.5q19 0 33.5 -14.5t14.5 -33.5q0 -20 -14.5 -34t-33.5 -14z" />
    <glyph glyph-name="Igrave" unicode="&#xcc;" horiz-adv-x="271" 
d="M93 0v700h85v-700h-85zM240 746h-92l-130 130h103z" />
    <glyph glyph-name="Iacute" unicode="&#xcd;" horiz-adv-x="271" 
d="M68 742l117 123h103l-129 -123h-91zM93 0v700h85v-700h-85z" />
    <glyph glyph-name="Icircumflex" unicode="&#xce;" horiz-adv-x="271" 
d="M93 0v700h85v-700h-85zM-36 758l121 129h99l121 -129h-88l-82 79l-83 -79h-88z" />
    <glyph glyph-name="Idieresis" unicode="&#xcf;" horiz-adv-x="275" 
d="M71 795q-20 0 -34 14t-14 34t14 34t34 14t34 -14t14 -34t-14 -34t-34 -14zM205 795q-20 0 -34 14t-14 34q0 19 14 33.5t34 14.5t34 -14.5t14 -33.5q0 -20 -14 -34t-34 -14zM93 0v700h85v-700h-85z" />
    <glyph glyph-name="Eth" unicode="&#xd0;" horiz-adv-x="751" 
d="M157 0v315h-84v69h84v316h213q98 0 173.5 -44.5t118.5 -123.5t43 -182q0 -102 -43 -181t-118.5 -124t-173.5 -45h-213zM392 315h-151v-237h129q70 0 126.5 36.5t90 98t33.5 137.5t-33.5 137.5t-90 98.5t-126.5 37h-129v-239h151v-69z" />
    <glyph glyph-name="Ntilde" unicode="&#xd1;" horiz-adv-x="774" 
d="M93 0v700h86l417 -563v563h85v-700h-85l-418 566v-566h-85zM464 738q-29 0 -47 10.5t-29.5 25t-21.5 25.5t-23 11q-16 0 -25 -8.5t-13 -29.5h-65q4 41 31 71.5t71 30.5q28 0 45 -11t29 -25t22.5 -25t25.5 -11q17 0 25 9.5t11 28.5h64q-5 -40 -30.5 -71t-69.5 -31z" />
    <glyph glyph-name="Ograve" unicode="&#xd2;" horiz-adv-x="776" 
d="M391 -12q-101 0 -179 46t-122 127.5t-44 188.5q0 106 43.5 188t120.5 128t178 46t178 -46.5t120.5 -128t43.5 -187.5q0 -107 -43.5 -188.5t-120 -127.5t-175.5 -46zM391 65q75 0 132 36.5t89.5 100.5t32.5 148q0 83 -33 147.5t-91 101t-133 36.5t-133 -36.5t-91 -101
t-33 -147.5q0 -84 33 -148t92 -100.5t135 -36.5zM493 746h-92l-130 130h103z" />
    <glyph glyph-name="Oacute" unicode="&#xd3;" horiz-adv-x="776" 
d="M318 742l122 123h107l-134 -123h-95zM391 -12q-101 0 -179 46t-122 127.5t-44 188.5q0 106 43.5 188t120.5 128t178 46t178 -46.5t120.5 -128t43.5 -187.5q0 -107 -43.5 -188.5t-120 -127.5t-175.5 -46zM391 65q75 0 132 36.5t89.5 100.5t32.5 148q0 83 -33 147.5
t-91 101t-133 36.5t-133 -36.5t-91 -101t-33 -147.5q0 -84 33 -148t92 -100.5t135 -36.5z" />
    <glyph glyph-name="Ocircumflex" unicode="&#xd4;" horiz-adv-x="776" 
d="M391 -12q-101 0 -179 46t-122 127.5t-44 188.5q0 106 43.5 188t120.5 128t178 46t178 -46.5t120.5 -128t43.5 -187.5q0 -107 -43.5 -188.5t-120 -127.5t-175.5 -46zM391 65q75 0 132 36.5t89.5 100.5t32.5 148q0 83 -33 147.5t-91 101t-133 36.5t-133 -36.5t-91 -101
t-33 -147.5q0 -84 33 -148t92 -100.5t135 -36.5zM216 758l121 129h99l121 -129h-88l-82 79l-83 -79h-88z" />
    <glyph glyph-name="Otilde" unicode="&#xd5;" horiz-adv-x="776" 
d="M391 -12q-101 0 -179 46t-122 127.5t-44 188.5q0 106 43.5 188t120.5 128t178 46t178 -46.5t120.5 -128t43.5 -187.5q0 -107 -43.5 -188.5t-120 -127.5t-175.5 -46zM391 65q75 0 132 36.5t89.5 100.5t32.5 148q0 83 -33 147.5t-91 101t-133 36.5t-133 -36.5t-91 -101
t-33 -147.5q0 -84 33 -148t92 -100.5t135 -36.5zM470 741q-29 0 -47 10.5t-29.5 25t-21.5 25.5t-23 11q-16 0 -25 -8.5t-13 -29.5h-65q4 41 31 71.5t71 30.5q28 0 45 -11t29 -25t22.5 -25t25.5 -11q17 0 25 9.5t11 28.5h64q-5 -40 -30.5 -71t-69.5 -31z" />
    <glyph glyph-name="Odieresis" unicode="&#xd6;" horiz-adv-x="776" 
d="M391 -12q-101 0 -179 46t-122 127.5t-44 188.5q0 106 43.5 188t120.5 128t178 46t178 -46.5t120.5 -128t43.5 -187.5q0 -107 -43.5 -188.5t-120 -127.5t-175.5 -46zM391 65q75 0 132 36.5t89.5 100.5t32.5 148q0 83 -33 147.5t-91 101t-133 36.5t-133 -36.5t-91 -101
t-33 -147.5q0 -84 33 -148t92 -100.5t135 -36.5zM265 795q-20 0 -34 14t-14 34t14 34t34 14t34 -14t14 -34t-14 -34t-34 -14zM512 795q-20 0 -34 14t-14 34q0 19 14 33.5t34 14.5q19 0 33.5 -14.5t14.5 -33.5q0 -20 -14.5 -34t-33.5 -14z" />
    <glyph glyph-name="multiply" unicode="&#xd7;" horiz-adv-x="571" 
d="M140 104l-48 49l144 145l-144 145l48 49l145 -145l145 145l49 -49l-145 -145l146 -145l-50 -49l-145 145z" />
    <glyph glyph-name="Oslash" unicode="&#xd8;" horiz-adv-x="795" 
d="M47 0l91 105q-40 47 -61.5 109t-21.5 136q0 106 43.5 188t120.5 128t178 46q61 0 114.5 -18t95.5 -51l50 57h91l-91 -105q39 -47 60.5 -109.5t21.5 -135.5q0 -107 -43.5 -188.5t-120 -127.5t-175.5 -46q-62 0 -116 18t-97 51l-50 -57h-90zM140 350q0 -54 14 -100t39 -82
l361 414q-32 25 -72 39t-85 14q-75 0 -133 -36.5t-91 -101t-33 -147.5zM400 65q74 0 131.5 36.5t90 100.5t32.5 148q0 53 -14 99t-39 82l-361 -412q33 -26 73 -40t87 -14z" />
    <glyph glyph-name="Ugrave" unicode="&#xd9;" horiz-adv-x="708" 
d="M83 249v451h85v-451q0 -55 23.5 -97.5t65.5 -66t96 -23.5q56 0 98 23.5t65.5 66t23.5 97.5v451h84v-451q0 -78 -34.5 -137.5t-96 -93t-142.5 -33.5q-79 0 -139.5 33.5t-94.5 93t-34 137.5zM459 746h-92l-130 130h103z" />
    <glyph glyph-name="Uacute" unicode="&#xda;" horiz-adv-x="708" 
d="M286 745l118 128h102l-128 -128h-92zM83 249v451h85v-451q0 -55 23.5 -97.5t65.5 -66t96 -23.5q56 0 98 23.5t65.5 66t23.5 97.5v451h84v-451q0 -78 -34.5 -137.5t-96 -93t-142.5 -33.5q-79 0 -139.5 33.5t-94.5 93t-34 137.5z" />
    <glyph glyph-name="Ucircumflex" unicode="&#xdb;" horiz-adv-x="708" 
d="M83 249v451h85v-451q0 -55 23.5 -97.5t65.5 -66t96 -23.5q56 0 98 23.5t65.5 66t23.5 97.5v451h84v-451q0 -78 -34.5 -137.5t-96 -93t-142.5 -33.5q-79 0 -139.5 33.5t-94.5 93t-34 137.5zM182 758l121 129h99l121 -129h-88l-82 79l-83 -79h-88z" />
    <glyph glyph-name="Udieresis" unicode="&#xdc;" horiz-adv-x="708" 
d="M83 249v451h85v-451q0 -55 23.5 -97.5t65.5 -66t96 -23.5q56 0 98 23.5t65.5 66t23.5 97.5v451h84v-451q0 -78 -34.5 -137.5t-96 -93t-142.5 -33.5q-79 0 -139.5 33.5t-94.5 93t-34 137.5zM231 795q-20 0 -34 14t-14 34t14 34t34 14t34 -14t14 -34t-14 -34t-34 -14z
M478 795q-20 0 -34 14t-14 34q0 19 14 33.5t34 14.5q19 0 33.5 -14.5t14.5 -33.5q0 -20 -14.5 -34t-33.5 -14z" />
    <glyph glyph-name="Yacute" unicode="&#xdd;" horiz-adv-x="604" 
d="M260 0v293l-251 407h98l195 -322l196 322h97l-251 -407v-293h-84zM234 741l117 129h103l-129 -129h-91z" />
    <glyph glyph-name="Thorn" unicode="&#xde;" horiz-adv-x="583" 
d="M95 1v700h85v-118l143 1q69 0 121 -28.5t82 -78.5t30 -116q0 -65 -27 -115t-74.5 -78.5t-108.5 -28.5h-166v-138h-85zM322 506h-142v-289h164q56 0 91.5 40t35.5 104t-42 105t-107 40z" />
    <glyph glyph-name="germandbls" unicode="&#xdf;" horiz-adv-x="559" 
d="M70 0v512q0 60 27.5 105t76 70t111.5 25q62 0 110 -24t75 -68t27 -103q0 -54 -21.5 -96t-61.5 -66q104 -48 104 -169q0 -88 -59 -137t-161 -49h-50v76h46q66 0 103.5 30.5t37.5 82.5q0 58 -37 90t-101 32h-45v86h6q90 0 123.5 32t33.5 89q0 53 -36.5 86.5t-93.5 33.5
q-58 0 -95 -35t-37 -91v-512h-83z" />
    <glyph glyph-name="agrave" unicode="&#xe0;" horiz-adv-x="509" 
d="M231 -12q-89 0 -138.5 40.5t-49.5 112.5q0 75 50.5 116t141.5 41h138q-7 72 -35.5 107.5t-89.5 35.5q-88 0 -127 -70l-70 28q29 52 78 82.5t120 30.5q205 0 205 -242v-270h-70l-2 56q-25 -32 -63 -50t-88 -18zM233 57q67 0 105.5 43.5t38.5 111.5v0l-1 21h-124
q-70 0 -100 -24t-30 -67q0 -40 29 -62.5t82 -22.5zM357 571h-92l-130 130h103z" />
    <glyph glyph-name="aacute" unicode="&#xe1;" horiz-adv-x="509" 
d="M231 -12q-89 0 -138.5 40.5t-49.5 112.5q0 75 50.5 116t141.5 41h138q-7 72 -35.5 107.5t-89.5 35.5q-88 0 -127 -70l-70 28q29 52 78 82.5t120 30.5q205 0 205 -242v-270h-70l-2 56q-25 -32 -63 -50t-88 -18zM233 57q67 0 105.5 43.5t38.5 111.5v0l-1 21h-124
q-70 0 -100 -24t-30 -67q0 -40 29 -62.5t82 -22.5zM184 571l117 129h103l-129 -129h-91z" />
    <glyph glyph-name="acircumflex" unicode="&#xe2;" horiz-adv-x="509" 
d="M231 -12q-89 0 -138.5 40.5t-49.5 112.5q0 75 50.5 116t141.5 41h138q-7 72 -35.5 107.5t-89.5 35.5q-88 0 -127 -70l-70 28q29 52 78 82.5t120 30.5q205 0 205 -242v-270h-70l-2 56q-25 -32 -63 -50t-88 -18zM233 57q67 0 105.5 43.5t38.5 111.5v0l-1 21h-124
q-70 0 -100 -24t-30 -67q0 -40 29 -62.5t82 -22.5zM80 583l121 129h99l121 -129h-88l-82 79l-83 -79h-88z" />
    <glyph glyph-name="atilde" unicode="&#xe3;" horiz-adv-x="509" 
d="M231 -12q-89 0 -138.5 40.5t-49.5 112.5q0 75 50.5 116t141.5 41h138q-7 72 -35.5 107.5t-89.5 35.5q-88 0 -127 -70l-70 28q29 52 78 82.5t120 30.5q205 0 205 -242v-270h-70l-2 56q-25 -32 -63 -50t-88 -18zM233 57q67 0 105.5 43.5t38.5 111.5v0l-1 21h-124
q-70 0 -100 -24t-30 -67q0 -40 29 -62.5t82 -22.5zM334 566q-29 0 -47 10.5t-29.5 25t-21.5 25.5t-23 11q-16 0 -25 -8.5t-13 -29.5h-65q4 41 31 71.5t71 30.5q28 0 45 -11t29 -25t22.5 -25t25.5 -11q17 0 25 9.5t11 28.5h64q-5 -40 -30.5 -71t-69.5 -31z" />
    <glyph glyph-name="adieresis" unicode="&#xe4;" horiz-adv-x="509" 
d="M231 -12q-89 0 -138.5 40.5t-49.5 112.5q0 75 50.5 116t141.5 41h138q-7 72 -35.5 107.5t-89.5 35.5q-88 0 -127 -70l-70 28q29 52 78 82.5t120 30.5q205 0 205 -242v-270h-70l-2 56q-25 -32 -63 -50t-88 -18zM233 57q67 0 105.5 43.5t38.5 111.5v0l-1 21h-124
q-70 0 -100 -24t-30 -67q0 -40 29 -62.5t82 -22.5zM129 620q-20 0 -34 14t-14 34t14 34t34 14t34 -14t14 -34t-14 -34t-34 -14zM376 620q-20 0 -34 14t-14 34q0 19 14 33.5t34 14.5q19 0 33.5 -14.5t14.5 -33.5q0 -20 -14.5 -34t-33.5 -14z" />
    <glyph glyph-name="aring" unicode="&#xe5;" horiz-adv-x="509" 
d="M231 -12q-89 0 -138.5 40.5t-49.5 112.5q0 75 50.5 116t141.5 41h138q-7 72 -35.5 107.5t-89.5 35.5q-88 0 -127 -70l-70 28q29 52 78 82.5t120 30.5q205 0 205 -242v-270h-70l-2 56q-25 -32 -63 -50t-88 -18zM233 57q67 0 105.5 43.5t38.5 111.5v0l-1 21h-124
q-70 0 -100 -24t-30 -67q0 -40 29 -62.5t82 -22.5zM252 557q-40 0 -68.5 27t-28.5 65q0 39 28.5 66t68.5 27q39 0 67 -27t28 -66q0 -38 -28 -65t-67 -27zM252 611q36 0 36 38q0 39 -36 39q-37 0 -37 -39q0 -38 37 -38z" />
    <glyph glyph-name="ae" unicode="&#xe6;" horiz-adv-x="890" 
d="M238 -12q-93 0 -145 40.5t-52 112.5q0 74 52 115t145 41h142q-10 71 -40.5 107.5t-92.5 36.5q-76 0 -139 -63l-47 51q74 83 188 83q136 0 185 -99q33 46 84 72.5t114 26.5q69 0 120.5 -34.5t79.5 -96.5t28 -145h-393q4 -80 51.5 -128t119.5 -48q53 0 89 25.5t57 66.5
l69 -36q-30 -57 -85.5 -92.5t-133.5 -35.5q-69 0 -123.5 31t-86.5 84q-23 -54 -70.5 -84.5t-115.5 -30.5zM631 442q-62 0 -104 -37.5t-55 -101.5h303q-11 65 -48 102t-96 37zM241 54q67 0 105 43t38 114h1l-1 24h-128q-71 0 -102.5 -24.5t-31.5 -68.5q0 -41 31 -64.5
t88 -23.5z" />
    <glyph glyph-name="ccedilla" unicode="&#xe7;" horiz-adv-x="541" 
d="M293 -12q-74 0 -131 33.5t-89 92.5t-32 136t32 136t88.5 92.5t129.5 33.5q72 0 129 -33.5t87 -92.5l-72 -32q-21 39 -59.5 61.5t-86.5 22.5q-49 0 -87 -24t-59 -66.5t-21 -97.5t21.5 -97.5t60 -66.5t87.5 -24t87.5 25t58.5 70l73 -33q-30 -64 -87 -100t-130 -36z
M262 -210q-20 0 -42.5 5t-52.5 22l19 48q15 -8 32 -14.5t32 -6.5q18 0 32.5 7t14.5 29q0 25 -18.5 37.5t-56.5 18.5l29 70l53 -12l-11 -26q37 -14 52.5 -37t15.5 -49q0 -40 -23 -66t-76 -26z" />
    <glyph glyph-name="egrave" unicode="&#xe8;" horiz-adv-x="547" 
d="M291 -12q-72 0 -128 33.5t-88 92.5t-32 136t31.5 136t87 92.5t127.5 33.5q69 0 120.5 -34.5t79.5 -96.5t28 -145h-393q4 -80 51.5 -128t119.5 -48q53 0 89 25.5t57 66.5l69 -36q-30 -57 -85.5 -92.5t-133.5 -35.5zM288 442q-62 0 -104 -37.5t-55 -101.5h303
q-11 65 -48 102t-96 37zM392 571h-92l-130 130h103z" />
    <glyph glyph-name="eacute" unicode="&#xe9;" horiz-adv-x="547" 
d="M291 -12q-72 0 -128 33.5t-88 92.5t-32 136t31.5 136t87 92.5t127.5 33.5q69 0 120.5 -34.5t79.5 -96.5t28 -145h-393q4 -80 51.5 -128t119.5 -48q53 0 89 25.5t57 66.5l69 -36q-30 -57 -85.5 -92.5t-133.5 -35.5zM288 442q-62 0 -104 -37.5t-55 -101.5h303
q-11 65 -48 102t-96 37zM220 571l117 129h103l-129 -129h-91z" />
    <glyph glyph-name="ecircumflex" unicode="&#xea;" horiz-adv-x="547" 
d="M291 -12q-72 0 -128 33.5t-88 92.5t-32 136t31.5 136t87 92.5t127.5 33.5q69 0 120.5 -34.5t79.5 -96.5t28 -145h-393q4 -80 51.5 -128t119.5 -48q53 0 89 25.5t57 66.5l69 -36q-30 -57 -85.5 -92.5t-133.5 -35.5zM288 442q-62 0 -104 -37.5t-55 -101.5h303
q-11 65 -48 102t-96 37zM116 583l121 129h99l121 -129h-88l-82 79l-83 -79h-88z" />
    <glyph glyph-name="edieresis" unicode="&#xeb;" horiz-adv-x="547" 
d="M291 -12q-72 0 -128 33.5t-88 92.5t-32 136t31.5 136t87 92.5t127.5 33.5q69 0 120.5 -34.5t79.5 -96.5t28 -145h-393q4 -80 51.5 -128t119.5 -48q53 0 89 25.5t57 66.5l69 -36q-30 -57 -85.5 -92.5t-133.5 -35.5zM288 442q-62 0 -104 -37.5t-55 -101.5h303
q-11 65 -48 102t-96 37zM164 620q-20 0 -34 14t-14 34t14 34t34 14t34 -14t14 -34t-14 -34t-34 -14zM411 620q-20 0 -34 14t-14 34q0 19 14 33.5t34 14.5q19 0 33.5 -14.5t14.5 -33.5q0 -20 -14.5 -34t-33.5 -14z" />
    <glyph glyph-name="igrave" unicode="&#xec;" horiz-adv-x="232" 
d="M75 0l2 500h80l-2 -500h-80zM220 571h-92l-130 130h103z" />
    <glyph glyph-name="iacute" unicode="&#xed;" horiz-adv-x="232" 
d="M75 0l2 500h80l-2 -500h-80zM48 571l117 129h103l-129 -129h-91z" />
    <glyph glyph-name="icircumflex" unicode="&#xee;" horiz-adv-x="232" 
d="M75 0l2 500h80l-2 -500h-80zM-56 583l121 129h99l121 -129h-88l-82 79l-83 -79h-88z" />
    <glyph glyph-name="idieresis" unicode="&#xef;" horiz-adv-x="232" 
d="M49 620q-20 0 -34 14t-14 34t14 34t34 14t34 -14t14 -34t-14 -34t-34 -14zM183 620q-19 0 -33.5 14t-14.5 34q0 19 14.5 33.5t33.5 14.5q20 0 34 -14.5t14 -33.5q0 -20 -14 -34t-34 -14zM75 0l2 500h80l-2 -500h-80z" />
    <glyph glyph-name="eth" unicode="&#xf0;" horiz-adv-x="600" 
d="M41 250q0 77 31 136t86 92.5t127 33.5q46 0 87 -15.5t72 -42.5q-17 75 -49 126l-48 -35l-35 46l46 34q-27 26 -61 40l36 67q49 -21 88 -60l56 42l36 -47l-56 -41q43 -66 63.5 -161.5t18.5 -213.5v-1q0 -77 -32 -136t-87.5 -92.5t-128.5 -33.5t-129.5 33.5t-88.5 92.5
t-32 136zM122 250q0 -55 21.5 -98t60 -66.5t87.5 -23.5t86.5 23.5t59 66.5t21.5 98q0 56 -21.5 98.5t-59.5 66.5t-88 24q-49 0 -86.5 -24t-59 -66.5t-21.5 -98.5z" />
    <glyph glyph-name="ntilde" unicode="&#xf1;" 
d="M70 0v500h75l4 -74q51 86 157 86q91 0 143.5 -56t51.5 -170v-286h-80v256q0 74 -17.5 113t-47.5 53.5t-67 14.5q-66 0 -102.5 -47t-36.5 -131v-259h-80zM360 566q-29 0 -47 10.5t-29.5 25t-21.5 25.5t-23 11q-16 0 -25 -8.5t-13 -29.5h-65q4 41 31 71.5t71 30.5
q28 0 45 -11t29 -25t22.5 -25t25.5 -11q17 0 25 9.5t11 28.5h64q-5 -40 -30.5 -71t-69.5 -31z" />
    <glyph glyph-name="ograve" unicode="&#xf2;" horiz-adv-x="580" 
d="M294 -12q-73 0 -130 33.5t-89 92.5t-32 136t32 136t88 92.5t129 33.5t129.5 -33.5t88 -92.5t31.5 -136t-31.5 -136t-87.5 -92.5t-128 -33.5zM294 62q49 0 86.5 23.5t59 66.5t21.5 98q0 56 -22 98.5t-60 66.5t-87 24t-87 -24t-59.5 -66.5t-21.5 -98.5q0 -55 22 -98
t60 -66.5t88 -23.5zM394 571h-92l-130 130h103z" />
    <glyph glyph-name="oacute" unicode="&#xf3;" horiz-adv-x="580" 
d="M294 -12q-73 0 -130 33.5t-89 92.5t-32 136t32 136t88 92.5t129 33.5t129.5 -33.5t88 -92.5t31.5 -136t-31.5 -136t-87.5 -92.5t-128 -33.5zM294 62q49 0 86.5 23.5t59 66.5t21.5 98q0 56 -22 98.5t-60 66.5t-87 24t-87 -24t-59.5 -66.5t-21.5 -98.5q0 -55 22 -98
t60 -66.5t88 -23.5zM222 571l117 129h103l-129 -129h-91z" />
    <glyph glyph-name="ocircumflex" unicode="&#xf4;" horiz-adv-x="580" 
d="M294 -12q-73 0 -130 33.5t-89 92.5t-32 136t32 136t88 92.5t129 33.5t129.5 -33.5t88 -92.5t31.5 -136t-31.5 -136t-87.5 -92.5t-128 -33.5zM294 62q49 0 86.5 23.5t59 66.5t21.5 98q0 56 -22 98.5t-60 66.5t-87 24t-87 -24t-59.5 -66.5t-21.5 -98.5q0 -55 22 -98
t60 -66.5t88 -23.5zM118 583l121 129h99l121 -129h-88l-82 79l-83 -79h-88z" />
    <glyph glyph-name="otilde" unicode="&#xf5;" horiz-adv-x="580" 
d="M294 -12q-73 0 -130 33.5t-89 92.5t-32 136t32 136t88 92.5t129 33.5t129.5 -33.5t88 -92.5t31.5 -136t-31.5 -136t-87.5 -92.5t-128 -33.5zM294 62q49 0 86.5 23.5t59 66.5t21.5 98q0 56 -22 98.5t-60 66.5t-87 24t-87 -24t-59.5 -66.5t-21.5 -98.5q0 -55 22 -98
t60 -66.5t88 -23.5zM372 566q-29 0 -47 10.5t-29.5 25t-21.5 25.5t-23 11q-16 0 -25 -8.5t-13 -29.5h-65q4 41 31 71.5t71 30.5q28 0 45 -11t29 -25t22.5 -25t25.5 -11q17 0 25 9.5t11 28.5h64q-5 -40 -30.5 -71t-69.5 -31z" />
    <glyph glyph-name="odieresis" unicode="&#xf6;" horiz-adv-x="580" 
d="M294 -12q-73 0 -130 33.5t-89 92.5t-32 136t32 136t88 92.5t129 33.5t129.5 -33.5t88 -92.5t31.5 -136t-31.5 -136t-87.5 -92.5t-128 -33.5zM294 62q49 0 86.5 23.5t59 66.5t21.5 98q0 56 -22 98.5t-60 66.5t-87 24t-87 -24t-59.5 -66.5t-21.5 -98.5q0 -55 22 -98
t60 -66.5t88 -23.5zM166 620q-20 0 -34 14t-14 34t14 34t34 14t34 -14t14 -34t-14 -34t-34 -14zM413 620q-20 0 -34 14t-14 34q0 19 14 33.5t34 14.5q19 0 33.5 -14.5t14.5 -33.5q0 -20 -14.5 -34t-33.5 -14z" />
    <glyph glyph-name="divide" unicode="&#xf7;" horiz-adv-x="515" 
d="M258 405q-19 0 -32.5 13.5t-13.5 31.5q0 19 13.5 32.5t32.5 13.5q18 0 31.5 -13.5t13.5 -32.5q0 -18 -13.5 -31.5t-31.5 -13.5zM73 262v71h369v-71h-369zM258 99q-19 0 -32.5 13.5t-13.5 32.5q0 18 13.5 31.5t32.5 13.5q18 0 31.5 -13.5t13.5 -31.5q0 -19 -13.5 -32.5
t-31.5 -13.5z" />
    <glyph glyph-name="oslash" unicode="&#xf8;" horiz-adv-x="579" 
d="M28 0l69 79q-27 33 -41 76.5t-14 94.5q0 77 31.5 136t87.5 92.5t129 33.5q43 0 80 -11.5t67 -33.5l29 33h85l-68 -77q27 -34 42 -77.5t15 -95.5q0 -77 -32 -136t-88 -92.5t-128 -33.5q-43 0 -81 12t-69 35l-30 -35h-84zM123 250q0 -63 28 -110l235 269q-42 30 -96 30
q-49 0 -87 -24t-59 -67t-21 -98zM292 62q49 0 86.5 23.5t59 66.5t21.5 98q0 64 -29 112l-236 -269q42 -31 98 -31z" />
    <glyph glyph-name="ugrave" unicode="&#xf9;" 
d="M137 244q0 -74 17.5 -113t47.5 -53.5t68 -14.5q65 0 101.5 47t36.5 132v258h80v-500h-75l-4 74q-51 -86 -157 -86q-91 0 -143.5 56t-51.5 170v286h80v-256zM383 571h-92l-130 130h103z" />
    <glyph glyph-name="uacute" unicode="&#xfa;" 
d="M137 244q0 -74 17.5 -113t47.5 -53.5t68 -14.5q65 0 101.5 47t36.5 132v258h80v-500h-75l-4 74q-51 -86 -157 -86q-91 0 -143.5 56t-51.5 170v286h80v-256zM211 571l117 129h103l-129 -129h-91z" />
    <glyph glyph-name="ucircumflex" unicode="&#xfb;" 
d="M137 244q0 -74 17.5 -113t47.5 -53.5t68 -14.5q65 0 101.5 47t36.5 132v258h80v-500h-75l-4 74q-51 -86 -157 -86q-91 0 -143.5 56t-51.5 170v286h80v-256zM107 583l121 129h99l121 -129h-88l-82 79l-83 -79h-88z" />
    <glyph glyph-name="udieresis" unicode="&#xfc;" 
d="M137 244q0 -74 17.5 -113t47.5 -53.5t68 -14.5q65 0 101.5 47t36.5 132v258h80v-500h-75l-4 74q-51 -86 -157 -86q-91 0 -143.5 56t-51.5 170v286h80v-256zM155 620q-20 0 -34 14t-14 34t14 34t34 14t34 -14t14 -34t-14 -34t-34 -14zM402 620q-20 0 -34 14t-14 34
q0 19 14 33.5t34 14.5q19 0 33.5 -14.5t14.5 -33.5q0 -20 -14.5 -34t-33.5 -14z" />
    <glyph glyph-name="yacute" unicode="&#xfd;" horiz-adv-x="526" 
d="M115 -212q-19 0 -44 7.5t-53 19.5l30 67q23 -10 40 -15t28 -5q50 0 74 56l35 83l-216 499h85l170 -406l168 406h86l-240 -570q-19 -44 -39.5 -76t-49.5 -49t-74 -17zM195 571l117 129h103l-129 -129h-91z" />
    <glyph glyph-name="thorn" unicode="&#xfe;" horiz-adv-x="585" 
d="M72 -200v900h80v-284q27 45 70.5 70.5t98.5 25.5q67 0 117.5 -33t79.5 -92t29 -137q0 -77 -29 -136.5t-79.5 -92.5t-117.5 -33q-55 0 -98.5 25.5t-70.5 70.5v-284h-80zM303 61q47 0 83.5 24t57.5 67t21 98q0 56 -20.5 98.5t-57 66.5t-83.5 24q-45 0 -79.5 -24
t-53.5 -66.5t-19 -98.5q0 -55 19 -98t53.5 -67t78.5 -24z" />
    <glyph glyph-name="ydieresis" unicode="&#xff;" horiz-adv-x="526" 
d="M115 -212q-19 0 -44 7.5t-53 19.5l30 67q23 -10 40 -15t28 -5q50 0 74 56l35 83l-216 499h85l170 -406l168 406h86l-240 -570q-19 -44 -39.5 -76t-49.5 -49t-74 -17zM140 620q-20 0 -34 14t-14 34t14 34t34 14t34 -14t14 -34t-14 -34t-34 -14zM387 620q-20 0 -34 14
t-14 34q0 19 14 33.5t34 14.5q19 0 33.5 -14.5t14.5 -33.5q0 -20 -14.5 -34t-33.5 -14z" />
    <glyph glyph-name="Amacron" unicode="&#x100;" horiz-adv-x="677" 
d="M10 0l284 700h88l285 -700h-89l-80 200h-319l-80 -200h-89zM209 275h258l-129 321zM185 750v73h306v-73h-306z" />
    <glyph glyph-name="amacron" unicode="&#x101;" horiz-adv-x="509" 
d="M231 -12q-89 0 -138.5 40.5t-49.5 112.5q0 75 50.5 116t141.5 41h138q-7 72 -35.5 107.5t-89.5 35.5q-88 0 -127 -70l-70 28q29 52 78 82.5t120 30.5q205 0 205 -242v-270h-70l-2 56q-25 -32 -63 -50t-88 -18zM233 57q67 0 105.5 43.5t38.5 111.5v0l-1 21h-124
q-70 0 -100 -24t-30 -67q0 -40 29 -62.5t82 -22.5zM99 575v73h306v-73h-306z" />
    <glyph glyph-name="Abreve" unicode="&#x102;" horiz-adv-x="677" 
d="M10 0l284 700h88l285 -700h-89l-80 200h-319l-80 -200h-89zM209 275h258l-129 321zM430 875h77q0 -60 -47 -97.5t-121 -37.5q-75 0 -122.5 37.5t-47.5 97.5h77q0 -31 26 -51t67 -20q40 0 65.5 20t25.5 51z" />
    <glyph glyph-name="abreve" unicode="&#x103;" horiz-adv-x="509" 
d="M231 -12q-89 0 -138.5 40.5t-49.5 112.5q0 75 50.5 116t141.5 41h138q-7 72 -35.5 107.5t-89.5 35.5q-88 0 -127 -70l-70 28q29 52 78 82.5t120 30.5q205 0 205 -242v-270h-70l-2 56q-25 -32 -63 -50t-88 -18zM233 57q67 0 105.5 43.5t38.5 111.5v0l-1 21h-124
q-70 0 -100 -24t-30 -67q0 -40 29 -62.5t82 -22.5zM344 700h77q0 -60 -47 -97.5t-121 -37.5q-75 0 -122.5 37.5t-47.5 97.5h77q0 -31 26 -51t67 -20q40 0 65.5 20t25.5 51z" />
    <glyph glyph-name="Aogonek" unicode="&#x104;" horiz-adv-x="677" 
d="M10 0l284 700h88l285 -700h-89l-80 200h-319l-80 -200h-89zM209 275h258l-129 321zM619 -212q-52 0 -83 24t-31 70q0 36 29.5 68.5t68.5 59.5l64 -10q-34 -25 -61.5 -53.5t-27.5 -62.5q0 -31 36 -31q17 0 30.5 4t18.5 7l25 -57q-28 -19 -69 -19z" />
    <glyph glyph-name="aogonek" unicode="&#x105;" horiz-adv-x="509" 
d="M231 -12q-89 0 -138.5 40.5t-49.5 112.5q0 75 50.5 116t141.5 41h138q-7 72 -35.5 107.5t-89.5 35.5q-88 0 -127 -70l-70 28q29 52 78 82.5t120 30.5q205 0 205 -242v-270h-70l-2 56q-25 -32 -63 -50t-88 -18zM233 57q67 0 105.5 43.5t38.5 111.5v0l-1 21h-124
q-70 0 -100 -24t-30 -67q0 -40 29 -62.5t82 -22.5zM404 -212q-52 0 -83 24t-31 70q0 36 29.5 68.5t68.5 59.5l64 -10q-34 -25 -61.5 -53.5t-27.5 -62.5q0 -31 36 -31q17 0 30.5 4t18.5 7l25 -57q-28 -19 -69 -19z" />
    <glyph glyph-name="Cacute" unicode="&#x106;" horiz-adv-x="721" 
d="M388 -12q-100 0 -177.5 46.5t-121 128t-43.5 187.5t43.5 187.5t120 128t176.5 46.5q62 0 120 -22.5t104 -63t71 -93.5l-73 -36q-20 40 -55 71.5t-78.5 49t-88.5 17.5q-75 0 -132.5 -36.5t-90 -100.5t-32.5 -148t33 -149t91 -101.5t134 -36.5q46 0 89.5 19t78 53t54.5 79
l74 -37q-26 -56 -72 -98.5t-104 -66.5t-121 -24zM318 746l117 129h103l-129 -129h-91z" />
    <glyph glyph-name="cacute" unicode="&#x107;" horiz-adv-x="541" 
d="M293 -12q-74 0 -131 33.5t-89 92.5t-32 136t32 136t88.5 92.5t129.5 33.5q72 0 129 -33.5t87 -92.5l-72 -32q-21 39 -59.5 61.5t-86.5 22.5q-49 0 -87 -24t-59 -66.5t-21 -97.5t21.5 -97.5t60 -66.5t87.5 -24t87.5 25t58.5 70l73 -33q-30 -64 -87 -100t-130 -36zM223 571
l117 129h103l-129 -129h-91z" />
    <glyph glyph-name="Cdotaccent" unicode="&#x10a;" horiz-adv-x="721" 
d="M388 -12q-100 0 -177.5 46.5t-121 128t-43.5 187.5t43.5 187.5t120 128t176.5 46.5q62 0 120 -22.5t104 -63t71 -93.5l-73 -36q-20 40 -55 71.5t-78.5 49t-88.5 17.5q-75 0 -132.5 -36.5t-90 -100.5t-32.5 -148t33 -149t91 -101.5t134 -36.5q46 0 89.5 19t78 53t54.5 79
l74 -37q-26 -56 -72 -98.5t-104 -66.5t-121 -24zM386 791q-21 0 -35.5 15t-14.5 35q0 21 14.5 35.5t35.5 14.5t35.5 -14.5t14.5 -35.5q0 -20 -14.5 -35t-35.5 -15z" />
    <glyph glyph-name="cdotaccent" unicode="&#x10b;" horiz-adv-x="541" 
d="M293 -12q-74 0 -131 33.5t-89 92.5t-32 136t32 136t88.5 92.5t129.5 33.5q72 0 129 -33.5t87 -92.5l-72 -32q-21 39 -59.5 61.5t-86.5 22.5q-49 0 -87 -24t-59 -66.5t-21 -97.5t21.5 -97.5t60 -66.5t87.5 -24t87.5 25t58.5 70l73 -33q-30 -64 -87 -100t-130 -36zM291 616
q-21 0 -35.5 15t-14.5 35q0 21 14.5 35.5t35.5 14.5t35.5 -14.5t14.5 -35.5q0 -20 -14.5 -35t-35.5 -15z" />
    <glyph glyph-name="Ccaron" unicode="&#x10c;" horiz-adv-x="721" 
d="M388 -12q-100 0 -177.5 46.5t-121 128t-43.5 187.5t43.5 187.5t120 128t176.5 46.5q62 0 120 -22.5t104 -63t71 -93.5l-73 -36q-20 40 -55 71.5t-78.5 49t-88.5 17.5q-75 0 -132.5 -36.5t-90 -100.5t-32.5 -148t33 -149t91 -101.5t134 -36.5q46 0 89.5 19t78 53t54.5 79
l74 -37q-26 -56 -72 -98.5t-104 -66.5t-121 -24zM214 875h90l81 -83l80 83h90l-121 -129h-99z" />
    <glyph glyph-name="ccaron" unicode="&#x10d;" horiz-adv-x="541" 
d="M293 -12q-74 0 -131 33.5t-89 92.5t-32 136t32 136t88.5 92.5t129.5 33.5q72 0 129 -33.5t87 -92.5l-72 -32q-21 39 -59.5 61.5t-86.5 22.5q-49 0 -87 -24t-59 -66.5t-21 -97.5t21.5 -97.5t60 -66.5t87.5 -24t87.5 25t58.5 70l73 -33q-30 -64 -87 -100t-130 -36zM119 700
h90l81 -83l80 83h90l-121 -129h-99z" />
    <glyph glyph-name="Dcaron" unicode="&#x10e;" horiz-adv-x="688" 
d="M93 0v700h214q97 0 173 -44.5t119 -123.5t43 -182q0 -102 -43 -181t-119 -124t-173 -45h-214zM307 623h-129v-545h129q69 0 126 36.5t90.5 98t33.5 137.5t-33.5 137.5t-90.5 98.5t-126 37zM135 875h90l81 -83l80 83h90l-121 -129h-99z" />
    <glyph glyph-name="dcaron" unicode="&#x10f;" horiz-adv-x="586" 
d="M267 -12q-67 0 -118 33t-79.5 92.5t-28.5 136.5q0 78 28.5 137t79.5 92t118 33q55 0 98 -25.5t71 -70.5v284h80v-700h-76l-4 85q-27 -46 -70.5 -71.5t-98.5 -25.5zM285 61q64 0 106 50t45 130v18q-3 80 -45 130t-107 50q-48 0 -84 -24t-57 -66.5t-21 -98.5q0 -55 21 -98
t57.5 -67t84.5 -24zM539 531l49 168h85l-66 -168h-68z" />
    <glyph glyph-name="Dcroat" unicode="&#x110;" horiz-adv-x="751" 
d="M157 0v315h-84v69h84v316h213q98 0 173.5 -44.5t118.5 -123.5t43 -182q0 -102 -43 -181t-118.5 -124t-173.5 -45h-213zM392 315h-151v-237h129q70 0 126.5 36.5t90 98t33.5 137.5t-33.5 137.5t-90 98.5t-126.5 37h-129v-239h151v-69z" />
    <glyph glyph-name="dcroat" unicode="&#x111;" horiz-adv-x="586" 
d="M267 -12q-67 0 -118 33t-79.5 92.5t-28.5 136.5q0 78 28.5 137t79.5 92t118 33q55 0 98 -25.5t71 -70.5v151h-160v63h160v70h80v-70h76v-63h-76v-567h-76l-4 85q-27 -46 -70.5 -71.5t-98.5 -25.5zM285 61q64 0 106 50t45 130v18q-3 80 -45 130t-107 50q-48 0 -84 -24
t-57 -66.5t-21 -98.5q0 -55 21 -98t57.5 -67t84.5 -24z" />
    <glyph glyph-name="Emacron" unicode="&#x112;" horiz-adv-x="592" 
d="M93 0v700h414v-77h-329v-226h300v-76h-300v-244h331v-77h-416zM152 750v73h306v-73h-306z" />
    <glyph glyph-name="emacron" unicode="&#x113;" horiz-adv-x="547" 
d="M291 -12q-72 0 -128 33.5t-88 92.5t-32 136t31.5 136t87 92.5t127.5 33.5q69 0 120.5 -34.5t79.5 -96.5t28 -145h-393q4 -80 51.5 -128t119.5 -48q53 0 89 25.5t57 66.5l69 -36q-30 -57 -85.5 -92.5t-133.5 -35.5zM288 442q-62 0 -104 -37.5t-55 -101.5h303
q-11 65 -48 102t-96 37zM135 575v73h306v-73h-306z" />
    <glyph glyph-name="Edotaccent" unicode="&#x116;" horiz-adv-x="592" 
d="M93 0v700h414v-77h-329v-226h300v-76h-300v-244h331v-77h-416zM305 791q-21 0 -35.5 15t-14.5 35q0 21 14.5 35.5t35.5 14.5t35.5 -14.5t14.5 -35.5q0 -20 -14.5 -35t-35.5 -15z" />
    <glyph glyph-name="edotaccent" unicode="&#x117;" horiz-adv-x="547" 
d="M291 -12q-72 0 -128 33.5t-88 92.5t-32 136t31.5 136t87 92.5t127.5 33.5q69 0 120.5 -34.5t79.5 -96.5t28 -145h-393q4 -80 51.5 -128t119.5 -48q53 0 89 25.5t57 66.5l69 -36q-30 -57 -85.5 -92.5t-133.5 -35.5zM288 442q-62 0 -104 -37.5t-55 -101.5h303
q-11 65 -48 102t-96 37zM288 616q-21 0 -35.5 15t-14.5 35q0 21 14.5 35.5t35.5 14.5t35.5 -14.5t14.5 -35.5q0 -20 -14.5 -35t-35.5 -15z" />
    <glyph glyph-name="Eogonek" unicode="&#x118;" horiz-adv-x="592" 
d="M93 0v700h414v-77h-329v-226h300v-76h-300v-244h331v-77h-416zM460 -212q-52 0 -83 24t-31 70q0 36 29.5 68.5t68.5 59.5l64 -10q-34 -25 -61.5 -53.5t-27.5 -62.5q0 -31 36 -31q17 0 30.5 4t18.5 7l25 -57q-28 -19 -69 -19z" />
    <glyph glyph-name="eogonek" unicode="&#x119;" horiz-adv-x="547" 
d="M291 -12q-72 0 -128 33.5t-88 92.5t-32 136t31.5 136t87 92.5t127.5 33.5q69 0 120.5 -34.5t79.5 -96.5t28 -145h-393q4 -80 51.5 -128t119.5 -48q53 0 89 25.5t57 66.5l69 -36q-30 -57 -85.5 -92.5t-133.5 -35.5zM288 442q-62 0 -104 -37.5t-55 -101.5h303
q-11 65 -48 102t-96 37zM450 -198q-58 0 -92.5 23.5t-34.5 67.5q0 48 33 88.5t88 70.5h18q-38 -34 -53 -69t-15 -68q0 -22 13 -35t36 -13q35 0 62 11l24 -57q-35 -19 -79 -19z" />
    <glyph glyph-name="Ecaron" unicode="&#x11a;" horiz-adv-x="592" 
d="M93 0v700h414v-77h-329v-226h300v-76h-300v-244h331v-77h-416zM133 875h90l81 -83l80 83h90l-121 -129h-99z" />
    <glyph glyph-name="ecaron" unicode="&#x11b;" horiz-adv-x="547" 
d="M291 -12q-72 0 -128 33.5t-88 92.5t-32 136t31.5 136t87 92.5t127.5 33.5q69 0 120.5 -34.5t79.5 -96.5t28 -145h-393q4 -80 51.5 -128t119.5 -48q53 0 89 25.5t57 66.5l69 -36q-30 -57 -85.5 -92.5t-133.5 -35.5zM288 442q-62 0 -104 -37.5t-55 -101.5h303
q-11 65 -48 102t-96 37zM116 700h90l81 -83l80 83h90l-121 -129h-99z" />
    <glyph glyph-name="Gbreve" unicode="&#x11e;" horiz-adv-x="760" 
d="M410 -12q-107 0 -189 46.5t-128.5 128t-46.5 186.5q0 107 46.5 188.5t128.5 128t189 46.5q56 0 109 -18.5t96.5 -50.5t71.5 -73l-67 -46q-20 33 -54 58t-74.5 39t-81.5 14q-82 0 -145 -36.5t-98.5 -101t-35.5 -148.5q0 -83 35.5 -147.5t98.5 -101t146 -36.5
q67 0 119.5 28.5t82.5 78t30 114.5h-172v72h254v-66h-1q0 -91 -40.5 -159t-111.5 -106t-162 -38zM477 900h77q0 -60 -47 -97.5t-121 -37.5q-75 0 -122.5 37.5t-47.5 97.5h77q0 -31 26 -51t67 -20q40 0 65.5 20t25.5 51z" />
    <glyph glyph-name="gbreve" unicode="&#x11f;" horiz-adv-x="574" 
d="M267 4q-67 0 -118 32t-79.5 89t-28.5 132q0 76 28.5 133.5t79.5 89.5t118 32q55 0 99 -25.5t71 -71.5v85h80v-452q0 -86 -32.5 -144t-88 -87t-126.5 -29q-49 0 -88 9.5t-66.5 21t-39.5 19.5l30 65q19 -11 63 -27t100 -16q73 0 120.5 44.5t47.5 142.5v53
q-27 -45 -71 -70.5t-99 -25.5zM286 73q44 0 78 24t53 65.5t19 96.5q0 53 -19.5 94.5t-53 65t-78.5 23.5q-47 0 -83.5 -23.5t-57 -65t-20.5 -94.5q0 -55 21 -96.5t57.5 -65.5t83.5 -24zM368 700h77q0 -60 -47 -97.5t-121 -37.5q-75 0 -122.5 37.5t-47.5 97.5h77q0 -31 26 -51
t67 -20q40 0 65.5 20t25.5 51z" />
    <glyph glyph-name="Gdotaccent" unicode="&#x120;" horiz-adv-x="760" 
d="M410 -12q-107 0 -189 46.5t-128.5 128t-46.5 186.5q0 107 46.5 188.5t128.5 128t189 46.5q56 0 109 -18.5t96.5 -50.5t71.5 -73l-67 -46q-20 33 -54 58t-74.5 39t-81.5 14q-82 0 -145 -36.5t-98.5 -101t-35.5 -148.5q0 -83 35.5 -147.5t98.5 -101t146 -36.5
q67 0 119.5 28.5t82.5 78t30 114.5h-172v72h254v-66h-1q0 -91 -40.5 -159t-111.5 -106t-162 -38zM386 816q-21 0 -35.5 15t-14.5 35q0 21 14.5 35.5t35.5 14.5t35.5 -14.5t14.5 -35.5q0 -20 -14.5 -35t-35.5 -15z" />
    <glyph glyph-name="gdotaccent" unicode="&#x121;" horiz-adv-x="574" 
d="M267 4q-67 0 -118 32t-79.5 89t-28.5 132q0 76 28.5 133.5t79.5 89.5t118 32q55 0 99 -25.5t71 -71.5v85h80v-452q0 -86 -32.5 -144t-88 -87t-126.5 -29q-49 0 -88 9.5t-66.5 21t-39.5 19.5l30 65q19 -11 63 -27t100 -16q73 0 120.5 44.5t47.5 142.5v53
q-27 -45 -71 -70.5t-99 -25.5zM286 73q44 0 78 24t53 65.5t19 96.5q0 53 -19.5 94.5t-53 65t-78.5 23.5q-47 0 -83.5 -23.5t-57 -65t-20.5 -94.5q0 -55 21 -96.5t57.5 -65.5t83.5 -24zM277 616q-21 0 -35.5 15t-14.5 35q0 21 14.5 35.5t35.5 14.5t35.5 -14.5t14.5 -35.5
q0 -20 -14.5 -35t-35.5 -15z" />
    <glyph glyph-name="uni0122" unicode="&#x122;" horiz-adv-x="760" 
d="M410 -12q-107 0 -189 46.5t-128.5 128t-46.5 186.5q0 107 46.5 188.5t128.5 128t189 46.5q56 0 109 -18.5t96.5 -50.5t71.5 -73l-67 -46q-20 33 -54 58t-74.5 39t-81.5 14q-82 0 -145 -36.5t-98.5 -101t-35.5 -148.5q0 -83 35.5 -147.5t98.5 -101t146 -36.5
q67 0 119.5 28.5t82.5 78t30 114.5h-172v72h254v-66h-1q0 -91 -40.5 -159t-111.5 -106t-162 -38zM326 -200l46 140h87l-65 -140h-68z" />
    <glyph glyph-name="uni0123" unicode="&#x123;" horiz-adv-x="574" 
d="M378 713l-57 -132h-89l78 132h68zM267 4q-67 0 -118 32t-79.5 89t-28.5 132q0 76 28.5 133.5t79.5 89.5t118 32q55 0 99 -25.5t71 -71.5v85h80v-452q0 -86 -32.5 -144t-88 -87t-126.5 -29q-49 0 -88 9.5t-66.5 21t-39.5 19.5l30 65q19 -11 63 -27t100 -16
q73 0 120.5 44.5t47.5 142.5v53q-27 -45 -71 -70.5t-99 -25.5zM286 73q44 0 78 24t53 65.5t19 96.5q0 53 -19.5 94.5t-53 65t-78.5 23.5q-47 0 -83.5 -23.5t-57 -65t-20.5 -94.5q0 -55 21 -96.5t57.5 -65.5t83.5 -24z" />
    <glyph glyph-name="Hbar" unicode="&#x126;" horiz-adv-x="751" 
d="M93 0v501h-88v69h88v130h85v-130h396v130h84v-130h88v-69h-88v-501h-84v322h-396v-322h-85zM178 399h396v102h-396v-102z" />
    <glyph glyph-name="hbar" unicode="&#x127;" 
d="M70 0v567h-70v63h70v83h80v-83h166v-63h-166v-140q51 85 157 85q90 0 142.5 -56t52.5 -170v-286h-80v256q0 74 -17.5 113t-47.5 53.5t-68 14.5q-66 0 -102.5 -47t-36.5 -131v0v-259h-80z" />
    <glyph glyph-name="Imacron" unicode="&#x12a;" horiz-adv-x="271" 
d="M93 0v700h85v-700h-85zM-17 750v73h306v-73h-306z" />
    <glyph glyph-name="imacron" unicode="&#x12b;" horiz-adv-x="232" 
d="M-13 575v73h257v-73h-257zM75 0l2 500h80l-2 -500h-80z" />
    <glyph glyph-name="Iogonek" unicode="&#x12e;" horiz-adv-x="271" 
d="M93 0v700h85v-700h-85zM129 -212q-52 0 -83 24t-31 70q0 36 29.5 68.5t68.5 59.5l64 -10q-34 -25 -61.5 -53.5t-27.5 -62.5q0 -31 36 -31q17 0 30.5 4t18.5 7l25 -57q-28 -19 -69 -19z" />
    <glyph glyph-name="iogonek" unicode="&#x12f;" horiz-adv-x="232" 
d="M75 0l2 500h80l-2 -500h-80zM116 616q-21 0 -35.5 15t-14.5 35q0 21 14.5 35.5t35.5 14.5t35.5 -14.5t14.5 -35.5q0 -20 -14.5 -35t-35.5 -15zM107 -212q-52 0 -83 24t-31 70q0 36 29.5 68.5t68.5 59.5l64 -10q-34 -25 -61.5 -53.5t-27.5 -62.5q0 -31 36 -31q17 0 30.5 4
t18.5 7l25 -57q-28 -19 -69 -19z" />
    <glyph glyph-name="Idotaccent" unicode="&#x130;" horiz-adv-x="271" 
d="M93 0v700h85v-700h-85zM136 791q-21 0 -35.5 15t-14.5 35q0 21 14.5 35.5t35.5 14.5t35.5 -14.5t14.5 -35.5q0 -20 -14.5 -35t-35.5 -15z" />
    <glyph glyph-name="dotlessi" unicode="&#x131;" horiz-adv-x="232" 
d="M75 0l2 500h80l-2 -500h-80z" />
    <glyph glyph-name="IJ" unicode="&#x132;" horiz-adv-x="785" 
d="M93 0v700h85v-700h-85zM468 -12q-49 0 -86 17.5t-63 46t-41 61.5l65 38q19 -38 50 -62t76 -24q35 0 69.5 17t57 56.5t22.5 105.5v456h84v-488q0 -74 -34 -124t-87.5 -75t-112.5 -25z" />
    <glyph glyph-name="ij" unicode="&#x133;" horiz-adv-x="500" 
d="M75 0l2 500h80l-2 -500h-80zM116 616q-21 0 -35.5 15t-14.5 35q0 21 14.5 35.5t35.5 14.5t35.5 -14.5t14.5 -35.5q0 -20 -14.5 -35t-35.5 -15zM384 617q-21 0 -35.5 15t-14.5 36q0 20 14.5 35t35.5 15t36 -15t15 -35q0 -21 -15 -36t-36 -15zM273 -215q-37 0 -94 26l30 67
q49 -19 67 -19q68 0 68 87v554h80v-556q0 -159 -151 -159z" />
    <glyph glyph-name="uni0136" unicode="&#x136;" horiz-adv-x="610" 
d="M93 0v700h81v-324l311 324h106l-301 -315l314 -385h-103l-265 328l-62 -64v-264h-81zM221 -200l46 140h87l-65 -140h-68z" />
    <glyph glyph-name="uni0137" unicode="&#x137;" horiz-adv-x="485" 
d="M70 0v700h80v-427l214 227h100l-187 -201l207 -299h-99l-161 243l-74 -80v-163h-80zM165 -200l46 140h87l-65 -140h-68z" />
    <glyph glyph-name="Lacute" unicode="&#x139;" horiz-adv-x="520" 
d="M93 0v700h85v-623h330v-77h-415zM68 746l117 129h103l-129 -129h-91z" />
    <glyph glyph-name="lacute" unicode="&#x13a;" horiz-adv-x="222" 
d="M70 0l2 700h80l-2 -700h-80zM44 746l117 129h103l-129 -129h-91z" />
    <glyph glyph-name="uni013B" unicode="&#x13b;" horiz-adv-x="520" 
d="M93 0v700h85v-623h330v-77h-415zM201 -200l46 140h87l-65 -140h-68z" />
    <glyph glyph-name="uni013C" unicode="&#x13c;" horiz-adv-x="222" 
d="M70 0l2 700h80l-2 -700h-80zM12 -200l46 140h87l-65 -140h-68z" />
    <glyph glyph-name="Lcaron" unicode="&#x13d;" horiz-adv-x="520" 
d="M93 0v700h85v-623h330v-77h-415zM235 590l49 168h85l-66 -168h-68z" />
    <glyph glyph-name="lcaron" unicode="&#x13e;" horiz-adv-x="222" 
d="M70 0l2 700h80l-2 -700h-80zM176 531l49 168h85l-66 -168h-68z" />
    <glyph glyph-name="Lslash" unicode="&#x141;" horiz-adv-x="520" 
d="M93 0v300l-90 -41v73l90 41v327h85v-288l113 53v-73l-113 -53v-262h330v-77h-415z" />
    <glyph glyph-name="lslash" unicode="&#x142;" horiz-adv-x="248" 
d="M83 0l1 299l-84 -41v72l84 41l1 329h80l-1 -290l84 41v-71l-84 -42l-1 -338h-80z" />
    <glyph glyph-name="Nacute" unicode="&#x143;" horiz-adv-x="774" 
d="M93 0v700h86l417 -563v563h85v-700h-85l-418 566v-566h-85zM314 743l117 129h103l-129 -129h-91z" />
    <glyph glyph-name="nacute" unicode="&#x144;" 
d="M70 0v500h75l4 -74q51 86 157 86q91 0 143.5 -56t51.5 -170v-286h-80v256q0 74 -17.5 113t-47.5 53.5t-67 14.5q-66 0 -102.5 -47t-36.5 -131v-259h-80zM210 571l117 129h103l-129 -129h-91z" />
    <glyph glyph-name="uni0145" unicode="&#x145;" horiz-adv-x="774" 
d="M93 0v700h86l417 -563v563h85v-700h-85l-418 566v-566h-85zM304 -200l46 140h87l-65 -140h-68z" />
    <glyph glyph-name="uni0146" unicode="&#x146;" 
d="M70 0v500h75l4 -74q51 86 157 86q91 0 143.5 -56t51.5 -170v-286h-80v256q0 74 -17.5 113t-47.5 53.5t-67 14.5q-66 0 -102.5 -47t-36.5 -131v-259h-80zM194 -200l46 140h87l-65 -140h-68z" />
    <glyph glyph-name="Ncaron" unicode="&#x147;" horiz-adv-x="774" 
d="M93 0v700h86l417 -563v563h85v-700h-85l-418 566v-566h-85zM210 872h90l81 -83l80 83h90l-121 -129h-99z" />
    <glyph glyph-name="ncaron" unicode="&#x148;" 
d="M70 0v500h75l4 -74q51 86 157 86q91 0 143.5 -56t51.5 -170v-286h-80v256q0 74 -17.5 113t-47.5 53.5t-67 14.5q-66 0 -102.5 -47t-36.5 -131v-259h-80zM106 700h90l81 -83l80 83h90l-121 -129h-99z" />
    <glyph glyph-name="Eng" unicode="&#x14a;" horiz-adv-x="774" 
d="M93 0v700h86l417 -563v563h85v-753q0 -159 -152 -159q-38 0 -95 25l31 68q48 -20 67 -20q68 0 68 88v51h-4l-418 566v-566h-85z" />
    <glyph glyph-name="eng" unicode="&#x14b;" 
d="M70 0v500h75l4 -74q51 86 157 86q91 0 143.5 -56t51.5 -170v-342q0 -159 -151 -159q-37 0 -94 26l31 67q48 -19 66 -19q68 0 68 87v310q0 74 -17.5 113t-47.5 53.5t-67 14.5q-66 0 -102.5 -47t-36.5 -131v-259h-80z" />
    <glyph glyph-name="Omacron" unicode="&#x14c;" horiz-adv-x="776" 
d="M200 750v73h375v-73h-375zM391 -12q-101 0 -179 46t-122 127.5t-44 188.5q0 106 43.5 188t120.5 128t178 46t178 -46.5t120.5 -128t43.5 -187.5q0 -107 -43.5 -188.5t-120 -127.5t-175.5 -46zM391 65q75 0 132 36.5t89.5 100.5t32.5 148q0 83 -33 147.5t-91 101
t-133 36.5t-133 -36.5t-91 -101t-33 -147.5q0 -84 33 -148t92 -100.5t135 -36.5z" />
    <glyph glyph-name="omacron" unicode="&#x14d;" horiz-adv-x="580" 
d="M294 -12q-73 0 -130 33.5t-89 92.5t-32 136t32 136t88 92.5t129 33.5t129.5 -33.5t88 -92.5t31.5 -136t-31.5 -136t-87.5 -92.5t-128 -33.5zM294 62q49 0 86.5 23.5t59 66.5t21.5 98q0 56 -22 98.5t-60 66.5t-87 24t-87 -24t-59.5 -66.5t-21.5 -98.5q0 -55 22 -98
t60 -66.5t88 -23.5zM136 575v73h306v-73h-306z" />
    <glyph glyph-name="Ohungarumlaut" unicode="&#x150;" horiz-adv-x="776" 
d="M391 -12q-101 0 -179 46t-122 127.5t-44 188.5q0 106 43.5 188t120.5 128t178 46t178 -46.5t120.5 -128t43.5 -187.5q0 -107 -43.5 -188.5t-120 -127.5t-175.5 -46zM391 65q75 0 132 36.5t89.5 100.5t32.5 148q0 83 -33 147.5t-91 101t-133 36.5t-133 -36.5t-91 -101
t-33 -147.5q0 -84 33 -148t92 -100.5t135 -36.5zM419 746l99 129h102l-110 -129h-91zM239 746l98 129h103l-110 -129h-91z" />
    <glyph glyph-name="ohungarumlaut" unicode="&#x151;" horiz-adv-x="580" 
d="M294 -12q-73 0 -130 33.5t-89 92.5t-32 136t32 136t88 92.5t129 33.5t129.5 -33.5t88 -92.5t31.5 -136t-31.5 -136t-87.5 -92.5t-128 -33.5zM294 62q49 0 86.5 23.5t59 66.5t21.5 98q0 56 -22 98.5t-60 66.5t-87 24t-87 -24t-59.5 -66.5t-21.5 -98.5q0 -55 22 -98
t60 -66.5t88 -23.5zM320 571l99 129h102l-110 -129h-91zM140 571l98 129h103l-110 -129h-91z" />
    <glyph glyph-name="OE" unicode="&#x152;" horiz-adv-x="1133" 
d="M391 -15q-101 0 -179 46.5t-122 129t-44 189.5t43.5 189.5t120.5 129t178 46.5q78 0 141 -30t105 -87v102h414v-77h-330v-226h301v-76h-301v-244h331v-77h-415v102q-42 -57 -104.5 -87t-138.5 -30zM391 62q100 0 166.5 64t76.5 184v79q-10 120 -77.5 184.5t-168.5 64.5
q-75 0 -133 -37t-90.5 -102t-32.5 -149t33 -149t91.5 -102t134.5 -37z" />
    <glyph glyph-name="oe" unicode="&#x153;" horiz-adv-x="980" 
d="M294 -12q-73 0 -130 33.5t-89 92.5t-32 136t32 136t88 92.5t129 33.5t129.5 -33.5t88 -92.5t31.5 -136t-31.5 -136t-87.5 -92.5t-128 -33.5zM294 62q49 0 86.5 23.5t59 66.5t21.5 98q0 56 -22 98.5t-60 66.5t-87 24t-87 -24t-59.5 -66.5t-21.5 -98.5q0 -55 22 -98
t60 -66.5t88 -23.5zM724 -12q-72 0 -128 33.5t-88 92.5t-32 136t31.5 136t87 92.5t127.5 33.5q69 0 120.5 -34.5t79.5 -96.5t28 -145h-393q4 -80 51.5 -128t119.5 -48q53 0 89 25.5t57 66.5l69 -36q-30 -57 -85.5 -92.5t-133.5 -35.5zM721 442q-62 0 -104 -37.5t-55 -101.5
h303q-11 65 -48 102t-96 37z" />
    <glyph glyph-name="Racute" unicode="&#x154;" horiz-adv-x="626" 
d="M93 0v700h80l148 1q68 1 120.5 -26.5t82 -76t29.5 -110.5q0 -69 -39.5 -120.5t-103.5 -75.5l171 -292h-93l-161 276q-8 -1 -17 -1h-132v-275h-85zM319 624h-141v-271h155q37 0 68 17t49 47.5t18 70.5q0 60 -41.5 98t-107.5 38zM222 746l117 129h103l-129 -129h-91z" />
    <glyph glyph-name="racute" unicode="&#x155;" horiz-adv-x="338" 
d="M70 0v500h80v-89q30 47 77.5 69t99.5 22v-75q-45 0 -85.5 -14.5t-66 -48t-25.5 -89.5v-275h-80zM93 571l117 129h103l-129 -129h-91z" />
    <glyph glyph-name="uni0156" unicode="&#x156;" horiz-adv-x="626" 
d="M93 0v700h80l148 1q68 1 120.5 -26.5t82 -76t29.5 -110.5q0 -69 -39.5 -120.5t-103.5 -75.5l171 -292h-93l-161 276q-8 -1 -17 -1h-132v-275h-85zM319 624h-141v-271h155q37 0 68 17t49 47.5t18 70.5q0 60 -41.5 98t-107.5 38zM229 -200l46 140h87l-65 -140h-68z" />
    <glyph glyph-name="uni0157" unicode="&#x157;" horiz-adv-x="338" 
d="M70 0v500h80v-89q30 47 77.5 69t99.5 22v-75q-45 0 -85.5 -14.5t-66 -48t-25.5 -89.5v-275h-80zM49 -200l46 140h87l-65 -140h-68z" />
    <glyph glyph-name="Rcaron" unicode="&#x158;" horiz-adv-x="626" 
d="M93 0v700h80l148 1q68 1 120.5 -26.5t82 -76t29.5 -110.5q0 -69 -39.5 -120.5t-103.5 -75.5l171 -292h-93l-161 276q-8 -1 -17 -1h-132v-275h-85zM319 624h-141v-271h155q37 0 68 17t49 47.5t18 70.5q0 60 -41.5 98t-107.5 38zM118 875h90l81 -83l80 83h90l-121 -129h-99
z" />
    <glyph glyph-name="rcaron" unicode="&#x159;" horiz-adv-x="338" 
d="M70 0v500h80v-89q30 47 77.5 69t99.5 22v-75q-45 0 -85.5 -14.5t-66 -48t-25.5 -89.5v-275h-80zM-11 700h90l81 -83l80 83h90l-121 -129h-99z" />
    <glyph glyph-name="Sacute" unicode="&#x15a;" horiz-adv-x="614" 
d="M317 -12q-77 0 -131.5 22t-88 57.5t-46.5 76.5l81 28q15 -44 60.5 -76.5t111.5 -32.5q81 0 127 32t46 85q0 49 -41 80t-108 47l-77 20q-48 12 -87 35.5t-62.5 60t-23.5 87.5q0 95 61.5 148.5t178.5 53.5q68 0 118 -22.5t81.5 -57.5t44.5 -73l-80 -28q-19 48 -64 77
t-109 29q-67 0 -106.5 -32.5t-39.5 -87.5q0 -49 30.5 -74.5t81.5 -37.5l77 -19q102 -25 156.5 -80t54.5 -119q0 -55 -28 -100.5t-82.5 -72t-135.5 -26.5zM250 746l117 129h103l-129 -129h-91z" />
    <glyph glyph-name="sacute" unicode="&#x15b;" horiz-adv-x="470" 
d="M245 -12q-83 0 -134.5 35.5t-69.5 83.5l69 28q16 -34 51 -55t76 -21q47 0 79.5 18.5t32.5 53.5q0 31 -24 50.5t-70 31.5l-48 13q-68 18 -106 54t-38 82q0 71 46.5 110.5t138.5 39.5q66 0 113.5 -28.5t65.5 -76.5l-68 -30q-13 34 -43 49t-75 15q-46 0 -72.5 -19.5
t-26.5 -54.5q0 -21 22 -39t65 -29l48 -12q74 -19 112.5 -61t38.5 -92q0 -68 -52 -107t-131 -39zM180 571l117 129h103l-129 -129h-91z" />
    <glyph glyph-name="Scedilla" unicode="&#x15e;" horiz-adv-x="614" 
d="M317 -12q-77 0 -131.5 22t-88 57.5t-46.5 76.5l81 28q15 -44 60.5 -76.5t111.5 -32.5q81 0 127 32t46 85q0 49 -41 80t-108 47l-77 20q-48 12 -87 35.5t-62.5 60t-23.5 87.5q0 95 61.5 148.5t178.5 53.5q68 0 118 -22.5t81.5 -57.5t44.5 -73l-80 -28q-19 48 -64 77
t-109 29q-67 0 -106.5 -32.5t-39.5 -87.5q0 -49 30.5 -74.5t81.5 -37.5l77 -19q102 -25 156.5 -80t54.5 -119q0 -55 -28 -100.5t-82.5 -72t-135.5 -26.5zM286 -198q-20 0 -42.5 5t-52.5 22l19 48q15 -8 32 -14.5t32 -6.5q18 0 32.5 7t14.5 29q0 25 -18.5 37.5t-56.5 18.5
l29 70l53 -12l-11 -26q37 -14 52.5 -37t15.5 -49q0 -40 -23 -66t-76 -26z" />
    <glyph glyph-name="scedilla" unicode="&#x15f;" horiz-adv-x="470" 
d="M245 -12q-83 0 -134.5 35.5t-69.5 83.5l69 28q16 -34 51 -55t76 -21q47 0 79.5 18.5t32.5 53.5q0 31 -24 50.5t-70 31.5l-48 13q-68 18 -106 54t-38 82q0 71 46.5 110.5t138.5 39.5q66 0 113.5 -28.5t65.5 -76.5l-68 -30q-13 34 -43 49t-75 15q-46 0 -72.5 -19.5
t-26.5 -54.5q0 -21 22 -39t65 -29l48 -12q74 -19 112.5 -61t38.5 -92q0 -68 -52 -107t-131 -39zM212 -210q-20 0 -42.5 5t-52.5 22l19 48q15 -8 32 -14.5t32 -6.5q18 0 32.5 7t14.5 29q0 25 -18.5 37.5t-56.5 18.5l29 70l53 -12l-11 -26q37 -14 52.5 -37t15.5 -49
q0 -40 -23 -66t-76 -26z" />
    <glyph glyph-name="Scaron" unicode="&#x160;" horiz-adv-x="614" 
d="M317 -12q-77 0 -131.5 22t-88 57.5t-46.5 76.5l81 28q15 -44 60.5 -76.5t111.5 -32.5q81 0 127 32t46 85q0 49 -41 80t-108 47l-77 20q-48 12 -87 35.5t-62.5 60t-23.5 87.5q0 95 61.5 148.5t178.5 53.5q68 0 118 -22.5t81.5 -57.5t44.5 -73l-80 -28q-19 48 -64 77
t-109 29q-67 0 -106.5 -32.5t-39.5 -87.5q0 -49 30.5 -74.5t81.5 -37.5l77 -19q102 -25 156.5 -80t54.5 -119q0 -55 -28 -100.5t-82.5 -72t-135.5 -26.5zM146 875h90l81 -83l80 83h90l-121 -129h-99z" />
    <glyph glyph-name="scaron" unicode="&#x161;" horiz-adv-x="470" 
d="M245 -12q-83 0 -134.5 35.5t-69.5 83.5l69 28q16 -34 51 -55t76 -21q47 0 79.5 18.5t32.5 53.5q0 31 -24 50.5t-70 31.5l-48 13q-68 18 -106 54t-38 82q0 71 46.5 110.5t138.5 39.5q66 0 113.5 -28.5t65.5 -76.5l-68 -30q-13 34 -43 49t-75 15q-46 0 -72.5 -19.5
t-26.5 -54.5q0 -21 22 -39t65 -29l48 -12q74 -19 112.5 -61t38.5 -92q0 -68 -52 -107t-131 -39zM76 700h90l81 -83l80 83h90l-121 -129h-99z" />
    <glyph glyph-name="Tcaron" unicode="&#x164;" horiz-adv-x="552" 
d="M234 0v623h-223v77h530v-77h-223v-623h-84zM104 875h90l81 -83l80 83h90l-121 -129h-99z" />
    <glyph glyph-name="tcaron" unicode="&#x165;" horiz-adv-x="390" 
d="M241 558l50 163h84l-66 -163h-68zM268 -12q-73 0 -113 38t-40 107v296h-87v71h87v156h80v-156h150v-71h-150v-288q0 -38 20.5 -58.5t57.5 -20.5q12 0 23 3.5t31 17.5l31 -65q-26 -17 -47 -23.5t-43 -6.5z" />
    <glyph glyph-name="Umacron" unicode="&#x16a;" horiz-adv-x="708" 
d="M203 750v73h302v-73h-302zM83 249v451h85v-451q0 -55 23.5 -97.5t65.5 -66t96 -23.5q56 0 98 23.5t65.5 66t23.5 97.5v451h84v-451q0 -78 -34.5 -137.5t-96 -93t-142.5 -33.5q-79 0 -139.5 33.5t-94.5 93t-34 137.5z" />
    <glyph glyph-name="umacron" unicode="&#x16b;" 
d="M137 244q0 -74 17.5 -113t47.5 -53.5t68 -14.5q65 0 101.5 47t36.5 132v258h80v-500h-75l-4 74q-51 -86 -157 -86q-91 0 -143.5 56t-51.5 170v286h80v-256zM126 575v73h306v-73h-306z" />
    <glyph glyph-name="Ubreve" unicode="&#x16c;" horiz-adv-x="708" 
d="M83 249v451h85v-451q0 -55 23.5 -97.5t65.5 -66t96 -23.5q56 0 98 23.5t65.5 66t23.5 97.5v451h84v-451q0 -78 -34.5 -137.5t-96 -93t-142.5 -33.5q-79 0 -139.5 33.5t-94.5 93t-34 137.5zM446 875h77q0 -60 -47 -97.5t-121 -37.5q-75 0 -122.5 37.5t-47.5 97.5h77
q0 -31 26 -51t67 -20q40 0 65.5 20t25.5 51z" />
    <glyph glyph-name="ubreve" unicode="&#x16d;" 
d="M137 244q0 -74 17.5 -113t47.5 -53.5t68 -14.5q65 0 101.5 47t36.5 132v258h80v-500h-75l-4 74q-51 -86 -157 -86q-91 0 -143.5 56t-51.5 170v286h80v-256zM370 700h77q0 -60 -47 -97.5t-121 -37.5q-75 0 -122.5 37.5t-47.5 97.5h77q0 -31 26 -51t67 -20q40 0 65.5 20
t25.5 51z" />
    <glyph glyph-name="Uring" unicode="&#x16e;" horiz-adv-x="708" 
d="M83 249v451h85v-451q0 -55 23.5 -97.5t65.5 -66t96 -23.5q56 0 98 23.5t65.5 66t23.5 97.5v451h84v-451q0 -78 -34.5 -137.5t-96 -93t-142.5 -33.5q-79 0 -139.5 33.5t-94.5 93t-34 137.5zM355 732q-40 0 -68.5 27t-28.5 65q0 39 28.5 66t68.5 27q39 0 67 -27t28 -66
q0 -38 -28 -65t-67 -27zM355 786q36 0 36 38q0 39 -36 39q-37 0 -37 -39q0 -38 37 -38z" />
    <glyph glyph-name="uring" unicode="&#x16f;" 
d="M137 244q0 -74 17.5 -113t47.5 -53.5t68 -14.5q65 0 101.5 47t36.5 132v258h80v-500h-75l-4 74q-51 -86 -157 -86q-91 0 -143.5 56t-51.5 170v286h80v-256zM279 557q-40 0 -68.5 27t-28.5 65q0 39 28.5 66t68.5 27q39 0 67 -27t28 -66q0 -38 -28 -65t-67 -27zM279 611
q36 0 36 38q0 39 -36 39q-37 0 -37 -39q0 -38 37 -38z" />
    <glyph glyph-name="Uhungarumlaut" unicode="&#x170;" horiz-adv-x="708" 
d="M83 249v451h85v-451q0 -55 23.5 -97.5t65.5 -66t96 -23.5q56 0 98 23.5t65.5 66t23.5 97.5v451h84v-451q0 -78 -34.5 -137.5t-96 -93t-142.5 -33.5q-79 0 -139.5 33.5t-94.5 93t-34 137.5zM385 746l99 129h102l-110 -129h-91zM205 746l98 129h103l-110 -129h-91z" />
    <glyph glyph-name="uhungarumlaut" unicode="&#x171;" 
d="M137 244q0 -74 17.5 -113t47.5 -53.5t68 -14.5q65 0 101.5 47t36.5 132v258h80v-500h-75l-4 74q-51 -86 -157 -86q-91 0 -143.5 56t-51.5 170v286h80v-256zM310 571l99 129h102l-110 -129h-91zM130 571l98 129h103l-110 -129h-91z" />
    <glyph glyph-name="Uogonek" unicode="&#x172;" horiz-adv-x="708" 
d="M83 249v451h85v-451q0 -55 23.5 -97.5t65.5 -66t96 -23.5q56 0 98 23.5t65.5 66t23.5 97.5v451h84v-451q0 -78 -34.5 -137.5t-96 -93t-142.5 -33.5q-79 0 -139.5 33.5t-94.5 93t-34 137.5zM529 -198q-58 0 -92.5 23.5t-34.5 67.5q0 48 33 88.5t88 70.5h18
q-38 -34 -53 -69t-15 -68q0 -22 13 -35t36 -13q35 0 62 11l24 -57q-35 -19 -79 -19z" />
    <glyph glyph-name="uogonek" unicode="&#x173;" 
d="M137 244q0 -74 17.5 -113t47.5 -53.5t68 -14.5q65 0 101.5 47t36.5 132v258h80v-500h-75l-4 74q-51 -86 -157 -86q-91 0 -143.5 56t-51.5 170v286h80v-256zM440 -212q-52 0 -83 24t-31 70q0 36 29.5 68.5t68.5 59.5l64 -10q-34 -25 -61.5 -53.5t-27.5 -62.5q0 -31 36 -31
q17 0 30.5 4t18.5 7l25 -57q-28 -19 -69 -19z" />
    <glyph glyph-name="Wcircumflex" unicode="&#x174;" horiz-adv-x="960" 
d="M223 0l-213 700h84l174 -575l170 575h84l166 -573l177 573h85l-217 -700h-91l-163 567l-166 -567h-90zM308 753l121 129h99l121 -129h-88l-82 79l-83 -79h-88z" />
    <glyph glyph-name="wcircumflex" unicode="&#x175;" horiz-adv-x="784" 
d="M180 0l-170 500h81l130 -390l132 390h80l129 -387l131 387h81l-170 -500h-80l-131 394l-132 -394h-81zM221 583l121 129h99l121 -129h-88l-82 79l-83 -79h-88z" />
    <glyph glyph-name="Ycircumflex" unicode="&#x176;" horiz-adv-x="604" 
d="M260 0v293l-251 407h98l195 -322l196 322h97l-251 -407v-293h-84zM130 753l121 129h99l121 -129h-88l-82 79l-83 -79h-88z" />
    <glyph glyph-name="ycircumflex" unicode="&#x177;" horiz-adv-x="526" 
d="M115 -212q-19 0 -44 7.5t-53 19.5l30 67q23 -10 40 -15t28 -5q50 0 74 56l35 83l-216 499h85l170 -406l168 406h86l-240 -570q-19 -44 -39.5 -76t-49.5 -49t-74 -17zM91 583l121 129h99l121 -129h-88l-82 79l-83 -79h-88z" />
    <glyph glyph-name="Ydieresis" unicode="&#x178;" horiz-adv-x="604" 
d="M260 0v293l-251 407h98l195 -322l196 322h97l-251 -407v-293h-84zM179 790q-20 0 -34 14t-14 34t14 34t34 14t34 -14t14 -34t-14 -34t-34 -14zM426 790q-20 0 -34 14t-14 34q0 19 14 33.5t34 14.5q19 0 33.5 -14.5t14.5 -33.5q0 -20 -14.5 -34t-33.5 -14z" />
    <glyph glyph-name="Zacute" unicode="&#x179;" horiz-adv-x="641" 
d="M47 0v78l441 545h-438v77h544v-77l-441 -545h438v-78h-544zM254 746l117 129h103l-129 -129h-91z" />
    <glyph glyph-name="zacute" unicode="&#x17a;" horiz-adv-x="492" 
d="M45 0v64l296 366h-296v70h399v-62l-297 -368h300v-70h-402zM177 571l117 129h103l-129 -129h-91z" />
    <glyph glyph-name="Zdotaccent" unicode="&#x17b;" horiz-adv-x="641" 
d="M47 0v78l441 545h-438v77h544v-77l-441 -545h438v-78h-544zM321 791q-21 0 -35.5 15t-14.5 35q0 21 14.5 35.5t35.5 14.5t35.5 -14.5t14.5 -35.5q0 -20 -14.5 -35t-35.5 -15z" />
    <glyph glyph-name="zdotaccent" unicode="&#x17c;" horiz-adv-x="492" 
d="M45 0v64l296 366h-296v70h399v-62l-297 -368h300v-70h-402zM245 616q-21 0 -35.5 15t-14.5 35q0 21 14.5 35.5t35.5 14.5t35.5 -14.5t14.5 -35.5q0 -20 -14.5 -35t-35.5 -15z" />
    <glyph glyph-name="Zcaron" unicode="&#x17d;" horiz-adv-x="641" 
d="M47 0v78l441 545h-438v77h544v-77l-441 -545h438v-78h-544zM150 875h90l81 -83l80 83h90l-121 -129h-99z" />
    <glyph glyph-name="zcaron" unicode="&#x17e;" horiz-adv-x="492" 
d="M45 0v64l296 366h-296v70h399v-62l-297 -368h300v-70h-402zM73 700h90l81 -83l80 83h90l-121 -129h-99z" />
    <glyph glyph-name="uni01CD" unicode="&#x1cd;" horiz-adv-x="677" 
d="M10 0l284 700h88l285 -700h-89l-80 200h-319l-80 -200h-89zM209 275h258l-129 321zM167 875h90l81 -83l80 83h90l-121 -129h-99z" />
    <glyph glyph-name="uni01CE" unicode="&#x1ce;" horiz-adv-x="509" 
d="M231 -12q-89 0 -138.5 40.5t-49.5 112.5q0 75 50.5 116t141.5 41h138q-7 72 -35.5 107.5t-89.5 35.5q-88 0 -127 -70l-70 28q29 52 78 82.5t120 30.5q205 0 205 -242v-270h-70l-2 56q-25 -32 -63 -50t-88 -18zM233 57q67 0 105.5 43.5t38.5 111.5v0l-1 21h-124
q-70 0 -100 -24t-30 -67q0 -40 29 -62.5t82 -22.5zM80 700h90l81 -83l80 83h90l-121 -129h-99z" />
    <glyph glyph-name="uni0218" unicode="&#x218;" horiz-adv-x="614" 
d="M317 -12q-77 0 -131.5 22t-88 57.5t-46.5 76.5l81 28q15 -44 60.5 -76.5t111.5 -32.5q81 0 127 32t46 85q0 49 -41 80t-108 47l-77 20q-48 12 -87 35.5t-62.5 60t-23.5 87.5q0 95 61.5 148.5t178.5 53.5q68 0 118 -22.5t81.5 -57.5t44.5 -73l-80 -28q-19 48 -64 77
t-109 29q-67 0 -106.5 -32.5t-39.5 -87.5q0 -49 30.5 -74.5t81.5 -37.5l77 -19q102 -25 156.5 -80t54.5 -119q0 -55 -28 -100.5t-82.5 -72t-135.5 -26.5zM233 -200l46 140h87l-65 -140h-68z" />
    <glyph glyph-name="uni0219" unicode="&#x219;" horiz-adv-x="470" 
d="M245 -12q-83 0 -134.5 35.5t-69.5 83.5l69 28q16 -34 51 -55t76 -21q47 0 79.5 18.5t32.5 53.5q0 31 -24 50.5t-70 31.5l-48 13q-68 18 -106 54t-38 82q0 71 46.5 110.5t138.5 39.5q66 0 113.5 -28.5t65.5 -76.5l-68 -30q-13 34 -43 49t-75 15q-46 0 -72.5 -19.5
t-26.5 -54.5q0 -21 22 -39t65 -29l48 -12q74 -19 112.5 -61t38.5 -92q0 -68 -52 -107t-131 -39zM159 -212l46 140h87l-65 -140h-68z" />
    <glyph glyph-name="uni021A" unicode="&#x21a;" horiz-adv-x="552" 
d="M234 0v623h-223v77h530v-77h-223v-623h-84zM192 -200l46 140h87l-65 -140h-68z" />
    <glyph glyph-name="uni021B" unicode="&#x21b;" horiz-adv-x="385" 
d="M268 -12q-73 0 -113 38t-40 107v296h-87v71h87v156h80v-156h150v-71h-150v-288q0 -38 20.5 -58.5t57.5 -20.5q12 0 23 3.5t31 17.5l31 -65q-26 -17 -47 -23.5t-43 -6.5zM138 -200l46 140h87l-65 -140h-68z" />
    <glyph glyph-name="uni0237" unicode="&#x237;" horiz-adv-x="258" 
d="M41 -215q-37 0 -94 26l30 67q49 -19 67 -19q68 0 68 87v554h80v-556q0 -159 -151 -159z" />
    <glyph glyph-name="circumflex" unicode="&#x2c6;" horiz-adv-x="362" 
d="M10 583l121 129h99l121 -129h-88l-82 79l-83 -79h-88z" />
    <glyph glyph-name="caron" unicode="&#x2c7;" horiz-adv-x="362" 
d="M10 700h90l81 -83l80 83h90l-121 -129h-99z" />
    <glyph glyph-name="breve" unicode="&#x2d8;" horiz-adv-x="338" 
d="M261 700h77q0 -60 -47 -97.5t-121 -37.5q-75 0 -122.5 37.5t-47.5 97.5h77q0 -31 26 -51t67 -20q40 0 65.5 20t25.5 51z" />
    <glyph glyph-name="dotaccent" unicode="&#x2d9;" horiz-adv-x="232" 
d="M50 616q-21 0 -35.5 15t-14.5 35q0 21 14.5 35.5t35.5 14.5t35.5 -14.5t14.5 -35.5q0 -20 -14.5 -35t-35.5 -15z" />
    <glyph glyph-name="ring" unicode="&#x2da;" horiz-adv-x="600" 
d="M332 698q-40 0 -68 27.5t-28 65.5t28 65.5t68 27.5q39 0 67 -27.5t28 -65.5t-28 -65.5t-67 -27.5zM332 753q36 0 36 38q0 39 -36 39q-37 0 -37 -39q0 -38 37 -38z" />
    <glyph glyph-name="ogonek" unicode="&#x2db;" horiz-adv-x="246" 
d="M151 -212q-52 0 -83 24t-31 70q0 36 29.5 68.5t68.5 59.5l64 -10q-34 -25 -61.5 -53.5t-27.5 -62.5q0 -31 36 -31q17 0 30.5 4t18.5 7l25 -57q-28 -19 -69 -19z" />
    <glyph glyph-name="tilde" unicode="&#x2dc;" horiz-adv-x="344" 
d="M234 566q-29 0 -47 10.5t-29.5 25t-21.5 25.5t-23 11q-16 0 -25 -8.5t-13 -29.5h-65q4 41 31 71.5t71 30.5q28 0 45 -11t29 -25t22.5 -25t25.5 -11q17 0 25 9.5t11 28.5h64q-5 -40 -30.5 -71t-69.5 -31z" />
    <glyph glyph-name="hungarumlaut" unicode="&#x2dd;" horiz-adv-x="394" 
d="M191 571l99 129h102l-110 -129h-91zM11 571l98 129h103l-110 -129h-91z" />
    <glyph glyph-name="gravecomb" unicode="&#x300;" horiz-adv-x="0" 
d="M350 571h-92l-130 130h103z" />
    <glyph glyph-name="acutecomb" unicode="&#x301;" horiz-adv-x="0" 
d="M231 571l117 129h103l-129 -129h-91z" />
    <glyph glyph-name="uni0302" unicode="&#x302;" horiz-adv-x="0" 
d="M2 583l121 129h99l121 -129h-88l-82 79l-83 -79h-88z" />
    <glyph glyph-name="tildecomb" unicode="&#x303;" horiz-adv-x="0" 
d="M333 566q-29 0 -47 10.5t-29.5 25t-21.5 25.5t-23 11q-16 0 -25 -8.5t-13 -29.5h-65q4 41 31 71.5t71 30.5q28 0 45 -11t29 -25t22.5 -25t25.5 -11q17 0 25 9.5t11 28.5h64q-5 -40 -30.5 -71t-69.5 -31z" />
    <glyph glyph-name="uni0304" unicode="&#x304;" horiz-adv-x="0" 
d="M-3 575v73h306v-73h-306z" />
    <glyph glyph-name="uni0306" unicode="&#x306;" horiz-adv-x="0" 
d="M261 700h77q0 -60 -47 -97.5t-121 -37.5q-75 0 -122.5 37.5t-47.5 97.5h77q0 -31 26 -51t67 -20q40 0 65.5 20t25.5 51z" />
    <glyph glyph-name="uni0307" unicode="&#x307;" horiz-adv-x="0" 
d="M50 616q-21 0 -35.5 15t-14.5 35q0 21 14.5 35.5t35.5 14.5t35.5 -14.5t14.5 -35.5q0 -20 -14.5 -35t-35.5 -15z" />
    <glyph glyph-name="uni0308" unicode="&#x308;" horiz-adv-x="0" 
d="M36 620q-20 0 -34 14t-14 34t14 34t34 14t34 -14t14 -34t-14 -34t-34 -14zM283 620q-20 0 -34 14t-14 34q0 19 14 33.5t34 14.5q19 0 33.5 -14.5t14.5 -33.5q0 -20 -14.5 -34t-33.5 -14z" />
    <glyph glyph-name="uni030A" unicode="&#x30a;" horiz-adv-x="0" 
d="M145 557q-40 0 -68.5 27t-28.5 65q0 39 28.5 66t68.5 27q39 0 67 -27t28 -66q0 -38 -28 -65t-67 -27zM145 611q36 0 36 38q0 39 -36 39q-37 0 -37 -39q0 -38 37 -38z" />
    <glyph glyph-name="uni030B" unicode="&#x30b;" horiz-adv-x="0" 
d="M181 571l99 129h102l-110 -129h-91zM1 571l98 129h103l-110 -129h-91z" />
    <glyph glyph-name="uni030C" unicode="&#x30c;" horiz-adv-x="0" 
d="M2 700h90l81 -83l80 83h90l-121 -129h-99z" />
    <glyph glyph-name="uni0312" unicode="&#x312;" horiz-adv-x="0" 
d="M146 713l-57 -132h-89l78 132h68z" />
    <glyph glyph-name="uni0326" unicode="&#x326;" horiz-adv-x="0" 
d="M12 -200l46 140h87l-65 -140h-68z" />
    <glyph glyph-name="uni0327" unicode="&#x327;" horiz-adv-x="0" 
d="M268 -210q-20 0 -42.5 5t-52.5 22l19 48q15 -8 32 -14.5t32 -6.5q18 0 32.5 7t14.5 29q0 25 -18.5 37.5t-56.5 18.5l29 70l53 -12l-11 -26q37 -14 52.5 -37t15.5 -49q0 -40 -23 -66t-76 -26z" />
    <glyph glyph-name="uni0328" unicode="&#x328;" horiz-adv-x="0" 
d="M151 -212q-52 0 -83 24t-31 70q0 36 29.5 68.5t68.5 59.5l64 -10q-34 -25 -61.5 -53.5t-27.5 -62.5q0 -31 36 -31q17 0 30.5 4t18.5 7l25 -57q-28 -19 -69 -19z" />
    <glyph glyph-name="Wgrave" unicode="&#x1e80;" horiz-adv-x="960" 
d="M223 0l-213 700h84l174 -575l170 575h84l166 -573l177 573h85l-217 -700h-91l-163 567l-166 -567h-90zM584 741h-92l-130 130h103z" />
    <glyph glyph-name="wgrave" unicode="&#x1e81;" horiz-adv-x="784" 
d="M180 0l-170 500h81l130 -390l132 390h80l129 -387l131 387h81l-170 -500h-80l-131 394l-132 -394h-81zM497 571h-92l-130 130h103z" />
    <glyph glyph-name="Wacute" unicode="&#x1e82;" horiz-adv-x="960" 
d="M223 0l-213 700h84l174 -575l170 575h84l166 -573l177 573h85l-217 -700h-91l-163 567l-166 -567h-90zM412 741l117 129h103l-129 -129h-91z" />
    <glyph glyph-name="wacute" unicode="&#x1e83;" horiz-adv-x="784" 
d="M180 0l-170 500h81l130 -390l132 390h80l129 -387l131 387h81l-170 -500h-80l-131 394l-132 -394h-81zM325 571l117 129h103l-129 -129h-91z" />
    <glyph glyph-name="Wdieresis" unicode="&#x1e84;" horiz-adv-x="960" 
d="M223 0l-213 700h84l174 -575l170 575h84l166 -573l177 573h85l-217 -700h-91l-163 567l-166 -567h-90zM357 790q-20 0 -34 14t-14 34t14 34t34 14t34 -14t14 -34t-14 -34t-34 -14zM604 790q-20 0 -34 14t-14 34q0 19 14 33.5t34 14.5q19 0 33.5 -14.5t14.5 -33.5
q0 -20 -14.5 -34t-33.5 -14z" />
    <glyph glyph-name="wdieresis" unicode="&#x1e85;" horiz-adv-x="784" 
d="M180 0l-170 500h81l130 -390l132 390h80l129 -387l131 387h81l-170 -500h-80l-131 394l-132 -394h-81zM270 620q-20 0 -34 14t-14 34t14 34t34 14t34 -14t14 -34t-14 -34t-34 -14zM517 620q-20 0 -34 14t-14 34q0 19 14 33.5t34 14.5q19 0 33.5 -14.5t14.5 -33.5
q0 -20 -14.5 -34t-33.5 -14z" />
    <glyph glyph-name="uni1E9E" unicode="&#x1e9e;" horiz-adv-x="580" 
d="M93 0v541q0 81 52.5 126t155.5 45q66 0 111.5 -20t74.5 -48t47 -51l-55 -65h-1l-122 -148q86 -9 132 -59.5t46 -134.5q0 -94 -53 -146t-154 -52q-19 0 -52 9.5t-62 36.5l43 62q8 -6 25.5 -18t49.5 -12q59 0 89.5 33t30.5 93q0 57 -34.5 89.5t-98.5 32.5h-61v73l171 200
q-22 21 -54 35t-80 14q-58 0 -87 -30.5t-29 -82.5v-523h-85z" />
    <glyph glyph-name="Ygrave" unicode="&#x1ef2;" horiz-adv-x="604" 
d="M260 0v293l-251 407h98l195 -322l196 322h97l-251 -407v-293h-84zM407 741h-92l-130 130h103z" />
    <glyph glyph-name="ygrave" unicode="&#x1ef3;" horiz-adv-x="526" 
d="M115 -212q-19 0 -44 7.5t-53 19.5l30 67q23 -10 40 -15t28 -5q50 0 74 56l35 83l-216 499h85l170 -406l168 406h86l-240 -570q-19 -44 -39.5 -76t-49.5 -49t-74 -17zM367 571h-92l-130 130h103z" />
    <glyph glyph-name="endash" unicode="&#x2013;" horiz-adv-x="550" 
d="M0 261v73h550v-73h-550z" />
    <glyph glyph-name="emdash" unicode="&#x2014;" horiz-adv-x="1100" 
d="M0 261v73h1100v-73h-1100z" />
    <glyph glyph-name="quoteleft" unicode="&#x2018;" horiz-adv-x="181" 
d="M163 700l-57 -211h-89l77 211h69z" />
    <glyph glyph-name="quoteright" unicode="&#x2019;" horiz-adv-x="181" 
d="M19 489l56 211h90l-78 -211h-68z" />
    <glyph glyph-name="quotesinglbase" unicode="&#x201a;" horiz-adv-x="212" 
d="M41 -115l56 211h90l-78 -211h-68z" />
    <glyph glyph-name="quotedblleft" unicode="&#x201c;" horiz-adv-x="330" 
d="M163 700l-57 -212h-89l77 212h69zM312 700l-57 -212h-89l77 212h69z" />
    <glyph glyph-name="quotedblright" unicode="&#x201d;" horiz-adv-x="330" 
d="M168 489l56 211h90l-78 -211h-68zM19 489l56 211h90l-78 -211h-68z" />
    <glyph glyph-name="quotedblbase" unicode="&#x201e;" horiz-adv-x="212" 
d="M41 -115l56 211h90l-78 -211h-68zM41 -115l56 211h90l-78 -211h-68z" />
    <glyph glyph-name="dagger" unicode="&#x2020;" horiz-adv-x="481" 
d="M25 504l185 -9l-9 205h79l-9 -205l183 9v-75l-184 9l11 -438h-82l11 438l-185 -9v75z" />
    <glyph glyph-name="daggerdbl" unicode="&#x2021;" horiz-adv-x="481" 
d="M27 69l182 -8l-7 189l7 188l-183 -8v73l183 -8l-8 205h78l-9 -205l184 8v-73l-184 8l8 -188l-8 -189l185 8v-73l-184 8l10 -204h-82l10 204l-182 -8v73z" />
    <glyph glyph-name="bullet" unicode="&#x2022;" horiz-adv-x="493" 
d="M245 178q-43 0 -73.5 31.5t-30.5 73.5q0 43 30.5 73.5t73.5 30.5q42 0 73.5 -30.5t31.5 -73.5q0 -28 -14.5 -52t-38.5 -38.5t-52 -14.5z" />
    <glyph glyph-name="ellipsis" unicode="&#x2026;" horiz-adv-x="613" 
d="M104 -14q-23 0 -39.5 16.5t-16.5 38.5q0 23 16.5 39.5t39.5 16.5q22 0 38.5 -16.5t16.5 -39.5q0 -22 -16.5 -38.5t-38.5 -16.5zM307 -14q-23 0 -39.5 16.5t-16.5 38.5q0 23 16.5 39.5t39.5 16.5q22 0 38.5 -16.5t16.5 -39.5q0 -22 -16.5 -38.5t-38.5 -16.5zM509 -14
q-23 0 -39.5 16.5t-16.5 38.5q0 23 16.5 39.5t39.5 16.5q22 0 38.5 -16.5t16.5 -39.5q0 -22 -16.5 -38.5t-38.5 -16.5z" />
    <glyph glyph-name="guilsinglleft" unicode="&#x2039;" horiz-adv-x="359" 
d="M49 298l155 202h97l-153 -202l153 -202h-97z" />
    <glyph glyph-name="guilsinglright" unicode="&#x203a;" horiz-adv-x="359" 
d="M310 298l-155 -202h-97l153 202l-153 202h97z" />
    <glyph glyph-name="fraction" unicode="&#x2044;" horiz-adv-x="218" 
d="M309 700h81l-481 -700h-81z" />
    <glyph glyph-name="uni2070" unicode="&#x2070;" horiz-adv-x="406" 
d="M204 373q-50 0 -89 27.5t-61 76.5t-22 113q0 65 22 113.5t60.5 76t88.5 27.5t88.5 -27.5t60.5 -76t22 -113.5q0 -64 -22 -113t-60 -76.5t-88 -27.5zM204 439q43 0 71 42t28 109t-28 109.5t-72 42.5q-43 0 -70 -42.5t-27 -109.5q0 -66 27.5 -108.5t70.5 -42.5z" />
    <glyph glyph-name="uni2074" unicode="&#x2074;" horiz-adv-x="392" 
d="M225 380v88h-195v58l188 274v0v0h76v-269h77v-63h-77v-88h-69zM107 531h118v174z" />
    <glyph glyph-name="uni2075" unicode="&#x2075;" horiz-adv-x="368" 
d="M188 373q-42 0 -85 20.5t-61 60.5l65 23q15 -21 35 -31t42 -10q34 0 56 21t22 54t-21 55t-55 22q-20 0 -37.5 -8.5t-26.5 -21.5l-65 15l24 227h233v-66h-170l-14 -112q16 10 36 16.5t43 6.5q53 -1 90 -37t37 -93q0 -63 -42 -102.5t-106 -39.5z" />
    <glyph glyph-name="uni2076" unicode="&#x2076;" horiz-adv-x="356" 
d="M187 373q-57 0 -91 27t-49 72.5t-15 100.5q0 66 18.5 119t55.5 84t94 31q32 0 64 -9.5t57 -27.5l-37 -53q-19 14 -41.5 20t-39.5 6q-45 0 -72.5 -35t-31.5 -108q17 22 42 35t57 13q60 0 98.5 -40.5t38.5 -99.5t-40.5 -97t-107.5 -38zM188 435q32 0 53.5 21.5t21.5 54.5
t-21.5 55t-53.5 22q-34 0 -55.5 -21.5t-21.5 -55.5t21.5 -55t55.5 -21z" />
    <glyph glyph-name="uni2077" unicode="&#x2077;" horiz-adv-x="341" 
d="M62 380l177 354h-210v66h291v-55l-178 -365h-80z" />
    <glyph glyph-name="uni2078" unicode="&#x2078;" horiz-adv-x="390" 
d="M195 373q-74 0 -115 32t-42 84q0 78 75 110q-60 29 -60 94q0 50 38 82t104 32t104 -32t38 -82q0 -64 -61 -94q75 -32 75 -110q0 -52 -41.5 -84t-114.5 -32zM195 626q31 0 51 16.5t20 43.5t-20 44.5t-51 17.5t-51 -17.5t-20 -44.5t20 -43.5t51 -16.5zM195 434
q35 0 58.5 18t23.5 46q0 30 -23 49t-59 19t-59 -19t-23 -49q0 -28 23 -46t59 -18z" />
    <glyph glyph-name="uni2079" unicode="&#x2079;" horiz-adv-x="356" 
d="M170 807q57 0 90.5 -27t48.5 -72.5t15 -100.5q0 -66 -18 -119t-55.5 -84t-94.5 -31q-32 0 -63.5 9.5t-56.5 27.5l37 53q18 -14 40.5 -20t39.5 -6q45 0 72.5 34.5t31.5 107.5q-16 -22 -41.5 -34.5t-56.5 -12.5q-61 0 -99.5 40t-38.5 100q0 59 41 97t108 38zM169 745
q-33 0 -54.5 -21.5t-21.5 -54.5t22 -55t54 -22q33 0 54.5 22t21.5 55t-21.5 54.5t-54.5 21.5z" />
    <glyph glyph-name="uni2080" unicode="&#x2080;" horiz-adv-x="406" 
d="M204 -106q-50 0 -89 27.5t-61 76.5t-22 113q0 65 22 113.5t60.5 76t88.5 27.5t88.5 -27.5t60.5 -76t22 -113.5q0 -64 -22 -113t-60 -76.5t-88 -27.5zM204 -40q43 0 71 42t28 109t-28 109.5t-72 42.5q-43 0 -70 -42.5t-27 -109.5q0 -66 27.5 -108.5t70.5 -42.5z" />
    <glyph glyph-name="uni2081" unicode="&#x2081;" horiz-adv-x="282" 
d="M132 -100v326q-22 -16 -44.5 -24.5t-45.5 -6.5v65q19 0 46.5 17.5t50.5 42.5v0h63l-1 -420h-69z" />
    <glyph glyph-name="uni2082" unicode="&#x2082;" horiz-adv-x="361" 
d="M37 -100v55q0 27 21.5 59t58.5 59l70 51q20 14 36 34.5t16 40.5q0 26 -18.5 44t-51.5 18q-30 0 -49 -17.5t-26 -39.5l-74 14q9 43 48.5 76t99.5 33q67 0 106.5 -35.5t39.5 -91.5q0 -38 -20.5 -67t-56.5 -57l-69 -50q-17 -13 -32 -29t-22 -32h205v-65h-282z" />
    <glyph glyph-name="uni2083" unicode="&#x2083;" horiz-adv-x="354" 
d="M181 -106q-54 0 -91 24t-48 60l65 22q11 -17 26.5 -30t42.5 -13q33 0 52.5 19t19.5 48q0 30 -24 48.5t-75 18.5h-22v61h22q91 0 91 57q0 23 -17.5 39.5t-47.5 16.5q-19 0 -37 -9.5t-29 -31.5l-64 22q14 39 51 60.5t82 21.5q57 0 96 -32t39 -80q0 -33 -18.5 -56.5
t-48.5 -37.5q34 -16 55 -43t21 -63q0 -38 -19.5 -65.5t-51.5 -42t-70 -14.5z" />
    <glyph glyph-name="uni2084" unicode="&#x2084;" horiz-adv-x="392" 
d="M225 -100v88h-195v58l188 274v0v0h76v-269h77v-63h-77v-88h-69zM107 51h118v174z" />
    <glyph glyph-name="uni2085" unicode="&#x2085;" horiz-adv-x="368" 
d="M188 -106q-42 0 -85 20.5t-61 60.5l65 23q15 -21 35 -31t42 -10q34 0 56 21t22 54t-21 55t-55 22q-20 0 -37.5 -8.5t-26.5 -21.5l-65 15l24 227h233v-66h-170l-14 -112q16 10 36 16.5t43 6.5q53 -1 90 -37t37 -93q0 -63 -42 -102.5t-106 -39.5z" />
    <glyph glyph-name="uni2086" unicode="&#x2086;" horiz-adv-x="356" 
d="M187 -106q-57 0 -91 27t-49 72.5t-15 100.5q0 66 18.5 119t55.5 84t94 31q32 0 64 -9.5t57 -27.5l-37 -53q-19 14 -41.5 20t-39.5 6q-45 0 -72.5 -35t-31.5 -108q17 22 42 35t57 13q60 0 98.5 -40.5t38.5 -99.5t-40.5 -97t-107.5 -38zM188 -44q32 0 53.5 21.5t21.5 54.5
t-21.5 55t-53.5 22q-34 0 -55.5 -21.5t-21.5 -55.5t21.5 -55t55.5 -21z" />
    <glyph glyph-name="uni2087" unicode="&#x2087;" horiz-adv-x="341" 
d="M62 -100l177 354h-210v66h291v-55l-178 -365h-80z" />
    <glyph glyph-name="uni2088" unicode="&#x2088;" horiz-adv-x="390" 
d="M195 -106q-74 0 -115 32t-42 84q0 78 75 110q-60 29 -60 94q0 50 38 82t104 32t104 -32t38 -82q0 -64 -61 -94q75 -32 75 -110q0 -52 -41.5 -84t-114.5 -32zM195 147q31 0 51 16.5t20 43.5t-20 44.5t-51 17.5t-51 -17.5t-20 -44.5t20 -43.5t51 -16.5zM195 -45
q35 0 58.5 18t23.5 46q0 30 -23 49t-59 19t-59 -19t-23 -49q0 -28 23 -46t59 -18z" />
    <glyph glyph-name="uni2089" unicode="&#x2089;" horiz-adv-x="356" 
d="M170 328q57 0 90.5 -27t48.5 -72.5t15 -100.5q0 -66 -18 -119t-55.5 -84t-94.5 -31q-32 0 -63.5 9.5t-56.5 27.5l37 53q18 -14 40.5 -20t39.5 -6q45 0 72.5 34.5t31.5 107.5q-16 -22 -41.5 -34.5t-56.5 -12.5q-61 0 -99.5 40t-38.5 100q0 59 41 97t108 38zM169 266
q-33 0 -54.5 -21.5t-21.5 -54.5t22 -55t54 -22q33 0 54.5 22t21.5 55t-21.5 54.5t-54.5 21.5z" />
    <glyph glyph-name="Euro" unicode="&#x20ac;" horiz-adv-x="662" 
d="M18 257v57h81l-2 36q0 18 2 36h-81v57h87q15 81 53 141.5t94.5 94t126.5 33.5q52 0 100 -22.5t85.5 -62.5t58.5 -92l-72 -37q-23 61 -71 99t-101 38q-69 0 -119 -52.5t-68 -139.5h263v-57h-271q-1 -18 -1 -36t1 -36h271v-57h-263q18 -87 68.5 -139.5t121.5 -52.5
q54 0 101 41t70 106l73 -37q-21 -55 -59 -97t-86 -66t-99 -24q-71 0 -128 33.5t-95.5 94t-53.5 141.5h-87z" />
    <glyph glyph-name="trademark" unicode="&#x2122;" horiz-adv-x="857" 
d="M136 280v354h-128v66h329v-66h-129v-354h-72zM393 280v420h73v-1l6 1l129 -191l129 191l6 -1v1h72v-420h-72v305l-135 -199l-135 197v-303h-73z" />
    <glyph glyph-name="oneeighth" unicode="&#x215b;" horiz-adv-x="889" 
d="M132 280v326q-22 -16 -44.5 -24.5t-45.5 -6.5v65q19 0 46.5 17.5t50.5 42.5v0h63l-1 -420h-69zM591 700h81l-481 -700h-81zM694 -6q-74 0 -115 32t-42 84q0 78 75 110q-60 29 -60 94q0 50 38 82t104 32t104 -32t38 -82q0 -64 -61 -94q75 -32 75 -110q0 -52 -41.5 -84
t-114.5 -32zM694 247q31 0 51 16.5t20 43.5t-20 44.5t-51 17.5t-51 -17.5t-20 -44.5t20 -43.5t51 -16.5zM694 55q35 0 58.5 18t23.5 46q0 30 -23 49t-59 19t-59 -19t-23 -49q0 -28 23 -46t59 -18z" />
    <glyph glyph-name="threeeighths" unicode="&#x215c;" horiz-adv-x="962" 
d="M181 273q-54 0 -91 24t-48 60l65 22q11 -17 26.5 -30t42.5 -13q33 0 52.5 19t19.5 48q0 30 -24 48.5t-75 18.5h-22v61h22q91 0 91 57q0 23 -17.5 39.5t-47.5 16.5q-19 0 -37 -9.5t-29 -31.5l-64 22q14 39 51 60.5t82 21.5q57 0 96 -32t39 -80q0 -33 -18.5 -56.5
t-48.5 -37.5q34 -16 55 -43t21 -63q0 -38 -19.5 -65.5t-51.5 -42t-70 -14.5zM663 700h81l-481 -700h-81zM767 -6q-74 0 -115 32t-42 84q0 78 75 110q-60 29 -60 94q0 50 38 82t104 32t104 -32t38 -82q0 -64 -61 -94q75 -32 75 -110q0 -52 -41.5 -84t-114.5 -32zM767 247
q31 0 51 16.5t20 43.5t-20 44.5t-51 17.5t-51 -17.5t-20 -44.5t20 -43.5t51 -16.5zM767 55q35 0 58.5 18t23.5 46q0 30 -23 49t-59 19t-59 -19t-23 -49q0 -28 23 -46t59 -18z" />
    <glyph glyph-name="fiveeighths" unicode="&#x215d;" horiz-adv-x="976" 
d="M188 273q-42 0 -85 20.5t-61 60.5l65 23q15 -21 35 -31t42 -10q34 0 56 21t22 54t-21 55t-55 22q-20 0 -37.5 -8.5t-26.5 -21.5l-65 15l24 227h233v-66h-170l-14 -112q16 10 36 16.5t43 6.5q53 -1 90 -37t37 -93q0 -63 -42 -102.5t-106 -39.5zM677 700h81l-481 -700h-81z
M781 -6q-74 0 -115 32t-42 84q0 78 75 110q-60 29 -60 94q0 50 38 82t104 32t104 -32t38 -82q0 -64 -61 -94q75 -32 75 -110q0 -52 -41.5 -84t-114.5 -32zM781 247q31 0 51 16.5t20 43.5t-20 44.5t-51 17.5t-51 -17.5t-20 -44.5t20 -43.5t51 -16.5zM781 55q35 0 58.5 18
t23.5 46q0 30 -23 49t-59 19t-59 -19t-23 -49q0 -28 23 -46t59 -18z" />
    <glyph glyph-name="seveneighths" unicode="&#x215e;" horiz-adv-x="912" 
d="M62 280l177 354h-210v66h291v-55l-178 -365h-80zM613 700h81l-481 -700h-81zM717 -6q-74 0 -115 32t-42 84q0 78 75 110q-60 29 -60 94q0 50 38 82t104 32t104 -32t38 -82q0 -64 -61 -94q75 -32 75 -110q0 -52 -41.5 -84t-114.5 -32zM717 247q31 0 51 16.5t20 43.5
t-20 44.5t-51 17.5t-51 -17.5t-20 -44.5t20 -43.5t51 -16.5zM717 55q35 0 58.5 18t23.5 46q0 30 -23 49t-59 19t-59 -19t-23 -49q0 -28 23 -46t59 -18z" />
    <glyph glyph-name="arrowleft" unicode="&#x2190;" horiz-adv-x="743" 
d="M675 262h-459l192 -169l-46 -54l-303 259l302 261l46 -55l-192 -169h460v-73z" />
    <glyph glyph-name="arrowup" unicode="&#x2191;" horiz-adv-x="699" 
d="M386 18h-72v459l-170 -192l-54 47l261 301l259 -302l-55 -46l-169 192v-459z" />
    <glyph glyph-name="arrowright" unicode="&#x2192;" horiz-adv-x="743" 
d="M68 261v73h460l-192 170l46 54l302 -261l-303 -259l-46 55l192 168h-459z" />
    <glyph glyph-name="arrowdown" unicode="&#x2193;" horiz-adv-x="699" 
d="M313 631h73v-460l170 192l54 -46l-261 -302l-259 303l55 46l168 -192v459z" />
    <glyph glyph-name="minus" unicode="&#x2212;" horiz-adv-x="492" 
d="M65 262v71h362v-71h-362z" />
    <glyph glyph-name="uni2215" unicode="&#x2215;" horiz-adv-x="575" 
d="M491 700h74l-481 -700h-74z" />
    <glyph glyph-name="notequal" unicode="&#x2260;" horiz-adv-x="627" 
d="M151 71l59 122h-97v70h131l63 130h-194v70h229l58 120h75l-58 -120h96v-70h-130l-63 -130h193v-70h-228l-59 -122h-75z" />
    <glyph glyph-name="lessequal" unicode="&#x2264;" horiz-adv-x="538" 
d="M434 504v-76l-260 -120l260 -117v-78l-342 156v77zM92 0v63h342v-63h-342z" />
    <glyph glyph-name="greaterequal" unicode="&#x2265;" horiz-adv-x="538" 
d="M103 113v76l260 120l-260 117v78l343 -156v-77zM103 0v63h343v-63h-343z" />
    <glyph glyph-name="uni004A0301" horiz-adv-x="515" 
d="M197 -12q-49 0 -86 17.5t-63 46t-41 61.5l65 38q19 -38 50 -62t76 -24q35 0 69.5 17t57 56.5t22.5 105.5v456h84v-488q0 -74 -34 -124t-87.5 -75t-112.5 -25zM321 741l117 129h103l-129 -129h-91z" />
    <glyph glyph-name="i.loclTRK" horiz-adv-x="232" 
d="M75 0l2 500h80l-2 -500h-80zM116 616q-21 0 -35.5 15t-14.5 35q0 21 14.5 35.5t35.5 14.5t35.5 -14.5t14.5 -35.5q0 -20 -14.5 -35t-35.5 -15z" />
    <glyph glyph-name="uni006A0301" horiz-adv-x="258" 
d="M41 -215q-37 0 -94 26l30 67q49 -19 67 -19q68 0 68 87v554h80v-556q0 -159 -151 -159zM84 571l117 129h103l-129 -129h-91z" />
    <glyph glyph-name="a.001" horiz-adv-x="520" 
d="M240 -16q-93 0 -145 41.5t-52 115.5q0 78 52 121.5t145 43.5q86 0 145 -30q-8 169 -135 169q-75 0 -140 -63l-46 51q74 84 187 84q105 0 159 -61.5t54 -181.5v-274h-70l-2 53q-25 -33 -63.5 -51t-88.5 -18zM121 140q0 -42 32.5 -65.5t90.5 -23.5q68 0 105.5 42.5
t37.5 111.5v0q-60 36 -131 36q-64 0 -99.5 -27t-35.5 -74z" />
    <glyph glyph-name="a.002" horiz-adv-x="586" 
d="M267 -12q-67 0 -118 33t-79.5 92.5t-28.5 136.5q0 78 28.5 137t79.5 92t118 33q55 0 98 -25.5t71 -70.5v84h80v-500h-76l-4 85q-27 -46 -70.5 -71.5t-98.5 -25.5zM285 61q64 0 106 50t45 130v18q-3 80 -45 130t-107 50q-48 0 -84 -24t-57 -66.5t-21 -98.5q0 -55 21 -98
t57.5 -67t84.5 -24z" />
    <glyph glyph-name="g.001" horiz-adv-x="587" 
d="M267 4q-67 0 -118 32t-79.5 89t-28.5 132q0 76 28.5 133.5t79.5 89.5t118 32q55 0 99 -25.5t71 -71.5v85h80v-455q0 -79 -31 -134.5t-86.5 -84.5t-129.5 -29q-76 0 -135 37.5t-87 99.5l69 35q21 -48 61 -74.5t92 -26.5q76 0 121.5 46t45.5 130v56q-27 -45 -71 -70.5
t-99 -25.5zM286 73q44 0 78 24t53 65.5t19 96.5q0 53 -19.5 94.5t-53 65t-78.5 23.5q-47 0 -83.5 -23.5t-57 -65t-20.5 -94.5q0 -55 21 -96.5t57.5 -65.5t83.5 -24z" />
    <glyph glyph-name="t.001" horiz-adv-x="385" 
d="M268 -12q-73 0 -113 38t-40 107v298h-87v69h87v156h80v-156h150v-69h-150v-290q0 -40 20.5 -61t58.5 -21q11 0 23 4t32 18l31 -65q-27 -16 -48.5 -22t-43.5 -6z" />
    <glyph glyph-name="zero.tf" horiz-adv-x="623" 
d="M311 -12q-80 0 -142 46.5t-97 128t-35 187.5t35 187.5t96.5 128t142.5 46.5t143 -46.5t97 -128t35 -187.5t-35 -187.5t-97 -128t-143 -46.5zM311 64q56 0 99.5 36.5t68 101t24.5 148.5t-24.5 148.5t-68 101t-99.5 36.5t-99 -36.5t-67.5 -101t-24.5 -148.5t24.5 -148.5
t67.5 -101t99 -36.5z" />
    <glyph glyph-name="one.tf" horiz-adv-x="623" 
d="M147 75h156l1 513q-38 -31 -77.5 -50t-79.5 -18v77q20 -1 49.5 14t60 39t54.5 50v0h76l-2 -625h154v-75h-392v75z" />
    <glyph glyph-name="two.tf" horiz-adv-x="623" 
d="M97 0v70q0 101 114 190l145 109q38 28 62.5 66t24.5 75q0 52 -38 89t-100 37t-100.5 -34t-51.5 -77l-86 16q11 45 43 84t80.5 63t109.5 24q70 0 121 -26.5t79.5 -72t28.5 -103.5q0 -55 -30 -104t-87 -95l-137 -104q-38 -28 -62.5 -60.5t-30.5 -71.5h357v-75h-442z" />
    <glyph glyph-name="three.tf" horiz-adv-x="623" 
d="M309 -12q-77 0 -130.5 33t-79.5 76l70 39q11 -15 27.5 -32t42.5 -29t64 -12q68 0 109 39t41 98q0 67 -54.5 103t-150.5 36h-19v72h19q86 0 136.5 29.5t50.5 84.5q0 45 -36.5 78.5t-96.5 33.5q-81 0 -129 -66l-66 38q28 47 80 75t119 28q61 0 109.5 -24.5t76.5 -65.5
t28 -93q0 -53 -30.5 -92t-82.5 -61q60 -25 95 -71t35 -111q0 -62 -30.5 -108.5t-82.5 -72t-115 -25.5z" />
    <glyph glyph-name="four.tf" horiz-adv-x="623" 
d="M45 170v65l318 465v0v0h86v-455h142v-75h-142v-170h-82v170h-322zM141 245h226v332z" />
    <glyph glyph-name="five.tf" horiz-adv-x="623" 
d="M314 -12q-41 0 -85 12.5t-82.5 39t-63.5 66.5l68 39q35 -44 76 -64t85 -20q69 0 112.5 42.5t43.5 111.5q0 68 -42 111t-110 43q-38 0 -73.5 -16.5t-55.5 -40.5l-76 18l34 370h373v-76h-297l-23 -225q28 18 62 28.5t70 10.5q64 0 114 -28.5t79 -78t29 -114.5
q0 -68 -30.5 -119.5t-84 -80.5t-123.5 -29z" />
    <glyph glyph-name="six.tf" horiz-adv-x="623" 
d="M327 -12q-73 0 -121.5 27t-77.5 74.5t-41.5 109t-12.5 130.5q0 120 32.5 205.5t93 131.5t144.5 46q52 0 103.5 -16.5t91.5 -45.5l-47 -60q-32 23 -69 35t-71 12q-94 0 -147 -73t-56 -221q28 45 75.5 71t109.5 26q67 0 119 -29t82 -80.5t30 -117.5t-30.5 -117t-84 -79.5
t-123.5 -28.5zM327 62q67 0 110.5 42.5t43.5 110.5q0 67 -43.5 110t-110.5 43t-110.5 -43t-43.5 -110q0 -68 43.5 -110.5t110.5 -42.5z" />
    <glyph glyph-name="seven.tf" horiz-adv-x="623" 
d="M125 0l332 623h-372v77h465v-70l-332 -630h-93z" />
    <glyph glyph-name="eight.tf" horiz-adv-x="623" 
d="M311 -12q-76 0 -132.5 24.5t-88 68.5t-31.5 101q0 62 33.5 109.5t93.5 71.5q-48 24 -74.5 65t-26.5 94q0 56 28 99t79 67t119 24q67 0 118 -24t79.5 -67t28.5 -99q0 -53 -27 -94t-75 -65q60 -24 94 -71.5t34 -109.5q0 -58 -31.5 -101.5t-88.5 -68t-132 -24.5zM311 400
q63 0 103 31.5t40 82.5q0 56 -40 91t-103 35t-103 -35t-40 -91q0 -51 40 -82.5t103 -31.5zM311 62q73 0 120 35.5t47 92.5q0 58 -47 94.5t-120 36.5q-74 0 -120.5 -36.5t-46.5 -94.5q0 -57 46.5 -92.5t120.5 -35.5z" />
    <glyph glyph-name="nine.tf" horiz-adv-x="623" 
d="M296 712q73 0 122 -27t78 -74.5t41.5 -109.5t12.5 -130q0 -120 -33 -206t-93 -131.5t-144 -45.5q-52 0 -103.5 16t-92.5 46l47 60q32 -23 69.5 -35t71.5 -12q94 0 146.5 73t55.5 221q-28 -45 -75.5 -71t-108.5 -26q-68 0 -120 29t-81.5 80.5t-29.5 117.5t30 116.5
t83.5 79.5t123.5 29zM296 638q-67 0 -110 -42.5t-43 -110.5q0 -67 43 -110t110 -43q68 0 111.5 43t43.5 110q0 68 -43.5 110.5t-111.5 42.5z" />
    <glyph glyph-name="zero.dnom" horiz-adv-x="406" 
d="M204 -6q-50 0 -89 27.5t-61 76.5t-22 113q0 65 22 113.5t60.5 76t88.5 27.5t88.5 -27.5t60.5 -76t22 -113.5q0 -64 -22 -113t-60 -76.5t-88 -27.5zM204 60q43 0 71 42t28 109t-28 109.5t-72 42.5q-43 0 -70 -42.5t-27 -109.5q0 -66 27.5 -108.5t70.5 -42.5z" />
    <glyph glyph-name="one.dnom" horiz-adv-x="282" 
d="M132 0v326q-22 -16 -44.5 -24.5t-45.5 -6.5v65q19 0 46.5 17.5t50.5 42.5v0h63l-1 -420h-69z" />
    <glyph glyph-name="two.dnom" horiz-adv-x="361" 
d="M37 0v55q0 27 21.5 59t58.5 59l70 51q20 14 36 34.5t16 40.5q0 26 -18.5 44t-51.5 18q-30 0 -49 -17.5t-26 -39.5l-74 14q9 43 48.5 76t99.5 33q67 0 106.5 -35.5t39.5 -91.5q0 -38 -20.5 -67t-56.5 -57l-69 -50q-17 -13 -32 -29t-22 -32h205v-65h-282z" />
    <glyph glyph-name="three.dnom" horiz-adv-x="354" 
d="M181 -6q-54 0 -91 24t-48 60l65 22q11 -17 26.5 -30t42.5 -13q33 0 52.5 19t19.5 48q0 30 -24 48.5t-75 18.5h-22v61h22q91 0 91 57q0 23 -17.5 39.5t-47.5 16.5q-19 0 -37 -9.5t-29 -31.5l-64 22q14 39 51 60.5t82 21.5q57 0 96 -32t39 -80q0 -33 -18.5 -56.5
t-48.5 -37.5q34 -16 55 -43t21 -63q0 -38 -19.5 -65.5t-51.5 -42t-70 -14.5z" />
    <glyph glyph-name="four.dnom" horiz-adv-x="392" 
d="M225 0v88h-195v58l188 274v0v0h76v-269h77v-63h-77v-88h-69zM107 151h118v174z" />
    <glyph glyph-name="five.dnom" horiz-adv-x="368" 
d="M188 -6q-42 0 -85 20.5t-61 60.5l65 23q15 -21 35 -31t42 -10q34 0 56 21t22 54t-21 55t-55 22q-20 0 -37.5 -8.5t-26.5 -21.5l-65 15l24 227h233v-66h-170l-14 -112q16 10 36 16.5t43 6.5q53 -1 90 -37t37 -93q0 -63 -42 -102.5t-106 -39.5z" />
    <glyph glyph-name="six.dnom" horiz-adv-x="356" 
d="M187 -6q-57 0 -91 27t-49 72.5t-15 100.5q0 66 18.5 119t55.5 84t94 31q32 0 64 -9.5t57 -27.5l-37 -53q-19 14 -41.5 20t-39.5 6q-45 0 -72.5 -35t-31.5 -108q17 22 42 35t57 13q60 0 98.5 -40.5t38.5 -99.5t-40.5 -97t-107.5 -38zM188 56q32 0 53.5 21.5t21.5 54.5
t-21.5 55t-53.5 22q-34 0 -55.5 -21.5t-21.5 -55.5t21.5 -55t55.5 -21z" />
    <glyph glyph-name="seven.dnom" horiz-adv-x="341" 
d="M62 0l177 354h-210v66h291v-55l-178 -365h-80z" />
    <glyph glyph-name="eight.dnom" horiz-adv-x="390" 
d="M195 -6q-74 0 -115 32t-42 84q0 78 75 110q-60 29 -60 94q0 50 38 82t104 32t104 -32t38 -82q0 -64 -61 -94q75 -32 75 -110q0 -52 -41.5 -84t-114.5 -32zM195 247q31 0 51 16.5t20 43.5t-20 44.5t-51 17.5t-51 -17.5t-20 -44.5t20 -43.5t51 -16.5zM195 55q35 0 58.5 18
t23.5 46q0 30 -23 49t-59 19t-59 -19t-23 -49q0 -28 23 -46t59 -18z" />
    <glyph glyph-name="nine.dnom" horiz-adv-x="356" 
d="M170 428q57 0 90.5 -27t48.5 -72.5t15 -100.5q0 -66 -18 -119t-55.5 -84t-94.5 -31q-32 0 -63.5 9.5t-56.5 27.5l37 53q18 -14 40.5 -20t39.5 -6q45 0 72.5 34.5t31.5 107.5q-16 -22 -41.5 -34.5t-56.5 -12.5q-61 0 -99.5 40t-38.5 100q0 59 41 97t108 38zM169 366
q-33 0 -54.5 -21.5t-21.5 -54.5t22 -55t54 -22q33 0 54.5 22t21.5 55t-21.5 54.5t-54.5 21.5z" />
    <glyph glyph-name="zero.numr" horiz-adv-x="406" 
d="M204 273q-50 0 -89 27.5t-61 76.5t-22 113q0 65 22 113.5t60.5 76t88.5 27.5t88.5 -27.5t60.5 -76t22 -113.5q0 -64 -22 -113t-60 -76.5t-88 -27.5zM204 339q43 0 71 42t28 109t-28 109.5t-72 42.5q-43 0 -70 -42.5t-27 -109.5q0 -66 27.5 -108.5t70.5 -42.5z" />
    <glyph glyph-name="one.numr" horiz-adv-x="282" 
d="M132 280v326q-22 -16 -44.5 -24.5t-45.5 -6.5v65q19 0 46.5 17.5t50.5 42.5v0h63l-1 -420h-69z" />
    <glyph glyph-name="two.numr" horiz-adv-x="361" 
d="M37 280v55q0 27 21.5 59t58.5 59l70 51q20 14 36 34.5t16 40.5q0 26 -18.5 44t-51.5 18q-30 0 -49 -17.5t-26 -39.5l-74 14q9 43 48.5 76t99.5 33q67 0 106.5 -35.5t39.5 -91.5q0 -38 -20.5 -67t-56.5 -57l-69 -50q-17 -13 -32 -29t-22 -32h205v-65h-282z" />
    <glyph glyph-name="three.numr" horiz-adv-x="354" 
d="M181 273q-54 0 -91 24t-48 60l65 22q11 -17 26.5 -30t42.5 -13q33 0 52.5 19t19.5 48q0 30 -24 48.5t-75 18.5h-22v61h22q91 0 91 57q0 23 -17.5 39.5t-47.5 16.5q-19 0 -37 -9.5t-29 -31.5l-64 22q14 39 51 60.5t82 21.5q57 0 96 -32t39 -80q0 -33 -18.5 -56.5
t-48.5 -37.5q34 -16 55 -43t21 -63q0 -38 -19.5 -65.5t-51.5 -42t-70 -14.5z" />
    <glyph glyph-name="four.numr" horiz-adv-x="392" 
d="M225 280v88h-195v58l188 274v0v0h76v-269h77v-63h-77v-88h-69zM107 431h118v174z" />
    <glyph glyph-name="five.numr" horiz-adv-x="368" 
d="M188 273q-42 0 -85 20.5t-61 60.5l65 23q15 -21 35 -31t42 -10q34 0 56 21t22 54t-21 55t-55 22q-20 0 -37.5 -8.5t-26.5 -21.5l-65 15l24 227h233v-66h-170l-14 -112q16 10 36 16.5t43 6.5q53 -1 90 -37t37 -93q0 -63 -42 -102.5t-106 -39.5z" />
    <glyph glyph-name="six.numr" horiz-adv-x="356" 
d="M187 273q-57 0 -91 27t-49 72.5t-15 100.5q0 66 18.5 119t55.5 84t94 31q32 0 64 -9.5t57 -27.5l-37 -53q-19 14 -41.5 20t-39.5 6q-45 0 -72.5 -35t-31.5 -108q17 22 42 35t57 13q60 0 98.5 -40.5t38.5 -99.5t-40.5 -97t-107.5 -38zM188 335q32 0 53.5 21.5t21.5 54.5
t-21.5 55t-53.5 22q-34 0 -55.5 -21.5t-21.5 -55.5t21.5 -55t55.5 -21z" />
    <glyph glyph-name="seven.numr" horiz-adv-x="341" 
d="M62 280l177 354h-210v66h291v-55l-178 -365h-80z" />
    <glyph glyph-name="eight.numr" horiz-adv-x="390" 
d="M195 273q-74 0 -115 32t-42 84q0 78 75 110q-60 29 -60 94q0 50 38 82t104 32t104 -32t38 -82q0 -64 -61 -94q75 -32 75 -110q0 -52 -41.5 -84t-114.5 -32zM195 526q31 0 51 16.5t20 43.5t-20 44.5t-51 17.5t-51 -17.5t-20 -44.5t20 -43.5t51 -16.5zM195 334
q35 0 58.5 18t23.5 46q0 30 -23 49t-59 19t-59 -19t-23 -49q0 -28 23 -46t59 -18z" />
    <glyph glyph-name="nine.numr" horiz-adv-x="356" 
d="M170 707q57 0 90.5 -27t48.5 -72.5t15 -100.5q0 -66 -18 -119t-55.5 -84t-94.5 -31q-32 0 -63.5 9.5t-56.5 27.5l37 53q18 -14 40.5 -20t39.5 -6q45 0 72.5 34.5t31.5 107.5q-16 -22 -41.5 -34.5t-56.5 -12.5q-61 0 -99.5 40t-38.5 100q0 59 41 97t108 38zM169 645
q-33 0 -54.5 -21.5t-21.5 -54.5t22 -55t54 -22q33 0 54.5 22t21.5 55t-21.5 54.5t-54.5 21.5z" />
    <glyph glyph-name="periodcentered.loclCAT" horiz-adv-x="104" 
d="M52 259q-23 0 -39.5 16.5t-16.5 38.5q0 23 16.5 39.5t39.5 16.5q22 0 38.5 -16.5t16.5 -39.5q0 -22 -16.5 -38.5t-38.5 -16.5z" />
    <glyph glyph-name="periodcentered.loclCAT.case" horiz-adv-x="46" 
d="M-28 302q-23 0 -39.5 16.5t-16.5 38.5q0 23 16.5 39.5t39.5 16.5q22 0 38.5 -16.5t16.5 -39.5q0 -22 -16.5 -38.5t-38.5 -16.5z" />
    <glyph glyph-name="uni030C.alt" horiz-adv-x="0" 
d="M22 531l49 168h85l-66 -168h-68z" />
    <glyph glyph-name="uni0328.alt" horiz-adv-x="0" 
d="M144 -212q-58 0 -92.5 23.5t-34.5 67.5q0 48 33 88.5t88 70.5h18q-38 -34 -53 -69t-15 -68q0 -22 13 -35t36 -13q35 0 62 11l24 -57q-35 -19 -79 -19z" />
    <glyph glyph-name="Bowl" horiz-adv-x="583" 
d="M265 -12q-67 0 -117.5 33t-79.5 92.5t-29 136.5q0 78 29 137t79.5 92t117.5 33q64 0 111 -33t73.5 -92t26.5 -137q0 -77 -26.5 -136.5t-73.5 -92.5t-111 -33zM283 61q45 0 79 24t53 67t19 98q0 56 -19 98.5t-53.5 66.5t-79.5 24q-47 0 -83.5 -24t-57 -66.5t-20.5 -98.5
q0 -55 21 -98t57.5 -67t83.5 -24z" />
    <glyph glyph-name="arch" horiz-adv-x="389" 
d="M309 256q0 74 -17.5 113t-47.5 53.5t-68 14.5q-65 0 -101.5 -47t-36.5 -131h-39q0 119 51 186t144 67q90 0 143 -56t52 -170z" />
    <glyph glyph-name="dollar.BRACKET.550" horiz-adv-x="564" 
d="M256 -103v128q-88 8 -138.5 48.5t-66.5 90.5l74 26q15 -38 55 -66t98 -29q71 0 111.5 28t40.5 74q0 43 -36.5 70t-94.5 42l-69 17q-65 17 -109.5 57.5t-45.5 111.5q0 78 46.5 125t134.5 55v105h73v-105q75 -9 120.5 -49.5t61.5 -86.5l-75 -27q-17 42 -56.5 67.5
t-95.5 25.5q-58 0 -92.5 -28.5t-34.5 -75.5q0 -44 26.5 -66.5t70.5 -33.5l70 -16q90 -22 139 -73t49 -109q0 -69 -46.5 -119t-136.5 -59v-128h-73z" />
    </font>
</defs>
</svg>
