<svg width="126" height="26" viewBox="0 0 126 26" fill="none" xmlns="http://www.w3.org/2000/svg">
<mask id="mask0_5_7" style="mask-type:alpha" maskUnits="userSpaceOnUse" x="0" y="0" width="126" height="26">
<g clip-path="url(#clip0_5_7)">
<path fill-rule="evenodd" clip-rule="evenodd" d="M4.738 16.966L4.739 19.339V19.929C4.741 22.117 4.743 24.599 4.738 25.183C4.738 25.718 4.477 25.976 3.947 25.985C2.895 25.994 1.834 25.994 0.782 25.985C0.242 25.985 0 25.727 0 25.183V0.771963C0 0.245963 0.233 0.0159633 0.763 0.0159633C1.67 0.0159633 2.577 0.0119633 3.483 0.00796326H3.486C5.65 -0.00203674 7.814 -0.0120367 9.978 0.0339633C14.398 0.126963 17.685 3.37796 17.88 7.75396C17.982 10.084 17.536 12.25 16.01 14.092C14.464 15.962 12.407 16.865 9.997 16.957C8.669 17.012 5.967 16.98 5.043 16.969L4.738 16.966V16.966ZM4.756 13.088L6.213 13.086C7.163 13.084 8.098 13.082 9.038 13.088C10.238 13.098 11.216 12.636 11.96 11.725C13.114 10.315 13.412 8.69496 12.947 6.96196C12.417 4.98996 10.909 3.88496 8.861 3.88496H4.766C4.756 6.97096 4.756 10.002 4.756 13.088ZM34.044 25.128C34.286 25.718 34.668 26.049 35.356 25.994C35.785 25.957 37.59 25.985 38.056 25.994C38.931 25.994 39.21 25.579 38.847 24.787C35.165 16.751 31.485 8.71196 27.808 0.669963C27.604 0.218963 27.324 0.0529633 26.84 0.0619633C26.375 0.0719633 26.17 0.328963 25.993 0.706963C24.0994 4.80808 22.2034 8.90808 20.305 13.007L20.088 13.477L20.075 13.505L19.741 14.228C17.419 19.246 15.321 23.78 14.842 24.825C14.498 25.561 14.787 25.985 15.596 25.985H18.296C19.106 25.985 19.366 25.819 19.673 25.082L19.938 24.456L20.085 24.108C20.462 23.22 20.838 22.332 21.2 21.434C21.33 21.112 21.488 20.974 21.87 20.974C25.09 20.992 28.3 20.983 31.52 20.974H31.83C32.173 20.974 32.35 21.056 32.48 21.388C32.823 22.242 33.183 23.092 33.543 23.941L33.553 23.963L33.58 24.028L33.605 24.087L34.045 25.127L34.044 25.128ZM23.21 17.058H30.489C29.2589 14.3857 28.0332 11.7113 26.812 9.03496C25.6052 11.7065 24.4045 14.3809 23.21 17.058V17.058ZM52.555 0.614963C50.6745 3.38163 48.7851 6.14231 46.887 8.89696C46.829 8.81696 46.15 7.82796 45.245 6.51196C43.8871 4.53503 42.5265 2.56003 41.163 0.586963C41.014 0.374963 40.735 0.107963 40.503 0.0989633C39.2309 0.0511111 37.9575 0.0447744 36.685 0.0799633C36.173 0.0899633 35.913 0.577963 36.117 1.04696C36.159 1.15396 38.434 4.54196 40.741 7.97696L40.75 7.98996C42.022 9.88396 43.304 11.792 44.224 13.17C44.374 13.398 44.454 13.664 44.457 13.935C44.463 17.648 44.466 21.361 44.466 25.073C44.466 25.755 44.689 25.985 45.378 25.985H48.217C48.999 25.985 49.213 25.773 49.213 25.008C49.216 21.375 49.213 17.74 49.204 14.101C49.1932 13.7061 49.3108 13.3184 49.539 12.996C52.1945 9.1244 54.8445 5.24907 57.489 1.36996C57.694 1.07496 57.861 0.789963 57.675 0.429963C57.489 0.0619633 57.135 0.0619633 56.791 0.0619633H56.288L55.882 0.0649633C55.13 0.0689633 54.376 0.0719633 53.626 0.0529633C53.142 0.0429633 52.826 0.209963 52.556 0.614963H52.555ZM126 21.83C125.979 24.13 124.086 25.982 121.765 25.972C119.444 25.962 117.568 24.094 117.567 21.793C117.582 20.6849 118.033 19.6274 118.822 18.8497C119.612 18.0721 120.676 17.637 121.784 17.639C122.338 17.6366 122.887 17.7434 123.4 17.9535C123.913 18.1635 124.38 18.4725 124.773 18.863C125.164 19.2511 125.475 19.7135 125.685 20.2229C125.896 20.7323 126.003 21.2787 126 21.83V21.83ZM125.488 21.867C125.422 23.912 123.766 25.507 121.727 25.469C121.239 25.4629 120.757 25.3605 120.309 25.1676C119.861 24.9747 119.455 24.6951 119.115 24.345C118.777 23.9965 118.512 23.5838 118.336 23.1312C118.159 22.6787 118.075 22.1954 118.089 21.71C118.126 19.711 119.82 18.118 121.886 18.155C123.887 18.191 125.544 19.895 125.488 21.867V21.867ZM122.472 22.162L122.872 22.729C123.112 23.067 123.346 23.399 123.58 23.737C123.161 23.903 122.928 23.774 122.761 23.452C122.697 23.3322 122.624 23.2176 122.542 23.109C122.479 23.019 122.415 22.929 122.361 22.834C122.035 22.281 121.57 22.098 120.899 22.264V23.774C120.744 23.7815 120.589 23.7938 120.434 23.811V20.246C120.635 20.246 120.835 20.243 121.033 20.241C121.488 20.2295 121.943 20.2342 122.397 20.255C122.937 20.283 123.235 20.605 123.291 21.085C123.348 21.555 123.115 21.913 122.612 22.106C122.568 22.1311 122.521 22.1499 122.472 22.162V22.162ZM121.324 21.769C121.185 21.7671 121.047 21.7661 120.908 21.766V20.633C121.043 20.633 121.177 20.631 121.309 20.63C121.633 20.626 121.948 20.622 122.258 20.642C122.594 20.669 122.817 20.872 122.808 21.213C122.798 21.527 122.612 21.738 122.286 21.757C121.97 21.777 121.654 21.773 121.324 21.769V21.769Z" fill="white"/>
<path fill-rule="evenodd" clip-rule="evenodd" d="M110.62 15.613C110.75 15.862 110.862 16.083 110.974 16.296C112.464 19.076 113.954 21.86 115.444 24.646C115.537 24.79 115.609 24.946 115.657 25.109C115.769 25.534 115.517 25.904 115.08 25.913C113.777 25.931 112.473 25.922 111.17 25.922C110.779 25.922 110.658 25.626 110.528 25.349C109.066 22.365 107.595 19.381 106.152 16.389C105.975 16.019 105.77 15.862 105.342 15.871C104.349 15.8987 103.355 15.8987 102.362 15.871C101.953 15.861 101.832 16.001 101.832 16.407C101.842 19.243 101.842 22.07 101.842 24.906C101.842 25.792 101.711 25.922 100.827 25.922H98.127C97.41 25.922 97.215 25.737 97.215 25.026V0.868977C97.215 0.230977 97.429 0.00897656 98.071 0.00897656C101.47 0.00897656 104.867 -0.00902344 108.265 0.00897656C112.063 0.0289766 115.163 2.49498 115.834 6.12498C116.551 9.98698 114.94 13.552 111.16 15.354C110.976 15.4327 110.796 15.5191 110.62 15.613V15.613ZM101.916 12.112C102.121 12.112 105.956 12.102 107.725 12.112C108.412 12.116 109.08 11.8916 109.625 11.474C111.021 10.439 111.673 8.46198 111.188 6.71698C110.676 4.85998 109.318 3.82498 107.39 3.82498H101.916V12.112V12.112ZM64.701 3.82498V11.095H73.396C74.132 11.095 74.346 11.308 74.346 12.019V14.051C74.346 14.689 74.123 14.911 73.48 14.911H64.71V22.181H75.147C75.947 22.181 76.124 22.356 76.124 23.151V25.091C76.124 25.783 75.91 25.996 75.212 25.996C70.808 25.996 61.182 26.006 60.782 25.996C60.322 25.988 60.086 25.813 60.019 25.43C60.009 25.371 60 9.03498 60 1.08998C60 0.167977 60.158 0.0199766 61.07 0.0199766H75.072C75.957 0.0199766 76.115 0.176976 76.115 1.07298V2.91998C76.115 3.63998 75.919 3.83398 75.175 3.83398C71.888 3.82398 64.943 3.82398 64.701 3.82398V3.82498ZM78.701 12.979V0.924977C78.701 0.167977 78.869 0.000976563 79.623 0.000976563H93.867C94.593 0.000976563 94.779 0.186977 94.779 0.888977V2.96698C94.779 3.62298 94.593 3.81698 93.922 3.81698H84.007C83.328 3.81698 83.328 3.81698 83.328 4.48198C83.328 6.51398 83.338 8.54598 83.318 10.579C83.318 10.985 83.44 11.096 83.85 11.096C86.53 11.078 89.221 11.086 91.902 11.086C92.88 11.086 93.01 11.216 93.01 12.158V14.098C93.01 14.681 92.796 14.902 92.191 14.902C90.776 14.912 85.199 14.912 83.812 14.902C83.468 14.902 83.319 14.967 83.319 15.355C83.337 17.48 83.337 19.605 83.319 21.729C83.319 22.107 83.459 22.181 83.812 22.181C87.136 22.173 90.45 22.173 93.774 22.173C94.649 22.173 94.779 22.302 94.779 23.189V25.129C94.779 25.784 94.583 25.988 93.931 25.988H79.688C78.859 25.988 78.711 25.84 78.711 25.027C78.701 21.017 78.698 17.002 78.701 12.981V12.979Z" fill="white"/>
</g>
</mask>
<g mask="url(#mask0_5_7)">
<rect width="126" height="26" fill="black"/>
</g>
<defs>
<clipPath id="clip0_5_7">
<rect width="126" height="26" fill="white"/>
</clipPath>
</defs>
</svg>
