<?xml version="1.0" encoding="utf-8"?>
<!-- Generator: Adobe Illustrator 19.0.1, SVG Export Plug-In . SVG Version: 6.00 Build 0)  -->
<svg version="1.1"
	 id="svg2" xmlns:svg="http://www.w3.org/2000/svg" xmlns:dc="http://purl.org/dc/elements/1.1/" xmlns:rdf="http://www.w3.org/1999/02/22-rdf-syntax-ns#" xmlns:cc="http://creativecommons.org/ns#"
	 xmlns="http://www.w3.org/2000/svg" xmlns:xlink="http://www.w3.org/1999/xlink" x="0px" y="0px" viewBox="-205 188.4 410 224"
	 style="enable-background:new -205 188.4 410 224;" xml:space="preserve">
<style type="text/css">
	.st0{fill:none;}
	.st1{fill:#862165;}
</style>
<g>
	<path class="st0" d="M1.3,369.2c-2,0-3.7,1.2-5.3,3v12.3c1.3,0.4,2,0.6,3.5,0.6c3.7,0,6.4-2.3,6.4-8.4C5.9,371.4,4,369.2,1.3,369.2
		z"/>
	<path class="st0" d="M67.5,368.5c-3.7,0-5.6,3.2-5.6,8.3c0,5,2,8.4,5.6,8.4c3.7,0,5.7-3.4,5.7-8.4
		C73.2,371.8,71.2,368.5,67.5,368.5z"/>
	<path class="st0" d="M131.1,366.8c-2.7,0-4.6,2.3-4.9,7.1h9.8C135.6,369.2,134,366.8,131.1,366.8z"/>
	<path class="st0" d="M-131.1,368.5c-3.7,0-5.6,3.2-5.6,8.3c0,5,2,8.4,5.6,8.4c3.7,0,5.7-3.4,5.7-8.4
		C-125.4,371.8-127.4,368.5-131.1,368.5z"/>
	<path class="st0" d="M34.1,368.5c-3.7,0-5.6,3.2-5.6,8.3c0,5,2,8.4,5.6,8.4c3.7,0,5.7-3.4,5.7-8.4
		C39.8,371.8,37.8,368.5,34.1,368.5z"/>
	<path class="st0" d="M-64.2,366.8c-2.7,0-4.6,2.3-4.9,7.1h9.8C-59.6,369.2-61.3,366.8-64.2,366.8z"/>
	<polygon class="st1" points="115.5,330.4 148.3,330.4 148.3,204.4 115.5,210.3 	"/>
	<path class="st1" d="M-151.1,283c3.6,0.2,13.1,0.8,13.1,9.7c0,7.4-7.8,11.7-20.9,11.7c-14.4,0-28.3-3.7-36.8-7.1v29.4
		c12.7,3.3,27,5,43.8,5c36.2,0,52.4-20.4,52.4-40.6c0-22.9-18.1-37.8-48.5-39.8c-4.1-0.3-13.8-0.9-13.8-9.5
		c0-10.4,13.8-10.4,19-10.4c9.1,0,20.9,2.7,29.4,5.2c0,0,4.7,1.7,8.7,3.4l0.4,0.1v-0.4v-28.2l-0.5-0.2c-10-3.5-21.5-6.8-43-6.8
		c-37,0-50.1,21.6-50.1,40C-198,255.1-193.4,280.1-151.1,283z"/>
	<path class="st1" d="M-57.4,293.5c9.8,14.7,14.7,36.9,14.7,36.9h40.6c-4-16.7-21.6-47.4-21.6-47.4C-8,262.9-1.1,241.7,0,238.1
		c0,0-38.7,0-38.7,0c-0.7,1.8-6,16.7-18.7,32.1v-65.8l-33.9,6.7v119.2h33.9V293.5z"/>
	<rect x="68.8" y="238.2" class="st1" width="32.8" height="92.1"/>
	<path class="st1" d="M85.2,229.4c8.9,0,16.2-7.2,16.2-16.2c0-8.9-7.2-16.2-16.2-16.2c-8.9,0-16.2,7.2-16.2,16.2
		C69,222.2,76.3,229.4,85.2,229.4z"/>
	<polygon class="st1" points="196.2,204.4 163.4,210.3 163.4,330.4 196.2,330.4 	"/>
	<path class="st1" d="M37.6,288.1c0-16.2,2.1-23.1,21.3-23.8v-26.9c-3.2-0.7-8.7-0.5-8.7-0.5c-30.3,1-45.7,14.6-45.7,41.6v51.8h33.1
		V288.1z"/>
	<path d="M-159.6,360.6c-3.9,0-6.9,2.1-9.7,4.9c-1.1-2.8-3.5-4.9-7.7-4.9c-4,0-6.8,2-9.6,4.9l-0.7-4.2h-8.4v31h9.6v-20.5
		c1.7-1.6,3.3-2.7,5.1-2.7c2.2,0,3,1.5,3,3.7v19.4h9.6v-20.5c1.7-1.6,3.4-2.7,5.1-2.7c2.2,0,3,1.5,3,3.7v19.4h9.6v-22
		C-150.8,364.2-153.9,360.6-159.6,360.6z"/>
	<path d="M-131.1,360.6c-8.5,0-14.9,6.3-14.9,16.2c0,9.9,6.3,16.1,14.8,16.1c8.6,0,15-6.2,15-16.2
		C-116.1,366.8-122.4,360.6-131.1,360.6z M-131.1,385.2c-3.6,0-5.6-3.4-5.6-8.4c0-5.1,2-8.3,5.6-8.3c3.7,0,5.7,3.4,5.7,8.4
		C-125.4,381.8-127.4,385.2-131.1,385.2z"/>
	<path d="M-92.2,360.6c-3.9,0-6.9,2.2-9.7,4.9l-0.7-4.2h-8.4v31h9.6v-20.4c1.7-1.7,3.4-2.8,5.3-2.8c2.3,0,3.2,1.5,3.2,3.7v19.4h9.6
		v-22C-83.4,364.2-86.5,360.6-92.2,360.6z"/>
	<path d="M-50.2,376.7c0-9-4.2-16.1-13.7-16.1c-8.4,0-14.6,6.1-14.6,16.3c0,11.1,6.7,16,16,16c4.9,0,9-1.3,12.4-3.5l-0.9-6.7
		c-3.4,2-6.8,3.2-10.2,3.2c-4.2,0-7.1-1.9-7.6-6.8h18.6C-50.2,378.7-50.2,377.7-50.2,376.7z M-69.1,373.9c0.3-4.7,2.2-7.1,4.9-7.1
		c2.9,0,4.6,2.4,4.9,7.1H-69.1z"/>
	<path d="M-32.3,380.4l-6-19.6l-10.3,1.2l11.3,30.3l-0.4,0.9c-1,2.2-2.9,3-5.1,3c-1.8,0-2.8-0.2-3.8-0.5l1.2,7.7
		c0.9,0.2,1.7,0.4,3.6,0.4c6.8,0,10.6-2.8,13.4-10.9l11-31.7h-9.2L-32.3,380.4z"/>
	<path d="M4.3,360.6c-3.7,0-6.3,2-8.3,4.1v-18.1l-9.6,1.5v42.4c3.6,1.4,8.3,2.2,13.3,2.2c9.6,0,15.7-5.2,15.7-16.7
		C15.5,365.4,10.7,360.6,4.3,360.6z M-0.5,385c-1.5,0-2.2-0.2-3.5-0.6v-12.3c1.6-1.8,3.2-3,5.3-3c2.7,0,4.6,2.2,4.6,7.4
		C5.9,382.7,3.3,385-0.5,385z"/>
	<path d="M34.1,360.6c-8.5,0-14.9,6.3-14.9,16.2c0,9.9,6.3,16.1,14.8,16.1c8.6,0,15-6.2,15-16.2C49,366.8,42.7,360.6,34.1,360.6z
		 M34.1,385.2c-3.6,0-5.6-3.4-5.6-8.4c0-5.1,2-8.3,5.6-8.3c3.7,0,5.7,3.4,5.7,8.4C39.8,381.8,37.8,385.2,34.1,385.2z"/>
	<path d="M67.5,360.6c-8.6,0-14.9,6.3-14.9,16.2c0,9.9,6.3,16.1,14.8,16.1c8.6,0,15-6.2,15-16.2C82.4,366.8,76.1,360.6,67.5,360.6z
		 M67.5,385.2c-3.6,0-5.6-3.4-5.6-8.4c0-5.1,2-8.3,5.6-8.3c3.7,0,5.7,3.4,5.7,8.4C73.2,381.8,71.2,385.2,67.5,385.2z"/>
	<polygon points="115.6,361.3 105.3,361.3 97,374 97,346.6 87.5,348.1 87.5,392.3 97,392.3 97,377.9 106,392.7 116,391.3 
		105.9,375.4 	"/>
	<path d="M144.9,379.2c0.1-0.5,0.2-1.5,0.2-2.5c0-9-4.2-16.1-13.8-16.1c-8.4,0-14.6,6.1-14.6,16.3c0,11.1,6.7,16,16,16
		c4.9,0,9-1.3,12.3-3.5l-0.9-6.7c-3.4,2-6.8,3.2-10.2,3.2c-4.2,0-7.1-1.9-7.6-6.8H144.9L144.9,379.2z M126.2,373.9
		c0.3-4.7,2.2-7.1,4.9-7.1c2.9,0,4.6,2.4,4.9,7.1H126.2z"/>
	<path d="M159.6,367.4l-1-6.1h-8.4v31h9.6v-17.2c2.3-2.5,5.8-4.4,10.5-4.7l-1.6-9.8C164.1,360.9,161.5,363.9,159.6,367.4z"/>
	<path d="M186.9,372.7c-4.4-1.2-5.3-1.9-5.3-3.2c0-1.2,1-2,3.3-2c3,0,6.8,1.1,10.2,2.9l1.2-7.3c-3.2-1.5-7.3-2.3-11.5-2.3
		c-7.6,0-11.9,3.9-11.9,9.6c0,5.8,3.3,7.9,11.1,9.9c4.4,1.1,5.3,1.8,5.3,3.4c0,1.5-1.3,2.3-3.9,2.3c-3.6,0-8-1.4-11.7-3.7l-1.1,7.3
		c3.2,1.7,7.9,3.1,12.8,3.1c8.2,0,12.7-3.6,12.7-10.1C198,377,195.1,374.9,186.9,372.7z"/>
</g>
</svg>
